<?xml version="1.0" encoding="UTF-8"?>
<svg xmlns="http://www.w3.org/2000/svg" xmlns:xlink="http://www.w3.org/1999/xlink" width="2592" height="2927" viewBox="0 0 2592 2927">
<path fill-rule="nonzero" fill="rgb(0%, 0%, 0%)" fill-opacity="1" d="M 1156.789062 10.519531 C 1111.828125 24.300781 1046.570312 85.210938 1013.21875 143.21875 L 987.839844 187.441406 L 926.203125 205.570312 C 804.386719 242.558594 678.222656 297.660156 593.386719 352.050781 C 572.355469 365.820312 554.226562 375.96875 552.78125 374.519531 C 552.054688 373.070312 546.980469 364.371094 541.902344 354.21875 C 531.023438 333.191406 468.667969 238.199219 465.042969 238.199219 C 464.316406 238.199219 475.917969 265.03125 491.144531 297.660156 C 528.125 377.421875 530.300781 389.75 512.898438 412.230469 L 499.121094 430.359375 L 475.917969 401.351562 C 441.839844 359.289062 367.878906 288.238281 316.394531 248.359375 C 273.617188 215.730469 274.34375 217.179688 338.152344 280.261719 C 403.40625 346.25 462.140625 425.28125 462.140625 448.480469 C 462.140625 455.011719 458.515625 463.710938 453.441406 468.78125 C 446.914062 475.308594 439.664062 470.230469 420.808594 449.210938 C 407.761719 433.261719 379.480469 408.601562 359.179688 393.371094 L 320.75 366.550781 L 362.800781 412.230469 C 427.335938 481.839844 428.0625 485.460938 386.003906 528.238281 L 351.199219 563.769531 L 329.449219 545.640625 C 317.847656 535.488281 294.644531 520.988281 277.96875 513.019531 C 262.015625 505.769531 254.039062 502.871094 262.015625 507.941406 C 303.347656 536.21875 338.875 565.949219 338.875 572.480469 C 338.875 576.820312 322.195312 610.179688 302.621094 647.160156 C 270.714844 706.621094 262.742188 716.039062 242.4375 720.390625 C 219.960938 725.46875 219.960938 725.46875 237.363281 730.539062 C 254.765625 735.621094 254.039062 735.621094 226.484375 753.019531 C 210.535156 762.449219 196.03125 771.148438 195.304688 771.871094 C 187.332031 776.949219 206.179688 810.308594 230.109375 833.511719 L 257.664062 861.058594 L 257.664062 1079.320312 L 233.738281 1118.46875 C 221.410156 1139.5 164.851562 1214.910156 108.292969 1284.519531 C -8.449219 1430.269531 -12.796875 1440.410156 12.582031 1505.679688 C 22.007812 1528.148438 28.535156 1555.710938 28.535156 1566.578125 C 27.808594 1578.179688 27.082031 1607.910156 26.355469 1633.289062 C 24.183594 1676.070312 26.355469 1684.050781 52.460938 1725.378906 C 74.214844 1760.910156 82.191406 1784.109375 90.164062 1831.25 C 100.320312 1895.058594 113.367188 1926.230469 156.152344 1990.765625 C 172.101562 2015.417969 181.53125 2037.171875 180.804688 2051.675781 C 180.078125 2073.425781 180.804688 2073.425781 193.855469 2061.824219 C 207.632812 2049.496094 208.359375 2050.222656 215.609375 2068.351562 C 219.234375 2079.226562 222.859375 2108.230469 223.582031 2132.886719 L 223.582031 2177.839844 L 251.140625 2112.582031 L 251.863281 2148.835938 L 252.585938 2185.09375 L 267.089844 2164.789062 L 282.316406 2144.488281 L 299.71875 2168.414062 C 314.222656 2187.265625 317.121094 2200.316406 317.121094 2238.746094 L 317.121094 2286.605469 L 342.5 2257.601562 C 366.429688 2230.046875 368.601562 2229.320312 378.03125 2241.648438 C 383.832031 2249.625 391.082031 2269.203125 393.984375 2285.152344 C 399.058594 2314.882812 399.058594 2315.609375 405.585938 2295.308594 C 412.109375 2276.453125 425.886719 2267.75 425.886719 2282.980469 C 425.886719 2286.605469 430.238281 2288.054688 436.039062 2285.878906 C 443.289062 2282.980469 447.640625 2290.953125 451.992188 2313.433594 L 457.066406 2344.613281 L 463.59375 2319.957031 C 469.394531 2298.207031 471.570312 2296.753906 480.996094 2306.183594 C 487.519531 2311.984375 496.21875 2329.386719 502.019531 2345.335938 L 511.449219 2372.890625 L 520.875 2342.4375 C 526.675781 2321.410156 531.75 2314.15625 536.101562 2320.683594 C 539.726562 2327.210938 541.902344 2325.757812 541.902344 2315.609375 C 541.902344 2304.007812 544.804688 2305.457031 555.679688 2323.585938 C 562.929688 2335.914062 570.90625 2352.589844 572.355469 2359.839844 C 574.53125 2369.265625 578.882812 2362.738281 584.683594 2340.988281 C 602.085938 2275.726562 601.359375 2276.453125 634.714844 2319.957031 C 651.394531 2341.714844 669.519531 2365.640625 675.320312 2372.890625 C 684.023438 2385.941406 684.746094 2380.867188 681.84375 2336.636719 C 676.042969 2263.402344 692.722656 2237.300781 725.351562 2267.027344 C 739.851562 2279.351562 739.851562 2278.628906 735.503906 2244.546875 C 729.703125 2202.496094 741.304688 2204.667969 748.554688 2246.722656 C 751.453125 2262.675781 756.53125 2277.90625 760.15625 2280.078125 C 763.78125 2282.253906 765.957031 2281.527344 765.234375 2277.90625 C 764.507812 2275.003906 765.957031 2256.148438 769.582031 2237.300781 L 774.65625 2202.496094 L 793.511719 2230.046875 C 803.660156 2245.273438 812.363281 2258.324219 813.089844 2259.050781 C 813.816406 2259.777344 814.539062 2243.824219 813.816406 2223.519531 C 813.816406 2181.464844 824.691406 2172.039062 839.917969 2201.042969 L 850.066406 2221.34375 L 854.421875 2158.988281 L 887.050781 2193.792969 C 916.054688 2224.972656 918.230469 2226.421875 908.074219 2205.394531 C 893.574219 2174.214844 894.300781 2147.386719 911.703125 2125.632812 L 926.203125 2106.78125 L 921.855469 2131.433594 L 917.503906 2156.089844 L 931.277344 2134.332031 C 959.558594 2090.828125 1036.421875 2036.445312 1069.769531 2036.445312 C 1103.859375 2036.445312 1204.640625 2122.007812 1245.25 2185.816406 C 1257.570312 2205.394531 1274.25 2243.824219 1282.949219 2271.378906 C 1296 2314.15625 1297.449219 2333.011719 1293.828125 2412.769531 C 1291.648438 2476.578125 1285.851562 2517.910156 1275.699219 2551.265625 C 1267 2576.644531 1261.199219 2598.394531 1261.921875 2599.121094 C 1262.648438 2599.847656 1303.980469 2564.316406 1354.011719 2520.085938 C 1443.199219 2440.328125 1443.929688 2439.601562 1423.621094 2475.132812 C 1380.839844 2549.089844 1305.429688 2633.199219 1223.5 2699.183594 L 1198.109375 2719.488281 L 1219.140625 2714.410156 C 1313.410156 2693.382812 1565.738281 2524.4375 1669.429688 2412.046875 C 1715.839844 2362.015625 1760.070312 2296.753906 1760.070312 2277.90625 C 1760.070312 2268.476562 1615.050781 2314.882812 1565.019531 2340.988281 L 1533.109375 2356.9375 L 1538.191406 2322.859375 C 1540.359375 2304.007812 1542.539062 2251.800781 1542.539062 2207.570312 C 1543.261719 2129.257812 1543.261719 2127.808594 1554.859375 2148.835938 C 1586.039062 2206.84375 1619.398438 2232.222656 1664.359375 2232.222656 C 1704.230469 2232.222656 1744.839844 2211.195312 1770.941406 2177.113281 C 1797.769531 2141.585938 1829.679688 2058.199219 1839.828125 1997.289062 C 1847.078125 1951.609375 1846.359375 1945.082031 1830.398438 1911 C 1820.980469 1889.980469 1796.320312 1854.449219 1775.289062 1831.25 C 1754.269531 1808.769531 1739.039062 1789.910156 1741.21875 1789.910156 C 1753.539062 1789.910156 1816.628906 1856.621094 1855.058594 1910.28125 C 1878.980469 1943.632812 1904.359375 1972.636719 1912.339844 1974.8125 C 1935.539062 1982.066406 1954.390625 1971.910156 1962.371094 1947.984375 C 1971.070312 1924.78125 1969.621094 1919.699219 1945.691406 1891.429688 L 1930.46875 1873.300781 L 1951.488281 1891.429688 C 1963.089844 1901.578125 1981.941406 1924.058594 1992.820312 1941.460938 C 2004.421875 1959.585938 2013.851562 1971.1875 2013.851562 1968.285156 C 2013.851562 1955.234375 1974.691406 1897.230469 1950.039062 1875.46875 C 1902.910156 1832.691406 1705.679688 1760.179688 1559.941406 1731.910156 C 1523.679688 1725.378906 1485.25 1713.78125 1476.550781 1707.25 C 1455.53125 1692.75 1460.601562 1692.75 1536.011719 1706.53125 C 1665.808594 1730.449219 1891.308594 1816.019531 1950.039062 1862.421875 L 1976.871094 1884.179688 L 1987.75 1868.21875 C 2021.820312 1816.019531 2070.410156 1599.210938 2072.589844 1488.269531 L 2073.308594 1452.738281 L 2080.558594 1478.121094 C 2084.910156 1491.898438 2087.808594 1558.609375 2088.539062 1626.769531 C 2088.539062 1760.910156 2078.390625 1829.789062 2045.75 1908.828125 C 2036.328125 1932.757812 2029.808594 1953.0625 2031.25 1955.234375 C 2033.429688 1956.683594 2045.03125 1937.832031 2057.359375 1912.460938 C 2085.628906 1857.351562 2111.019531 1760.910156 2123.339844 1663.019531 C 2134.21875 1573.109375 2134.21875 1406.339844 2122.621094 1351.230469 L 2113.910156 1309.179688 L 2161.039062 1261.320312 C 2245.878906 1174.308594 2298.089844 1085.121094 2343.050781 949.53125 L 2374.230469 853.808594 L 2411.199219 939.371094 C 2457.609375 1048.140625 2481.539062 1126.449219 2496.039062 1211.289062 C 2505.46875 1268.570312 2521.421875 1420.109375 2517.789062 1425.191406 C 2517.789062 1425.910156 2496.769531 1399.089844 2471.390625 1365 C 2446.011719 1330.929688 2424.261719 1304.820312 2422.808594 1306.269531 C 2420.628906 1308.449219 2430.78125 1329.480469 2444.558594 1353.398438 C 2478.640625 1410.691406 2492.410156 1465.800781 2496.769531 1554.25 L 2499.671875 1626.769531 L 2482.269531 1572.378906 C 2463.410156 1513.648438 2443.109375 1457.820312 2442.378906 1463.621094 C 2441.660156 1465.800781 2446.730469 1494.800781 2452.539062 1528.878906 C 2464.140625 1593.410156 2467.039062 1743.511719 2458.339844 1829.789062 L 2453.261719 1880.550781 L 2441.660156 1797.160156 C 2435.128906 1751.480469 2423.53125 1694.199219 2416.28125 1670.269531 L 2403.230469 1626.769531 L 2394.53125 1677.519531 C 2368.429688 1823.988281 2250.960938 2062.550781 2148 2177.839844 L 2121.890625 2206.84375 L 2146.539062 2156.089844 C 2160.320312 2127.808594 2180.628906 2078.5 2191.5 2045.148438 C 2209.628906 1989.3125 2210.351562 1982.789062 2200.929688 1958.136719 C 2188.601562 1925.5 2161.039062 1909.558594 2134.21875 1920.429688 C 2116.089844 1926.960938 2079.109375 1987.867188 2079.109375 2010.34375 C 2079.109375 2030.644531 2067.511719 2028.472656 2042.128906 2003.816406 L 2016.019531 1979.886719 L 1974.691406 2011.792969 C 1952.21875 2029.917969 1928.289062 2056.023438 1921.769531 2069.800781 C 1910.890625 2092.28125 1910.160156 2098.082031 1919.589844 2125.632812 C 1928.289062 2149.5625 1935.539062 2157.535156 1952.941406 2162.613281 L 1975.421875 2169.136719 L 1934.089844 2201.042969 C 1880.429688 2240.921875 1867.378906 2256.148438 1726.710938 2435.25 C 1566.460938 2639 1461.328125 2736.890625 1314.128906 2818.101562 C 1275.699219 2839.128906 1273.519531 2841.304688 1296 2837.679688 C 1335.890625 2829.703125 1439.570312 2786.195312 1502.660156 2749.941406 C 1623.75 2680.332031 1799.21875 2544.015625 1865.199219 2469.332031 L 1898.558594 2431.625 L 1879.710938 2482.378906 C 1855.058594 2549.089844 1818.070312 2615.074219 1770.941406 2677.433594 C 1725.980469 2736.890625 1615.769531 2846.382812 1555.589844 2891.335938 C 1532.390625 2908.738281 1513.539062 2923.964844 1513.539062 2926.140625 C 1513.539062 2927.59375 1541.808594 2914.539062 1577.339844 2896.410156 C 1745.570312 2808.675781 1909.441406 2643.355469 2028.351562 2440.328125 C 2052.28125 2399.722656 2074.761719 2361.289062 2078.390625 2355.488281 C 2088.539062 2338.8125 2066.789062 2446.851562 2049.378906 2500.507812 C 2040.679688 2526.613281 2022.550781 2570.117188 2008.78125 2596.949219 C 1978.320312 2658.578125 1986.300781 2654.230469 2041.410156 2581.71875 C 2105.941406 2496.15625 2163.949219 2393.195312 2213.25 2275.726562 C 2224.128906 2249.625 2258.929688 2184.367188 2291.558594 2130.707031 C 2323.46875 2077.050781 2358.269531 2013.242188 2369.148438 1989.3125 L 2388.730469 1945.808594 L 2385.828125 1996.566406 C 2380.75 2075.601562 2362.628906 2198.867188 2343.769531 2285.878906 C 2333.621094 2329.386719 2327.089844 2367.089844 2329.269531 2368.539062 C 2330.71875 2369.992188 2353.199219 2327.933594 2379.300781 2274.277344 C 2478.640625 2071.25 2571.449219 1713.78125 2590.300781 1463.621094 C 2598.28125 1353.398438 2575.078125 1174.308594 2535.199219 1040.890625 C 2514.171875 972 2484.441406 895.871094 2443.839844 808.859375 L 2410.480469 738.519531 L 2454.710938 645.710938 C 2525.050781 499.238281 2562.019531 404.25 2580.148438 325.210938 C 2601.179688 233.851562 2581.601562 138.140625 2530.851562 78.679688 C 2496.039062 38.808594 2457.609375 20.679688 2401.058594 20.679688 C 2318.390625 20.679688 2236.449219 56.210938 2023.28125 184.550781 C 1955.121094 225.871094 1892.039062 259.960938 1884.058594 259.960938 C 1876.078125 259.960938 1839.101562 250.53125 1802.121094 238.929688 C 1719.460938 212.828125 1643.328125 192.519531 1570.820312 177.300781 C 1525.140625 167.140625 1512.078125 160.621094 1491.058594 139.589844 C 1438.128906 84.480469 1343.859375 26.480469 1277.878906 9.070312 C 1232.191406 -3.25 1200.289062 -3.25 1156.789062 10.519531 Z M 1211.171875 105.511719 C 1239.441406 133.058594 1243.800781 143.941406 1228.570312 143.941406 C 1213.339844 143.941406 1098.058594 158.441406 1078.480469 162.789062 C 1061.800781 166.421875 1062.519531 164.238281 1089.351562 136.691406 C 1121.980469 101.890625 1156.058594 78.679688 1173.460938 78.679688 C 1179.988281 78.679688 1196.671875 90.28125 1211.171875 105.511719 Z M 2515.621094 173.671875 C 2533.75 208.46875 2533.019531 288.960938 2513.449219 350.589844 C 2496.039062 407.148438 2465.589844 443.410156 2406.859375 476.761719 L 2369.148438 499.238281 L 2397.429688 446.308594 C 2413.378906 418.03125 2435.128906 374.519531 2445.28125 350.589844 L 2464.140625 307.089844 L 2440.210938 336.089844 C 2427.160156 352.050781 2406.859375 374.519531 2395.25 385.398438 C 2365.519531 413.679688 2267.640625 492.710938 2267.640625 488.359375 C 2267.640625 486.910156 2292.289062 457.179688 2322.019531 423.101562 C 2370.601562 366.550781 2406.859375 318.691406 2423.53125 288.960938 C 2426.429688 283.160156 2411.929688 294.761719 2390.179688 315.789062 C 2337.96875 365.089844 2278.511719 402.800781 2148 468.058594 C 1991.378906 546.371094 1971.800781 557.25 1988.46875 557.96875 C 2000.800781 558.691406 2000.070312 560.148438 1984.851562 565.21875 C 1972.519531 569.570312 1985.570312 570.300781 2024.730469 568.851562 L 2082.730469 565.21875 L 2055.179688 579 C 2039.949219 586.25 2017.480469 594.949219 2004.421875 597.121094 C 1970.339844 605.101562 1953.671875 615.980469 1984.851562 610.898438 C 2047.929688 600.75 2080.558594 590.601562 2111.738281 571.019531 C 2130.589844 559.421875 2143.640625 552.890625 2141.46875 556.519531 C 2133.488281 569.570312 2060.261719 613.808594 2035.609375 621.058594 C 2013.128906 627.578125 2012.398438 628.308594 2028.351562 629.761719 L 2046.480469 631.210938 L 2028.351562 637.011719 C 1988.46875 650.058594 1914.511719 644.980469 1860.128906 625.410156 C 1831.128906 615.25 1804.300781 603.648438 1799.949219 600.03125 C 1796.320312 596.398438 1791.25 593.5 1787.621094 593.5 C 1784.71875 593.5 1809.378906 620.328125 1842 652.230469 C 1874.628906 684.859375 1896.390625 708.070312 1889.859375 702.988281 C 1883.328125 698.640625 1876.808594 697.191406 1873.910156 699.371094 C 1871.730469 701.539062 1863.03125 700.089844 1855.058594 695.019531 C 1846.359375 690.660156 1839.828125 689.210938 1839.828125 691.390625 C 1839.828125 693.570312 1854.328125 702.269531 1872.460938 710.238281 C 1907.988281 726.191406 1913.789062 732 1889.128906 726.191406 C 1873.179688 723.300781 1873.179688 724.019531 1890.589844 734.171875 L 1908.710938 745.769531 L 1886.960938 741.421875 L 1865.199219 737.070312 L 1883.328125 750.121094 C 1893.480469 757.371094 1919.589844 767.519531 1941.339844 772.601562 L 1981.21875 782.03125 L 1941.339844 779.121094 C 1919.589844 777.679688 1895.660156 773.320312 1888.410156 771.148438 C 1870.28125 763.898438 1875.359375 779.851562 1898.558594 803.058594 C 1908.710938 813.210938 1911.609375 817.558594 1905.089844 812.480469 C 1898.558594 808.128906 1890.589844 803.78125 1886.960938 803.78125 C 1883.328125 803.78125 1875.359375 799.429688 1868.828125 794.351562 C 1862.308594 790 1868.828125 796.53125 1882.609375 808.859375 C 1910.890625 834.960938 1908.710938 839.308594 1877.53125 821.179688 L 1857.960938 809.578125 L 1876.078125 824.808594 C 1886.230469 832.78125 1889.859375 840.03125 1884.789062 840.03125 C 1875.359375 840.03125 1883.328125 858.890625 1903.640625 884.988281 C 1909.441406 891.519531 1911.609375 900.21875 1908.710938 904.570312 C 1906.539062 908.921875 1913.058594 927.050781 1923.941406 945.171875 C 1934.089844 963.300781 1941.339844 979.980469 1939.171875 982.148438 C 1936.988281 984.328125 1929.011719 974.179688 1921.039062 958.230469 C 1913.058594 943 1897.109375 922.691406 1885.511719 912.539062 L 1865.199219 894.421875 L 1880.429688 912.539062 C 1896.390625 931.398438 1977.601562 1074.238281 1977.601562 1083.671875 C 1977.601562 1086.570312 1964.539062 1067.710938 1947.871094 1042.339844 C 1911.609375 986.5 1895.660156 969.101562 1921.039062 1014.058594 C 1931.191406 1032.179688 1950.039062 1066.269531 1963.089844 1090.191406 C 1976.140625 1114.121094 1989.921875 1138.769531 1993.550781 1144.570312 C 1997.898438 1150.371094 1985.570312 1138.769531 1966 1119.191406 C 1947.140625 1098.890625 1933.371094 1088.75 1936.269531 1095.269531 C 1944.238281 1117.75 1934.808594 1109.050781 1920.308594 1080.769531 C 1897.109375 1037.261719 1902.910156 1059.738281 1934.808594 1135.871094 C 1974.691406 1230.859375 1975.421875 1233.039062 1948.589844 1193.160156 C 1922.488281 1154.730469 1913.058594 1151.828125 1931.191406 1187.359375 C 1937.71875 1200.410156 1941.339844 1212.730469 1939.171875 1214.910156 C 1936.988281 1216.359375 1929.738281 1208.378906 1923.210938 1196.058594 C 1917.410156 1183.730469 1910.160156 1173.578125 1907.988281 1173.578125 C 1901.460938 1173.578125 1926.839844 1216.359375 1936.988281 1222.160156 C 1942.789062 1225.058594 1954.390625 1241.011719 1963.089844 1256.96875 C 1972.519531 1273.640625 1973.96875 1280.171875 1966.71875 1271.46875 C 1960.191406 1263.488281 1951.488281 1257.691406 1947.871094 1259.140625 C 1943.519531 1259.871094 1942.070312 1258.410156 1944.238281 1254.789062 C 1945.691406 1251.890625 1944.238281 1244.640625 1940.609375 1238.839844 C 1929.738281 1220.710938 1939.171875 1278.71875 1956.570312 1328.75 C 1964.539062 1354.128906 1970.339844 1382.410156 1968.171875 1391.828125 C 1966 1404.890625 1964.539062 1402.710938 1963.820312 1383.859375 C 1963.089844 1363.558594 1960.921875 1360.660156 1955.121094 1369.359375 C 1949.320312 1378.058594 1948.589844 1376.609375 1952.21875 1363.558594 C 1955.121094 1352.679688 1949.320312 1331.648438 1934.808594 1300.46875 C 1923.210938 1274.371094 1911.609375 1253.339844 1909.441406 1253.339844 C 1904.359375 1253.339844 1915.238281 1281.621094 1930.46875 1311.351562 C 1936.988281 1323.679688 1939.890625 1337.449219 1936.988281 1341.800781 C 1934.089844 1346.878906 1934.808594 1347.601562 1939.890625 1344.699219 C 1944.96875 1341.800781 1947.871094 1346.878906 1947.140625 1359.929688 C 1946.410156 1370.808594 1952.21875 1410.691406 1958.738281 1447.671875 C 1966 1484.640625 1969.621094 1519.449219 1967.441406 1523.808594 C 1965.269531 1529.609375 1963.820312 1528.148438 1963.820312 1521.621094 C 1963.089844 1515.820312 1956.570312 1494.070312 1948.589844 1474.5 L 1934.089844 1438.238281 L 1938.441406 1470.871094 C 1940.609375 1489 1950.769531 1534.679688 1960.191406 1572.378906 C 1969.621094 1610.089844 1977.601562 1644.171875 1976.871094 1648.519531 C 1976.140625 1656.5 1942.789062 1566.578125 1934.089844 1532.5 L 1928.289062 1510.75 L 1927.570312 1532.5 L 1926.109375 1554.25 L 1912.339844 1525.25 C 1900.011719 1500.601562 1898.558594 1499.148438 1902.191406 1517.28125 C 1905.808594 1537.578125 1904.359375 1536.851562 1864.480469 1500.601562 C 1823.148438 1462.171875 1765.871094 1420.109375 1755.71875 1420.109375 C 1752.820312 1420.109375 1760.070312 1430.988281 1772.390625 1444.039062 C 1783.988281 1456.371094 1804.300781 1481.75 1815.898438 1499.871094 C 1840.558594 1536.128906 1876.808594 1607.910156 1857.230469 1581.089844 C 1837.648438 1554.25 1711.480469 1470.871094 1690.460938 1470.871094 C 1687.558594 1470.871094 1702.78125 1486.101562 1723.808594 1504.949219 C 1744.109375 1523.078125 1780.371094 1562.960938 1804.300781 1593.410156 C 1828.230469 1623.859375 1861.578125 1666.640625 1879.710938 1688.398438 C 1910.160156 1725.378906 1955.839844 1802.238281 1955.839844 1816.019531 C 1955.839844 1819.640625 1943.519531 1800.789062 1929.011719 1775.410156 C 1894.929688 1716.679688 1815.898438 1636.191406 1750.640625 1593.410156 C 1706.410156 1565.128906 1699.160156 1556.429688 1676.679688 1510.019531 C 1648.398438 1451.289062 1612.871094 1415.761719 1575.160156 1408.511719 C 1543.988281 1402.710938 1503.378906 1409.960938 1491.78125 1423.011719 C 1485.25 1431.710938 1473.648438 1427.359375 1425.070312 1397.628906 C 1354.730469 1355.578125 1312.679688 1338.898438 1230.75 1322.949219 C 1196.671875 1315.699219 1151.710938 1302.648438 1129.960938 1292.5 C 1082.820312 1271.46875 1076.300781 1270.738281 1100.230469 1289.589844 L 1118.359375 1304.820312 L 1096.601562 1300.46875 L 1074.851562 1296.121094 L 1111.101562 1319.320312 L 1092.980469 1314.980469 C 1075.570312 1310.621094 1074.851562 1310.621094 1089.351562 1322.21875 C 1103.128906 1333.101562 1102.398438 1333.820312 1078.480469 1330.199219 L 1053.089844 1326.578125 L 1074.851562 1337.449219 L 1096.601562 1348.328125 L 1074.851562 1344.699219 L 1053.089844 1341.078125 L 1074.851562 1351.230469 L 1096.601562 1361.378906 L 1071.21875 1362.109375 C 1052.371094 1362.109375 1048.75 1364.28125 1056.71875 1369.359375 C 1066.148438 1375.878906 1066.148438 1376.609375 1056.71875 1377.328125 C 1049.46875 1377.328125 1050.921875 1379.511719 1060.351562 1383.859375 C 1068.320312 1387.480469 1106.75 1390.390625 1145.910156 1390.390625 C 1265.550781 1391.109375 1368.519531 1423.738281 1467.851562 1491.171875 C 1493.230469 1508.570312 1530.210938 1525.25 1557.761719 1532.5 C 1583.140625 1539.03125 1622.300781 1550.628906 1644.050781 1557.878906 C 1665.808594 1564.410156 1693.359375 1573.109375 1704.230469 1575.289062 C 1726.710938 1580.359375 1789.070312 1638.371094 1803.570312 1667.371094 C 1810.101562 1680.429688 1807.191406 1678.96875 1793.421875 1661.570312 C 1740.488281 1597.761719 1607.070312 1544.109375 1484.53125 1539.03125 L 1415.640625 1536.128906 L 1471.480469 1552.808594 C 1530.210938 1570.929688 1633.898438 1633.289062 1694.808594 1688.398438 C 1723.808594 1714.5 1722.359375 1713.78125 1678.859375 1681.871094 C 1598.371094 1622.421875 1546.160156 1601.390625 1449 1589.058594 C 1297.449219 1569.480469 1191.589844 1578.910156 1024.089844 1626.769531 C 1012.488281 1630.390625 1003.789062 1623.859375 985.664062 1597.761719 C 973.335938 1579.628906 962.460938 1562.960938 962.460938 1561.511719 C 962.460938 1538.308594 1224.21875 1531.78125 1300.359375 1552.808594 C 1385.191406 1576.011719 1409.121094 1566.578125 1372.140625 1523.078125 C 1341.691406 1486.820312 1295.28125 1473.039062 1220.589844 1476.671875 L 1155.339844 1479.570312 L 1198.839844 1504.21875 C 1258.300781 1538.308594 1242.351562 1535.410156 1174.191406 1499.871094 C 1124.160156 1473.769531 1005.96875 1434.609375 976.960938 1434.609375 C 964.636719 1434.609375 1015.390625 1459.269531 1082.101562 1485.371094 C 1106.03125 1494.800781 1129.230469 1505.679688 1132.859375 1509.300781 C 1137.929688 1514.371094 1137.210938 1515.101562 1131.410156 1511.480469 C 1124.878906 1507.851562 1042.21875 1522.351562 926.203125 1547.011719 C 908.800781 1550.628906 908.800781 1550.628906 924.753906 1544.109375 C 940.707031 1536.851562 940.707031 1536.128906 908.074219 1493.351562 C 879.796875 1457.089844 839.191406 1420.839844 763.054688 1362.828125 C 755.082031 1356.308594 765.234375 1369.359375 784.8125 1390.390625 C 821.0625 1428.808594 821.0625 1428.808594 795.6875 1416.488281 C 723.175781 1379.511719 701.425781 1346.878906 701.425781 1272.921875 C 701.425781 1196.78125 727.527344 1143.851562 781.910156 1106.871094 C 833.390625 1072.070312 838.464844 1083.671875 792.058594 1130.070312 L 748.554688 1174.308594 L 788.4375 1156.179688 C 811.640625 1145.300781 860.945312 1132.96875 907.351562 1126.449219 C 1024.820312 1109.050781 1083.550781 1082.941406 1178.539062 1004.628906 L 1232.191406 961.128906 L 1272.800781 973.449219 C 1296 980.699219 1326.460938 994.480469 1340.960938 1003.910156 C 1369.960938 1022.761719 1384.460938 1027.109375 1369.960938 1012.609375 C 1364.890625 1007.53125 1361.261719 1001.011719 1361.261719 997.378906 C 1361.261719 991.578125 1388.820312 1005.359375 1455.53125 1045.960938 L 1480.910156 1060.460938 L 1464.949219 1039.441406 C 1443.199219 1008.261719 1375.039062 945.171875 1348.929688 932.121094 C 1303.980469 908.921875 1108.929688 840.761719 1054.550781 829.878906 C 985.664062 815.378906 961.007812 815.378906 879.796875 829.878906 C 802.9375 842.929688 802.9375 842.929688 802.9375 774.050781 C 802.9375 700.089844 819.617188 655.859375 865.296875 608 C 903.726562 568.121094 912.429688 548.550781 896.472656 539.121094 C 883.425781 530.421875 850.792969 549.269531 833.390625 576.101562 C 824.691406 589.878906 800.761719 610.898438 781.183594 623.230469 C 736.230469 650.78125 718.101562 686.308594 707.226562 769.699219 L 699.246094 831.328125 L 658.640625 827.710938 L 618.035156 823.359375 L 631.089844 838.589844 C 644.867188 853.089844 644.140625 853.808594 627.464844 849.460938 L 610.789062 844.390625 L 628.914062 862.519531 C 639.066406 871.941406 644.140625 877.738281 640.515625 874.121094 C 623.835938 861.789062 619.488281 870.488281 635.4375 883.539062 C 644.867188 891.519531 648.492188 898.039062 644.867188 898.039062 C 640.515625 898.039062 634.714844 894.421875 632.539062 890.070312 C 629.636719 885.71875 623.113281 884.269531 618.035156 886.441406 C 612.960938 887.890625 604.988281 885.71875 599.910156 881.359375 C 594.832031 876.289062 597.734375 883.539062 606.433594 895.871094 C 621.664062 918.339844 619.488281 927.050781 602.8125 914 C 599.1875 911.089844 605.710938 918.339844 617.3125 929.941406 C 633.265625 945.171875 636.164062 952.429688 629.636719 954.601562 C 591.210938 967.648438 504.921875 1017.679688 483.894531 1039.441406 C 460.691406 1064.089844 463.59375 1062.640625 534.652344 1020.578125 C 576.707031 995.929688 629.636719 962.570312 652.839844 947.351562 C 717.375 903.121094 733.328125 920.519531 695.625 993.03125 C 684.023438 1014.78125 660.09375 1058.289062 641.238281 1090.191406 C 594.832031 1171.398438 575.984375 1230.140625 575.984375 1296.851562 C 575.984375 1350.5 591.933594 1411.410156 604.261719 1407.058594 C 607.160156 1405.609375 612.960938 1410.691406 615.863281 1417.941406 C 619.488281 1425.910156 620.214844 1419.390625 618.035156 1401.988281 L 614.414062 1372.980469 L 628.914062 1399.808594 C 648.492188 1436.070312 652.839844 1434.609375 639.792969 1396.191406 C 631.089844 1372.261719 631.089844 1368.628906 639.066406 1378.058594 C 644.140625 1385.308594 650.667969 1388.929688 653.566406 1386.03125 C 656.46875 1383.128906 656.46875 1386.03125 654.292969 1392.558594 C 651.394531 1399.089844 652.839844 1410.691406 657.917969 1417.941406 C 665.167969 1429.539062 665.167969 1428.808594 661.542969 1414.308594 C 654.292969 1389.660156 662.996094 1395.460938 678.945312 1426.640625 C 686.921875 1441.871094 699.246094 1457.089844 706.5 1459.269531 C 717.375 1463.621094 717.375 1462.890625 707.949219 1451.289062 C 702.148438 1444.039062 692.722656 1428.089844 688.371094 1416.488281 L 679.671875 1394.730469 L 694.898438 1415.039062 C 702.875 1425.910156 712.300781 1433.160156 715.925781 1430.988281 C 719.550781 1428.808594 735.503906 1442.589844 752.179688 1461.441406 C 786.984375 1500.601562 831.21875 1562.960938 818.890625 1554.980469 C 810.914062 1550.628906 672.421875 1566.578125 596.285156 1581.089844 C 520.148438 1595.589844 565.105469 1594.859375 698.523438 1579.628906 L 828.316406 1565.128906 L 841.367188 1581.089844 C 850.792969 1591.960938 853.695312 1606.460938 852.246094 1629.660156 C 850.066406 1658.671875 847.167969 1664.46875 828.316406 1673.171875 C 816.714844 1678.96875 780.457031 1686.230469 748.554688 1689.121094 C 716.648438 1692.03125 683.296875 1696.371094 674.597656 1699.269531 C 665.894531 1702.179688 653.566406 1700.730469 646.316406 1697.101562 C 636.890625 1692.03125 626.738281 1693.46875 609.335938 1701.449219 C 589.03125 1710.871094 581.785156 1711.601562 570.183594 1704.351562 C 558.582031 1697.101562 552.78125 1697.101562 544.804688 1703.628906 C 538.277344 1708.699219 523.050781 1710.148438 502.746094 1707.25 C 483.894531 1704.351562 468.667969 1705.070312 466.492188 1709.429688 C 463.59375 1713.050781 445.464844 1714.5 423.710938 1712.328125 C 385.28125 1708.699219 346.125 1718.128906 346.125 1731.910156 C 346.125 1735.53125 355.554688 1739.160156 367.15625 1739.160156 C 378.757812 1739.160156 391.804688 1744.230469 396.882812 1749.308594 C 401.960938 1755.839844 418.636719 1760.179688 438.9375 1760.179688 C 520.148438 1760.910156 530.300781 1761.640625 539.003906 1768.878906 C 544.804688 1773.960938 560.027344 1774.679688 577.429688 1771.78125 C 594.832031 1768.878906 612.234375 1770.339844 621.664062 1775.410156 C 633.992188 1781.941406 642.691406 1781.941406 657.917969 1775.410156 C 673.871094 1768.878906 684.023438 1768.878906 704.324219 1776.140625 C 722.449219 1782.660156 734.050781 1783.390625 746.378906 1777.589844 C 756.53125 1773.238281 769.582031 1772.511719 780.457031 1776.859375 C 800.039062 1784.109375 840.644531 1786.28125 1051.648438 1794.261719 C 1148.808594 1797.890625 1201.738281 1797.160156 1201.738281 1792.089844 C 1201.738281 1787.738281 1215.519531 1787.011719 1240.171875 1790.640625 C 1343.128906 1806.589844 1393.890625 1810.210938 1402.589844 1802.960938 C 1412.738281 1794.988281 1462.050781 1803.691406 1523.679688 1823.988281 L 1559.941406 1835.589844 L 1491.058594 1854.449219 C 1453.351562 1865.320312 1417.820312 1876.199219 1412.019531 1879.820312 C 1406.21875 1882.730469 1409.121094 1879.101562 1418.539062 1871.121094 C 1432.320312 1859.519531 1434.5 1855.171875 1427.25 1842.851562 C 1422.898438 1834.871094 1414.191406 1825.441406 1406.941406 1822.539062 C 1384.460938 1813.839844 1251.050781 1808.039062 1205.371094 1813.121094 C 1181.441406 1816.738281 1124.160156 1816.738281 1078.480469 1814.570312 C 1032.789062 1811.660156 905.175781 1809.488281 795.6875 1808.039062 C 686.199219 1807.320312 591.210938 1804.410156 584.683594 1801.519531 C 578.882812 1798.609375 565.105469 1800.058594 554.953125 1803.691406 C 541.902344 1808.769531 528.851562 1808.039062 513.621094 1802.238281 C 495.496094 1795.710938 487.519531 1795.710938 475.917969 1802.960938 C 464.316406 1810.210938 456.339844 1810.210938 436.765625 1803.691406 C 407.761719 1792.808594 399.785156 1797.160156 410.660156 1817.460938 C 419.363281 1833.421875 441.839844 1841.390625 454.167969 1833.421875 C 459.242188 1830.519531 475.917969 1834.871094 491.871094 1842.851562 C 513.621094 1853 523.050781 1854.449219 530.300781 1848.648438 C 537.550781 1842.851562 545.527344 1843.570312 560.753906 1851.550781 C 586.132812 1864.601562 612.234375 1865.320312 615.863281 1853.71875 C 618.035156 1848.648438 624.5625 1849.371094 637.617188 1858.070312 C 649.21875 1865.320312 670.242188 1869.671875 694.898438 1869.671875 C 716.648438 1869.671875 746.378906 1869.671875 761.609375 1869.671875 C 776.109375 1869.671875 800.761719 1869.671875 815.988281 1869.671875 C 926.929688 1868.21875 966.082031 1874.75 1042.21875 1905.199219 C 1122.699219 1937.832031 1161.140625 1961.035156 1092.980469 1935.660156 C 1003.070312 1903.03125 904.453125 1886.351562 872.546875 1897.949219 C 858.046875 1903.75 844.265625 1903.75 823.964844 1898.679688 C 802.214844 1892.871094 788.4375 1892.871094 769.582031 1900.128906 C 750.730469 1906.660156 737.679688 1906.660156 715.203125 1900.859375 C 690.546875 1894.328125 684.023438 1895.058594 670.96875 1905.929688 C 655.742188 1918.261719 654.292969 1917.53125 633.265625 1905.199219 C 584.683594 1875.46875 567.28125 1898.679688 612.234375 1932.757812 C 654.292969 1965.386719 709.402344 2016.871094 705.046875 2020.492188 C 703.601562 2022.671875 697.800781 2020.492188 692.722656 2016.871094 C 687.644531 2012.515625 675.320312 2006.714844 665.167969 2004.542969 C 647.765625 1999.46875 647.765625 2000.191406 660.820312 2010.34375 C 674.597656 2021.945312 674.597656 2021.945312 657.917969 2021.945312 C 647.039062 2021.945312 627.464844 2009.617188 607.160156 1990.765625 L 574.53125 1960.308594 L 602.8125 1990.765625 L 631.089844 2021.21875 L 602.8125 2017.59375 C 500.574219 2003.089844 409.933594 1966.835938 333.074219 1910.28125 C 291.746094 1879.820312 237.363281 1812.390625 237.363281 1791.359375 C 237.363281 1772.511719 272.890625 1713.050781 300.445312 1686.949219 C 315.671875 1672.441406 349.027344 1650.691406 375.128906 1638.371094 C 451.992188 1602.839844 486.796875 1560.058594 509.273438 1473.039062 C 515.074219 1450.570312 520.148438 1412.140625 520.148438 1388.210938 L 520.148438 1344.699219 L 499.121094 1378.058594 C 477.371094 1412.859375 442.566406 1441.871094 422.988281 1441.871094 C 416.460938 1441.871094 401.960938 1436.070312 391.804688 1429.539062 C 375.855469 1418.660156 353.378906 1416.488281 252.585938 1416.488281 C 166.300781 1415.761719 126.421875 1412.859375 112.644531 1405.609375 C 101.042969 1400.539062 92.34375 1394.011719 92.34375 1391.109375 C 92.34375 1378.058594 156.152344 1292.5 220.683594 1217.808594 C 373.679688 1041.609375 391.082031 1009.710938 391.082031 901.671875 C 391.082031 865.410156 387.457031 826.261719 383.105469 814.660156 L 375.128906 792.910156 L 378.757812 816.109375 C 380.203125 829.160156 380.929688 840.03125 379.480469 840.03125 C 373.679688 840.03125 304.792969 808.128906 290.292969 798.710938 L 273.617188 787.828125 L 291.019531 765.351562 C 299.71875 752.300781 314.949219 724.019531 324.375 702.269531 C 333.074219 680.511719 351.199219 645.710938 364.253906 626.128906 C 393.984375 579.71875 536.824219 443.410156 599.1875 402.070312 C 741.304688 309.261719 911.703125 248.359375 1121.980469 217.179688 C 1242.351562 199.050781 1384.460938 190.351562 1368.519531 201.230469 C 1362.710938 205.570312 1330.089844 209.199219 1296 209.199219 C 1219.871094 209.199219 1050.191406 232.398438 1082.101562 238.199219 C 1100.230469 241.828125 1096.601562 243.28125 1056.71875 251.25 C 990.738281 263.578125 905.902344 290.410156 918.230469 294.761719 C 924.753906 296.941406 906.628906 309.988281 874.722656 325.941406 L 821.0625 354.21875 L 853.695312 349.871094 L 886.324219 346.25 L 857.320312 360.019531 C 841.367188 368 822.515625 380.320312 815.988281 388.300781 C 804.386719 400.621094 804.386719 403.53125 814.539062 418.03125 C 820.339844 426.730469 830.492188 433.980469 835.566406 433.980469 C 850.066406 433.980469 913.875 371.621094 908.800781 362.191406 C 905.902344 358.570312 924.753906 344.789062 949.40625 332.460938 C 974.785156 320.140625 987.113281 312.160156 976.960938 315.058594 C 966.808594 317.238281 949.40625 324.488281 938.53125 330.289062 C 926.929688 336.089844 916.054688 339.71875 914.601562 338.269531 C 906.628906 329.570312 1033.519531 277.359375 1103.859375 259.960938 C 1226.390625 229.5 1302.53125 221.53125 1420.71875 225.148438 C 1532.390625 229.5 1562.839844 236.75 1806.46875 322.320312 L 1885.511719 349.871094 L 1839.101562 360.019531 C 1813 365.820312 1746.289062 370.890625 1686.109375 371.621094 C 1626.648438 371.621094 1578.789062 374.519531 1578.789062 377.421875 C 1578.789062 380.320312 1595.46875 399.179688 1615.769531 419.480469 C 1662.179688 464.429688 1728.890625 497.789062 1781.820312 503.589844 L 1821.699219 507.210938 L 1760.789062 482.558594 C 1727.441406 468.78125 1697.710938 454.28125 1694.078125 450.660156 C 1691.179688 447.761719 1713.660156 446.308594 1744.109375 447.761719 C 1818.800781 450.660156 1881.160156 439.058594 2008.050781 397.730469 C 2174.820312 342.621094 2302.441406 273.011719 2394.53125 186 C 2445.28125 138.859375 2469.210938 127.261719 2488.789062 139.589844 C 2496.769531 144.660156 2509.089844 159.890625 2515.621094 173.671875 Z M 1414.191406 207.03125 C 1409.121094 208.46875 1400.421875 208.46875 1396.070312 207.03125 C 1390.988281 204.851562 1394.621094 203.398438 1404.769531 203.398438 C 1414.921875 203.398438 1418.539062 204.851562 1414.191406 207.03125 Z M 969.710938 288.960938 C 963.910156 292.589844 952.308594 295.480469 944.332031 295.480469 C 932.730469 294.761719 932.730469 294.039062 947.957031 288.960938 C 973.335938 280.980469 982.761719 280.980469 969.710938 288.960938 Z M 2277.789062 684.859375 C 2189.320312 886.441406 2135.671875 969.101562 2053.011719 1032.179688 L 2025.449219 1053.210938 L 2044.308594 1028.558594 C 2054.460938 1014.78125 2072.589844 985.058594 2083.460938 963.300781 C 2102.308594 927.050781 2104.488281 916.890625 2104.488281 848.730469 C 2104.488281 787.828125 2106.660156 774.78125 2115.359375 774.78125 C 2121.160156 774.78125 2142.921875 766.800781 2163.21875 757.371094 C 2202.378906 739.25 2253.128906 687.039062 2291.558594 625.410156 C 2304.621094 604.378906 2315.488281 588.429688 2316.941406 589.878906 C 2318.390625 590.601562 2300.988281 634.109375 2277.789062 684.859375 Z M 1935.539062 870.488281 C 1944.96875 879.921875 1947.871094 882.820312 1941.339844 877.738281 C 1934.808594 873.390625 1925.390625 869.039062 1921.039062 869.039062 C 1916.691406 869.039062 1910.890625 865.410156 1908.710938 861.789062 C 1900.730469 848.011719 1918.859375 854.53125 1935.539062 870.488281 Z M 312.773438 925.601562 C 320.75 948.070312 331.625 964.75 342.5 970.550781 C 352.652344 975.628906 360.628906 982.878906 360.628906 986.5 C 360.628906 996.660156 333.796875 979.25 321.472656 961.851562 C 312.773438 949.53125 309.871094 948.800781 309.871094 956.769531 C 309.871094 973.449219 338.152344 1006.808594 351.925781 1006.808594 C 362.078125 1006.808594 360.628906 1009.710938 347.578125 1022.761719 C 326.550781 1043.789062 309.871094 1034.359375 296.820312 995.210938 C 288.84375 972 291.019531 890.789062 298.992188 890.789062 C 300.445312 890.789062 306.972656 906.738281 312.773438 925.601562 Z M 900.828125 984.328125 C 918.230469 1024.210938 940.707031 1043.058594 974.0625 1046.691406 L 1002.339844 1050.308594 L 976.960938 1043.058594 C 946.507812 1033.640625 918.953125 1004.628906 918.953125 982.878906 C 919.675781 968.371094 920.402344 968.371094 930.554688 986.5 C 944.332031 1011.878906 976.238281 1028.558594 1011.039062 1028.558594 C 1039.320312 1028.558594 1098.058594 1004.628906 1138.660156 976.351562 C 1159.691406 961.851562 1159.691406 963.300781 1132.859375 991.578125 C 1066.878906 1061.191406 945.78125 1092.371094 900.828125 1050.308594 C 881.25 1032.910156 854.421875 982.878906 853.695312 964.75 C 853.695312 960.398438 861.667969 956.050781 870.371094 956.050781 C 883.425781 956.050781 890.671875 963.300781 900.828125 984.328125 Z M 2261.109375 1042.339844 C 2237.179688 1099.621094 2206.730469 1146.03125 2177 1173.578125 C 2163.21875 1185.910156 2170.46875 1170.679688 2199.480469 1126.449219 C 2223.410156 1090.191406 2250.230469 1043.789062 2259.660156 1022.761719 C 2285.761719 966.929688 2286.488281 982.148438 2261.109375 1042.339844 Z M 306.246094 1079.320312 C 298.992188 1087.289062 291.746094 1092.371094 289.570312 1090.191406 C 287.390625 1088.019531 291.746094 1080.039062 298.992188 1072.070312 C 306.246094 1064.089844 313.496094 1059.019531 315.671875 1061.191406 C 317.847656 1063.359375 313.496094 1071.339844 306.246094 1079.320312 Z M 604.988281 1399.808594 C 602.8125 1405.609375 600.632812 1403.429688 600.632812 1395.460938 C 599.910156 1387.480469 602.085938 1383.128906 604.261719 1386.03125 C 606.433594 1388.210938 607.160156 1394.730469 604.988281 1399.808594 Z M 1975.421875 1436.070312 C 1973.25 1441.140625 1971.800781 1437.519531 1971.800781 1427.359375 C 1971.800781 1417.210938 1973.25 1413.589844 1975.421875 1417.941406 C 1976.871094 1423.011719 1976.871094 1431.710938 1975.421875 1436.070312 Z M 90.164062 1470.871094 C 119.894531 1497.699219 130.769531 1497.699219 200.378906 1473.769531 C 235.183594 1461.441406 276.515625 1453.46875 313.496094 1452.019531 C 383.105469 1448.390625 370.054688 1456.371094 278.691406 1473.769531 C 210.535156 1486.820312 153.972656 1510.019531 146 1528.148438 C 143.097656 1534.679688 138.75 1557.160156 136.570312 1578.179688 L 132.222656 1617.339844 L 94.519531 1544.828125 C 58.988281 1478.839844 48.835938 1449.121094 60.4375 1449.121094 C 63.339844 1449.121094 76.390625 1458.539062 90.164062 1470.871094 Z M 169.203125 1701.449219 C 200.378906 1728.28125 201.832031 1730.449219 216.335938 1804.410156 C 225.761719 1853.71875 230.109375 1901.578125 228.660156 1940.007812 L 226.484375 1999.46875 L 209.808594 1983.511719 C 173.554688 1950.160156 141.648438 1879.820312 134.398438 1816.738281 C 127.871094 1765.980469 123.523438 1752.210938 98.867188 1718.851562 C 70.589844 1678.96875 57.539062 1631.121094 66.960938 1602.109375 C 71.316406 1588.339844 75.664062 1591.960938 103.945312 1630.390625 C 122.070312 1654.320312 151.074219 1686.230469 169.203125 1701.449219 Z M 1445.378906 1628.941406 C 1563.558594 1657.21875 1572.988281 1664.46875 1490.328125 1660.839844 C 1453.351562 1659.390625 1372.140625 1663.019531 1310.511719 1669.550781 C 1143.011719 1686.949219 1115.460938 1689.121094 1136.480469 1682.601562 C 1152.429688 1677.519531 1150.261719 1676.070312 1118.359375 1670.269531 C 1087.179688 1665.191406 1084.28125 1663.75 1100.230469 1658.671875 L 1118.359375 1653.589844 L 1100.230469 1652.140625 C 1085.730469 1650.691406 1089.351562 1648.519531 1114.730469 1640.539062 L 1147.359375 1631.121094 L 1109.660156 1632.570312 C 1057.449219 1634.738281 1068.320312 1626.039062 1131.410156 1615.890625 C 1159.691406 1611.539062 1188.691406 1606.460938 1194.488281 1605.019531 C 1230.019531 1596.308594 1364.890625 1609.359375 1445.378906 1628.941406 Z M 1982.671875 1675.351562 C 1980.5 1681.148438 1978.320312 1678.96875 1978.320312 1671 C 1977.601562 1663.019531 1979.769531 1658.671875 1981.941406 1661.570312 C 1984.121094 1663.75 1984.851562 1670.269531 1982.671875 1675.351562 Z M 1112.558594 1678.25 C 1110.378906 1680.429688 1103.859375 1681.148438 1098.78125 1678.96875 C 1092.980469 1676.800781 1095.148438 1674.621094 1103.128906 1674.621094 C 1111.101562 1673.898438 1115.460938 1676.070312 1112.558594 1678.25 Z M 1443.929688 1712.328125 C 1454.800781 1719.578125 1462.78125 1726.828125 1461.328125 1728.28125 C 1460.601562 1729 1322.828125 1732.628906 1156.789062 1735.53125 C 939.980469 1739.160156 853.695312 1738.429688 853.695312 1732.628906 C 853.695312 1726.828125 895.75 1724.648438 986.386719 1724.648438 C 1058.890625 1724.648438 1130.679688 1721.03125 1145.910156 1716.679688 C 1195.941406 1702.898438 1261.921875 1696.371094 1343.128906 1697.828125 C 1407.671875 1699.269531 1427.96875 1702.179688 1443.929688 1712.328125 Z M 1274.25 1760.910156 C 1220.589844 1779.039062 1100.230469 1778.308594 1100.230469 1760.179688 C 1100.230469 1752.929688 1143.011719 1749.308594 1238 1748.578125 L 1314.128906 1747.859375 Z M 1335.160156 1876.929688 C 1446.820312 1900.128906 1500.480469 1916.078125 1574.441406 1948.707031 C 1627.371094 1972.636719 1718.738281 2029.195312 1728.160156 2044.421875 C 1731.058594 2049.496094 1722.359375 2045.148438 1708.578125 2034.996094 C 1620.128906 1968.285156 1433.050781 1906.660156 1179.988281 1861.691406 L 1103.859375 1848.648438 L 1168.390625 1852.269531 C 1203.910156 1854.449219 1279.320312 1865.320312 1335.160156 1876.929688 Z M 773.933594 2026.292969 C 773.933594 2032.09375 713.027344 1998.742188 681.84375 1976.265625 C 664.441406 1963.9375 650.667969 1950.160156 650.667969 1944.359375 C 650.667969 1939.28125 678.222656 1955.234375 712.300781 1979.164062 C 746.378906 2003.816406 773.933594 2024.84375 773.933594 2026.292969 Z M 370.054688 1999.46875 C 372.230469 1993.667969 374.402344 1996.566406 375.128906 2007.441406 C 375.855469 2024.117188 376.582031 2024.117188 382.382812 2011.070312 C 387.457031 1998.742188 388.90625 1999.46875 389.632812 2018.316406 C 390.359375 2037.171875 391.804688 2037.894531 396.882812 2025.570312 C 401.960938 2013.242188 403.40625 2015.417969 404.132812 2036.445312 L 405.585938 2061.824219 L 411.386719 2040.074219 L 417.1875 2018.316406 L 418.636719 2040.074219 C 420.085938 2061.824219 420.085938 2061.824219 425.886719 2043.695312 C 428.789062 2033.546875 431.6875 2029.917969 432.410156 2034.996094 C 433.136719 2040.074219 438.210938 2049.496094 444.011719 2055.296875 C 453.441406 2065.449219 454.890625 2064.722656 454.890625 2053.121094 C 455.613281 2040.796875 456.339844 2040.796875 465.769531 2053.847656 C 473.742188 2064 476.644531 2065.449219 476.644531 2057.476562 C 477.371094 2050.222656 479.542969 2051.675781 484.617188 2061.097656 C 491.144531 2071.976562 494.046875 2072.699219 499.121094 2064.722656 C 503.472656 2057.476562 505.648438 2056.75 505.648438 2063.277344 C 505.648438 2068.351562 509.273438 2072.699219 513.621094 2072.699219 C 517.25 2072.699219 518.699219 2068.351562 515.800781 2063.277344 C 512.898438 2058.921875 517.976562 2061.097656 527.402344 2069.078125 C 536.824219 2077.050781 541.902344 2079.226562 539.003906 2074.152344 C 536.101562 2069.800781 537.550781 2065.449219 541.179688 2065.449219 C 545.527344 2065.449219 549.152344 2068.351562 549.152344 2072.699219 C 549.152344 2076.324219 553.503906 2077.777344 559.304688 2075.601562 C 565.105469 2073.425781 571.628906 2075.601562 574.53125 2079.953125 C 578.882812 2086.480469 581.058594 2086.480469 585.410156 2079.953125 C 594.109375 2066.175781 615.136719 2102.429688 619.488281 2137.960938 C 624.5625 2175.664062 610.0625 2177.113281 603.535156 2139.410156 C 601.359375 2124.90625 596.285156 2107.503906 591.933594 2101.703125 C 586.859375 2093.726562 586.859375 2097.355469 590.484375 2112.582031 C 595.558594 2136.507812 596.285156 2143.035156 593.386719 2185.09375 L 591.210938 2214.097656 L 581.785156 2181.464844 L 572.355469 2148.835938 L 570.183594 2192.339844 L 568.730469 2235.847656 L 563.65625 2192.339844 C 560.027344 2159.710938 558.582031 2156.089844 557.855469 2175.664062 C 556.40625 2207.570312 544.078125 2212.644531 539.726562 2182.914062 C 537.550781 2167.691406 536.101562 2169.136719 534.652344 2192.339844 C 533.203125 2220.621094 532.476562 2220.621094 527.402344 2199.59375 C 523.050781 2181.464844 521.601562 2180.738281 520.875 2194.515625 C 520.148438 2216.996094 505.648438 2207.570312 504.921875 2182.914062 C 504.199219 2165.511719 502.746094 2166.238281 498.398438 2188.714844 C 494.046875 2209.742188 492.597656 2211.195312 491.144531 2195.96875 L 489.695312 2177.839844 L 483.894531 2195.96875 C 480.996094 2206.117188 478.09375 2209.742188 477.371094 2203.941406 C 476.644531 2198.867188 472.292969 2195.96875 465.769531 2198.867188 C 459.96875 2201.042969 454.890625 2198.867188 454.167969 2193.792969 C 454.167969 2187.265625 452.714844 2187.265625 449.8125 2193.792969 C 448.367188 2198.867188 443.289062 2203.21875 439.664062 2203.21875 C 435.3125 2203.21875 434.589844 2199.59375 437.488281 2194.515625 C 440.390625 2189.441406 439.664062 2188.714844 434.589844 2191.617188 C 411.386719 2205.394531 321.472656 2135.058594 298.269531 2084.300781 C 272.890625 2029.917969 275.066406 2018.316406 315.671875 1992.214844 L 349.753906 1970.464844 L 357.726562 1990.039062 C 363.527344 2003.816406 367.15625 2006.714844 370.054688 1999.46875 Z M 1753.539062 2063.277344 C 1762.96875 2074.878906 1762.238281 2075.601562 1751.371094 2066.175781 C 1739.039062 2056.75 1735.410156 2050.949219 1741.21875 2050.949219 C 1742.660156 2050.949219 1748.46875 2056.75 1753.539062 2063.277344 Z M 639.066406 2124.183594 C 641.964844 2140.132812 641.238281 2170.589844 638.339844 2190.894531 L 632.539062 2228.597656 L 628.191406 2166.964844 C 626.015625 2132.886719 621.664062 2098.804688 618.035156 2090.828125 C 612.234375 2078.5 612.960938 2077.777344 623.113281 2085.753906 C 628.914062 2090.828125 636.164062 2108.230469 639.066406 2124.183594 Z M 678.222656 2134.332031 C 676.042969 2136.507812 671.695312 2132.886719 669.519531 2125.632812 C 665.167969 2115.484375 665.894531 2114.757812 673.144531 2121.285156 C 678.222656 2126.359375 680.398438 2132.160156 678.222656 2134.332031 Z M 664.441406 2173.492188 C 665.167969 2208.296875 660.820312 2199.59375 655.019531 2156.089844 C 652.117188 2131.433594 652.839844 2124.90625 657.195312 2134.332031 C 660.820312 2142.308594 664.441406 2159.710938 664.441406 2173.492188 Z M 619.488281 2201.042969 C 617.3125 2208.296875 615.863281 2203.941406 615.863281 2192.339844 C 615.863281 2180.015625 617.3125 2174.9375 619.488281 2179.292969 C 620.9375 2184.367188 620.9375 2194.515625 619.488281 2201.042969 Z M 619.488281 2201.042969 "/>
<path fill-rule="nonzero" fill="rgb(0%, 0%, 0%)" fill-opacity="1" d="M 1029.890625 243.28125 C 1036.421875 244.730469 1046.570312 244.730469 1051.648438 243.28125 C 1056 241.109375 1050.921875 239.648438 1038.589844 239.648438 C 1026.988281 239.648438 1022.640625 241.109375 1029.890625 243.28125 Z M 1029.890625 243.28125 "/>
<path fill-rule="nonzero" fill="rgb(0%, 0%, 0%)" fill-opacity="1" d="M 908.074219 270.839844 C 817.441406 298.390625 736.953125 332.460938 750.730469 337.539062 C 755.082031 339.71875 757.980469 344.070312 755.808594 346.96875 C 750.730469 354.941406 797.859375 336.089844 820.339844 321.589844 C 837.019531 311.441406 934.179688 273.011719 985.664062 257.058594 C 1002.339844 251.25 1010.320312 246.910156 1002.339844 246.179688 C 994.363281 246.179688 952.308594 257.058594 908.074219 270.839844 Z M 802.9375 320.859375 C 802.9375 322.320312 797.859375 325.941406 791.335938 328.121094 C 785.535156 330.289062 782.636719 329.570312 784.8125 325.210938 C 789.160156 317.960938 802.9375 315.058594 802.9375 320.859375 Z M 802.9375 320.859375 "/>
<path fill-rule="nonzero" fill="rgb(0%, 0%, 0%)" fill-opacity="1" d="M 1180.710938 258.511719 C 1143.011719 273.011719 1135.03125 286.78125 1161.140625 293.308594 C 1189.410156 300.558594 1223.5 291.140625 1259.75 267.210938 L 1292.378906 245.449219 L 1252.5 246.179688 C 1230.75 246.179688 1198.109375 251.980469 1180.710938 258.511719 Z M 1180.710938 258.511719 "/>
<path fill-rule="nonzero" fill="rgb(0%, 0%, 0%)" fill-opacity="1" d="M 1456.25 259.230469 C 1441.019531 269.378906 1451.898438 278.808594 1493.949219 291.859375 C 1536.011719 304.910156 1613.601562 305.640625 1617.21875 292.589844 C 1617.949219 288.238281 1604.171875 278.078125 1586.039062 268.660156 C 1552.691406 251.980469 1476.550781 246.179688 1456.25 259.230469 Z M 1456.25 259.230469 "/>
<path fill-rule="nonzero" fill="rgb(0%, 0%, 0%)" fill-opacity="1" d="M 1345.308594 297.660156 C 1290.929688 317.238281 1349.660156 361.46875 1430.140625 361.46875 C 1472.929688 361.46875 1478.730469 360.019531 1483.808594 344.789062 C 1492.511719 323.039062 1482.351562 312.890625 1438.851562 299.839844 C 1397.519531 287.511719 1373.589844 286.78125 1345.308594 297.660156 Z M 1345.308594 297.660156 "/>
<path fill-rule="nonzero" fill="rgb(0%, 0%, 0%)" fill-opacity="1" d="M 1137.929688 321.589844 C 1091.53125 341.890625 1103.859375 375.96875 1158.230469 375.96875 C 1208.269531 375.96875 1237.269531 333.191406 1197.390625 317.960938 C 1173.460938 308.539062 1166.941406 309.261719 1137.929688 321.589844 Z M 1137.929688 321.589844 "/>
<path fill-rule="nonzero" fill="rgb(0%, 0%, 0%)" fill-opacity="1" d="M 1003.070312 368.71875 C 978.410156 375.96875 947.957031 403.53125 947.957031 417.300781 C 947.957031 429.628906 979.863281 441.960938 996.539062 436.160156 C 1021.921875 427.460938 1056.71875 397 1056.71875 383.949219 C 1056.71875 362.921875 1039.320312 357.851562 1003.070312 368.71875 Z M 1003.070312 368.71875 "/>
<path fill-rule="nonzero" fill="rgb(0%, 0%, 0%)" fill-opacity="1" d="M 2198.75 407.871094 C 1989.199219 518.820312 1961.640625 536.941406 2078.390625 486.910156 C 2112.46875 472.410156 2171.921875 440.5 2209.628906 416.578125 C 2322.019531 346.25 2319.839844 344.070312 2198.75 407.871094 Z M 2198.75 407.871094 "/>
<path fill-rule="nonzero" fill="rgb(0%, 0%, 0%)" fill-opacity="1" d="M 1188.691406 388.300781 C 1137.929688 397.730469 1167.660156 455.730469 1223.5 455.730469 C 1248.148438 455.730469 1253.949219 452.828125 1261.199219 437.609375 C 1268.449219 421.660156 1267.71875 416.578125 1255.398438 405.699219 C 1240.171875 390.46875 1214.070312 383.949219 1188.691406 388.300781 Z M 1188.691406 388.300781 "/>
<path fill-rule="nonzero" fill="rgb(0%, 0%, 0%)" fill-opacity="1" d="M 1387.371094 394.101562 C 1380.839844 400.621094 1375.769531 412.949219 1375.769531 420.929688 C 1375.769531 442.679688 1417.820312 480.390625 1459.148438 495.609375 C 1479.449219 502.871094 1504.828125 518.820312 1516.429688 531.140625 L 1536.738281 553.621094 L 1518.609375 527.519531 L 1500.480469 502.140625 L 1521.511719 487.640625 C 1546.160156 470.960938 1546.160156 472.410156 1528.039062 443.410156 C 1502.660156 401.351562 1412.019531 369.449219 1387.371094 394.101562 Z M 1387.371094 394.101562 "/>
<path fill-rule="nonzero" fill="rgb(0%, 0%, 0%)" fill-opacity="1" d="M 781.183594 410.78125 C 761.609375 417.300781 687.644531 470.230469 681.121094 482.558594 C 676.769531 489.808594 669.519531 492.710938 662.269531 489.808594 C 647.039062 484.011719 610.789062 501.410156 604.261719 517.371094 C 584.683594 570.300781 618.761719 580.449219 662.269531 535.488281 C 678.222656 519.539062 694.171875 506.488281 698.523438 506.488281 C 713.027344 506.488281 765.957031 462.261719 781.910156 436.878906 C 798.585938 409.328125 798.585938 404.980469 781.183594 410.78125 Z M 781.183594 410.78125 "/>
<path fill-rule="nonzero" fill="rgb(0%, 0%, 0%)" fill-opacity="1" d="M 2126.238281 417.300781 C 2114.640625 423.828125 2075.480469 439.78125 2039.230469 452.828125 C 2003.699219 465.878906 1977.601562 476.761719 1981.941406 477.480469 C 2000.800781 478.210938 2158.871094 417.300781 2158.871094 408.601562 C 2158.871094 402.070312 2149.441406 404.980469 2126.238281 417.300781 Z M 2126.238281 417.300781 "/>
<path fill-rule="nonzero" fill="rgb(0%, 0%, 0%)" fill-opacity="1" d="M 575.257812 526.070312 C 546.253906 608.730469 525.949219 639.910156 503.472656 634.109375 C 486.070312 629.761719 462.140625 653.691406 462.140625 676.890625 C 462.140625 696.460938 475.195312 700.820312 490.417969 685.589844 C 498.398438 678.339844 499.847656 680.511719 496.21875 695.019531 C 494.046875 705.171875 485.34375 732.71875 476.644531 756.648438 C 458.515625 805.230469 449.8125 892.238281 458.515625 946.621094 L 464.316406 981.429688 L 473.742188 916.171875 C 488.246094 821.179688 515.800781 737.800781 544.804688 702.988281 C 558.582031 686.308594 571.628906 664.558594 573.808594 653.691406 C 581.785156 618.160156 605.710938 452.109375 603.535156 449.929688 C 602.8125 449.210938 589.757812 483.28125 575.257812 526.070312 Z M 575.257812 526.070312 "/>
<path fill-rule="nonzero" fill="rgb(0%, 0%, 0%)" fill-opacity="1" d="M 824.691406 468.058594 C 807.289062 474.589844 788.4375 493.441406 788.4375 504.308594 C 788.4375 518.820312 834.84375 515.910156 854.421875 500.691406 C 882.699219 477.480469 861.667969 454.28125 824.691406 468.058594 Z M 824.691406 468.058594 "/>
<path fill-rule="nonzero" fill="rgb(0%, 0%, 0%)" fill-opacity="1" d="M 966.808594 478.210938 C 955.207031 486.910156 947.957031 499.960938 947.957031 511.570312 C 947.957031 528.96875 949.40625 529.691406 974.785156 526.070312 C 1011.769531 519.539062 1032.070312 499.238281 1021.191406 478.210938 C 1010.320312 458.628906 991.464844 458.628906 966.808594 478.210938 Z M 966.808594 478.210938 "/>
<path fill-rule="nonzero" fill="rgb(0%, 0%, 0%)" fill-opacity="1" d="M 1063.96875 481.109375 L 1046.570312 499.238281 L 1061.800781 514.46875 C 1079.199219 531.871094 1121.980469 536.21875 1139.378906 521.710938 C 1145.910156 515.910156 1150.980469 504.308594 1150.980469 494.890625 C 1150.980469 460.078125 1092.25 451.378906 1063.96875 481.109375 Z M 1063.96875 481.109375 "/>
<path fill-rule="nonzero" fill="rgb(0%, 0%, 0%)" fill-opacity="1" d="M 1305.429688 515.191406 C 1282.949219 544.191406 1293.109375 568.121094 1339.511719 597.121094 C 1359.808594 610.179688 1367.789062 621.058594 1371.410156 640.628906 C 1380.121094 684.859375 1467.851562 768.25 1495.410156 757.371094 C 1513.539062 750.851562 1522.960938 716.769531 1512.808594 693.570312 C 1501.210938 664.558594 1462.050781 632.660156 1421.441406 618.160156 L 1386.640625 605.828125 L 1389.539062 573.921875 C 1390.988281 547.820312 1388.820312 538.390625 1375.039062 523.890625 C 1356.910156 505.039062 1317.03125 499.960938 1305.429688 515.191406 Z M 1305.429688 515.191406 "/>
<path fill-rule="nonzero" fill="rgb(0%, 0%, 0%)" fill-opacity="1" d="M 489.695312 534.769531 C 465.042969 555.800781 441.113281 603.648438 449.8125 613.078125 C 451.992188 615.25 463.59375 610.898438 475.917969 603.648438 C 502.019531 588.429688 522.324219 552.890625 519.421875 528.238281 L 516.523438 510.839844 Z M 489.695312 534.769531 "/>
<path fill-rule="nonzero" fill="rgb(0%, 0%, 0%)" fill-opacity="1" d="M 984.210938 543.46875 C 974.785156 547.820312 960.28125 555.800781 953.757812 562.320312 C 938.53125 576.101562 936.355469 612.359375 950.132812 617.429688 C 971.160156 625.410156 1042.21875 589.148438 1042.21875 570.300781 C 1042.21875 563.050781 1014.671875 535.488281 1008.140625 536.21875 C 1004.519531 536.21875 994.363281 539.839844 984.210938 543.46875 Z M 984.210938 543.46875 "/>
<path fill-rule="nonzero" fill="rgb(0%, 0%, 0%)" fill-opacity="1" d="M 1587.488281 558.691406 C 1596.921875 588.429688 1618.671875 608 1641.148438 608 C 1673.78125 608 1661.449219 569.570312 1621.570312 550 C 1583.140625 529.691406 1578.070312 531.140625 1587.488281 558.691406 Z M 1587.488281 558.691406 "/>
<path fill-rule="nonzero" fill="rgb(0%, 0%, 0%)" fill-opacity="1" d="M 726.804688 560.148438 C 703.601562 583.351562 703.601562 592.050781 728.25 597.851562 C 755.082031 605.101562 784.8125 586.980469 784.8125 564.5 C 784.8125 538.390625 751.453125 535.488281 726.804688 560.148438 Z M 726.804688 560.148438 "/>
<path fill-rule="nonzero" fill="rgb(0%, 0%, 0%)" fill-opacity="1" d="M 662.996094 587.699219 C 648.492188 599.300781 628.191406 637.730469 633.265625 645.710938 C 640.515625 657.308594 665.167969 651.511719 675.320312 634.828125 C 692 609.449219 697.800781 579 685.472656 579 C 679.671875 579 669.519531 583.351562 662.996094 587.699219 Z M 662.996094 587.699219 "/>
<path fill-rule="nonzero" fill="rgb(0%, 0%, 0%)" fill-opacity="1" d="M 1172.011719 600.03125 C 1156.058594 613.078125 1155.339844 613.808594 1168.390625 633.378906 C 1179.988281 650.78125 1230.019531 679.789062 1249.601562 680.511719 C 1253.949219 680.511719 1261.921875 670.359375 1267 658.761719 C 1274.980469 639.179688 1274.25 634.828125 1262.648438 621.058594 C 1249.601562 606.558594 1210.441406 586.25 1195.210938 586.25 C 1191.589844 586.25 1181.441406 592.050781 1172.011719 600.03125 Z M 1172.011719 600.03125 "/>
<path fill-rule="nonzero" fill="rgb(0%, 0%, 0%)" fill-opacity="1" d="M 1531.660156 632.660156 C 1513.539062 645.710938 1522.230469 673.988281 1554.859375 709.519531 C 1582.421875 740.699219 1604.171875 750.121094 1628.820312 742.140625 C 1667.980469 729.820312 1628.820312 657.308594 1570.820312 634.109375 C 1549.058594 624.679688 1542.539062 624.679688 1531.660156 632.660156 Z M 1531.660156 632.660156 "/>
<path fill-rule="nonzero" fill="rgb(0%, 0%, 0%)" fill-opacity="1" d="M 1983.398438 634.828125 C 1987.75 636.28125 1996.449219 636.28125 2001.519531 634.828125 C 2005.878906 632.660156 2002.25 631.210938 1992.101562 631.210938 C 1981.941406 631.210938 1978.320312 632.660156 1983.398438 634.828125 Z M 1983.398438 634.828125 "/>
<path fill-rule="nonzero" fill="rgb(0%, 0%, 0%)" fill-opacity="1" d="M 1007.410156 652.960938 C 1003.789062 658.03125 994.363281 675.441406 986.386719 692.109375 L 971.882812 721.839844 L 1008.871094 715.320312 C 1048.019531 708.070312 1078.480469 692.839844 1078.480469 679.789062 C 1078.480469 675.441406 1074.851562 666.011719 1071.21875 658.03125 C 1062.519531 642.089844 1019.738281 638.460938 1007.410156 652.960938 Z M 1007.410156 652.960938 "/>
<path fill-rule="nonzero" fill="rgb(0%, 0%, 0%)" fill-opacity="1" d="M 1705.679688 673.261719 C 1712.941406 681.238281 1720.179688 687.769531 1722.359375 687.769531 C 1724.539062 687.769531 1720.179688 681.238281 1712.941406 673.261719 C 1705.679688 665.289062 1698.429688 658.761719 1696.261719 658.761719 C 1694.078125 658.761719 1698.429688 665.289062 1705.679688 673.261719 Z M 1705.679688 673.261719 "/>
<path fill-rule="nonzero" fill="rgb(0%, 0%, 0%)" fill-opacity="1" d="M 1839.828125 673.261719 C 1865.199219 690.660156 1878.980469 695.738281 1861.578125 681.238281 C 1851.429688 673.261719 1840.558594 666.011719 1836.199219 666.011719 C 1832.578125 666.011719 1834.03125 669.640625 1839.828125 673.261719 Z M 1839.828125 673.261719 "/>
<path fill-rule="nonzero" fill="rgb(0%, 0%, 0%)" fill-opacity="1" d="M 581.058594 698.640625 C 566.554688 720.390625 573.082031 731.269531 600.632812 731.269531 C 616.589844 731.269531 623.835938 726.191406 630.363281 712.421875 C 637.617188 697.191406 636.890625 692.839844 628.191406 687.039062 C 610.789062 676.160156 593.386719 679.789062 581.058594 698.640625 Z M 581.058594 698.640625 "/>
<path fill-rule="nonzero" fill="rgb(0%, 0%, 0%)" fill-opacity="1" d="M 1143.730469 718.21875 C 1114 734.171875 1117.628906 750.121094 1156.058594 774.050781 C 1201.019531 802.328125 1235.101562 809.578125 1251.050781 793.628906 C 1259.75 784.929688 1261.199219 777.679688 1255.398438 763.179688 C 1241.621094 723.300781 1180.710938 699.371094 1143.730469 718.21875 Z M 1143.730469 718.21875 "/>
<path fill-rule="nonzero" fill="rgb(0%, 0%, 0%)" fill-opacity="1" d="M 1310.511719 710.96875 C 1310.511719 720.390625 1327.910156 756.648438 1346.039062 784.199219 C 1390.988281 853.808594 1488.878906 861.058594 1453.351562 791.449219 C 1435.21875 756.648438 1414.921875 743.601562 1372.140625 739.96875 C 1341.691406 737.800781 1329.359375 732.71875 1321.378906 721.839844 C 1315.578125 713.140625 1310.511719 708.789062 1310.511719 710.96875 Z M 1310.511719 710.96875 "/>
<path fill-rule="nonzero" fill="rgb(0%, 0%, 0%)" fill-opacity="1" d="M 1733.96875 749.398438 C 1728.160156 763.898438 1743.390625 782.03125 1760.789062 782.03125 C 1781.089844 782.03125 1783.988281 769.699219 1767.320312 753.019531 C 1749.910156 735.621094 1739.039062 734.171875 1733.96875 749.398438 Z M 1733.96875 749.398438 "/>
<path fill-rule="nonzero" fill="rgb(0%, 0%, 0%)" fill-opacity="1" d="M 940.707031 767.519531 C 936.355469 775.5 934.90625 782.03125 936.355469 782.03125 C 938.53125 782.03125 943.605469 775.5 947.957031 767.519531 C 952.308594 759.550781 953.757812 753.019531 952.308594 753.019531 C 950.132812 753.019531 945.058594 759.550781 940.707031 767.519531 Z M 940.707031 767.519531 "/>
<path fill-rule="nonzero" fill="rgb(0%, 0%, 0%)" fill-opacity="1" d="M 1622.300781 774.78125 C 1629.550781 788.550781 1651.300781 795.078125 1651.300781 783.480469 C 1651.300781 774.050781 1634.628906 760.269531 1624.46875 760.269531 C 1616.5 760.269531 1616.5 763.898438 1622.300781 774.78125 Z M 1622.300781 774.78125 "/>
<path fill-rule="nonzero" fill="rgb(0%, 0%, 0%)" fill-opacity="1" d="M 1691.179688 796.53125 C 1686.109375 805.230469 1699.878906 832.78125 1710.039062 832.78125 C 1721.640625 832.78125 1725.980469 811.75 1716.558594 800.148438 C 1706.410156 787.828125 1697.710938 786.378906 1691.179688 796.53125 Z M 1691.179688 796.53125 "/>
<path fill-rule="nonzero" fill="rgb(0%, 0%, 0%)" fill-opacity="1" d="M 1517.160156 816.109375 C 1495.410156 821.179688 1477.28125 840.03125 1477.28125 857.441406 C 1477.28125 893.691406 1546.160156 963.300781 1582.421875 963.300781 C 1624.46875 963.300781 1637.53125 895.140625 1602.71875 853.808594 C 1586.769531 834.960938 1542.539062 808.128906 1533.839844 811.75 C 1532.390625 812.480469 1525.140625 814.660156 1517.160156 816.109375 Z M 1517.160156 816.109375 "/>
<path fill-rule="nonzero" fill="rgb(0%, 0%, 0%)" fill-opacity="1" d="M 1342.410156 895.140625 C 1370.691406 904.570312 1396.789062 912.539062 1400.421875 911.820312 C 1404.769531 911.820312 1385.921875 903.839844 1358.359375 893.691406 C 1330.089844 884.269531 1303.980469 876.289062 1300.359375 877.019531 C 1296 877.019531 1314.859375 884.988281 1342.410156 895.140625 Z M 1342.410156 895.140625 "/>
<path fill-rule="nonzero" fill="rgb(0%, 0%, 0%)" fill-opacity="1" d="M 1883.328125 886.441406 C 1883.328125 887.890625 1889.128906 893.691406 1896.390625 898.769531 C 1907.261719 908.191406 1907.988281 907.46875 1898.558594 895.871094 C 1889.128906 884.269531 1883.328125 880.640625 1883.328125 886.441406 Z M 1883.328125 886.441406 "/>
<path fill-rule="nonzero" fill="rgb(0%, 0%, 0%)" fill-opacity="1" d="M 1807.191406 912.539062 C 1821.699219 928.5 1829.679688 927.050781 1823.148438 908.921875 C 1820.25 903.121094 1813 898.039062 1806.46875 898.039062 C 1794.871094 898.039062 1794.871094 899.488281 1807.191406 912.539062 Z M 1807.191406 912.539062 "/>
<path fill-rule="nonzero" fill="rgb(0%, 0%, 0%)" fill-opacity="1" d="M 1699.160156 916.890625 C 1656.378906 959.679688 1743.390625 1070.621094 1807.191406 1054.660156 C 1822.429688 1051.039062 1825.320312 1045.960938 1825.320312 1023.480469 C 1825.320312 953.871094 1736.859375 879.191406 1699.160156 916.890625 Z M 1699.160156 916.890625 "/>
<path fill-rule="nonzero" fill="rgb(0%, 0%, 0%)" fill-opacity="1" d="M 1681.761719 1047.410156 C 1682.480469 1053.941406 1688.28125 1061.191406 1693.359375 1063.359375 C 1699.878906 1065.539062 1702.78125 1061.910156 1700.609375 1053.210938 C 1699.878906 1046.691406 1694.078125 1039.441406 1689.011719 1037.261719 C 1682.480469 1035.089844 1679.578125 1038.710938 1681.761719 1047.410156 Z M 1681.761719 1047.410156 "/>
<path fill-rule="nonzero" fill="rgb(0%, 0%, 0%)" fill-opacity="1" d="M 1293.109375 1061.191406 C 1290.929688 1067.710938 1279.320312 1074.238281 1267 1076.421875 C 1239.441406 1082.21875 1239.441406 1087.289062 1267.71875 1119.191406 C 1284.398438 1138.050781 1296 1144.570312 1313.410156 1144.570312 C 1345.308594 1144.570312 1356.191406 1135.148438 1356.191406 1107.589844 C 1356.191406 1070.621094 1304.710938 1032.179688 1293.109375 1061.191406 Z M 1293.109375 1061.191406 "/>
<path fill-rule="nonzero" fill="rgb(0%, 0%, 0%)" fill-opacity="1" d="M 1857.230469 1110.5 C 1872.460938 1129.351562 1886.230469 1144.570312 1888.410156 1144.570312 C 1893.480469 1144.570312 1847.800781 1088.019531 1837.648438 1081.488281 C 1833.300781 1078.589844 1842 1091.640625 1857.230469 1110.5 Z M 1857.230469 1110.5 "/>
<path fill-rule="nonzero" fill="rgb(0%, 0%, 0%)" fill-opacity="1" d="M 1575.160156 1097.441406 C 1541.089844 1109.769531 1528.039062 1125 1528.039062 1154 C 1528.039062 1182.28125 1551.238281 1213.460938 1590.390625 1235.941406 C 1666.53125 1280.171875 1739.039062 1226.511719 1704.960938 1151.101562 C 1681.761719 1098.171875 1630.269531 1077.140625 1575.160156 1097.441406 Z M 1575.160156 1097.441406 "/>
<path fill-rule="nonzero" fill="rgb(0%, 0%, 0%)" fill-opacity="1" d="M 1774.570312 1133.699219 C 1763.691406 1146.75 1769.488281 1164.878906 1785.441406 1171.398438 C 1801.390625 1177.199219 1813 1163.429688 1807.921875 1146.03125 C 1801.390625 1127.171875 1785.441406 1121.371094 1774.570312 1133.699219 Z M 1774.570312 1133.699219 "/>
<path fill-rule="nonzero" fill="rgb(0%, 0%, 0%)" fill-opacity="1" d="M 1091.53125 1141.679688 C 1068.320312 1154 1064.691406 1177.199219 1084.28125 1186.628906 C 1108.929688 1200.410156 1168.390625 1204.039062 1182.890625 1193.160156 C 1201.019531 1180.109375 1192.308594 1154.730469 1165.488281 1140.949219 C 1139.378906 1127.171875 1116.898438 1127.898438 1091.53125 1141.679688 Z M 1091.53125 1141.679688 "/>
<path fill-rule="nonzero" fill="rgb(0%, 0%, 0%)" fill-opacity="1" d="M 457.066406 1174.308594 C 444.011719 1177.929688 433.136719 1183 433.136719 1184.460938 C 433.136719 1190.261719 471.570312 1180.109375 480.269531 1172.859375 C 487.519531 1165.601562 488.246094 1165.601562 457.066406 1174.308594 Z M 457.066406 1174.308594 "/>
<path fill-rule="nonzero" fill="rgb(0%, 0%, 0%)" fill-opacity="1" d="M 504.199219 1178.660156 C 509.273438 1180.828125 515.800781 1180.109375 517.976562 1177.929688 C 520.875 1175.761719 516.523438 1173.578125 508.546875 1174.308594 C 500.574219 1174.308594 498.398438 1176.480469 504.199219 1178.660156 Z M 504.199219 1178.660156 "/>
<path fill-rule="nonzero" fill="rgb(0%, 0%, 0%)" fill-opacity="1" d="M 1365.609375 1191.710938 C 1363.441406 1198.230469 1361.261719 1210.558594 1361.261719 1218.539062 C 1361.261719 1228.691406 1357.640625 1231.589844 1350.390625 1228.691406 C 1332.980469 1222.160156 1337.328125 1229.410156 1374.320312 1268.570312 C 1414.191406 1311.351562 1438.851562 1325.851562 1471.480469 1325.851562 C 1549.789062 1325.851562 1554.859375 1227.238281 1478 1193.160156 C 1450.449219 1180.828125 1440.300781 1180.109375 1412.738281 1186.628906 C 1390.269531 1191.710938 1377.941406 1191.710938 1375.039062 1186.628906 C 1372.140625 1183 1368.519531 1185.179688 1365.609375 1191.710938 Z M 1365.609375 1191.710938 "/>
<path fill-rule="nonzero" fill="rgb(0%, 0%, 0%)" fill-opacity="1" d="M 403.40625 1203.308594 L 386.003906 1217.808594 L 406.308594 1205.480469 C 417.1875 1198.960938 425.886719 1192.429688 425.886719 1190.980469 C 425.886719 1185.179688 420.085938 1188.078125 403.40625 1203.308594 Z M 403.40625 1203.308594 "/>
<path fill-rule="nonzero" fill="rgb(0%, 0%, 0%)" fill-opacity="1" d="M 462.140625 1199.679688 C 422.988281 1213.460938 378.03125 1246.808594 342.5 1289.589844 C 296.820312 1343.980469 298.992188 1352.679688 346.851562 1308.449219 C 396.160156 1262.769531 451.265625 1224.339844 500.574219 1201.859375 C 525.949219 1190.980469 528.125 1188.078125 512.898438 1188.808594 C 502.746094 1188.808594 480.269531 1193.878906 462.140625 1199.679688 Z M 462.140625 1199.679688 "/>
<path fill-rule="nonzero" fill="rgb(0%, 0%, 0%)" fill-opacity="1" d="M 1053.089844 1215.640625 L 1024.089844 1229.410156 L 1047.289062 1241.011719 C 1074.851562 1255.519531 1095.878906 1256.238281 1129.960938 1245.371094 C 1185.789062 1226.511719 1182.160156 1211.289062 1121.261719 1205.480469 C 1092.25 1203.308594 1074.128906 1205.480469 1053.089844 1215.640625 Z M 1053.089844 1215.640625 "/>
<path fill-rule="nonzero" fill="rgb(0%, 0%, 0%)" fill-opacity="1" d="M 1246.699219 1254.789062 C 1233.640625 1267.839844 1236.550781 1280.171875 1256.851562 1296.121094 C 1288.75 1321.5 1332.261719 1312.800781 1332.261719 1281.621094 C 1332.261719 1254.789062 1267 1234.488281 1246.699219 1254.789062 Z M 1246.699219 1254.789062 "/>
<path fill-rule="nonzero" fill="rgb(0%, 0%, 0%)" fill-opacity="1" d="M 1799.949219 1251.890625 C 1760.789062 1259.871094 1747.019531 1309.898438 1773.121094 1349.78125 C 1803.570312 1394.730469 1865.199219 1420.839844 1889.128906 1396.910156 C 1900.730469 1385.308594 1900.011719 1338.179688 1887.679688 1309.179688 C 1871.730469 1270.738281 1832.578125 1244.640625 1799.949219 1251.890625 Z M 1799.949219 1251.890625 "/>
<path fill-rule="nonzero" fill="rgb(0%, 0%, 0%)" fill-opacity="1" d="M 1580.960938 1304.101562 C 1557.039062 1313.519531 1558.488281 1349.058594 1583.140625 1368.628906 C 1615.769531 1394.730469 1651.300781 1385.308594 1651.300781 1350.5 C 1651.300781 1317.148438 1612.148438 1291.769531 1580.960938 1304.101562 Z M 1580.960938 1304.101562 "/>
<path fill-rule="nonzero" fill="rgb(0%, 0%, 0%)" fill-opacity="1" d="M 716.648438 1438.238281 C 716.648438 1441.871094 724.628906 1454.921875 734.777344 1467.238281 C 744.929688 1478.839844 750.007812 1482.46875 746.378906 1474.5 C 734.777344 1452.738281 716.648438 1430.269531 716.648438 1438.238281 Z M 716.648438 1438.238281 "/>
<path fill-rule="nonzero" fill="rgb(0%, 0%, 0%)" fill-opacity="1" d="M 1225.671875 1468.691406 C 1232.191406 1470.140625 1243.800781 1470.140625 1251.050781 1468.691406 C 1257.570312 1466.519531 1251.769531 1465.070312 1238 1465.070312 C 1224.21875 1465.070312 1218.421875 1466.519531 1225.671875 1468.691406 Z M 1225.671875 1468.691406 "/>
<path fill-rule="nonzero" fill="rgb(0%, 0%, 0%)" fill-opacity="1" d="M 354.828125 1798.609375 C 359.179688 1810.210938 380.929688 1823.269531 386.730469 1816.738281 C 393.257812 1810.210938 375.855469 1789.910156 362.800781 1789.910156 C 357 1789.910156 353.378906 1793.539062 354.828125 1798.609375 Z M 354.828125 1798.609375 "/>
<path fill-rule="nonzero" fill="rgb(0%, 0%, 0%)" fill-opacity="1" d="M 303.347656 1811.660156 C 303.347656 1817.460938 306.246094 1827.621094 309.871094 1833.421875 C 318.574219 1846.46875 318.574219 1834.871094 309.871094 1815.289062 C 305.519531 1805.859375 303.347656 1804.410156 303.347656 1811.660156 Z M 303.347656 1811.660156 "/>
<path fill-rule="nonzero" fill="rgb(0%, 0%, 0%)" fill-opacity="1" d="M 396.882812 1876.929688 C 411.386719 1886.351562 420.808594 1886.351562 415.007812 1876.929688 C 412.835938 1872.570312 404.859375 1869.671875 398.332031 1869.671875 C 387.457031 1869.671875 387.457031 1871.121094 396.882812 1876.929688 Z M 396.882812 1876.929688 "/>
<path fill-rule="nonzero" fill="rgb(0%, 0%, 0%)" fill-opacity="1" d="M 449.089844 1885.621094 C 451.265625 1890.699219 462.867188 1900.859375 476.644531 1908.828125 L 499.847656 1922.609375 L 491.871094 1907.378906 C 479.542969 1884.898438 442.566406 1866.050781 449.089844 1885.621094 Z M 449.089844 1885.621094 "/>
<path fill-rule="nonzero" fill="rgb(0%, 0%, 0%)" fill-opacity="1" d="M 510 1893.601562 C 517.976562 1915.359375 570.90625 1939.28125 570.90625 1921.878906 C 570.90625 1911 546.253906 1892.871094 525.222656 1887.800781 C 509.273438 1883.449219 506.375 1884.898438 510 1893.601562 Z M 510 1893.601562 "/>
<path fill-rule="nonzero" fill="rgb(0%, 0%, 0%)" fill-opacity="1" d="M 1011.769531 1040.890625 C 1016.839844 1043.058594 1023.371094 1042.339844 1025.539062 1040.160156 C 1028.441406 1037.980469 1024.089844 1035.808594 1016.121094 1036.539062 C 1008.140625 1036.539062 1005.96875 1038.710938 1011.769531 1040.890625 Z M 1011.769531 1040.890625 "/>
<path fill-rule="nonzero" fill="rgb(0%, 0%, 0%)" fill-opacity="1" d="M 2374.230469 982.148438 C 2364.800781 991.578125 2369.148438 1012.609375 2380.03125 1016.960938 C 2395.980469 1022.761719 2402.5 1001.011719 2389.449219 987.949219 C 2383.648438 982.148438 2377.128906 979.980469 2374.230469 982.148438 Z M 2374.230469 982.148438 "/>
<path fill-rule="nonzero" fill="rgb(0%, 0%, 0%)" fill-opacity="1" d="M 2345.21875 1073.519531 C 2307.519531 1102.519531 2319.839844 1161.980469 2374.949219 1209.839844 C 2411.199219 1241.738281 2438.761719 1246.808594 2458.339844 1225.789062 C 2479.359375 1202.578125 2469.941406 1156.898438 2435.128906 1106.871094 C 2407.578125 1067.710938 2371.320312 1053.941406 2345.21875 1073.519531 Z M 2345.21875 1073.519531 "/>
<path fill-rule="nonzero" fill="rgb(0%, 0%, 0%)" fill-opacity="1" d="M 2223.410156 1253.339844 C 2205.28125 1264.210938 2192.949219 1301.191406 2198.03125 1328.75 C 2206 1371.53125 2266.179688 1420.109375 2311.859375 1420.109375 C 2360.449219 1420.109375 2374.230469 1384.589844 2347.390625 1329.480469 C 2318.390625 1270.019531 2257.480469 1232.308594 2223.410156 1253.339844 Z M 2223.410156 1253.339844 "/>
<path fill-rule="nonzero" fill="rgb(0%, 0%, 0%)" fill-opacity="1" d="M 2463.410156 1304.101562 C 2463.410156 1307.71875 2467.039062 1311.351562 2470.660156 1311.351562 C 2475.011719 1311.351562 2477.910156 1307.71875 2477.910156 1304.101562 C 2477.910156 1299.75 2475.011719 1296.851562 2470.660156 1296.851562 C 2467.039062 1296.851562 2463.410156 1299.75 2463.410156 1304.101562 Z M 2463.410156 1304.101562 "/>
<path fill-rule="nonzero" fill="rgb(0%, 0%, 0%)" fill-opacity="1" d="M 2191.5 1415.761719 C 2171.921875 1430.269531 2180.628906 1452.738281 2206 1452.738281 C 2222.679688 1452.738281 2228.480469 1449.121094 2229.929688 1436.789062 C 2232.828125 1415.761719 2209.628906 1402.710938 2191.5 1415.761719 Z M 2191.5 1415.761719 "/>
<path fill-rule="nonzero" fill="rgb(0%, 0%, 0%)" fill-opacity="1" d="M 2341.589844 1484.640625 C 2335.789062 1488.269531 2332.890625 1499.871094 2334.339844 1511.480469 C 2336.519531 1529.609375 2339.421875 1532.5 2358.269531 1532.5 C 2374.949219 1532.5 2380.75 1528.878906 2382.199219 1517.28125 C 2383.648438 1508.570312 2379.300781 1496.25 2372.769531 1489.71875 C 2359 1476.671875 2355.371094 1475.941406 2341.589844 1484.640625 Z M 2341.589844 1484.640625 "/>
<path fill-rule="nonzero" fill="rgb(0%, 0%, 0%)" fill-opacity="1" d="M 2227.03125 1539.03125 C 2177.71875 1560.78125 2166.121094 1647.070312 2204.550781 1698.550781 C 2216.148438 1713.050781 2237.179688 1728.28125 2256.761719 1736.25 C 2287.21875 1747.859375 2292.289062 1747.859375 2314.039062 1736.980469 C 2353.921875 1718.128906 2372.769531 1659.390625 2353.921875 1610.820312 C 2343.769531 1583.261719 2312.589844 1550.628906 2284.308594 1539.03125 C 2256.039062 1526.699219 2255.308594 1526.699219 2227.03125 1539.03125 Z M 2227.03125 1539.03125 "/>
<path fill-rule="nonzero" fill="rgb(0%, 0%, 0%)" fill-opacity="1" d="M 2112.46875 1874.019531 C 2109.558594 1888.53125 2108.839844 1901.578125 2110.289062 1903.03125 C 2112.46875 1905.199219 2116.089844 1895.058594 2118.269531 1879.820312 C 2121.160156 1865.320312 2121.890625 1852.269531 2120.441406 1850.820312 C 2118.269531 1848.648438 2114.640625 1858.800781 2112.46875 1874.019531 Z M 2112.46875 1874.019531 "/>
</svg>
