<svg width="717" height="948" viewBox="0 0 717 948" fill="none" xmlns="http://www.w3.org/2000/svg">
<g>
<path d="M120.499 271.509C88.2278 268.968 56.7168 269.857 26.4978 275.735C76.0128 273.831 201.48 308.252 199.307 356.78C199.776 357.222 200.234 357.675 200.701 358.117C204.903 357.804 209.192 357.835 213.527 358.272C253.563 362.343 282.718 398.089 278.647 438.126C278.452 440.076 278.17 441.997 277.823 443.888C229.865 408.237 172.604 383.658 109.301 374.529C72.2378 369.186 35.6738 369.531 0.464844 374.855C57.7778 375.057 201.096 420.911 196.233 476.89C196.754 477.422 197.263 477.966 197.778 478.496C202.65 478.343 207.624 478.443 212.595 479.303C295.039 493.565 318.645 600.84 318.277 631.65C352.497 551.319 354.572 289.939 120.499 271.509Z" fill="blue"/>
<path d="M713.936 255.904C595.377 239.972 600.603 142.526 613.156 104.759C612.946 104.762 612.741 104.775 612.531 104.775C562.022 104.775 521.074 63.8262 521.074 13.3172C521.074 12.0902 521.119 10.8732 521.166 9.65518C505.699 28.7172 482.096 40.9092 455.634 40.9092C425.32 40.9092 398.753 24.9122 383.883 0.910156C376.458 38.1072 343.635 66.1392 304.255 66.1392C303.219 66.1392 302.195 66.0992 301.169 66.0602C303.164 73.1052 304.255 80.5301 304.255 88.2151C304.255 126.633 277.57 158.794 241.73 167.238C267.215 180.937 284.542 207.845 284.542 238.804C284.542 252.585 281.098 265.557 275.042 276.926C277.297 280.671 279.663 284.513 282.177 288.487C354.19 402.315 366.748 525.6 336.485 622.488C300.855 736.563 301.665 774.866 311.206 824.354C336.729 956.737 481.332 969.7 537.432 921.185C622.676 847.461 556.44 750.112 502.129 741.966C555.162 817.629 530.505 864.534 478.892 883.165C406.519 909.291 352.62 800.358 418.823 750.458C712.286 529.264 533.181 304.21 438.646 253.186C412.552 239.103 407.086 209.737 426.096 174.439C426.096 258.617 532.318 249.014 572.731 258.617C652.205 277.506 635.184 299.349 647.677 334.648C711.764 331.934 722.08 277.627 713.936 255.904Z" fill="blue"/>
</g>
</svg>
