<?xml version="1.0" encoding="UTF-8"?>
<svg id="Layer_1" data-name="Layer 1" xmlns="http://www.w3.org/2000/svg" version="1.1" viewBox="0 0 894 894">
  <defs>
    <style>
      .cls-1 {
        fill: #000;
        stroke-width: 0px;
      }
    </style>
  </defs>
  <g id="ZswXar">
    <g>
      <path class="cls-1" d="M355.5,482.1c2.4-2.8,4.6-4.1,7-5.3,2.8-1.4,5.3-3.3,8-4.8,5.3-3,8.3-7.7,10.6-13,.2-.4.6-.8.6-1.2.3-4.7,4-5.6,7.4-6.8.4-.2,1.1.1,1.5-.1.9-.5,2.3-1.2,2.3-1.9,0-2-1.7-.9-2.6-1-3.3-.5-6.6-.6-9.1-3.3-1.9-2-1.5-4.7-2.7-6.9-.5-.9,2-1.6,2.3-1.3,1.4,1,2.1-.9,3.4-.5,1.2.4,2.6,0,4,0s2.7.1,4,0c2.5-.3,5,.6,7.7-.8,2-1.1,4.6,0,7.1-.9,2.5-.9,5.6-.3,8.4-.2,1.4,0,2.5-.3,3.6-1,1.6-1,2.7-3.2,1.9-4.7-.8-1.5-1.8-3.2-3.2-4.1-3.2-2-5.2-5.1-7.8-7.7-7-7.2-13.4-15.2-22.6-20-2.7-1.4-5.6-2-8.4-2.5-2.8-.6-5.9.8-8.6-1-3.2,1.9-6.7.8-10.1.9-3.2.1-6.1,1.2-9.2,2-6.7,1.9-9.4,4.6-9.9,13-.2,3,0,6,0,9,0,4,2,9.7,4.9,12.4,3.5,3.2,7.5,5.7,12.6,5.7,3.7,0,7.3,0,11,0,3.4,0,5.2,1.7,5.4,5,0,1.3.2,2.4.9,3.6.9,1.8,0,3-2.4,4.3-1.2.7-2.4,1.6-4,2.6,1.9.5,3.4,1.3,4.8,1.3,1.9,0,2,1.3,1.6,2.2-1,1.9-1.3,4.2-3.1,5.7-2.8,2.4-5,5.4-7.9,7.7-5.3,4.2-10,9.1-14.7,13.9-.9.9-1.6.8-2.4-.1-3-3.5-6.9-6.1-9.3-10.2-.9-1.5-2.6-2.5-3.8-3.9-4.4-5.3-8.9-10.5-12.7-16.2-2.2-3.3-4.6-6.5-7.2-9.5-.9-1.1-1-2-.6-3.1.2-.6.8-1.2.7-1.7-.7-4.6,1-9,1.1-13.6,0-2,.6-4.1,1-6.1.3-1.9-.8-4,1-5.6-.4-3.1.4-6.1,1-9.1.7-3.4,1.3-6.8,2.3-10,1.1-3.4,1.6-7,2.7-10.4,1-3.2,2.3-6.4,3.1-9.7,1.4-5.5,3.6-10.8,5.5-16.2,1.2-3.3,2-4.2,4.5-6.6,1.1-1.1,2.4-2,3-3.7.7-2,3.2-2.6,4.5-4.5,1.1-1.7,3.5-1.9,4.6-4,.8-1.5,2.7-2.5,4.1-3.7,1.6-1.5,3.1-3.1,4.6-4.6,1.4-1.4,2.8-2.8,4.2-4.2,1.5-1.5,2.9-3.3,4.6-4.5,4.8-3.4,8.6-7.9,13.3-11.4,7.2-5.4,14.1-11.1,22.2-15.2.9-.4,1.6-.7,1.8.5,1,5.2,3.5,9.9,5.3,14.8,2.2,5.9,4.8,11.7,7.3,17.5,3.3,7.8,7.1,15.4,10.9,23,2.9,5.9,6.8,11.2,9.8,17,2.8,5.4,7.3,9.8,9.8,15.4.7,1.6,2.5,2.9,3.6,4.1,2.2-3.3,4.4-7.1,6.9-10.7,3.4-4.9,6.4-10,9.4-15.1,4-6.7,7.9-13.3,11.1-20.4,2.7-6.2,5.5-12.4,8.1-18.7,1.9-4.8,4-9.7,6-14.5,1.6-3.8,3.2-7.7,4.7-11.5.7-1.8,1.5-2.3,2.9-1.3,3.1,2.1,6.4,4.1,9.3,6.4,5.7,4.4,11.3,9,16.9,13.6,14.2,11.7,26.5,25.2,39.8,37.9,1.7,1.6,2.6,3.6,2.9,5.3.7,4.4,2.6,8.3,3.8,12.5,1.5,5.2,3.4,10.3,4.4,15.7.4,1.9,1.4,3.8,1.9,5.7,1.4,4.8,2.5,9.7,3.1,14.7.6,5.1,1.5,10.1,2.1,15.2.4,3.2,0,6.6,1,9.6,1,3.3.5,6.4.8,9.6.1,1.2-.2,2.1-1,3.1-3.1,3.8-6,7.8-8.9,11.8-1.3,1.8-2.2,3.8-3.6,5.5-2.5,3-5.1,5.9-7.7,8.8-3.7,4.1-7.6,8.2-11.3,12.3-1,1.1-1.7,1.2-2.8.1-7.6-7.4-15.3-14.6-22.9-21.9-1.7-1.6-2.9-3.4-2.8-5.9,0-1.1.4-1.5,1.4-1.4.5,0,1,.1,1.5,0,1-.4,2.7-.8,2.8-1.3,0-1-1.3-1.3-2.2-1.8-3.8-2.2-4.2-1.3-2.7-7.1.2-.9.1-1.9.2-2.9.2-2.1,1.9-3.7,4.2-3.8,3.5,0,7,0,10.5,0,4.4,0,8.4-1.2,11.9-4,2.3-1.9,5.8-6.7,6.5-9.3,1.3-5,1.1-10,.9-15.1,0-1.8-.6-3.7-1.3-5.4-.5-1.2-1.5-2.3-2.5-3.2-2.4-2.1-5.3-3.3-8.3-4-3.3-.8-6.6-1.3-10.1-1.1-1.7,0-3.5.7-5.2-.8-.6-.5-2.3-.6-2.8,0-1.9,1.7-4.1.9-6.2.9-5.2-.2-9.3,2.5-13.6,4.7-1.7.9-3.1,2.2-4.5,3.5-1.4,1.2-2.4,3-4,3.8-1.6.8-2.2,2.9-4.1,3.2-2,4.8-7.6,6.7-9.5,11.5-3,1-4.4,3.8-6.7,5.6-1.8,1.4-1.1,3.3-1.1,5,0,1.1,2.7,2.6,4.2,2.7,2.5,0,5.3-.7,7.4.2,3.9,1.6,7.9.5,11.8,1.6,3.7,1.1,7.9.2,11.9.2,1.4,0,2.9-.5,4.1.9.4.5,2,0,2.2.5.4.8.5,2.1.1,2.9-.7,1.7-1.6,3.4-2.7,4.9-1.9,2.6-5.2,2-7.8,2.8-1.2.3-2.7-.5-3.7.8-.2.3-.5.5-.7.7.2.2.5.4.7.5,1.8.6,3.5,1.3,5.3,1.6,3.8.5,5,2.8,6,6.3,2,6.6,6.2,11.9,12.4,15.1,3.9,2,7.6,4.4,11,7.2.7.6,1.6,1,2.9,1.7-1.3,0-2.2.4-2.8.1-5-2.5-10.3-3.2-15.8-3-1.8,0-3.7,0-5.5,0-.5,0-1.3.4-1.4.8-1.3,4.4-5.2,6.4-8.4,8.9-1.8,1.5-4,2.5-5.8,3.9-1.2.9-1.9,2-1.9,3.7,0,4.7,1.8,9.3,1.1,14.1-.1,1,0,2,0,3-2.2-1.3-3.3-2.7-6-6.6-1.5-2.2-3.2-4.4-5-6.4-.9-1-1.7-.7-1.9.6-.9,4.1-3.3,7.3-5.4,10.7-1.8,3-4.1,5.7-6.3,8.4-1,1.2-1.8,1.1-2.7-.2-1.4-2.1-2.6-4.4-4.3-6.2-2.5-2.5-5.4-4.6-8.1-6.8-.8-.7-1.8-1.3-2.6-1.9-.6.9-1.1,1.9-1.8,2.8-3.2,4-6.5,8-9.9,12.2-3.6-2.9-6-6.7-8.7-10.2-.3-.4-.5-.8-.8-1.2-1-1.2-1.9-2.5-2.9-3.7-1.3,1-2.5,2-3.8,2.9-1.4,1.1-2.8,2.1-4.2,3.2-3.6,3.1-6,7.1-8.8,10.9-.4-.8-.6-1.6-1.1-2.1-3.9-3.4-6-8.2-9.1-12.3-1.3-1.7-1.6-4.3-2.4-6.5-.4-1.3-1-1.6-1.9-.8-2.5,2.1-4.3,4.8-6.1,7.5-.3.5-.6,1.1-1,1.6-2.3,2.7-3.4,3.5-4,3-1.9-1.4.3-2.7.1-4.2-.4-2.8,0-5.7.7-8.6.9-3.5-.2-6.8-4.1-8.8-2.9-1.5-5.4-3.8-8.1-5.8-.5-.4-1-.9-1.4-1.4-1.2-1.5-2.1-3.7-3.6-4.3-2-.8-4.6-.2-6.9-.4-5.7-.4-10.9,1.6-17.4,3.3ZM560.1,393.3c-.2-.2-.3-.4-.5-.6-.1.1-.3.3-.4.4.2.2.4.3.6.4,0,0,.2-.2-.7-.6.1-.2.3-.3.4-.5-2-2-3.7-4.3-6-5.8-3.1-2.1-6.2-4.3-10.3-4-2.6.2-5.2,0-8,0,.7-1.3,1.3-2.2,1.7-3.2,1.9-4.9,5.4-9,7.1-14,1.8-5.3,2.1-10.5-1-15.5-.9-1.5-1.8-3-2.8-4.3-1.7-2.3-3.1-5.2-5.4-6.6-3.1-1.9-6.6-3.6-10.6-3.3-2.5.2-5,.3-7.5,0-4.8-.6-8.3,1.7-11.5,4.7-1.9,1.7-3.3,4-5.4,6.5,1.3-.3,1.8-.2,2.2-.5,3-2,6-4,9-6,1.6-1.1,3.3-1.6,5.3-1.8,4.9-.5,8.8,2.2,13,3.7,1.7.6,3.4,2,4.5,3.5,1.9,2.8,3.7,5.8,4.9,8.9,1.2,2.9,2.5,6.3,1.4,9.3-.9,2.3-.7,4.9-2.5,7-1.6,1.9-2.2,4.5-3.7,6.4-1.8,2.3-3.9,4-7.2,4.4-3.3.4-6.5,2-9.8,2.7-3.9.8-7.1,3.1-10.6,4.7-2.7,1.3-5.2,3-7.3,5.2-2,2.2-4.1,4.3-6,6.2-2.6-1.8-4.9-3.4-7.3-4.9-.9-.5-2-.7-3-1,.4,1,.8,2.1,1.3,3.1.9,2,1.9,3.9,2.8,5.8.9,1.8.8,3.4-.8,4.8-3.6,3.1-7.5,5.7-11.8,7.7-3.3,1.6-6.1.7-7.9-2.3-2-3.3-3.8-6.7-5.8-10.4,0,1-.1,1.8-.2,2.6-.1,2.6,1.3,4.9,1.2,7.6,0,1.3,1.5,3.5,2.7,3.9,2.5.9,4.8,2.3,7.3,2.8,1.5.3,3.2.2,4.7-.1,3.1-.6,5.9-2.4,8.1-4.3,5.7-5,11-10.6,16.3-16.2,2.8-2.9,5.3-5.3,9.4-7.3,2.3-1.2,4.7-2.3,7.2-3.2,5-1.7,10.1-3.7,15.5-3.6,2.4,0,4.7-.4,7.2.8,2.2,1,4.9.3,7.6,1,2.7.7,5.2,1,7.3,3,1.2,1.1,2.9,1.6,5.5,2.8ZM441.1,404c-.3,0-.5,0-.8-.1-.7,1.2-2,2.4-2.1,3.6-.4,4.5-4.1,6.4-6.6,9.3-.5.5-1.7.8-2.3.6-5.4-2.2-10.2-5.4-14.8-8.9-.6-.4-1.5-1.9-.4-3.5,1.6-2.6,2.6-5.6,3.8-8.4.2-.5,0-1.1-.2-1.7-.5,0-1,0-1.3.3-2.5,1.7-4.9,3.5-7.3,5.3-.8.6-1.4.7-1.9-.3-.5-1-1.2-1.9-1.9-2.7-3.8-4.5-8.9-7.2-13.9-9.8-4.5-2.4-9.4-3.9-14.5-4.8-3-.5-6.1-1.3-8.4-4-2.9-3.4-4.5-7.5-6.2-11.4-.4-1-.9-2-1-3.1-.5-7,2.3-12.9,6.4-18.3,2.8-3.7,7.2-4.8,11.4-6.2,3.7-1.2,6.9-1.3,10.4.8,3,1.7,6.1,3.2,8.6,5.7.4.4,1.3.6,1.6.4.9-.7.4-1.4-.3-2-2-2-4.1-3.9-6-6-1.9-2-4.3-2.7-6.9-2.8-3.7-.1-7.4-.4-11,0-4,.5-8.2,1.2-10.9,4.9-2.1,2.9-4.2,5.8-6.1,8.9-3,4.7-2.9,10-1.7,14.2,1.5,5.1,3.9,9.8,7,14.1,1,1.4,1.6,3,2.3,4.5.1.2,0,.6-.2.9,0,0-.5,0-.7,0-2.2-1.2-4.5-.4-6.8-.6-4.6-.4-8.3,1.7-11.5,4.7-1.5,1.3-2.7,3-4.3,4.1-.8.5-1.9.4-1.3,1.8,0,0,1.2-.3,1.8-.6.6-.3,1-.8,1.6-1.1,2.8-1.6,5.1-4.5,8.9-3.9,1.9-2.1,4.5-.2,6.6-1.1,5.6-2.3,11.2-.8,16.6.4,4.9,1.1,9.6,3.3,14.3,5.2,2.2.9,4.3,1.9,5.9,3.8.8.9,2.7,1.3,2.9,2.2.4,1.7,1.7,2.4,2.6,3.4,4.1,4.2,8.2,8.3,12.3,12.4,2.6,2.6,5.7,4.5,9,6,.6.2,1.1.6,1.7.6,4.5.3,8.2-1.9,11.8-4,1.1-.6,2.2-2.1,2.4-3.4.6-3.1.8-6.2,1.2-9.4ZM456.2,484.2c1.7-2.1,3.2-3.7,4.3-5.4,1.3-2.1,2.8-4.2,3.5-6.5,1.6-5,1.5-7.2.1-12.6-1-4-2.5-7.7-4.8-11-2.5-3.6-5.7-6.7-8.8-10.2-3.4,3.8-6.6,7.5-9.8,11.2-.7.8-1.5,1.9-1.6,2.8,0,1.7-1.1,2.9-1.6,4.4-.8,2.5-2.6,5.1-2.2,7.4.4,2.3.8,4.9,1.6,7.3,1.6,4.8,4.8,8.4,7.8,12.8,1.2-6.4,1.7-12.6,5.8-17.5,3,5.3,5.4,10.6,5.6,17.5ZM501,480c-2.1,0-3.4-.2-4.6,0-2.3.5-4.5,1.2-6.8,1.7-1.1.2-2.1,0-3.1-.9-2.6-2.1-5.7-3.4-8-6-.1-.2-.6,0-1,0,0,.4,0,.8,0,1,2.1,3,4.3,5.8,6.4,8.8,1.7,2.5,1.7,2.5,4.4,1.3,3.9-1.8,7.8-3.7,12.5-5.9ZM399.8,480.2c3.8,2,7.3,3.8,10.9,5.6,2.6,1.3,2.7,1.3,4.4-.6,2.5-2.9,4.7-6,7-9.1.1-.2,0-.6,0-.9-.4,0-.8,0-1,.3-2.2,1.5-4.6,2.8-6.5,4.6-2.1,2-4,1.9-6.6,1.2-2.4-.7-5-2.2-8.1-1ZM398.2,466.5c2.5.6,4,.3,5.6,1.1,1.5.8,4,.5,5.8,0,.7-.2.7-2.5,1.1-3.8,0-.1.3-.3.3-.3-.5-1.3,1.3-2.3.5-3.7-1,.7-2.3,1.3-3,2.2-1.8,2.2-3.9,3.2-6.8,2.9-.8,0-1.7.8-3.5,1.6ZM500.2,466.5c-1-1.8-2.5-2-4-1.7-2.1.4-3.5-.6-4.6-2.1-1-1.3-2-2.6-3.2-4.3-.8,3.7,1,6.3,1.9,9,.4,1.1,1.2,1,2.5.5,2.1-.9,4.6-.9,7.4-1.4Z"/>
      <path class="cls-1" d="M451.1,631.9c-.3,4.7,2.8,7.6,3.1,11.4,3.3,4.3,5.8,9.2,10.9,12,1.7.9,2.8.6,3.8-.7,1.2-1.6,2.2-3.4,3.3-5.1,3.7-5.2,5.5-11.4,8.7-16.9,1.2-2.1,1.3-2.2,3.4-1.2,1.5.8,3,1.6,4.5,2.5,1.2.7,2.3,1.6,3.5,2.5,2.8,2,3.7,2,5.5-.7,1-1.5,1.5-3.4,2.5-5,1.4-2.4,3-4.8,4.7-7.1,1-1.3,2.4-1,3.1.4.5,1,1,2,1,3,0,2.8,2.4,4.7,2.4,7.6,0,2.2-.5,4.3-1.3,6-2.5,5.3-4.8,10.8-8.7,15.4-3.6,4.4-6.7,9.2-10,13.8-3.4,4.8-6.9,9.5-10.2,14.3-5.4,7.7-10.6,15.7-16.3,23.2-3.7,4.8-8.2,9-12.3,13.4-1,1.1-2.1,1.4-3.4.4-1.4-1.1-3-1.9-4.1-3.2-3.5-4.3-7-8.7-10.3-13.2-3.2-4.5-6.5-9-9.7-13.4-5.6-7.5-10.8-15.3-16.3-22.8-4.2-5.8-8.8-11.2-12.5-17.3-2.3-3.8-4.6-7.8-5.8-12-.7-2.3-.8-5.3.6-8.1,1-2.1,1.4-4.7,2.4-7,.8-1.8,2-1.9,3.4-.2,1,1.2,1.6,2.7,2.4,4,1.7,2.8,3.3,5.7,5.1,8.4.8,1.3,1.6,1.7,3.5.6,2.6-1.5,5.1-3,7.5-4.8,2.6-1.9,4.9-1.3,5.8,1.6,2.1,6.7,6.2,12.4,9.3,18.6.6,1.1,1.8,2,2.8,2.8,1,.9,1.9.6,3.1,0,6.1-3.6,9.1-9.4,11.9-15.5.5-1.1.7-2.4,1.1-3.5.4-1.2,1-2.3,1.8-4.3Z"/>
      <path class="cls-1" d="M692.8,506.7c1.1,1.8,2.7,3.5,3.1,5.5.5,2.8,3.4.6,4,2.6.7-.4,1.4-.7,2-1.2q4.2-3.9.9-8.6c-.2-.3-.5-.5-.6-.8-.3-1-1.1-2.4-.8-3,1.1-1.8,1.7.9,2.8.6.3,0,.7.6,1.2.7.8.1,1.6,0,2.3.1-.2-.6-.7-1.3-.6-1.9.4-3.2-1.9-4.5-4.1-6-.4-.3-.6-.9-.9-1.4.4-.2.8-.5,1.2-.6,1.7-.4,3.4-.7,5.1-1,1.8-.4,4-.3,5.4-1.4,1.6-1.2,3.8.4,4.9-1.6,0-.1.6,0,1,0,0,.4,0,.7-.1,1.1-.1.6-.4,1.2-.4,1.8.2,5.5-1.8,10.7-2.2,16.2-.2,2.8-1.3,5.7-2.1,8.6-1.1,4.5-2.6,9-3.6,13.5-1.1,5-2.9,9.8-4.5,14.6-2.5,7.6-5.4,15.1-9,22.2-2,4-3.3,8.4-5.6,12.1-3.6,5.8-6.2,12.2-10.2,17.8-2.6,3.7-4.8,7.7-7.5,11.4-3.6,5-7.2,10.1-10.9,15-3.8,5-8.3,9.3-11.8,14.6-.4.7-1.2,1.2-1.7,1.8-2.2,2.2-4.5,4.5-6.7,6.7-8.7,8.8-18,16.8-27.9,24.2-4.2,3.1-8.4,6.3-12.7,9.4-4.6,3.2-9.6,5.9-14.2,9.1-3.6,2.5-7.6,4.3-11.4,6.4-5.5,3-11.4,5.4-17.1,8.3-1.8.9-2.5.4-2.8-1.6,0-.2,0-.3,0-.5-.2-1.2.7-2.5,1.8-2.6,1.7-.2,2.3-1.5,1.6-3-.5-1.1-1.1-2.2-1.4-3.4-.1-.5-2.1-1-.3-1.5.7-.2,1.6-1.9,2.7-.2.9,1.5,2.1,2.8,3.1,4.2.7.9,1.1.7,1.8,0,.5-.5,1.4-.7,2-1.1.8-.6.9-1.8,0-1.9-1.9-.3-2.6-2-3.8-3-.8-.6-1.4-1.1-2.5-1.2-2.2-.1-2.7-.8-2-2.5,1.1-2.5,1.2-5.2,1.8-7.7.2-.8,0-1.3,1.1-1.7,1.6-.6,2.8-2.1,4.3-2.8,9.5-4.2,17.8-10.3,26.3-16.1,3.4-2.3,6.7-4.8,10-7.3,10.8-8.2,20.3-17.8,29.5-27.7,4.5-4.9,9.8-9.4,12.9-15.6,4.5-3.6,6.5-9.1,10.2-13.3,2.2-2.6,3.9-5.7,5.6-8.7,3.5-6.3,7.5-12.5,10.4-19.2,3.3-7.8,7.3-15.3,10-23.4,1.6-4.9,3.6-9.8,5.2-14.8,1.4-4.4,2.3-9,3.7-13.5.7-2.1,1.2-4.2,1.6-6.6ZM689.1,560.6c0-3.6,0-3.6-3.5-1.9-1.5.8-3,1.6-4.5,2.5-2,1.2-3.9,2.6-6,3.5-1.8.7-1.1,1.8-.8,2.7.2.7,1.3,1.1,1.6,1.8.7,1.5,1.4,2.8.2,4.6-1.5,2.2-1,3.1,1.4,3.9,1,.3,2.3-.1,3.1,1.1,0,.1,1,0,1.2-.4.2-.3.2-1,0-1.3-1.4-1.4-1.1-2,.8-2.5,1.8-.4,3.4-1.5,5.2-1.8,1.6-.3,1.3-1.3,1.1-2.1-.3-1.4-1.3-2.2-2.9-1.9-1.2.2-2.4.7-3.6,1-1.4.2-2.3-.8-2.4-1.8,0-.7.9-1.7,1.6-2.1,1-.5,2.2-.3,3.2-.6,4-1.3,4-1.3,4-4.6ZM685,543.2c.5,2.1.4,4,1.4,5,1.2,1.3,3.2,1.8,4.9,2.5.4.2,1.1.2,1.4,0,2.1-1.7,4.2-3.5,6.3-5.3.2-.2.2-1,0-1.3-.2-.3-1-.5-1.3-.3-1.5.7-3,1.6-4.5,2.4-.7.3-4-1.3-3.7-1.8.4-.7,1.2-1.2,2-1.4,2.6-.8,4.5-2.4,6.3-4.2.5-.5,1.5-1.1,2-.9.8.4,1.6,1.6,2.4.4.3-.5-.6-1.6-.8-2.5,0-.3,0-.7,0-1-.8-2.2-1.5-2.4-3.5-1-1.1.8-2.4,1.6-3.4,2.5-.8.8-1.1,0-1.4-.3-1-1.6-1.9-3.2-2.9-4.8-.2-.3-1.3-.2-1.6,0-.5.5-.9,1.3-1,2,0,.5.2,1.2.6,1.5,4.1,3,4.1,3,0,5.8-.4.2-1.1.1-1.3.4-.7.8-1.2,1.7-1.6,2.3ZM630.1,631.8v6.9c0,.3,0,.7,0,1,0,4,.1,4.1,4.3,4.1.3,0,.7,0,1,0,.7,0,1.8.3,1.7-1,0-.7.5-1.7-.8-2-3.1-.7-2-3.2-2.1-5.2,0-.3.9-.8,1.4-.8.5,0,1.4.3,1.5.7.2.9,0,2,0,3,.1,1.3,2.2,3.5,3.1,3.3,1.1-.3,1.6-1.2,2-2.4.6-2,.9-1.9-.9-2.6-.5-.2-1.1-.7-1.1-1.1,0-.9.3-1.9.4-2.8.2-2.1.5-4.1.5-6.2,0-.9-3-3-4-2.8-1.8.3-.6,1.9-.9,2.8-.1.5,0,1,0,1.5,0,3.2-.4,3.5-3.7,3.6-.6,0-1.3,0-2.3,0ZM610.1,655.3c2.6-.8,3.9-3,5.6-4.6.3-.3.5-.9.4-1.3-.1-.3-.7-.6-1.1-.6-1.3,0-2.5,0-3.5,1.1-1.5,1.7-3,3.3-5.1,4.3-1.6.7-1.6,1.8,0,3,2.2,1.8,4.6,3.3,6.9,4.9.3.2.8.2,1,0,2.5-2.3,4.4-5.5,8.6-4.6,0,0,.4-.5.4-.8,0-1.7-2.6-3.4-4-2.6-1.2.7-2.2,1.8-3.5,2.4-1.1.4-2.4,1.3-3.6,0-.6-.6-1.2-1-1.9-1.5ZM587.9,681.6c-1-2-1.7-4.2-3.1-5.6-1.6-1.5-1.6-3.1-1.6-4.9,0-.5,0-1,0-1.5,0-.3-.2-.8-.4-.8-.4,0-1-.1-1.3.1-.8.8-2,1.6-2.2,2.5-.8,4-2.3,7.9-2.1,12.1,0,1.3.9,1.1,1.7,1.1,1.3,0,2.1-.8,2.3-2,.2-1,0-2,0-3,0-.4.5-.9.8-.9.4,0,1.1.3,1.2.5.6,3.2,2.8,2.4,4.8,2.3ZM593.6,676.2c-1.6-2.1-2.8-3.9-4.2-5.7-.3-.4-1.1-.5-1.6-.8-.2.6-.7,1.2-.5,1.7,1,3.3,3,6.1,5,8.8.2.3,1.4.5,1.6.2,1.8-2,3.6-4.1,5.3-6.2.6-.7-.4-2.9-1.4-3.3-1.4-.6-1.4.5-1.7,1.4-.4,1.1-1.3,2.1-2.4,3.9ZM657.3,594.8c-.5,2.5.4,5-1.1,7.2-.2.3.1,1.2.4,1.7.5,1,1.1,1.9,1.7,2.8,1,1.5,2,1.6,4,.3,1.1-.7,1.3-1.9,0-3.1-1.9-1.8-1.5-3.7-.9-5.8.9-3.1.9-3.1-2.3-3.1-.6,0-1.3,0-1.9,0ZM652.3,622.8c.3-.2.6-.3.8-.5.5-.4.9-.9,1.4-1.4,2.5-2.5,2.5-2.9-.2-5.5-2.4-2.3-2.9-2.4-5.1-.2-2.8,2.8-2.9,2.2.1,5.2.7.7,1.4,1.4,2.1,2.1.2.2.6.2.9.3ZM670.9,594.8c1.3.1,1.3-.2,2.3-1.5.8-1,1.2-2,.8-3.1-.6-1.5-1.2-3.7-2.4-4.3-1.7-.8-2.4,1.7-3.7,2.5-.3.2-.4.5-.7.7-.9.7-.7,1.1-.2,2.2,1.1,2.2,1.8,3.2,3.9,3.4Z"/>
      <path class="cls-1" d="M328.3,685.3c.1-5.2-.9-4.2,1.3-3.3,2.3.9,3.9,3.7,6.3,4.7,2.1.9,1.5,1.9,1,2.9-.8,1.7-1.7,3.3-2.8,4.8-.5.8-.9,1.1,0,1.8.7.7,1.2,1.6,1.8,2.5.7-.6,1.4-1.3,2.2-1.9,3.4-2.1,3.2-2.1,4.2,1.8.4,1.5.9,2.7,0,4.2-.5.8-.4.7-1.2.3-1.6-.9-3.7-1.1-5-2.2-1.7-1.4-3.8-1.3-5.5-2.4-1.6-1-3.2-2-4.8-2.8-11.2-5.5-21.8-12.2-32-19.3-5.9-4.1-11.4-8.9-17-13.5-9.3-7.6-17.7-16.1-26.2-24.6-3.2-3.2-6-6.7-8.6-10.4-1.6-2.2-3.8-3.9-5.3-6.3-3.2-4.7-6.7-9.2-10-13.8-3.3-4.6-6.4-9.4-9.3-14.2-3.1-5.1-5.8-10.6-8.5-16-3.2-6.3-6.5-12.6-9.1-19.2-1.7-4.3-4.3-8.3-4.5-13.1-1.9-2.5-2.5-5.6-3.4-8.6-1.3-4.3-2.5-8.7-3.6-13-1.3-4.8-2.2-9.7-3.7-14.4-.7-2.2-1.1-4.6-1.2-7,0-3.2-1.8-6.3-1.1-9.6,0-.5-.7-1-.9-1.6-.8-2.7.7-4.5,3.2-3.5,6.2,2.5,12.8,3.6,19.1,5.8,1.9.7,2.4,1.4,2.8,3.2,1.2,6.3,2.1,12.7,4.1,18.8,2.5,7.8,4.2,15.8,7.4,23.4,2.1,4.9,4,10,5.7,15.2,1.4,4.4,4.2,8.2,6.2,12.4,3.9,8.5,9.2,16.2,13.7,24.3,1.8,3.2,4.4,5.8,6.4,8.8,2.4,3.5,5,6.9,7.6,10.3,2.3,3.1,5.1,5.9,7.6,8.8,1.9,2.2,4.2,3.9,5.8,6.6,1.1,1.8,3.7,2.6,5,4.4,1.1,1.5,2.4,3.3,3.7,4.2,2.2,1.5,3.9,3.4,5.8,5.1,6.3,5.4,12.7,10.7,19.4,15.7,4.7,3.5,9.6,6.7,14.4,10,3.8,2.6,8.1,4.5,12.2,6.8,1.9,1,4,1.9,5.6,3.3,2,1.7,2.5,4.4,2.3,7,0,1.2-1.4.9-2,.7-2.9-1.1-5.7-2.4-8.9,2.6,1.5,6.3,3,7.2,4.1,5.7.9-1.2,1.9-2.5,1.7-4.2,0-.3-.3-.9-.5-1-4-.9-5.5.2-5.5,4.3,0,.5,0,.9.1-4.8ZM292.3,665.4c-.4.7-1.1,1.2-1.1,1.7,0,.7.4,1.8.9,2,2.4,1,3.7,3.1,5.6,4.6.8.7,1.8,1.2,2.8,1.8,1.2.7,1.8-.4,2.4-1.1.6-.7.6-1.5-.6-1.7-.7-.1-1.3,0-.6-1,.4-.5.4-1.2.7-1.7.8-1.1,1.6-2.1,2.5-3.1.8,1.2,1.6,2.3,2.3,3.6.2.4,0,1,0,1.5.5,2,1,3.9,1.6,5.8.4,1.2.8,2.6,2.6,1.9,1.4-.5,2.6-2.4,1.7-3.4-1-1.2-.6-2.5-.9-3.7-.9-4-2-7.9-6.3-9.9-1.8-.9-3.3-2.4-5-3.7-.7-.6-1.3-1.9-2.4-1-.7.5-1.1,1.5-1.3,2.4-.4,1.5.4,2,1.7,2.8,2.3,1.3,2.3,2.8.6,4.8-.4.4-.6.9-1.4.3-1.7-1.1-3.6-1.8-5.7-2.8ZM213.2,563.8c-.7,0-1.3,0-2,0-2.4,0-2.3,0-1.2,2.4,1.9,4,5.7,6.2,8.5,9.4.4.4,1.7.4,2.3,0,2.6-1.4,5.1-2.9,7.6-4.5.9-.6,1.3-1.4.3-2.4-1.4-1.4-2.9-2.8-4.2-4.2-.6-.6-.8-.3-1.5,0-1.8.6-2.5,1.7-1.4,3.1,1.2,1.5-.2,1.7-.7,2.1-.7.5-1.3.3-1.7-.8-.4-1.3-1.5-2.4-1.9-3.7-.3-1-.6-1.4-1.6-1.3-.8,0-1.7,0-2.5,0ZM264,623.1c-1.4-1-2.3-3.6-5-1.8-.6.4-.8.2-.9-.8-.1-2,.7-4.4-2.5-4.9-1.4-.2-2.4-.2-2.4,1.1,0,1.3,0,2.7,0,4q0,2.6-2.4,3.9c-2.1,1.1-2.2,2.3-.4,3.7.3.3,1.5-.4,1.7-.1.5.7,1.2,1.7,1.1,2.5-.5,2,1.1,2,2.1,2.6,1.6.8,2,.6,1.9-1.1-.1-3.3-.4-6.5,4.5-6.5.8,0,1.6-1.6,2.4-2.5ZM239.8,610c.6-.4,1.3-.6,1.6-1.1,1.6-2.6,3.2-5.3,4.7-8,.1-.2-.3-1.1-.5-1.1-1.4,0-3.4-.7-3.9,1.1-.9,2.8-3,1.8-4.7,1.8-.6,0-1.5-1.2-1.7-2-.3-1.1.1-2.4-.2-3.4-.2-.6-1.1-1.2-1.8-1.4-.4-.1-1.3.5-1.5.9-1.3,2.5-2.4,5-3.6,7.5,1.9.9,3.9,1.9,5.8,2.8,1.4.7,2.7,1.4,4.1,2.1.5.3,1.1.5,1.8.9ZM283.6,662c2.7-2.4,5.3-4.7,7.8-6.9.9-.8,1.1-1.5.1-2.4-1.8-1.6-3.6-3.2-5.4-4.9-1.7,1.5-3.4,3.1-5,4.6-.1.1-.2.2-.4.4q-3,3,.2,6.3c.9.9,1.8,1.9,2.7,3ZM274.3,655.9c1.2-1.1,2.5-1.8,2.8-2.7.8-3.4,4-5.3,5.4-8.2.3-.6.5-1.1.7-1.7-.6-.2-1.2-.4-1.8-.5-1.6-.2-2.9.2-3.2,2.1-.2,1.2-.6.7-1.2.2-1-.8-2-1.5-3.1-2.1-1.3-.7-2.5-.3-3.4.9-1,1.2,0,1.8.8,2.4,1.6,1.2,2,2.7,2,4.7,0,1.5.6,3,1.1,4.9ZM211.9,544.7c.4-2,.8-3.7-1.8-4.5-1.1-.3-1-1.5-1-2.5,0-2-.1-4,0-6,.1-1.4-.6-2.2-1.5-2.9-.9-.7-1.8-1.2-2.7-1.8-1.3-.7-2.4-.4-3.4.7-1,1.1,0,1.7.6,2.4,1.5,1.6,3.3,2.9,3.1,5.7-.3,4.5,0,4.5,3.8,7.2.8.6,1.8,1,2.9,1.5ZM204.4,540.5c.4-2.1-1-3.2-2.2-4.2-1.5-1.2-3.8-.3-3.9,1.6-.1,1.7-.5,3.6,1.4,4.9.3.2.6,1.1.5,1.2-2.4,2.4,0,4,1,5.7,1.8,2.8,1.9,2.7,4.1.6,1-1,1.3-1.7.2-2.8-.6-.6-.8-1.7-1.5-2.3-1-1-1-2-.5-3.1.2-.5.6-1,1-1.5ZM204.2,511.8c-.1-.5-.1-1.6-.6-1.9-.7-.5-1.7-.6-2.7-.7-.2,0-.7.3-.8.5-.9,4.4-.9,4.4-4.1,7.7-.5.5-1,1.7-.8,2,.8,1,2.3,2.5,2.9,2.3,1.8-.8,3.8-2,4.8-3.6,1-1.6.8-4,1.2-6.3ZM224.6,592.7c.3-.3.8-.6,1-.9.6-1.4,1.1-2.8,1.6-4.3.3-.8.9-1.8.7-2.4-.3-.8-1.2-1.5-2-2.1-1-.7-2-.2-2.7,1.2-1,2-2,4.1-3,6.2-.1.3.1,1.1.4,1.2,1.3.5,3-.5,4,1.1ZM194.9,496.5c-1.5,1.5-2.6,2.6-3.6,3.7-1.2,1.3-.9,3.6.7,4.6.8.5,1.7.8,2.6,1,.8.1,2.1.1,2.3-.3.5-1.1,1-2.6.7-3.7-.5-1.8-1.6-3.3-2.6-5.3Z"/>
      <path class="cls-1" d="M459.3,218c2.2.2,4.2-.9,6.2.6,1.7,1.1,3.9-.2,6.1,1,1.9,1.1,4.6.3,7,1.1,3.9,1.4,8.1,2,12.2,3.1,3,.8,4.3,2.5,4.2,5.6,0,1.7.7,3.1,1,4.6.9,5.1,1.9,10.2,3.1,15.2.1.6.4,1.2.7,1.7,2.5,5,8,9.1,14.2,8.8,1,0,6.3-1.8,7-2.4,2-2,4.3-3.8,5.1-6.9.5-2,1.1-3.9,1-6.1-.2-4.2,0-8.3,0-12.5,0-2.1.8-2.8,2.6-2,3.8,1.7,7.6,3.4,11.3,5.3,7.8,4,15.6,8.1,23.3,12.4,4.2,2.3,8.7,4.1,12.5,7.2,1.4,1.1,2.8,2.1,4.6,3.5-1.8,1.3-3.1,2.6-4.7,3.4-3.6,1.8-5.8,5.1-8.6,7.9-.5.5-1.1,1.4-1,2,.5,2.8-.4,5.6-1.2,8-.8,2.6-.8,5.2-1.7,7.8-.7,2.1-.1,4.6-.1,6.9s0,3.7,0,5.5c0,.3-.3.9-.5.9-.4,0-1,0-1.3-.3-3-2.6-5.8-5.2-8.8-7.7-4.9-4-10-7.7-15.4-10.9-6.5-3.9-13.1-7.6-19.9-11-2.5-1.2-5-2.5-7.3-4-7.1-4.8-14.6-8.8-22.5-12.1-3.2-1.3-4.4-4.2-6.1-6.5-4.1-5.8-7.8-11.9-12.5-17.3-3.6-4.1-6.7-8.7-10.5-12.8ZM546.1,276.7c2.8.2,5.4.2,7.4-1.8,2.2.3,1.4-2.2,2.8-2.8,2.5-1,1.6-3.7,2.4-5.5.8-1.9-.2-4-1-5.7-2.6-5.3-11.1-8.2-16.5-5.6-4.3,2-7.8,4.8-7,10.4,0,.3,0,.7,0,1-.2,2.4.8,4.3,2.4,6,2.6,3,5.6,4.9,9.6,4Z"/>
      <path class="cls-1" d="M336.1,302.2c0-1.5-.3-2.5,0-3.1,1.6-3.3,1.1-6.8.9-10.1-.2-3.6-.7-7.3-2.1-10.6-.8-1.9,0-4.3-1.8-5.8.8-3.1-1.3-4.9-3.3-6.6-2.2-1.9-4.5-3.5-6.8-5.3-.9-.7-1.8-1.4-2.6-2.2-.7-.7-.5-1.2.5-1.8,6.5-4,12.9-8,19.8-11.3,2.9-1.4,5.8-2.9,8.5-4.7,2.7-1.8,5.7-3.2,8.5-4.8,4.3-2.6,9.2-4.2,13.9-6.1.3-.1,1.3.5,1.3.8.2,1.3,0,2.7,0,4,.3,4.4.4,8.8,1,13.1,1.2,8.5,9.3,12.6,15.3,12,3-.3,5.5-2,7.9-3.8,2.8-2.1,4.2-5,4.8-8.5.9-5.3,2.3-10.4,3.1-15.7.2-1.3.6-2.7.9-4.1.4-1.9,1.9-3.5,3.6-3.7,4.5-.6,8.6-2.7,13.2-3.3,3.9-.5,7.7-1.8,11.7-1.9,1.7,0,3.2-1.3,5.1-.9.4.1,1.1.2,1.3.5.2.3,0,1-.2,1.3-2.1,2.5-4.1,5-6.4,7.4-5.6,5.7-10,12.4-14.3,19.1-1.4,2.1-3.2,3.9-4.1,6.3-.3.7-1.5,1.1-2.3,1.5-4.5,2.4-9.1,4.6-13.6,7-2.2,1.2-4.2,2.7-6.4,3.8-7,3.7-13.8,7.5-20.8,11.3-5,2.7-10.1,5.6-14.8,8.8-2.9,2-5.6,4.2-8.4,6.1-4.6,3.2-8.7,7.2-13.6,11.3ZM355.8,254.8c-5.2,0-5.4-.2-8.7,2-7,4.8-6.5,13.5-.2,17.9,4.8,3.3,10.1,3.1,15.2.1,6-3.4,6.3-10.6,3.7-14.6-2.3-3.5-5.6-6.6-10.1-5.4Z"/>
      <path class="cls-1" d="M686.9,262.5c.5,2.3.8,4.3,1.3,6.3,1.2,5.2,7.5,8.3,13,6.5.6-.2,1.2-.4,1.8-.5,2.3-.4,3.3-4,6.5-2.3,2.2,1.2,4.5,1.9,6.8,2.9.8.4,2.6,0,4.8-.9,1.1-.5,2.2-1.3,3.3-1.6.9-.3,1.9-.2,1.9,1.4,0,1.9.7,3.7.9,5.6.2,1.8,0,3.7,0,5.5.1,2.5,1.5,4.9,1,7.6-.5,2.7-.6,5.4-1.1,8.1,0,.3-.9.8-1.4.8-.6,0-1.2-.3-1.7-.6-4.2-2.6-8.3-5.5-10.7-9.9-1.4-2.6-3.7-4.1-5.4-6.2-.2-.2-1-.2-1.3,0-.3.2-.5.9-.3,1.3,1.2,4.2,1.3,6.7.2,10.8-.9,3.1-1.7,14.6-1.2,17.5.2.9.4,1.9,1,2.6,1.7,2,3.5,4,5.6,5.6,1.8,1.5,4,1.4,6-.1.9-.7,1.5-1.8,2.5-2.4,1.6-1,3.4-2.4,5-2.2,1.3.2,1.6,2.7,1.8,4.3.3,2.4,3.3,2.8,3.3,5.2,4.3,4.2,6.6,9.5,8.8,14.8,0,.1.3.2.3.4,2.7,5.2,1.2,9-4.2,11.2-.9.3-1.6,1-2.3,1.6-1.6,1.5-3.1,3-4.6,4.6-1.1,1.2-2.4,1.1-3.4,0-1.3-1.4-2.9-2.3-3.1-4.8-.1-2-1.7-3.9-2.9-5.7-.7-1.1-1.6-2.2-2.7-2.7-1.7-.8-3.2-2.1-4.8-2.8-1.5-.6-3.1-1.2-4.7-1.9-2-.9-3.6,0-3.7,2.2,0,1.4-.5,2.5-1.1,3.6-.6,1.2-2.6,1.4-2.9.3-1.3-4.7-5.7-7.9-6.2-12.9-2.9-4-3.6-8.9-5.4-13.3-.9-2.2-.8-3.7,1-5.2,1-.9,1.9-1.9,2.8-2.8,1.4-1.4,2.6-2.8,2.7-4.9.2-2.3-1.1-4.2-1.6-6.3-1.8-.1-.5-3.2-2.7-2.9-3.9-3.6-8.7-6.1-12.3-10.1-1.2-1.3-1.5-2.2-.8-4.2,2.9-7.8,5.9-15.4,10.2-23Z"/>
      <path class="cls-1" d="M173.1,291.7c-.7-4.6,1.6-9.5,1.1-14.6-.1-1.1.5-2.4,1-3.6.5-1.3,1.8-.8,2.5-.6,1.9.7,3.7,1.5,5.5,2.5.9.5,1.3.2,2.1-.1,2.1-.9,3.9-2.5,6.4-2.7.6,0,.9-.6,1.8,0,1.7,1.1,3.6,1.7,5.4,2.5,3.6,1.6,9,.9,11.1-1.9,1.4-1.8,2.1-4.1,3-6.2.2-.6.1-1.3.2-1.9,0-.4.6-.8.5-1-.2-.5-1.1-1.3,0-1.1,1.5.3,1.8,2.1,2.4,3.4,3,6.4,5.7,13,8.5,19.5.4.9.1,1.3-.2,2.1-.7,2-2.1,3.3-3.6,4.5-3.1,2.4-6.4,4.5-9.7,6.8-2.2,1.5-2.9,4.1-4,6.3-1.3,2.6-1.2,5.3,1.5,7.5,1.6,1.2,2.8,2.8,4.3,4.2,1.1,1,1.3,2,.8,3.4-2.7,8-5.9,15.9-9.7,23.5-.3.7-.5,1.5-1,2.1-1,1-1.7,2.9-3.3,2.5-1.6-.4-1.7-2-1.7-3.6-.1-3.2-.9-3.5-4.2-2.5-4.2,1.2-8,2.9-11,6-1.4,1.4-2.2,2.9-2.8,4.9-.6,2.2-1.9,4.3-3.3,6.1-1.3,1.8-2.5,1.8-4.1.3-2.6-2.4-5-4.8-8.3-6.5-2.6-1.3-4.7-4-4.3-7.6,0-.8.4-1.5.7-2.2,2.8-6.7,6.8-12.7,11.3-18.3,1.2-1.4,1.8-2.9,2-4.7.3-2.8,1.2-3.1,3.6-1.8,2.3,1.3,4.7,2.5,6.8,4.1,1.7,1.3,2.8,1.2,4.2-.2.8-.8,1.8-1.2,2.7-1.9,3.1-2.2,4.6-5.2,4.6-9,0-2.7.7-5.6-.2-7.9-.9-2.3,0-4.8-1.7-6.8-.4-.5,0-1.6,0-2.4,0-2.7,0-5.3,0-8,0-.6-.3-1.2-.5-1.8-.7.3-1.6.5-2,1.1-1.3,1.6-2.2,3.5-3.5,5-3.2,3.7-6.2,7.7-10.6,10-2.7,1.5-4,.8-4.3-2.3-.2-2.1,0-4.3,0-7Z"/>
      <path class="cls-1" d="M450.9,745c-4-3.9-7.1-8-10.3-12-4.8-6-9-12.4-13.9-18.4-4.6-5.7-8.3-12.2-12.6-18.2-4.7-6.6-9.6-13-14.3-19.6-3-4.2-5.8-8.6-8.6-12.9-1.1-1.7-2.1-3.6-3.5-5-2.9-3-3.5-6.9-4.5-10.6-1-3.6-1.5-7.3-2.8-10.8-.4-1.2,0-2.6-.3-3.9-.2-1.2-.8-2.4-.9-3.6-.2-2.3.8-3.2,3.2-4.2,2.2-.9,4.2-2,6.7-2,.6,0,1.2,0,.6,1-1.6,2.9-1.6,6.2-3.1,9.2-.9,1.8-.8,4.7,0,6.6,2.1,5.2,5,10.1,8.5,14.4,1.6,2,2.6,4.3,4.1,6.4,5.4,7.5,10.9,15.1,15.9,22.9,5.4,8.5,12,16.2,17.2,24.9,2.3,3.8,5.5,7.1,8.4,10.5,2.3,2.7,5.6,4.1,8.6,5.6,1.7.9,3.4-.3,4.7-1.1,4.6-2.8,8.1-6.7,11.4-11,4.2-5.4,7.9-11.2,12.1-16.6,5.6-7.2,10.6-14.9,15.6-22.5,2.3-3.5,4.9-6.9,7.1-10.5,2.1-3.5,4.5-6.8,6.8-10.2,2.8-4.3,5.5-8.6,7.4-13.4,1-2.5,1.3-4.6-.4-7.2-1.3-1.9-1.5-4.7-1.9-7.2-.3-1.6-.9-2.3,1.2-1.8,2.6.6,5.1,1.3,7.6,2.2.6.2.9,1.7.9,2.7,0,1.6-.3,3.2-.5,4.8-.3,1.5-.7,3.1-1,4.6-.8,3.7-.9,7.5-2.7,10.9-.7,1.3-.5,2.8-.8,4.1-1,3.5-3.4,6-5.2,8.9-3.9,6.3-8.2,12.3-12.5,18.3-4.8,6.5-9.4,13.2-14.2,19.7-3.7,5.1-8,9.8-10.8,15.5-5.7,5.3-8.8,12.6-14.1,18.2-3.3,3.5-6,7.6-9,11.4Z"/>
      <path class="cls-1" d="M325,617.1c-3.2,0-6-1.1-8.8-2.3-2.6-1.2-5.4-2.3-8.1-3.4-4.2-1.8-7.8-4.3-10.7-7.8-1.1-1.3-2.5-2.6-3.1-4.2-.6-1.5-2.5-3.4-.2-5.1,0-3.9,1.3-7.5,2-11.2,1.6-8.9,4.6-17.5,6.1-26.5.2-1.2.7-2.4,1.2-3.5,4.6-9.4,8.8-19.1,13.9-28.2,3.2-5.7,5.6-11.8,9.8-17,1-1.2,1.6-3,3.4-3,2.7,0,5.4-2.7,8.2,0,.6.6,2.7,2.7,3.4,4,.2.4.5.8.7,1.2,1.9,3.7,1.9,3.6-.9,6.5-2.7,2.8-5.9,5.1-7.1,9.1-1.6,5-4.7,9.4-5.7,14.7-3.9,6-5.2,13.2-9,19.3-2.3,3.7-2.9,8.1-4.1,12.3-1.3,4.5-1.7,9.2-2.8,13.8-.8,3.1-.2,6.6-.1,10,0,.4.3.9.6,1.2,2.1,2,4,4.2,6.6,5.7,3.5,2,7.4,3.4,10.5,6.2.7.6,1.7.9,2.3,1.6,2.6,2.4,2.3,4.3-1.2,5.4-2.3.7-4.7,1-7,1.4Z"/>
      <path class="cls-1" d="M575.7,616.8c-2.7.6-5-.7-7.4-1.5-.7-.2-2.4,0-2.3-1.9.1-1.5,0-3,1.8-3.6,1.8-.7,3.2-2.1,4.8-2.9,3.7-1.8,7-4.1,10.4-6.1,3.5-2,5.3-4.9,5-9.1-.3-4-.9-7.8-2-11.7-.6-1.9-.4-4-.9-6.1-3.1-12.1-3-12.1-8.5-23-1.3-2.6-3-5.2-3.5-8-.5-3.1-2.5-5.3-3.3-8.2-1.3-4.5-3.6-8.9-5.9-13-1.3-2.2-3.5-3.9-5.3-5.8-2-2.1-2-2.1-.6-4.9.5-1.1,1-2.2,1.6-3.3,2-3.8,4.3-4.5,8.5-3.3,3.2.9,5.1,3,6.9,5.5,4.3,6.1,7.3,13,11,19.4,3.2,5.6,5.6,11.7,8.5,17.5,2.6,5.1,4.4,10.5,5.6,16.2.7,3.3,1.6,6.7,2.6,9.9.7,2,.4,4,1.1,6,1.5,4.1,2.1,8.5,3.1,12.7,1.5,6.5-1.3,11.5-6.5,15.1-2.9,2-5.8,4.1-9.2,5.5-3.3,1.3-6.6,2.6-9.9,3.9-2,.8-3.9.3-5.7.6Z"/>
      <path class="cls-1" d="M376.9,242.4c.4-2.7.9-5.4,1.2-8,.3-2.5-.4-5.1.9-7.6.9-1.8.3-4.1.6-6.2.8-4.7,3.3-8.4,5.6-12.2,4.1-6.8,9.7-12.5,14.1-19.1.5-.7,1.7-.9,2.4-1.5,5.7-5.1,12.1-9.2,18.5-13.3,2.5-1.6,5.6-2.7,8.9-2.7,1.3,0,2.7,0,4,0,3.1,0,3.8,1,3.2,4.4-.2,1.3,0,2.6-.2,3.9-.2,1.2-.9,2.4-.9,3.6,0,4-2.2,6.3-5.6,8.2-5.5,2.9-11.2,5.6-15.9,9.8-3.3.4-3.3,4.2-5.6,5.6,0,3.3-2.1,5.8-3.2,8.7-1,2.7-1.2,5.7-2.6,8.4-.8,1.5-.8,4-1.1,6-.9,6.2-2.7,12.2-4.1,18.3-.5,2.2-1.8,4-4.1,4.7-1.3.4-2.6,1.1-3.9,1.3-5.8.9-11.9-4.4-11.9-10.3,0-.7,0-1.3,0-2,0,0-.1,0-.2,0Z"/>
      <path class="cls-1" d="M523.1,240.3c0,1.8-.2,3.7,0,5.5.4,3.7-1.9,5.2-4.5,7.2-4.4,3.3-8.1,1.2-11.9-.3-2.3-.9-3.1-3.8-3.4-5.9-.9-5.3-2.5-10.4-3.3-15.7-1.1-7.3-3.3-14.5-6.4-21.3-1-2.1-2.1-4.2-3.5-6-1.1-1.4-2.6-2.8-4.2-3.6-4.6-2.5-8.7-5.9-13.9-7.5-3-.9-5.9-3.3-6-7.7,0-2.3-.5-5-1.5-7.3-.4-1-.4-2.2-.3-3.3,0-1.5.9-2.3,2.4-2.5,4.7-.5,9.3.4,13.6,2.1,1.4.5,2.4,2.1,3.8,2.9,4.3,2.5,8.4,5.4,12.6,8.2,3.5,2.4,6.6,5.7,9.2,9.1,4,5.1,7.7,10.4,10.9,15.9,3.2,5.4,5.9,11.1,5.5,17.7-.1,2,.7,4,.9,6.1.2,2.2,0,4.3,0,6.5Z"/>
      <path class="cls-1" d="M515.1,583.3c0-9.7-.2-19.3,0-29,.1-3.8-1.2-7.3-1.1-11.1.1-3.8.2-7.7,0-11.5-.2-2.2,1.1-4,1.1-6.1,0-2.1,0-4.1.9-6.1,1.3-2.9,1.9-3.7,4.8-3.7,1.7,0,3.3,0,5,0,3.6,0,6.4,2.2,6.2,5.8-.4,6.9,1.1,13.7,1.1,20.6,0,10.3,0,20.7,0,31,0,3.5-.7,7.1-.9,10.6-.2,3.5.6,7.2-.2,10.5-1.1,4.1-.2,8.2-.9,12.1-.7,4.2-.8,8.5-2,12.7-.2.7-1.2,1.4-2,1.8-.9.5-2,.9-3.1,1-1.8.2-3.7,0-5.5,0-1.7,0-3.1-1.3-3.3-3-.1-1,0-2,0-3v-32.5Z"/>
      <path class="cls-1" d="M386.1,568.7c0,13.8-.1,27.6,0,41.4,0,3.6-1.1,7-1.1,10.6,0,.8-1.9,1.7-3,1.5-1.4-.2-2.9-.2-4.3-.5-1.2-.2-2.4-.8-3.6-.9-1.3,0-1.7-.2-2.2-1.7-.6-1.9-.6-3.7-.9-5.6-.7-4.5-1.3-9-1-13.6-1.8-3-.9-6.4-.9-9.6,0-5.7-1.5-11.3-1.1-17.1.4-6,0-12,0-18s-.1-11.6,0-17.5c.2-5.9.6-11.7,1-17.6,0-1.6,2.9-4.5,4.5-4.5,2.7,0,5.3,0,8,0,2,0,3.1,1.5,3.4,3,.3,1.9,1.2,3.5,1.2,5.6-.2,14.8,0,29.6,0,44.4Z"/>
      <path class="cls-1" d="M557.1,520.5c1.5,0,1.7,1,2.4,2,3.8,5.4,6.3,11.4,8.7,17.4.4,1,.5,2.1,1,3.1,2.8,5,4.7,10.4,7.1,15.5.3.7.6,1.4.8,2.1,1.3,4.1.9,5-2.8,6.2-3.6,1.1-7,2.5-10.3,4.1-6.3,2.9-12.5,5.9-18.7,9-2.1,1-4,2.3-6.1,3.4-.5.3-1.1.3-1.7.4.2-.5.8-1.1.6-1.4-1.2-2.1.2-4.1.1-6.2-.2-10.5,0-21-.1-31.5,0-3.2-.7-6.3-1.2-9.5-.3-2,0-2.6,1.5-4.3,2.1-2.3,4.7-3.7,7.3-5,2.5-1.3,4.9-2.7,7.4-3.9,1.2-.6,2.6-.9,4-1.3Z"/>
      <path class="cls-1" d="M363.1,583.8c-4.9-2.6-9.5-5.2-14.1-7.5-1.2-.6-2.4-1.2-3.8-1.6-4.2-1-4.9-2.8-3.4-7,.5-1.4.9-2.9,1.4-4.4-2.5,1.6-2.6,1.5-5,5.6-.9,1.5-1.4,1.6-3,1.1-3.6-1.1-6.7-3.1-10.3-4.2-2-.6-2.4-2.5-1.3-4.8,1.8-3.9,3.8-7.7,5.5-11.7,2.6-6.2,4.9-12.6,8-18.6,1.3-2.5,2.7-4.9,4-7.3,1.4-2.6,2.4-3.1,4.8-2.1,5.9,2.3,11.2,5.8,16.8,8.8.6.3,1.4,1.3,1.3,1.9-.2,2.7.7,5.5-.6,8.2-.5,1.1-.3,2.5-.4,3.8,0,12.6,0,25.3,0,37.9v2Z"/>
      <path class="cls-1" d="M566.9,499.5c5.4-5.4,10.5-10.6,15.8-15.7,3.6-3.5,6.3-7.5,8.5-12,.8-1.8,1.2-4,3.8-4.3,5.2-5.1,11.4-9.3,13.7-16.7,1-3,3.3-4,6.2-4,.7,0,1.3,0,2,0,4,.5,7.3-.8,10.2-4.7,0,5.6.4,10.4-.2,15.1-.3,2.5-.2,5.2-1.2,7.4-1.2,2.6.1,5.3-.7,7.7-.6,1.9-.8,3.7-.9,5.6-.1,1.7-.4,3.5-1,5.1-1.2,3.2-2.6,6.2-4,9.3,0,.1-.9,0-1-.1-1.3-2.5-3-4.4-6.1-4.4-.4,0-.8-.5-1.2-.8-3.5-2.8-3.5-2.8-6.6.2-4.1,4.1-8.6,7.6-13.5,10.7-2.4,1.5-4.4,3.6-6.9,5-2.3,1.3-5,1.6-7.1,0-1.5-1.1-3.5-1-5.2-2-1.3-.8-2.9-.9-4.6-1.4Z"/>
      <path class="cls-1" d="M28.5,441.3c5-1.5,9.3-2.9,13.6-4,4.5-1.1,9-2.4,13.5-3.7,4.2-1.2,8.5-1.7,12.6-3.3,2.9-1.1,6-1.8,9-2.3,4.7-.8,9-2.6,13.6-3.5,4.6-.8,9-2.5,13.5-3.7,1.7-.4,3.4-.7,5.1-1,1.8-.4,4-.3,5.4-1.4,1.6-1.2,3.8.4,4.9-1.6,3.2.6,5.7-1.7,8.7-2.1,2.8-.4,5.4-1.3,8.2-1.9,2.9-.6,5.8-1.4,8.6-2.2,3.6-.9,7.3-1.7,10.8-2.8,3.5-1.1,7.2-2.2,10.8-2.9,6.2-1.2,12.3-2.7,18.3-4.4,6.9-1.9,13.8-3.5,20.7-5.5,4.9-1.4,9.9-3,15.2-3.4,2.7-.2,5.2-1.8,8.1-2.2,1.8-.2,3.5-1.3,5.3-1.6.9-.2,2.4-.9,3,.7.5,1.7-.3,3.7-1.6,4.2-.7.3-1.5.4-2.3.5-3.8.3-7.2,2.2-10.9,2.6-1.1.1-2,.7-3.1,1-4.2,1-8.5,2-12.8,3-3.5.8-6.9,2.2-10.4,2.5-3.8.4-7.2,2.3-11,2.5-3.1.2-6,2-9.2,1.9-2.8,2.5-6.7,1.4-9.8,2.9-1.5.7-3.4.7-5,1.1-1.8.4-4.1.3-5.4,1.3-1.6,1.2-3.8-.4-4.9,1.6-3.9-.2-7.3,1.7-11.1,2.2-4.4.5-8.8,1.9-13.1,3.2-4.6,1.4-9.3,2.3-14,3.6-6.1,1.7-12.3,3.5-18.6,4.6-3.9.7-7.6,1.9-11.5,2.7-5.8,1.1-11.5,2.8-17.2,4.2-3.8.9-7.5,2.4-11.4,2.6-1.7.1-3.6.5-5,1.1-2.6,1.2-5,1.8-7.8,1.9-.9,0-1.8.9-2.9,1.5,7.1,2.1,14.3,3.6,21.3,5.6,7.7,2.3,15.5,4.4,23.3,6.4,7.1,1.8,14.1,3.9,21.3,5.5,5.6,1.2,11,3.2,16.6,4.5,5.7,1.4,11.3,3.4,17.2,4.4,4.3.7,8.3,2.3,12.5,3.5,3.2.9,6.3,1.6,9.5,2.4,4.5,1.2,9,2.4,13.5,3.6,5.7,1.5,11.5,2.9,17.2,4.4,5.6,1.4,11.1,3.1,16.7,4.5,5.9,1.4,11.6,3.5,17.6,4.5,4,.7,7.7,2.6,11.7,3.1,1,.1,1.7,2.3,2.9,4-2.4-.4-4.5-.4-6.3-1.2-4.5-1.9-9.3-2.7-13.9-3.7-4.7-1.1-9.5-2.2-14.2-3.4-9.6-2.5-19.2-5-28.8-7.7-3.6-1-7.2-1.8-10.8-3-3.5-1.1-7.2-2.3-10.8-2.9-7.3-1.2-14.2-3.8-21.3-5.4-4.8-1.1-9.6-2.4-14.4-3.9-4.8-1.5-9.6-2.4-14.4-3.9-5.3-1.6-10.8-2.9-16.2-4.3-4.3-1.2-8.6-2.5-13-3.7-5.3-1.4-10.6-2.4-15.8-4.2-2.9-1-5.9-2-8.9-2.6-2.9-.7-5.6-2-8.6-2.4-3.4-.4-6.7-2.2-10.1-3.4-.9-.3-1.8-.5-3.6-.9Z"/>
      <path class="cls-1" d="M871.1,441.7c-4.4,1.4-8.8,2.7-13.3,4.1-3.9,1.2-7.7,2.3-11.6,3.4-3.9,1.1-7.7,2.6-11.6,3.4-8.3,1.7-16.2,4.6-24.4,6.4-4.6,1-9.4,2.2-13.9,3.9-3.4,1.3-6.9,1.9-10.3,2.8-5.2,1.4-10.5,2.8-15.8,4.2-3.6,1-7.2,1.8-10.8,2.9-4.5,1.4-8.9,2.6-13.5,3.6-4.1.9-8,2.4-12.1,3.4-6,1.5-12,3.5-18,4.7-6,1.2-11.7,3.3-17.7,4.5-3.6.7-7.2,1.7-10.8,2.8-3.5,1.1-7.2,2.1-10.8,2.9-4.3.9-8.5,2.2-12.7,3.2-.4,0-.9-.1-1.4-.2.2-.4.4-.7.5-1.1.2-3.2,3.5-2.2,4.9-3.7,3.4.1,6.5-1.3,9.6-2.1,3.1-.8,6.5-.9,9.3-2.9,5.2.1,9.6-3.3,14.8-3,4.6-2.7,10.1-2.8,15.1-4.6,4.2-1.5,8.7-2.3,13.1-3.3,4.4-1,8.6-2.7,13.2-3.3,3.2-.5,6.2-2,9.4-2.7,5.2-1.1,10.3-2.6,15.3-4.1,3.6-1.1,7.2-1.8,10.8-2.9,4.5-1.4,9.1-2.2,13.6-3.4,3.3-.8,6.6-1.8,9.9-2.7,4.5-1.2,9-2.5,13.5-3.6,5.7-1.5,11.5-2.8,17.2-4.4,4.2-1.2,8.4-2.4,12.6-3.4,3.2-.8,6.2-2,9.4-2.5,2.7-.4,4.9-1.9,7.6-2.8-3.4-1.1-6.8-2.6-10.3-3.2-6.8-1.2-13.3-3.3-20-4.8-3.8-.8-7.6-1.8-11.5-2.5-4.4-.7-8.7-2.1-13.1-3.3-4.7-1.3-9.4-2.4-14-3.5-4.5-1.1-9.1-2.1-13.7-3.2-5.3-1.4-10.5-3-15.9-3.9-4.6-.8-9-2.6-13.5-3.5-3.7-.7-7.1-2.6-11-2.4-.2,0-.4,0-.5,0-4.2-1.8-8.8-2.2-13.1-3.3-4.5-1.1-8.9-2.8-13.5-3.6-3.4-.6-6.8-1.5-10.1-2.4-3.1-.9-6.3-1.3-9.4-2.6-3-1.2-6.4-1.3-9.6-2.1-5.1-1.4-10.4-2-15.3-4-.4-.2-1,0-1.5,0-1.7.3-1.9-.6-1.8-2,0-.6,0-1.3-.4-1.8-.4-.6-.9-1.1.3-1.1,1.3,0,2.7-.5,3.6.9,6.1.5,11.9,2.7,17.8,4.1,6,1.4,12.1,2.9,18,4.7,4.6,1.4,9.4,2.1,14.2,3.3,5.8,1.4,11.5,2.8,17.2,4.2,4.5,1.2,9,2.5,13.4,3.7,1.7.4,3.4.7,5.1,1,1.8.4,4,.3,5.4,1.4,1.6,1.2,3.8-.4,4.9,1.6,4.5-.1,8.4,2.4,12.7,3.1,4.3.6,8.6,1.8,12.7,3,6.8,2.1,14.1,2.6,20.6,5.9,6.3.5,12.2,2.8,18.3,4.1,6.5,1.4,12.8,3.7,19.2,5.4,4.2,1.1,8.4,2.1,12.6,3.4,3.7,1.1,7.5,2,11.2,3,0,.3,0,.6,0,1Z"/>
      <path class="cls-1" d="M293.7,483.7c-1.3,1.3-2.3,2.5-3.5,3.4-1,.7-2.2,1.1-3.4,1.4-2.7.7-3.8,2.6-4,5.4-1.9-3.9-3.7-7.7-5.4-11.4-.1-.3-.3-.6-.3-.9-.3-3.5-.5-7.1-1.1-10.6-.6-3.6-.5-7.2-1.7-10.7-.5-1.3-.2-2.9-.2-4.4,0-4-.1-7.9-.2-11.9,0-.4-1.3-.8-.1-1.3.3-.1,1,.1,1.3.4,2.5,3.1,5.7,3.9,9.5,3.6,2.1-.2,4.6-.5,6.2.5,1.4.9,1.6,3.6,2.6,5.2,1.6,2.5,2.1,5.6,4.5,7.6,2.3,1.8,3.6,4.7,6.6,5.7,0,0,0,.8-.1.9-1.8.9-3.6,1.7-5.4,2.6-.5.3-.8,1-.9,1.6,0,.2.9.8,1.3.8,2.7.1,5.4.3,8.1.9,2.4.5,3.4,1.1,4.6,3.5,2.6,5,6.2,9.6,10.8,12.9,4.1,3.1,7.3,7,11.2,10.3-2,.9-3.8,2.2-5.6,2.4-3.5.3-5.5,2.1-6.4,5.2-.4,1.2-1.5,1.3-1.7.6-1.6-4.1-5.5-5.9-8.6-8.3-6.3-4.8-12.8-9.2-18.2-15.5Z"/>
      <path class="cls-1" d="M450.7,380.7c-4-6.8-7.5-13.6-11.9-19.9-1.7-2.4-2.7-5.2-4.5-7.7-2.3-3.1-3.7-6.8-5.4-10.2-2.3-4.5-4.6-9.2-6.5-13.8-1.8-4.5-4.6-8.8-5.2-13.8-2.2-2.7-2.7-6.2-4.2-9.3-2.7-5.6-5-11.2-7.2-17-.5-1.4-.1-1.8.3-2.9,2.3-5.9,4.5-11.8,7.2-17.5,2.2-4.5,3.4-9.3,5.7-13.6,2-3.7,4.2-7.3,6.9-10.6,2.1-2.6,3.6-5.6,5.9-8.1,1-1.1,2-2.4,3-3.7.9-1.1,1.6-2.4,2.5-3.4,1.6-1.8,3.3-3.5,4.7-5.6,1.2-1.9,3-3.9,5.7-2.8,1.5.6,2.8-1.8,4.2,0,3.4-1,5.2,1.3,7.1,3.3,4.6,4.8,8.7,9.8,12.4,15.3,2.1,3.2,4.7,6,7,9.1,1.1,1.5,2,3.2,2.7,4.9,1.9,4.1,3.9,8.1,5.3,12.3,1.5,4.2,3.8,8,4.9,12.5.6,2.5,2.4,4.9,3.3,7.6.6,1.8.7,3.3,0,5.1-1.6,3.5-3,7.1-4.4,10.7-1.4,3.6-2.8,7.2-4.2,10.7-1.5,3.5-3.4,6.9-4.8,10.5-3.5,8.9-7.5,17.6-12,26-2.4,4.5-5.1,8.9-7.8,13.3-1.2,2-2.7,3.9-3.8,5.9-2.3,4.2-4.5,8.4-6.8,12.8ZM450.6,375.1c1-2.3,1.5-4.3,2.6-5.9,4-5.6,6.6-12,9.9-17.9,2.5-4.6,4.1-9.8,7.2-14,4.8-6.5,6.5-14.4,10.8-21,.5-4.1,2.7-7.6,4.2-11.3,1.5-3.8,2.7-7.9,4.6-11.6,1.8-3.5,1.4-8.4-1.1-11.4-1.5-1.9-2.5-4-3.5-6.1-1.3-2.6-2.7-5.1-3.5-8-.7-2.3-2.4-4.3-3.5-6.5-3.4-6.3-6.7-12.6-10-18.8-.1-.3-.3-.6-.5-.8-4.1-4.8-8.2-9.6-12.4-14.4-1-1.1-2.2-2.1-3.1-3.2-1.5-1.8-2.5-2.2-3.4-.5-2,3.5-5.3,5.8-7.8,8.7-2,2.3-4,4.6-5.8,7.1-4.8,6.4-7.8,13.8-11.7,20.6-4.6,8-8.2,16.6-12.3,24.8-.5,1.1-1.8,2.1-1.8,3.2,0,1.2,1,2.5,1.5,3.8,1.5,3.9,2.7,7.9,4.3,11.7,2.5,5.8,4.3,11.9,7.1,17.5,4.2,8.2,8,16.7,12.8,24.7,4.1,6.9,7.4,14.2,11.1,21.4,1.3,2.6,2.9,5.1,4.5,7.9Z"/>
      <path class="cls-1" d="M356.1,620.4c-.5-2.5.4-5.5-.8-8.7-.8-2.1.4-5,.9-7.5.1-.6,1.1-1.1,1.8-1.5,1.1-.6,2.2-1.2,3.3-1.7,1.3-.5,2.8-1.5,3.9-1.2,1.9.5.4,2.5.9,3.8,1.5,4.1.4,8.4,1.2,12.5.5,2.6.1,5.3,1,7.5,1,2.6,0,5.3.9,7.6,1,2.9,0,6,1.1,8.5,1.2,3,.4,5.8.8,8.6.3,1.7.7,3.4,1,5.1.3,1.5-.6,3.2.9,4.7.4.4.1,1.6.1,2.4,0,5.1,2.2,9.8,3.2,14.7.4,1.7,1.8,3.3,2.8,4.8.3.4,1.1.4,1.7.6,3.9,1.5,8,2.4,11.5,4.7,2,1.3,5.3,5.7,4.9,8.4-.2,1.3-.7,2.3-1.6,2.8-3.2,1.8-6.5,3.7-10,4.8-2.1.7-4.6.7-6.8-1.4-2.5-2.3-6-3.5-8.5-5.8-2.6-2.4-4.7-5.8-5.1-9.3-.5-4.6-2.1-9-2.3-13.6,0-2.1-.5-4.4-1.3-6.4-.4-1-.5-1.8-.6-2.8,0-1.9-.1-3.7-.9-5.6-.7-1.7-.2-3.6-.9-5.6-.9-2.4-.4-5.3-1.1-8-.9-3.7-.3-7.8-1.3-11.5-.9-3.6-.8-7.1-.9-11.1Z"/>
      <path class="cls-1" d="M545.1,615.7c0,2.8.1,5.7,0,8.5-.1,2.2-.6,4.4-1,6.6-.3,2.2.8,4.6-1,6.6-.2.3,0,1,0,1.5,0,2.1,0,4.1-.9,6.1-.7,1.7-.2,3.6-.9,5.6-.9,2.3-.7,5-1,7.5-.6,4.7-1.7,9.4-2.3,14.1-.2,1.8-.8,3.7-.9,5.6-.1,2-.5,4.1-1,6.1-.5,1.8-1.3,3.5-2,5.2-.3.7-.5,1.5-.9,2.1-3.4,4.2-7.8,7.3-12.3,10.2-1.2.8-3.3.8-4.8.4-4-1.2-7.8-3.1-11.2-5.6-1.2-.9-1.2-3.3-.3-5.4,1.8-4.3,5.2-6.7,9.5-7.9,1.3-.4,2.8-.6,4.1-1,3.9-1.4,6.2-4,6.9-8.2.5-3.4,1.7-6.6,2.6-9.9,0-.3.4-.6.3-.9-.7-4,1.1-7.7,1.1-11.6,0-2.2.6-4.4.9-6.6.3-2.2-.8-4.6,1-6.6.2-.3,0-1,0-1.5,0-2.4,0-4.7.9-7.1.8-2-.5-4.5,1.1-6.5,0-.1,0-.3,0-.5.3-5.2.8-10.4.9-15.6,0-2.5.9-4.6,1.5-6.9,2.4.6,4.7,1.3,6.8,2.5,2.2,1.2,3.2,2.7,2.8,5.3-.3,2.6,0,5.3,0,8Z"/>
      <path class="cls-1" d="M284.4,559.8c6.1,0,9-2.1,10.8-7.7,0-.2,0-.4,0-.5.6-.5,1.6-1.5,1.8-1.4.9.6,2.8.3,2.2,2.5-.8,2.8-1.1,5.9-2.2,8.6-1,2.7-1.6,5.4-2,8.2-.7,5.1-1.9,10.2-2.9,15.2-.3,1.3-1.3,1.5-2,.5-4.1-5.9-9.1-11-13.2-16.9-3-4.4-6.5-8.6-9.7-13-5.3-7.3-9.7-15.1-13.4-23.4-3.2-7.3-5.7-15-8.4-22.5-.3-.9-.2-1.9-.2-2.9,0-3.2,0-3,3.2-2,5.4,1.6,10.8,3,16.2,4.2,1.5.4,2.8,1.3,4.6,1.1,1.1-.1,1.7,1,2,2.3.9,3.3,1.4,6.7,2.9,9.8.9,1.8,1,4.2,2.3,5.4,1.7,1.6,1.5,3.8,2.6,5.5.2.3-.1,1,0,1.4.5,1.1,2.7,1.6,1.7,3.1-.6.8-2.3.8-3.3,1.5-3.5,2.8-5.5,8.4-4.1,12.9,1.1,3.5,3.3,5.5,6.3,7.4,1.7,1,3.2.3,4.5.6Z"/>
      <path class="cls-1" d="M609.6,586.1c-1.8-6.4-3.1-12.3-3.5-18.3-.1-1.8-1.1-3.5-1.6-5.3-1-3.3-1.9-6.5-2.8-9.8-.2-.7,1.3-2.8,2.3-2.9,1.2-.2,1,.8,1.3,1.5,1.3,3.3,3.1,6.1,6.6,7.7,5.7,2.5,12.7.2,15-5.5,1.1-2.9,2.1-5.8.5-9.1-1.4-2.8-4.7-6.3-8.4-7.1,3.5-1.6,3.1-5.1,4.3-7.7.3-.5,0-1.5.5-1.8,3.2-2.2,3-6.1,4.5-9.2.7-1.4.8-3,1-4.6.3-2.5,1.9-3.8,4-4.4,6.3-1.8,12.5-3.7,18.9-5,.2,0,.4,0,.5,0,.8-1.1,2.4-1.5,3-.9.7.8.8,2.5.6,3.7-.8,3.1-1.7,6.3-3,9.2-1.3,3.1-2.4,6.3-3.7,9.5-2.5,6.3-5,12.6-8.7,18.4-2.7,4.2-5.6,8.4-8.5,12.5-3,4.3-6.1,8.5-9.2,12.7-1.5,2.1-3,4.1-4.6,6.1-2.8,3.4-5.8,6.6-9,10.3Z"/>
      <path class="cls-1" d="M728.1,491.4c-.1.6-.6,2.2-1,3.9-.3,1.7-.2,3.4-.8,5.2-.7,2.1-.6,4.7-1.2,7-.7,2.9-1,5.8-1.9,8.7-.8,2.7-1.5,5.4-2,8.1-1.2,5.8-3.4,11.3-4.9,17-1.1,4.1-2.8,7.9-4,11.8-1.2,3.9-2.9,7.5-4.3,11.2-1.4,3.9-3.8,7.4-5,11.4-.6,1.9-2,3.5-2.9,5.3-4.9,10.1-10.5,19.8-16.8,29-3.8,5.6-7.7,11.2-11.7,16.6-2,2.7-4.4,5.2-6.7,7.7-1.8,2.1-3.5,4.2-5.3,6.3-1.7,2-3.7,3.5-5.1,5.9-.9,1.5-3.5,2.1-4.3,3.7-.8,1.7-2.2,2.8-3.4,4.1-1.3,1.3-2.3,3.2-4.5,3.6-.7.2-1.2,1.1-1.8,1.7-5.9,6.3-12.9,11.3-19.5,16.7-6,4.9-12.5,9.2-18.9,13.6-3.9,2.8-8.2,5.2-12.4,7.4-7.5,4-15.1,7.8-22.6,11.7-2.3,1.2-4.8,2.2-7.2,3.2-.3.1-.8,0-.9-.2-.4-.6-.9-1.3-1-2.1,0-1-.2-1.7,1.4-2.4,7.8-3.7,15.4-8,23.1-11.8,4.6-2.3,9-4.9,13.4-7.5,6.5-3.9,12.3-8.7,18.7-12.8,4.3-2.8,7.9-6.6,12-9.8,6.6-5.3,12.9-11,19-17,5.1-5.1,9.4-10.8,14.2-16,4-4.3,7.2-9.1,11.1-13.5,2.6-2.9,4.7-6.3,6.7-9.7,2.2-3.6,4.9-6.8,6.9-10.6,2.1-4,4.6-7.8,6.6-11.8,1-2.1,1.7-4.5,3.3-6.1,1.8-1.8,1.4-4.7,3.7-6,1.2-5.3,4.5-9.7,6.3-14.9,2.2-6.5,5.2-12.9,7.3-19.5,2-6.3,4-12.7,5.5-19.2.4-1.8.3-4,1.4-5.4,1.4-1.8-.3-3.9,1.2-5.5,1.3-1.4.2-3.6,1.2-5.5,1.2-2.4,1-5.6,1.2-8.5.2-2.7,1.6-5.3,1.1-8.1,0-.2.6-.6,1-.7.6-.2,1.2-.2,1.8-.4,2.1-.7,2.1-.8,2.1,1.3,0,.5,0,1,0,2.7Z"/>
      <path class="cls-1" d="M172.7,484.7c1.5.5,3.2.5,4.1,1.4.9.9,1.4,2.6,1.2,3.9-.5,3.3,1.1,6.3,1.2,9.6,0,2.2,1,4.3,1,6.6,0,1.9,1.3,3.8,1.6,5.8.5,3.4,1.5,6.7,2.3,10.1,1.7,7.7,4,15.3,6.6,22.8,2.4,6.8,5.4,13.4,8,20.2,2.9,7.5,6.8,14.5,10.5,21.7,5,9.7,11.2,18.8,17.3,27.8,3.5,5.2,7.9,9.7,11.5,14.8,2.3,3.2,5.5,5.7,7.8,8.8,4.9,6.5,11.2,11.7,16.7,17.5,1.7,1.7,3.7,3.1,5.6,4.6,1.9,1.5,3.4,3.4,5.4,4.8,2.1,1.5,4.1,3.5,6.3,5.1,2.4,1.6,4.4,3.9,6.7,5.6,6.3,4.6,12.7,9.2,19.5,13.1,5.4,3.1,10.5,6.7,16.1,9.4,2.6,1.3,5,3.1,7.8,4.1,2.7,1,5.4,2.3,8,3.5.7.3,1.4.7,2.1,1,1.6.8,3,1.6,1,3.5-.3.2,0,1,0,1.5,0,.8-.1,1-1.1.5-9.1-4.6-18.5-8.6-27.3-13.6-6-3.4-11.9-6.9-17.5-10.9-4.1-2.9-8.3-5.8-12.3-8.8-4.7-3.6-9.4-7.1-13.9-11-4.6-3.9-9-8.2-13.4-12.3-1.9-1.8-3.8-3.8-5.7-5.6-4.9-4.8-9.1-10.1-13.5-15.3-3.5-4.1-7-8.1-10.1-12.4-4.6-6.4-9.2-12.7-13.2-19.5-2.9-4.8-5.5-9.8-8.7-14.4-1.9-2.8-2.9-6.1-4.3-9.2-1.4-2.9-3-5.7-4.1-8.8-1.1-3.3-3-6.4-4.4-9.6-2.8-6.5-4.9-13.3-7.3-20-.8-2-1.6-4.1-1.9-6.2-.3-2.2-1.1-4.2-1.9-6.2-.8-1.9-.5-4.1-1.3-6-.9-2-.3-4.5-1.9-6.2.2-4.2-1.5-8.1-2-12.2-.8-5.4-2.1-10.7-2-16.2,0-.7-.7-1.4-.9-2.1,0-.3.4-.7.5-1Z"/>
      <path class="cls-1" d="M317.1,512.6c-.7,1.9-1.3,4-2.2,5.9-1.9,4-4,8-6,12-2.6,5.4-5.2,10.8-7.7,16.3-.3.8-.3,1.1-1.1.5-.5-.4-1.3-.3-1.7-.8-3.7-4.2-8-7.7-11.5-12.1-2.6-3.3-4.9-6.6-6.7-10.3-1.9-4-3.2-8.3-4.8-12.5-.4-1,0-1.4.5-2.1,2-3.4,3.9-6.8,6.7-9.7,2.8-2.8,5.6-5.7,8.5-8.5,2.3-2.3,2.8-2.3,5.2.1,1.6,1.6,3.1,3.2,4.4,5.1,1.3,2.1,3.5,3.8,5.8,5.1,3,1.7,5.9,3.6,8.7,5.6,1.6,1.2,2.2,3.1,2,5.3Z"/>
      <path class="cls-1" d="M536.8,229.3c7.4-2.4,14.7-1.2,21.8-1.6,2.2-.1,4.5.7,6.7-.6,1.9-1.2,4.6.7,6.4-1.3,3.5.7,6.7-1.1,10.1-1,2.5,0,5,0,7.5,0,7,.3,14,.6,21,1,3.5.2,4.7,1.7,4.8,5.2,0,3.5,0,7,0,10.5,0,3.4-1.4,5.1-4.7,6.4-1.6.6-3,1.6-4.4,2.6-2,1.4-2.3,3.7-2.9,5.8-1.1,3.7-2.2,7.4-3,11.2-.4,2-.7.9-1.6.4-3-1.8-6.3-3.4-9.2-5.4-1.2-.8-2.3-2.3-2.8-3.8-1.7-4.5-5.1-6.9-9.1-9.1-6-3.2-11.9-6.7-17.6-10.5-2.3-1.5-5.1-2.2-7.6-3.3-2.8-1.2-5.6-2.6-8.4-3.8-2.2-.9-4.5-1.7-7-2.7ZM590.6,246.8c.6,0,1.1,0,1.6,0,3.6,0,7.2-2.6,8-5.6,1.1-4.5-.4-7.1-4.6-9.6-1.8-1.1-3.5-.7-5.2-.7-3.9-.1-7.4,2.3-8.8,6.1-.7,1.7-.6,3.3.2,5.1,1.8,4.1,4.9,5.2,8.8,4.8Z"/>
      <path class="cls-1" d="M363.1,229.3c-7,3.2-14,6.4-21,9.5-3.9,1.7-6.9,4.8-10.8,6.5-2.9,1.3-5.6,3.2-8.6,4.5-2.3,1-2.4,1-3.5-1-.6-1.1-1.2-2.2-1.7-3.3-.2-.5-.1-1.2.1-1.7.3-.6,1.1-.9,1.3-1.4.7-2.2,1.2-4.3.2-6.6-1.1-2.5-3.3-4.5-5.6-4.9-3.9-.7-8.1-.8-11.2,3-2.2,2.8-2.3,6.9,0,9.6,1.9,2.2,3.9,3.6,7.2,3.3,3.4-.3,6,2.3,8.9,3.8.8.4,1,1.3.2,2-1.7,1.5-2.7,3.4-3.7,5.5-.9,1.8-2.3,3.5-4.3,4.7-2.9,1.6-5.6,3.5-8.3,5.3-.5.4-.9,1.1-1.2-.1-.6-2.1-1.8-4.1-1.9-6.2,0-3-1.7-5.4-2.2-8.1-.6-2.9-2.9-4.8-5.7-5.9-4.6-1.7-5.2-2.5-5.2-6.8,0-3.3,0-6.7,0-10,0-3.5,1.3-5.1,4.8-5.1,9.9,0,19.7-1.8,29.6-1,1.7.1,3.4.7,5.1,1,1.7.3,3.7-.8,5.1,1,3.1-.7,6,1.1,9.1,1,4.8-.1,9.7,0,14.5,0,3.1-.1,6,.3,8.9,1.5Z"/>
      <path class="cls-1" d="M506.1,532.4c0,.8,0,1.7,0,2.5.5,7.4-1.4,14.7-1.2,22.1,0,2.9-.7,6.3-3.8,8.3-3.7,2.4-7,5.5-10.8,7.8-1,.6-1.5.7-2.5,0-1.5-1.1-3.3-1.8-4.8-2.9-2-1.5-3.4-3.3-3.1-6.3.4-3.5-.3-7,.2-10.5.6-5.2.6-10.4,1.1-15.6.3-2.8.8-5.3,0-8.2-.8-2.9-.3-5.9,2.6-8.4,4.3-3.6,7-8.5,9.2-13.6.5-1.3,1.5-1.4,2.1-.3,2.5,4.9,6.6,8.4,10.3,12.3.5.5.6,1.5.6,2.2,0,3.5,0,7,0,10.5Z"/>
      <path class="cls-1" d="M396.1,554.3c-1.8-10.8-.6-21.7-1.1-32.6,0-2.2.6-3.8,2.2-4.5,4-1.8,5.4-5.7,7.8-8.8,1.5-1.9,1.5-2,3,.3,3.1,4.6,5.6,9.7,9.8,13.5,1.8,1.6,2.5,3.8,1.6,6.8-.9,3.3-.1,7.1,0,10.6,0,.6.5,1.2.5,1.8.4,7.4.6,14.7,1,22.1.2,2.8-.9,4.7-3.3,6.1-1.5.9-2.8,2.1-4.2,3.1-.6.4-1.4.9-2,.9-.7,0-1.5-.5-2.1-1-3.4-2.7-6.8-5.4-10.1-8.1-2.2-1.8-3.6-4.1-3.3-7.1.1-1,0-2,0-3Z"/>
      <path class="cls-1" d="M413.1,258.4c0,.3,0,.7-.1.9-.9,1.1-1.6,2.2-2.1,3.7-1.1,3.3-3.1,6.4-5,9.4-.6,1-2,1.6-3.1,2.1-8.6,4.5-16.6,9.9-24.6,15.3-1.7,1.1-3.5,2.2-5,3.5-2.9,2.4-5.7,4.9-8.4,7.4-5.3,4.9-10.2,10.3-15.9,14.7-4.7,3.5-7.9,8.7-13.2,11.5-1.9,4.5-6.9,6.3-8.9,10.8-.7,1.7-1.7,1.6-3.1.3-2.1-2.1-4.3-4.2-6.3-6.4-.7-.8-1.1-1.9-1.8-2.7-.7-.8-.6-1.4.2-2.1,3.4-3,6.9-5.9,10.3-8.9,1.2-1.1,2.6-2,3.7-3.1,5.2-5.3,11-9.9,17.1-14.2,3.2-2.3,6.1-5.1,9.5-7.3,2.8-1.8,5.3-4.1,8-5.9,3.4-2.2,6.8-4.4,10.2-6.6,3.4-2.2,7.1-3.9,10.5-6.2,6.6-4.5,13.8-7.8,20.4-12.3,2.3-1.6,5.3-2.1,7.2-4.3,0,0,.4.3.6.5Z"/>
      <path class="cls-1" d="M590.8,220.8c-3.1,0-5.5.3-7.7,0-2.7-.4-5,1-7.6,1.1-2.4.1-4.9-.8-7.1.9-.4.3-1.3,0-2,0-1.6,0-3.6.4-4.8-.3-1.2-.7,0-2.9-1.3-4.4-.7-.8-.3-2.9,0-4.4.1-.9.5-1.9,1.2-2.5.5-.4,1.5-.4,2.3-.4,3,0,5.9-1.1,8.8-1.7,1.3-.3,2.6-.1,3.9-.3,1.2-.2,2.4-.8,3.6-.9,5.1-.6,10-1.9,15.1-2,5.2,0,10.3,0,15.5,0,1.6,0,3.1.4,4.6.8,2.2.5,2.8,1.3,3.1,3.4.5,3.3,1.6,6.6,2.6,9.9.6,2,.4,4,1.1,6,1.1,3.3.5,7.1,1.3,10.5.9,3.7.9,7.4.9,11.1,0,4-1.2,8-1.2,12.1,0,2.6-1.5,5.4-2.9,7.7-1.3,2-2,3.9-1.9,6.2,0,.4-.2,1.1-.5,1.2-.3.2-1,0-1.3-.3-2.6-2.2-5.4-3.9-9-3.7-.7,0-1.4-.8-2.1-.9-1.6-.2-.4-.8-.4-1.4.1-2.2.7-4.4,1.2-6.5.9-3.3,2-6.2,5.4-8.3,3.9-2.5,6.9-6.3,6.6-11.6,2.3-2.9-.4-6.8,1.9-9.7-1.7-1.6-.5-3.7-1-5.5-.2-.7-.7-1.6-1.4-1.9-2-.9-4-1.7-6.1-2.1-2.6-.6-5.5-.3-8-1.2-4.5-1.6-9.1-.4-12.8-.9Z"/>
      <path class="cls-1" d="M299.4,205.8c1.3,0,2.7-.1,4,0,2.7.3,5.4-.6,8.2.7,2.2,1.1,5,0,7.5,1.1,2.4,1.1,5.3.8,8,1.2,3.7.5,7.3,1.9,11.2,2.1,1,0,2.5,1.5,2.8,2.5.6,2.9-.7,5.6-1.4,8.3-.1.4-1,1-1.5,1-2.1-.2-4.3.8-6.2-.7-.2-.2-.6-.2-.9-.3-5-.3-10-.8-15.1-1-5-.2-10.1-.6-15,.1-4.8.7-9.7,1.1-14.3,2.8-1.3.5-2.8.9-3.7,1.8-.9.9-1.7,2.4-1.7,3.7,0,2.2-.7,4.5.5,6.7.5.9.2,2.2.4,3.3.2,1.2-.6,2.7.8,3.7.1,5.1,3.6,8.2,7.1,11,4,3.2,4.8,7.7,6.1,12,.2.6,0,1.3,0,2-.1,1.8-.9,2.7-2.6,2.7-3.3,0-5.7,1.6-8.1,3.3-1.7,1.2-2,1.1-2.2-1.1-.3-2.7-1.6-5.1-2.8-7.3-1.2-2.1-1.8-4.2-2.3-6.6-1.6-6.5-.5-13.1-1-19.6-.2-2,.8-3.7,1.1-5.6.3-1.9-.9-4,.9-5.6-.5-4.1,1.8-7.7,2.1-11.6.2-2.8.9-5.6,2-8.1,1-2.5,4-2.4,6.2-2.7,3.3-.4,6.7-.1,10-.1Z"/>
      <path class="cls-1" d="M449.1,614c0,2.5.2,5,0,7.5-.3,3.2,1,6.5-.8,9.6-1.5,2.7-2.6,5.7-4.3,8.2-2.2,3.1-4.1,6.3-5.9,9.6-1.4,2.5-2.3,2.7-3.8.6-2.2-3.2-4.1-6.6-6.2-9.9-1.4-2.1-2.5-4.3-3.8-6.4-2.2-3.4-3.6-7.2-3.2-11.6.4-4.8.3-9.6,0-14.4-.2-2.8.7-5.4,1.2-8,.2-1.2,1.5-2.7,2.7-3.1,2-.7,4.3-1,6.5-1.1,3.5-.2,7,0,10.5,0,1,0,2,0,2.9.3,1.4.5,3.1,1.1,4,2.2.7.8.3,2.5.3,3.8,0,4.3,0,8.6,0,13Z"/>
      <path class="cls-1" d="M452.1,614.1c0-4.5,0-9,0-13.5,0-1.4-.9-3.2.8-4.1,1.4-.8,3.1-1.5,4.7-1.7,2.6-.3,5.3,0,8,0,3.1,0,6.1-.1,9.1.9,2.6.9,3.9,2,4.4,4.6,1.6,8.1.8,16.3.9,24.5,0,.7-.4,1.5-.7,2.2-3.4,8-8,15.3-12.7,22.7-1,1.5-1.9,1.6-3.1,0-1.7-2.2-2.8-4.9-4.6-7-2.4-2.9-3.3-6.7-5.9-9.6-.8-.9-1-2.6-1-4-.1-5,0-10,0-15Z"/>
      <path class="cls-1" d="M598.9,522.3c.7,1.3,1.4,2.7,2.3,3.9,1.5,2.2,3.1,4.4,4.6,6.6.7,1,1.3,2.1,2.1,3.1,1.8,2.2,1.8,2.6-.2,4.9-1.6,1.8-3.9,3-4.7,5.6-.2.5-1.3.8-2,1.1-1.4.4-.6-1-1-1.4-2.8-3.2-3.7-7.4-5.7-11.1-3.4-6.4-6.2-13.1-9.2-19.7-1.9-4.1-1.2-5.8,2.2-8.5,3.5-2.7,7.1-5.2,10.9-7.5.9-.6,1.3-1.8,2-2.6,2-2.2,4-4.4,6.2-6.4.9-.8,2.1-.6,3,.3,4.6,4.7,9.7,9,13.3,14.5,1.9,2.9,3.3,6.1,1.5,10.1-2.3,5.2-3.5,10.9-7.1,15.5-.4.5-.6,1.2-1,1.6-3.6,3.6-2.6,3.4-5.9.1-3.5-3.5-7-7.1-10.6-10.6l-.8.6ZM613.6,524.8c-.3-4.6,1.7-8.6,1.7-13,0-4.4-1.9-8.5-1.5-12.9-.5,2.3-2.1,4.1-1.7,6.6.1.8-.6,1.7-.7,2.6-.4,2.1-1.3,4.4-.9,6.4.5,2.7,1.7,5.3,1.7,8.2,0,.7.9,1.4,1.4,2.1Z"/>
      <path class="cls-1" d="M569.2,619.4c-6.4,4.6-14.2,6.7-21,11.4,0-5.3,0-10.4,0-15.5,0-1.6,1.5-2.9,1-4.6-.4-1.3-.8-2.7-1-4.1-.2-1.5,0-3,0-4.5,0-2.3-1.7-4.1-3.5-4.2-2-.1-3.6-1.3-5.6-1.2-.5,0-1.9.7-1.5-.7.1-.6.4-.8,0-1.5-.4-.6.1-1.5-.3-2.5-.7-1.9,0-2.8,2.1-3.9,6.2-3.4,12.2-7.3,18.7-10.3,6.4-3,12.9-5.9,19.3-8.7,1.5-.7,2.1-.2,2.8,1.6,1.2,3.3,2.1,6.6,2,10.2,0,1.7.7,3.4.9,5.1.2,1.6,0,3.1.9,4.6.6,1,.3,2.7-1,4-2.3,2-4.6,3.8-7.3,5.3-4.1,2.3-7.9,5-11.8,7.7-3.4,2.3-3.8,4.9-.9,7.5,1.8,1.7,4.1,2.9,6.2,4.4ZM566.1,589.2c0,5.2,2.2,7.4,6.9,7.5,2.4,0,4.3-.8,6-2.4,1.5-1.4,1.9-3.6,1.9-5.1,0-1.6-.3-3.7-1.8-5.1-1.7-1.6-3.5-2.5-6-2.4-4.8.1-7,2.4-7,7.5Z"/>
      <path class="cls-1" d="M353.4,631.1c-6.8-4.3-13.7-6.6-19.9-10.3-1.6-1-1.8-1.5-.4-2.5,1-.7,2-1.8,3.1-2,2.7-.5,2.1-3.2,3.4-4.6.1-.1-.1-.7-.2-1-.5-2.1-2-3.6-3.6-4.4-5-2.5-9.5-5.9-14.4-8.6-4.1-2.2-5.2-5.1-3.8-9.9.2-.7.6-1.6.4-2.3-.5-2.5.9-4.7,1.1-7.1.2-2.2.6-4.4,1-6.6.1-.7.7-1.4.9-2.1.3-1.2.9-1,1.8-.6,3.8,1.6,7.7,3.1,11.5,4.8,3.5,1.6,7,3.3,10.4,5,3.9,2,7.7,4.1,11.3,6.5,1.5,1,3.3,1.6,4.9,2.5,1.1.7,2.3,1.4,2.9,2.5.5.9.2,2.2-.8,3.1-.3.3-.1,1.3,0,1.9,0,1-.2,1.5-1.3,1.5-.8,0-1.7,0-2.4.2-1.8.7-3.7,1.5-5.3,2.6-1.9,1.3-.2,4.1-2,5.6,0,5.7,0,11.3,0,17,2.2,2.7.4,5.6,1.2,8.9ZM327.9,596.7c2.1.5,4.2-.2,5.5-1.8,1.2-1.5,1.9-3.5,1.8-5.7,0-2.1-.6-4.2-1.9-5.7-1.3-1.6-3.4-2.1-5.6-1.9-1.8.2-3.5,0-4.8,1.7-1.4,1.8-2.8,3.4-2.7,5.8,0,2.4,1.4,4,2.8,5.8,1.4,1.8,3,1.7,5,1.6Z"/>
      <path class="cls-1" d="M437.6,510.8c2.6,2.9,5.2,5.8,7.8,8.7.7.7,1.3,1.9,2.1,2,1.9.3,1.7,1.5,1.7,2.8,0,9.7,0,19.3,0,29s0,7,0,10.5c0,1.3-2.6,4.1-3.8,4-3.2-.3-6.6,0-9.5-1.2-2.4-.9-4.9-1.1-7.3-1.6-3.2-.8-3.5-3.1-4.3-5.2-.3-.9,0-2,0-3,0-6.5-.2-13,0-19.5.1-3-1.2-5.7-1.1-8.6,0-1.5.2-2.8,1.4-3.9,2.4-2.2,5-4.3,6.4-7.3.7-1.5,2.6-1.3,3.3-3,.6-1.4,2.2-2.4,3.3-3.6Z"/>
      <path class="cls-1" d="M452.1,543.4c0-6.3,0-12.6,0-19,0-1.7.2-2.8,2.1-3.8,3.3-2,6-4.9,7.9-8.4,1-1.8,1.1-2,2.4-.5,1.5,1.6,2.8,3.5,4.3,5.2,1.9,2.1,4,4,6,6,1,1,1.5,2.5,2.5,3.4,1.5,1.4-.4,2.4-.3,3.8.3,6.8-.1,13.6.2,20.4.2,4.1-1.2,8-1.2,12.1,0,.7-1.3,1.9-2.1,2.1-2.3.6-5.2,0-6.9,1.3-2.1,1.4-4.4,0-6.4,1.6-1.1.9-3.5.3-5.3.2-1.2,0-3-2.1-3.1-3.4,0-.8,0-1.7,0-2.5v-18.5Z"/>
      <path class="cls-1" d="M604.6,400.8c2.2,1.8,3.5,3.7,4.6,5.9,2.5,4.7,4.9,4.8,7.9.4.4-.6.7-1.4,1.1-2,1-1.5,1.7-4,3.5-4,1.4,0,3,1.6,4.3,2.7,2.4,2,4.8,4,6.8,6.4,1.2,1.4,1.3,3.4,1.3,5.4,0,2-.5,3.5-2.1,4.7-1.2.8-1.5,2.4-.9,3,2.1,2-.4,5,1.6,6.9,0,0-.4.7-.6,1-.3.6,0,1.5-1.2,1.7-1.9.3-2.3,3.2-4.8,3-.6,0-1.3,0-1.9.2-1.3.5-3.1.8-3.6,1.8-.9,1.6,1.4,1.9,2,3.1.5.9.6,1.5-.5,1.8-5.1,1.7-10.4.8-15.6,1-.5,0-1-.6-1.6-.9-1.2-.7-1.4-2-.5-3,1.5-1.7,1.4-2.5-.7-3-3.2-.7-6.2-2-8.8-4-.3-.3-.9-.5-.9-.8,0-2.3-.6-5,.3-6.8,1.5-2.8,0-4.5-1.1-6.5-.4-.8-2-1.4-1.2-2.4,1.4-1.6-1.8-4.1,1.1-5.2,2.3-3.8,5.1-6.9,9.4-8.5.7-.3,1.2-1.1,1.8-1.7ZM600.1,420.4c0,.8,0,1.6,0,2.5.2,2.8,2.2,5.3,5,5.9.8.2,2,.4,2-1.2,0-.7,1.4-1.4,0-2.2,1.8-1.9.6-3.6,0-5.6-.8-2.6-3.4-1.8-5-2.9-1-.8-2,.1-2.1,1.6,0,.7,0,1.3,0,2ZM626.1,421.7c0-6.1,0-5.9-5.1-3.5-1.6.8-2.2,1.5-2,3.1,0,.4-.2.9-.4,1.3-.7,2.1.3,3.8,1.3,5.4.7,1.2,2,1.1,3,.3,2.3-1.8,4.1-3.8,3.2-6.7ZM613.2,429.8c-2.1,0-2,0-2.1,2.2,0,1.7.7,1.9,2,1.8,2.1,0,1.9,0,2.1-2.3,0-1.7-.6-2-1.9-1.8Z"/>
      <path class="cls-1" d="M287.5,443.8c-1.7,0-3.3.1-5,0-1.2-.1-2.4-.6-3.6-1-1.1-.4-.9-1-.4-1.9.6-1.1,3-1.4,2-3.1-.5-.8-2.1-1.2-3.3-1.4-2.5-.6-5-1.1-6.6-3.5-.3-.4-2.1-.1-2.2-.4-.3-1.3-.8-3.2-.2-3.8,1.9-1.9-.3-4.7,1.8-6.4.1-.1-.4-1.6-.9-1.9-2.6-1.7-1.7-4.4-2-6.7-.3-2.2,1-3.4,2.3-4.6,3-2.7,5.2-6.2,9.4-7.5.9-.3,1.3-.6,1.8.2,1.6,2.8,3.3,5.4,5.6,7.7,1.4,1.5,2.1,1.9,3.1.7,1.4-1.7,2.6-3.6,3.9-5.3.6-.8,1.2-1.5,1.8-2.3.9-1.1,2-1,3-.4,4.1,2.6,8.7,4.8,10.2,10.1,1.7.9,0,1.8,0,2.7-.1,3.5-.1,3.5-1.9,5.4-.8.9-1.2,1.3-.5,2.8,1.1,2.2,1.9,4.7,1.5,7.4-.2,1,0,1-2.6,2.4-1.3,3.9-5.3,2.4-7.8,3.9-1.6.9-2.1,1.5-1.1,3,.4.5,1.1.9,1.3,1.4.2.4-.1,1.4-.4,1.5-1.1.5-2.3.9-3.6,1-1.8.2-3.7,0-5.5,0ZM301.1,421.7c0-1.8.2-2.7,0-3.4-.3-.6-1.3-1.6-1.8-1.4-1.6.4-3.4.9-4.6,2-2.1,1.9-2.2,6.9-.6,9.3.2.3.7.6,1.1.7,1.6.2,4.4-1.4,4.9-3,.5-1.6.8-3.3,1-4ZM282.1,423.5c0-1.2,0-2.3,0-3.5,0-.4-.2-1.1-.5-1.2-2-.7-4-1.3-6.1-1.9-.1,1.4-.3,2.9-.4,4.3,0,.3,0,.7,0,1-.8,3,1.4,4.5,3.1,6.1,1.2,1.1,3.6.2,3.8-1.4.2-1.1,0-2.3,0-3.5ZM284.8,433.8c1.7,0,3,0,4.3,0,1.3,0,1.2-.9.8-1.7-.7-1.1-1.7-3-2.4-2.9-1.4,0-1.3,1.9-1.5,3.2,0,.4-.5.7-1.2,1.4Z"/>
      <path class="cls-1" d="M359.3,776.4c-5.1,2.5-10.3.8-15.3,1.4-2,.3-3.2-1.2-5.3-1.2,1.1-1,1.8-1.7,2.5-2.4,1.4-1.5.8-3.4-1.2-3.3-3.6.1-5.9-2.8-9.2-3.1-.3,0-.7-.7-.6-1.1.3-2.9-.7-5.8.9-8.6.8-1.4,0-3.2-1.4-4.3-1.4-1.1-1.4-2.2-.9-4.1,1.6-6.4,1.4-6.4,6.2-10,1.2-.9,2.1-2,3.4-2.7,3-1.8,3.1-1.5,5,1.5,1.3,2,2.9,3.9,4.6,5.6,1.5,1.5,1.8,1.3,3.4-.6,1.6-2,3.9-3.7,4.8-6,.8-2,1.9-1.8,2.8-1.2,3.5,2.1,7.1,4.1,9.4,7.8,1.3,2,2.1,3.8,2,6.2,0,1.6-.3,2.9-1.7,3.8-1.7,1.1-2,3.2-1.2,4.3,1,1.5.7,2.8.8,4.2,0,1.6,0,3.3,0,5-2.4-.2-3.6,2.6-6,2.5-.7,0-1.4.7-2.1.9-5.2,1.8-5,1.4-1.4,5,.1.1.2.2.7.7ZM336.1,751.8c0,1.7.2,2.9,0,4-.5,2.8.8,4.6,2.8,6.3,2.5,2.1,3.3,1.9,4.2-1.1.1-.4.4-.9.6-1.2,1.5-2.3-1-4.2-.6-6.4-1.5-.7-2.9-1.9-4.8-1.6-.6.1-1.3,0-2.2,0ZM362.1,750.8c-1,.4-1.7.8-2.4.9-5.5.9-6.5,6.2-4.2,10.9.6,1.3,1.7,1.4,2.7.5,2.6-2.2,4.8-4.5,3.9-8.4-.3-1.1,0-2.3,0-3.9ZM349.1,768.8c1.2.1,2.3.1,2.1-1.7-.2-1.9-.9-3.3-2-3.3-1.1,0-1.9,1.4-2.1,3.2-.1,1.6.6,2,2,1.8Z"/>
      <path class="cls-1" d="M545.9,772.3c-3.4-.9-5.7-2.8-8.4-2.4-2,.3-.8-2.6-2.6-2.1-2.2.6-2-1.7-2.6-2.7-.5-.8-.5-2.4.6-3.6,1-1.2-.1-3.1,1.2-4.5.7-.8-.2-2.1-1.1-2.9-1.1-1-2-2-1.8-3.8.2-2.2,0-4.6,1.5-6.4,2.4-2.8,5.3-5.2,8.5-7.1,2.4-1.4,2.5-1.4,4,.5,1.5,1.8,2.8,3.8,4.1,5.8,1.6,2.3,2.7,2.5,4.6.6,1.2-1.2,2.2-2.7,3.2-4.2.6-.9,1.1-1.9,1.8-2.7.9-1.2,2-1.3,3.4-.4,3.6,2.3,6.5,5.5,9.4,8.5,1,1.1,1.7,2.4.6,3.9,0,.1,0,.4,0,.5-.9,1.4,2.3,1.9.7,3.4-.9.8-1.6,1.7-2.5,2.5-.7.7-1.3,1-.3,2.2.8,1,.5,2.6,1,4,1.4,3.9-.8,7-5.4,8.4-1.3.4-2.7.7-4.1,1-2.3.5-2.7,1.6-1.3,3.6.4.6,1,1.7.7,2-.6.7-1.5,1.4-2.3,1.4-4.5.1-9,0-13.5.1-1.4,0-2.3-.5-2.9-1.5-.6-1.2.6-1.7,1.3-2.4.6-.5,1.3-.9,2.4-1.7ZM556.8,758.1c.7,1.6,1.3,3.2,2,4.7.2.3.9.8,1,.7,1.4-1,3.8-1.9,4-3.2.5-2.6,2.1-5.2,1.3-8-.2-.6-1.2-1.6-1.6-1.4-1.8.5-3.8.9-5,2.1-1.1,1.1-1.2,3.1-1.7,5ZM546.1,757.6c0-4.2-.4-4.7-4.5-5.8-.3,0-.7,0-1,0-1-.3-2.6,1.1-2.1,1.8.9,1.1.6,2.2.6,3.2-.2,2.6,0,4.8,3.1,5.6.9.3,1.4,2.3,2.7,1.1.7-.6,1-1.9,1.2-2.9.2-.9,0-2,0-3ZM551.2,763.8c-.2,0-.9.2-.9.4-.2,1.1.1,2.3-1.1,3,.8.5,1.5,1.3,2.4,1.4,1.4.3,2.8-1.1,2.6-2.2-.1-1-1.8-2.8-2.9-2.7Z"/>
      <path class="cls-1" d="M195.4,219.9c3,2.2,1.4,5.3,2.6,7.9,1.3,2.9,2.8,5.6,4.7,8,.6.8,1.3,1.6,2.1,2.1,4.6,3.2,4.6,7.9,4.3,12.7,0,.4-.6.9-1.1,1.2-3.2,2.4-7.1,3.7-9.5,7.2-1.6,2.3-3.9,2.4-6.1,1.5-1.1-.5-2.2-.5-3.2-.6-1.7-.2-2.9.9-4.3,1.7-1.3.8-.7,2.1-.8,3.2-.2,2-1,2.7-2.6,1.9-1.1-.5-2.2-1.2-3.1-2.1-3.7-3.7-6.4-8.2-8.7-12.9-1.9-3.7.2-7.4,2-10.7,1.6-3,3.5-6,5.7-8.6,2.2-2.7,5.2-4.7,8.3-6.5,3.4-1.9,6.7-4,9.8-5.9Z"/>
      <path class="cls-1" d="M692.1,246.8c-.6-3.2.9-5.9,3.6-8,3.1-2.4,5.1-5.8,6.9-9.1,1.2-2.2,1.8-5,1.6-7.8-.2-2.2,0-2.1,2.4-1.1,6.6,2.7,12.2,6.7,16.9,12,3.5,4,6.1,8.7,8.4,13.5.6,1.2.3,3.3-.3,4.6-1.4,3.1-3.1,6-4.9,8.9-.9,1.5-2.1,2.8-3.2,4.2-.5.6-1.1,1.3-1.8,1.8-3.2,2.2-4.9,1.4-5.6-2.6-.6-3.1-.7-3.3-3.6-3.2-1.7,0-3.4.1-5.1.8-1.7.6-4.4,1.3-5.5-2.3-.5-1.7-2.6-3.2-4.7-4-1.3-.5-2.2-2-3.5-2.3-1.5-.4-1.7-1-1.6-2.3,0-.8,0-1.7,0-2.9Z"/>
      <path class="cls-1" d="M395.1,603.2c0-2.9,0-5,0-7.2,0-2.9,1.5-5.6,1.1-8.6-.1-.8.9-2,1.6-2.8,3.1-3.3,6.7-5.7,10.6-8,2.5-1.4,4.2-.6,5.5.6,2.5,2.3,4.9,4.8,6.6,7.7.9,1.4.4,3.7.2,5.6-.2,1.3-1.3,2.5-1.6,3.8-.3,1.4,0,3,0,4.5-.1,2.1-1.4,3.9-1.1,6.1.3,2-.2,4-.8,6.1-.7,2.5-.4,5.3-.1,7.9.2,2.4-.7,4.4-1.3,6.5-1.2,4.1-5.3,5.1-8.3,7.3-.2.2-1,0-1.3-.4-1.1-1.3-2.5-2.3-3.3-4.1-1.4-2.9-3.5-5.5-5.2-8.4-.9-1.5-1.4-3-1.8-4.8-1-4.2-.7-8.4-.9-11.9Z"/>
      <path class="cls-1" d="M506.4,601.4c-.5,5.8-.8,10.5-1.2,15.2,0,.4-.3.9-.6,1.3-2.4,4.2-5.7,7.8-7.5,12.4-.3.9-1.3,1.5-2.1,2.1-.4.3-1.2.3-1.7,0-1.5-.7-3.4-1.3-4.4-2.5-1-1.2-2.4-1.8-3.2-3.1-.7-1.2-1.1-2.5-1.6-3.8-.1-.3,0-.7,0-1-.3-5.9-.4-11.7-1.1-17.6-.3-2.4-1-4.7-.9-7.1.1-2.3-1.5-4.1-1.9-6.2-.6-3.7-.4-7.5,3.1-10.1,1.9-1.5,3.1-3.7,5.6-4.7,1.2-.5,2-.9,3.1-.2,3.9,2.6,8.1,4.7,10.9,8.7,1.4,2.1,2.2,4,2.3,6.6.2,3.7.8,7.4,1.1,10Z"/>
      <path class="cls-1" d="M227.7,291c1.3,1.9,2.5,4,4,5.8,2.2,2.8,4.4,5.7,7.1,8,6.1,5.5,12.2,11.1,20.1,14.2,1.6.6,3.2,1.1,4.7,1.9,1.8.9,2,1.9,1.1,4-1.4,3.4-4,6-6,9-.5.7-1.2,1.2-1.4,1.9-.4,1.5-1,1.2-2.1.6-3.6-2.1-7.3-4-11-6-5.9-3.3-12-6.3-18-9.6-4.5-2.5-9.3-4.9-12.7-9.1-2.1-2.5-2-4.3-.5-7.3,2.6-4.8,7.5-6.9,11.1-10.5,1.1-1.1,2.5-1.9,3.6-2.8Z"/>
      <path class="cls-1" d="M674,291c2.4,2.6,5.2,4.9,8.4,6.8,3.1,1.8,5.1,4.9,6.4,8.2.8,2,.8,4-1.1,5.8-3,2.9-6.4,5-10,7.2-6.1,3.7-12.7,6.4-18.9,9.9-4.3,2.5-8.6,5-12.9,7.6-.8.5-1.3.5-1.9-.5-1.3-2.1-2.9-4.1-4.4-6.2,0-.1-.2-.2-.3-.4-4.8-5.6-4.1-8.6,3-10.6,3.3-.9,5.9-2.8,8.6-4.5,3.5-2.2,6.7-4.9,9.8-7.7,3.4-3,6-6.7,8.6-10.4,1.3-1.8,3-3.3,4.7-5.2Z"/>
      <path class="cls-1" d="M451.1,200.7c-4.2.5-7-2.2-10.2-3.7-.6-.3-1-.9-1.5-1.2-3.3-2.2-3.4-2.2-2.2-5.8,1.2-3.6,2.1-7.3,2-11.2,0-2,.7-4,.9-6.1.2-2-.1-3.9-2.3-5.1-1-.5-1-2.9-.2-3.9,3-3.6,7-6.1,11.2-7.9,2.2-.9,4.5.3,6.7,1.6,3.3,2,6.7,3.7,8.3,7.4.5,1.1,1.4,2.4-.9,2.9-1.3.3-1.7,1.6-1.8,3.1-.4,7.3,1.4,14.2,3.1,21.2.2.9,1,1.4-.1,2.2-.6.4-6.7,4.2-7.6,4.4-2,.4-3.1,3.2-5.4,2Z"/>
      <path class="cls-1" d="M563.3,664.8c-1.9.4-2-.5-2.3-2.2-.3-1.9-1.3-3.8-2.2-5.6-.5-1-2.1-1.4-1.7-2.8.5-1.4,1.2-2.9,2.1-4.1,1.8-2.3,3.9-4.4,5.6-6.7,3-4.2,6.9-7.8,8.8-12.8.9-2.3,2-4.5,2.8-6.8.6-1.7,2-2.7,3.2-3,4.6-1.1,8.7-3.3,12.8-5.2,3.9-1.8,7.5-4.2,10.5-7.3.6-.6,1.2-1.1,1.8-1.6.2-.1.6,0,.9.1,0,0,.1.5,0,.7-2.9,4.9-4.7,10.4-8.1,15.2-1.4,2-2.7,4.2-3.5,6.5-2.3,6.2-6.7,10.9-10.3,16.2-3.4,5.1-7.7,9.7-11,14.9-2.2,3.5-6.1,3.8-9.6,4.4Z"/>
      <path class="cls-1" d="M562.6,496.8c-2.6-2.4-4.2-5.2-5.5-8.3-.5-1.2-2.5-1.6-1.9-3.1.6-1.4,1.7-2.7,2.7-3.8,3.9-4.4,8.2-8.5,11.9-13,4.7-5.8,9.8-11.2,13.2-17.9.8-1.6,2.5-2.3,3.2-4.2.8-2.3,4.1-3.6,6.2-2.4,1.8,1,3.5.6,5.2.8,2.3.3,4.7.5,7,1.1.8.2,1.4.9.6,2.5-1.9,3.6-4,6.8-6.8,9.6-4.7,4.6-8.8,9.7-12.5,15.2-3.8,5.7-8.6,10.9-14.5,15-3.2,2.2-5.7,5.5-8.8,8.6Z"/>
      <path class="cls-1" d="M337.3,664.8c-2-.4-4.2-.3-5.9-1.4-2.1-1.3-4-3.2-5.2-5.2-3-5.1-7.1-9.3-10.3-14.2-2.6-4-5.6-7.9-8-12.1-4-7.1-7.5-14.5-11.2-21.8-.2-.4-.5-.8-.7-1.2-.1-.3,0-.9,0-.9.5,0,1.1-.2,1.5,0,1.6,1.1,3.1,2.3,4.5,3.5,5.3,4.5,11.7,7,18.1,9.4,2.5.9,4.1,2.3,4.9,4.7.4,1,.7,2.1,1.1,3,2.5,5.3,5.4,10.2,9.5,14.6,2.9,3.1,5.5,6.7,8.1,10.1.2.3.3,1.2.1,1.3-2.7,2-2.2,5.4-3.7,8-1.4,2.3-1,2.5-2.9,2.4Z"/>
      <path class="cls-1" d="M323,461.4c-4,.8-7,1.2-9.8,2-2.6.8-4.5.5-6.5-1.5-4.1-4-7.6-8.4-10.9-13-.4-.6-.6-1.5-.5-2.2.1-1.3,1.2-.7,2-.8,2-.3,4-.7,6.1-1,1.9-.3,3.7,0,5.7-.8,1.6-.7,4.8-1.4,5.3,2.3,3.9,4.4,7,9.3,10.3,14.2,1.6,2.4,3.9,4.3,5.7,6.6,3.3,4.2,7.2,8,10.8,12,1.6,1.8,3.1,3.7,4.6,5.6.2.2.1.7,0,1-1.6,3.8-4.2,6.9-6.4,10.3-.7,1.2-1.6.7-2.4-.1-2.6-2.6-5.2-5.2-7.8-7.8-3.1-3.1-6.2-6.1-9.2-9.2-1.2-1.3-2.1-2.8-3.2-4.2-.5-.6-1.5-1.3-1.5-1.8,0-1,.6-2.1,1.2-3,1.8-2.6,3.8-5.1,6.5-8.7Z"/>
      <path class="cls-1" d="M332.4,348.3c-1.8-1.4-3.5-2.6-5-3.9-.2-.2-.2-.9,0-1.3,0-.3.5-.5.7-.7,8.8-10.1,18.2-19.7,28-28.8,5.4-5,11.1-9.8,16.9-14.4,3.6-2.9,7.4-5.6,11-8.6,2.8-2.3,5.9-4.1,9.1-5.8,3-1.6,5.8-3.2,8.2-5.5.3-.3,1.1-.3,1.7-.4.1.6.5,1.3.3,1.9-1,2.7-1.8,5.3-2.1,8.2-.1.9-.3,3-2.4,2.9-5.1,4.2-11.2,6.9-16.4,11-3.9,3.1-8.2,5.5-11.8,9.1-5.3,5.4-11.1,10.3-16.4,15.7-2,2-4.1,3.9-6,5.9-2.1,2.1-4.2,4.2-6.3,6.4-2.1,2.1-4.2,4.3-6.4,6.3-.8.7-1.7,1.3-2.9,2.2Z"/>
      <path class="cls-1" d="M468.1,729.7c1.7-2.2,3.5-4.1,4.7-6.2,1.2-2.2,3.2-3.9,4.4-6.1,1.2-2.2,3.2-4.1,4.9-5.9,2.6-2.6,6-4.6,10-4.7,2.5,0,5,.1,7.5,0,2.4-.1,4.7-.5,5.5-3.4.4-1.4,1.6-1.5,2.9-.6,3.1,2.1,7,1.5,10.2,3,2-.9,4-1.6,5.9-2.6,1.4-.7,2.5-1.9,3.9-2.8,1.5-1,2.8-.8,3.7.6.4.6.7,1.4,1.1,2,1.5,2.9,1.2,4.2-1.5,5.7-4.2,2.3-8.3,5-12.7,6.8-6,2.4-12,4.8-18.4,6.4-5.5,1.4-11.3,2.2-16.6,4.6-1.4.6-3.1.5-4.7.8-3.6.7-7.2,1.6-11.1,2.4Z"/>
      <path class="cls-1" d="M586.3,326.8c-.2,1-.2,1.4-.3,1.6-2.9,3.3-5.9,6.6-8.8,9.8-1,1.1-2,.4-2.4-.5-1.3-2.8-3.7-4.5-5.7-6.6-3.4-3.5-6.8-6.9-10.2-10.2-3.7-3.5-7.5-6.9-11.2-10.3-1.3-1.2-2-2.3-.8-4.2.9-1.4.3-3.4,1.4-4.9,0-.1-.2-.6-.4-.8-.3-.1-.7-.2-1,0-1.1.6-2.1,1.4-3.1,2.1-.9.6-1.9,1.9-2.7,1.8-.9-.1-1.7-1.4-2.6-2.2-2-1.6-3.3-4.1-5.9-5-1.5-.5-1.6-2.2-1.2-3.4.8-2.6,1.9-5.2,3-7.8,0-.1.6-.3.8-.1,3.1,2.1,6.3,4.1,9.4,6.4,5.6,4.2,11.2,8.4,16.7,12.7,3.1,2.4,6,5,8.8,7.8,4.5,4.5,9.2,8.7,14.4,12.3.8.6,1.6,1.1,2.1,1.5Z"/>
      <path class="cls-1" d="M433.2,729.3c-3.9-1.1-7.7-1.1-11.5-2.2-3.3-.9-6.7-1.6-10.1-2.3-6.6-1.3-13-3.3-19.3-5.4-5.8-2-11.5-4.3-16.8-7.6-2.1-1.3-4.4-2.3-6.5-3.7-2.5-1.7-2.5-2.5-.6-5.1.3-.4.5-.8.7-1.2,1.4-2.2,1.4-2.3,4-1,2.6,1.3,5.3,2.6,7.7,4.3,1.3.9,2.2.8,3.5.1,1.8-1,4.1.3,6-1.3.7-.7,2.2-.5,3-1.1,1.5-1.2,1.9-.3,2.3.9.8,2.6,3.3,2.5,5.2,3,1.9.5,4,.1,6,.1,6,0,9,1.5,13.3,6.3,3.6,3.9,6.5,8.2,9.6,12.5,1,1.4,2.4,2.5,3.7,3.7Z"/>
      <path class="cls-1" d="M523.6,207.8c-.9.9-1.9,1.9-2.8,2.8-.2-.1-.5-.3-.6-.5-1.9-4.7-4.2-9.3-7.1-13.5-1.3-1.9-3.1-3.4-4.6-5.1-.3-.3-.3-.9-.3-1.3,0-.2.7-.5.7-.4,1.7,1.7,4,.6,6,1.2,2.2.8,4.6,1.1,6.7,1.9,2.4.9,4.9.9,7.1,2,2.2,1,4.5,1.3,6.7,2,3.5,1.1,6.9,2.6,10.4,3.9,4.2,1.5,8.3,3.3,12.4,5,1.8.8.4.8-.3,1-.3,0-.8.3-.8.5.3,2.6-.8,5.2.6,7.7.9,1.7.7,3.4-1,4.8-.6.5-2.6,1-.7,2.4-.4.2-.7.6-1.1.6-6,0-12,0-18,0-.6,0-1.2-.2-1.8-.4-2.9-1.1-5.6-2.8-8.6-3.3-2.3-.4-3.3-1.4-4.1-3.3-.4-1-1-1.9-1.4-2.9,0-.2.2-.6.3-.9.2.1.5.2.7.4,1.2.9.9,3.3,3,3.4,1.5.1,3,0,4.5,0s1.3,0,2,0c1.8-.1,3.2.3,3.5,2.4,0,.4.6.7.9,1.1.7.7,1.3.8,2.1,0,.5-.6,1.1-.8.3-1.8-1-1.1-1.5-2.7-2.3-4-.3-.4-1.1-.7-1.6-.6-4.7,1-7.8-1.3-10.6-4.7,0-.1-.2-.2-.3-.3ZM547.1,210.3c-2-2.2-4.2-3.8-7.5-3.6-1.3,0-3-.3-4-1.1-1.1-.8-2.1-.7-3.2-.9-1.9-.3-1.1,1.6-2,2.2-.9.6-.4,1.4.3,2,.5.4,1.1.9,1.4,1.4.9,1.7,1.9.8,3,.4,1.7-.7,3.4-.9,4.9.5.4.4,1.2.4,1.7.8,1.7,1.5,2.9.7,4.1-.7.3-.4.7-.7,1.1-1.1Z"/>
      <path class="cls-1" d="M391.6,190.8c-2,2.4-3.9,4.5-5.7,6.8-1,1.3-1.7,2.9-2.5,4.4-.8,1.5-1.5,3-2.3,4.5-.2.5-.7.8-1.1,1.2-.3-.5-.8-.9-.9-1.4-.1-1.5,0-3,0-4.5,0-1.3-.9-1.2-1.7-1.1-.5,0-1.3.6-1.3.9-.1,2.3,0,4.7,0,7,0,.4.3.9.6,1.2,1.7,1.4,1.4,2.7.4,4.6-2.4,4.5-2.1,4.9-6.4,5.9-2.9.7-5.3,3-8.4,2.6-.9,1.7-1.4-.4-2.3-.3-2.3.2-4.7.1-7,0-1.9,0-4.3,1-4.3-2.7,0-.9-1.7-2-2.7-2.8-1.1-.9-1.5-2.3-.8-3,1.8-1.8.3-2.5-.7-3.5-1.3-1.4-2.8-2-4.7-2-.3,0-.7-.6-.7-.9,0-.3.4-1,.7-1,3.4-.2,6-2.4,9-3.6,7.5-2.9,15.1-5.4,22.5-8.2,1.6-.6,3.3-.8,5-1.2,1.8-.4,4-.3,5.4-1.4,1.6-1.2,3.5.2,5-1.5.7-.7,2.9-.1,4.8-.1ZM374.3,214.3c-1.1-.9-2.2-2.4-3.2-2.3-2.2.2-3.3-1.1-4.6-2.3-1.8-1.6-3.7-3.1-5.5-4.5-.3-.2-1-.4-1.3-.2-.8.4-.7,4.3.1,4.9,2.6,1.7,5.4,3.1,8,4.8,1.4.9,3.8.2,5.8.2.1,0,.3-.2.7-.5ZM367.2,204c0,2.8.2,2.8,2.9,3.3,1.2.3,1.2-.6,1.8-.8-.1-.3-.2-.7-.5-1-.7-1-1.5-2-2.2-3-.2-.2-.3-.5-.5-.8-.3.3-.8.6-1,1.1-.3.5-.4,1.1-.5,1.2Z"/>
      <path class="cls-1" d="M357.2,667.8c-.5,5.8,2,10.7,3.4,15.8.9,3.5,2.6,6.9,4.2,10.2.7,1.6-.1,3.6,1.4,4.9-1.2,1.7-.4,3.9-1.2,5.5-.9,1.9-3,3.3-5.4,3.6-1.1.1-2.3,0-3.5,0-2.8,0-3.8-1-4-3.9,0-1,0-2,0-3,0-5-.5-6-4.7-9.4-1.2-1-2.1-2.1-2.4-4-.6-2.9-1.8-5.6-1.9-8.7,0-.7-.4-1.5-.6-2.2-1.8-5.2-1.8-5.3.7-10.6,1.2-2.5,2.6-4.9,3.6-7.5.6-1.4,1.1-2.2,2.7-1.8.5.1,1,0,1.5,0,1.4.2,2.9.1,4.2.6,1.5.6.4,2.6,1,3.5,1.5,2.3.6,4.8.9,6.9Z"/>
      <path class="cls-1" d="M559.1,671.8c0,1.6.3,2.9,0,3.9-1.3,3.2-1.4,6.7-2.3,10-.8,3-2,5.1-4.8,7.1-2.3,1.6-5.1,4.5-3.1,8.4-1.3,1.5-.5,3.4-.9,5-.2.7-1.3,1.5-2.1,1.6-1.6.3-3.3,0-5,0-2.6,0-3.9-1.7-4.7-3.7-.7-1.5-1.1-3.4-1-5,.1-2.1.6-4.4,1.5-6.3,3.3-6.5,4.8-13.6,7.2-20.4.4-1.2.1-2.6.1-3.9,0-1.8-.1-3.7,0-5.5.2-1.7.6-3.4,1-5.1.1-.4.7-.8,1.2-1.1.1,0,.3,0,.5,0,5.1-1,8.1,1,9.9,6,1.1,3.1,3.2,5.9,2.4,9Z"/>
      <path class="cls-1" d="M606.1,383.3c0,2.3,0,4.7,0,7,.1,3.1.4,6-3.7,6.9-.9.2-1.6,1.5-2.3,2.5-1.6,2.3-1.6,2.3-2.7,0-2-4.3-4.6-8.5-5.8-13-.9-3.3-2.6-6.4-2.6-10,0-.9-.8-1.7-.9-2.6-.8-4.3-2-8.5-3-12.7-.7-3.2-2.1-6.3-2-9.7,0-2.8,0-3.1,2.1-1.8,2.2,1.4,4.4.8,6.6.9,1.6,0,2.5.5,3.4,2.1,2.9,5.7,6.1,11.2,9.8,16.5.7,1,1.4,2.3,1.2,4-.3,3.3,0,6.6,0,10Z"/>
      <path class="cls-1" d="M318,348.6c.7,5.3-1.5,9.5-2.3,14-.9,5.1-2.9,9.8-3.7,14.9-.7,4.2-2.4,8.3-3.9,12.3-1.4,3.7-3.3,7.3-5,10.9-.2.4-.5.7-.8,1-.4-.4-.9-.7-1.2-1.1-1.8-3.3-1.8-3.5-4.7-4.8-.8-.4-1.4-.4-1.4-1.5,0-7.3-.1-14.6.1-21.9,0-1.7.9-3.7,2-5.1,3.7-4.7,6.1-10.1,8.9-15.3.5-.8.6-1.3,1.6-1.3,1.2,0,2.3,0,3.5,0,2.5.3,4.7-.4,6.9-2.2Z"/>
      <path class="cls-1" d="M274.1,368.8c-.4,1.1-.6,1.8-1,2.5-1.6,3-5,3.2-7.5,3.4-7,.4-13.7,2.1-20.3,4.2-.2,0-.6-.1-.9-.2,0-.2.1-.5.2-.7,1.6-4.3,3.3-8.6,4.9-12.9,1.5-4,3.2-8,4.6-12.1,1.3-4,4.8-10.7,7.1-13.6,3.4-4.2,5-9.2,6.3-14.4,2,1,2.6,3.4,4.5,4.5.8.5.9,2.2,1.1,3.5.2,1.5.1,3,0,4.5-.1,1.7,0,3.4,1.1,4.5,1.9,2,0,4.8,1.9,6.8.3.3.8,3.3-1.6,1.1-4.9-.7-9.3,1-11.3,4.8-3.2,5.9.3,13.9,8.1,14.2.8,0,1.6,0,2.9,0Z"/>
      <path class="cls-1" d="M628.9,349.8c-.3,0-.7,0-1,0-3.1.2-3,0-2.5-2.9.9-4.8,3.6-9.2,2.7-14.4-.3-1.6.3-2.8,1.6-3.8.5-.4.9-1.1,1.4-1.4,1.2-.5.5-3,2.3-2.4.6.2.8,1.9,1.1,2.9,1.2,3,1.9,6.2,3.5,9,1.2,2.2,3.9,3.5,4,6.3,3.4,3.5,4.4,8.2,5.8,12.5,1.9,5.7,4.8,11,6.4,16.8.4,1.6,1.3,3.1,1.7,4.8.3,1,0,2.2-1.3.7-4.3-.2-8.2-2.7-12.6-2.1-1.8-1.4-4.2-.4-6-1.1-1.9-.8-3.7-.8-5.6-.8-1,0-1.3-.4-1.5-1.4-.2-1.2-2.5-1.7-1.8-3.1.3-.6,2.1-.4,3.2-.5,3.3-.5,6-1.9,7.7-4.9,3.5-6.4-1.4-14.3-8.2-14.1-.3,0-.7,0-1,0Z"/>
      <path class="cls-1" d="M329.9,351.2c-.3,2.1-.2,3.7-.8,4.8-1.6,3.3-1.8,6.9-3.1,10.2-1.1,2.9-2,5.9-2.7,8.9-.6,2.9-2.1,5.5-2.3,8.6-.2,2.5-1.6,5-2.1,7.6-.3,1.2-.5,2.4-.7,3.7-.2,1.2-.8,2.4-.9,3.6-.5,4.8-2.5,9.3-2,14.2-1.5,2-.2,4.7-1.2,6.5-1.3,2.2-.3,4.2-.8,6.2-1.1,4.3-2,8.7-2,13.2,0,.4-.6,1.1-1,1.2-3,.9-6.3.6-9.2,1.8-.2,0-.7-.2-.6-.3,0-.8,0-1.9.4-2.3.8-.6,2-.9,3-1.2,1.9-.6,2.5-1.3,3.8-2.7,1.3-1.3,1.9-2.5,1.8-4.3-.2-2.1,2-4.1.9-6-1.1-2-.8-3.4,1-4.3,1.9-.9.5-2.8,1.7-3.9.3-.3-.1-1.7-.6-2.3-1.4-1.9-1-4.2-1.9-6.2-.6-1.3-.7-2.7-1.3-4-.3-.7-1.1-1.2-1.7-1.8,1.7-.6.8-2.3,1.3-3.4,3.1-6.6,5.1-13.6,6.7-20.7.9-4.2,2.6-8.3,3.5-12.5.7-3.2,1.5-6.4,2.4-9.5.7-2.4.9-4.9,2-7.2.3-.7.4-1.4.6-2.1.7.4,1.4.6,2.1,1.1,1.2.8,2.4,1.6,3.5,2.5.5.4.8,1,.7.8Z"/>
      <path class="cls-1" d="M577.5,346.8c.2.2.6.5.6.9.4,3.6,1.9,6.9,2.6,10.4.9,4.6,2.4,9.1,3.5,13.6,2.1,8.6,3.7,17.3,7.7,25.3.6,1.1,0,2.5,1.2,3.6.8.7,1.2,2.2-.4,3.4-2.3,1.7-1.6,4.6-2.4,7-.4,1.2-.2,2.4-1,3.6-1.4,2.1-1.3,3.3.6,5.3,1.1,1.3,1.3,2.5,1.4,4,.2,2.7-.5,5.4.9,8.1,1.2,2.4,2.7,4.9,4.7,5.9,1.4.7,2.8,1.4,4.1,2.2.3.2.4,1,.2,1.3-.2.3-1,.6-1.2.4-2.1-1.7-4.9-.9-7.3-1.8-1.5-.6-2.6-.4-2.5-2.5,0-1.7-.6-3.4-.9-5.1-.3-1.7.7-3.6-1-5.1-.3-.3,0-1.3,0-1.9,0-1.9-.1-3.7-.9-5.6-.7-1.7-.3-3.7-.9-5.6-.7-2.1-.6-4.7-1.2-7-.6-2.6-.3-5.5-1.2-8-1.3-3.7-1.5-7.6-2.7-11.3-1.1-3.5-2.1-7.1-3.2-10.7-2-7.2-4-14.3-6-21.5-.2-.9-.8-1.7-.9-2.6,0-.7.2-1.7.6-2.2,1.5-1.4,3.2-2.6,4.9-3.9.1,0,.3,0,.7,0Z"/>
      <path class="cls-1" d="M248.1,214.2c0,5.3-.3,9.5,0,13.6.3,3.7-1.3,7-1.1,10.6.2,3.7.1,7.3,0,11-.1,5,.9,10,2.2,14.6,1.3,4.3,3.8,8.5,6.6,12.2,4.1,5.4,7.9,10.9,12.7,15.7.5.5,1.2.9,1.3,1.4.1.5-.3,1.2-.6,1.7-.3.5-.7.9-1.4.2-1.8-1.6-3.7-3-5.7-4.4-1.8-1.3-3-3.2-4.3-4.8-2.1-2.7-3.7-5.8-5.6-8.7-2.9-4.4-4.9-9.3-7.2-13.9-.3-.6-1-1.1-.9-1.6,0-5.4-2.1-10.7-.9-16,1.6-7.2.6-14.4.9-21.6.2-7.3.1-14.6,0-22,0-1.9-.7-3.7-.9-5.6-.3-1.9-.3-3.7-.8-5.6-.7-2.7-.4-5.7-1.2-8.5-.6-2.3-.5-4.8-1.2-7-.4-1.4-1.7-2.6-2.7-3.9-.4-.5-1-.9-1.2-1.5-.4-1.2-1.3-2.6-.9-3.5.5-1.4,2.3-.5,3.5-.7,1.1-.2,1.2.4,1.4,1.4,1.4,5.4,3.6,10.6,4.6,16,.7,3.7,1.6,7.4,2.4,11,1.6,7,.5,14.1.9,19.9Z"/>
      <path class="cls-1" d="M663.6,165.8c.5,0,1,0,1.5,0,1.3,0,1.2.8.9,1.7-.5,1.1-1.1,2.2-1.8,3.2-2.3,3.4-4.3,7-4,11.3-1.8,2-.3,4.6-1.1,6.5-.9,2.2-.5,4.5-.9,6.6-2,10-.7,20.1-.9,30.1-.2,10.2-.2,20.3,0,30.5,0,2.7-.6,5.1-1.2,7.6-.5,2.4-2,4.5-3.4,6.6-2.5,3.7-4.6,7.7-6.8,11.7-3.1,5.8-7.8,10.2-13,14-.3.2-1,.3-1.3,0-.3-.2-.5-.9-.4-1.3.2-.7.5-1.5,1-2.1,6.5-6.5,11.4-14.1,16.5-21.7,1.6-2.4,2.5-5.3,3.4-8.1.9-3.1.7-6.4,1.2-9.5.7-4.2,1.4-8.5.7-12.6-1.2-6.6-.7-13.1-.8-19.6-.1-6.7,0-13.3,0-20,0-4.8,1.2-9.4,2.6-13.9.6-2-.6-4.3,1.4-5.9-.4-3.1,2.1-5.6,2-8.7,1.6-1,.7-2.7,1.1-4.1.5-1.7,1.5-2.4,3.4-2.5Z"/>
      <path class="cls-1" d="M668.1,443.2c0,1.5,0,2.1,0,2.8-.2,2.9.2,6-.6,8.7-.8,2.6,0,5.3-1.2,8-1.2,2.6-.6,6-1.3,9-.9,4.1-1.8,8.3-2.6,12.4-.7,3.7-1.8,7.3-2.4,11-.5,3.4-1.1,3.8-4.8,4.7-4.5,1.1-8.9,3-13.5,3.6-4.6.6-8.8,2.8-13.5,2.4-.6,0-1.4,0-1.9-.3-.6-.4-.9-1.3-1.3-1.9.5-.3,1.2-.4,1.5-.8,1.6-2.2,4.6.3,6.2-2,4.4.2,8.4-1.7,12.7-2.1,2.8-.2,5.4-1.4,8.2-1.9,1.7-.3,2.4-1.1,2.6-2.9.2-2.4,0-5.1,1.1-7,1.4-2.2-.3-5,1.8-6.8-.2-2.4.6-4.7.9-7.1.4-3.5,1.7-6.8,1.9-10.2.2-3.6,1.4-7,1.3-10.6,0-2.5.7-5,.9-7.6.2-2.5-.1-5,0-7.5.2-2.3-.6-4.4-1-6.6-.4-2.2.9-4.6-1-6.6.7-3.5-1.1-6.7-1-10.1,0-1,.2-2.1-.2-2.9-.4-.9-1.5-1.7-.1-2.3,1.8-.8,4.2.4,4.3,1.9.2,2.4.2,4.7.8,7.1,1,3.8.4,8.1,1.3,12,1,4.7.8,9.4.9,13.3Z"/>
      <path class="cls-1" d="M156.9,445c4.1-2.1,7.8-4.7,12-6.1,3.1-1,6-2.6,9-3.7,4.6-1.7,9.2-3.5,13.8-5.3,3.7-1.4,7.6-2.5,11.5-3.7,1.6-.5,3-.8,4.5.5,1.3,1.1,3.1,1.5,4.4,2.6,4.2,3.7,8.2,7.5,12.4,11.3.9.8,1.2,1.6.1,2.4-2.1,1.8-4.1,3.7-6.3,5.3-4.2,3-8.6,5.8-12.9,8.6-2,1.3-4.1,2-6.8,1.1-4.4-1.4-9-2.3-13.5-3.6-6.8-2-13.5-4.5-20.3-6.5-2.5-.8-4.9-1.7-7.7-2.7ZM165,444.3c2.1.9,3.8,2,5.7,2.4,7.5,1.4,14.5,4.6,22,6.1,2.1.4,4.1,1.5,6.2,1.9,1.2.2,2.4.2,3.7-.8,2.3-1.8,5-3.2,7.5-4.7,2.8-1.6,5.8-3,8.6-4.6,2.1-1.2,1.8-3.4.3-4.5-4.1-2.8-7.5-6.5-11.5-9.5-1.2-.9-2-1-3.5-.5-2.8,1-5.5,2.1-8.4,2.7-3,.6-5.9,1.8-8.8,2.9-7.1,2.9-14.7,4.7-21.9,8.5Z"/>
      <path class="cls-1" d="M275.7,503.9c-1.1,2.5-4.1,2.4-6.5,1.8-5.7-1.5-11.6-2.7-17.3-4-1.4-.3-2.8-.4-4.1-.9-1.7-.7-3.7-.5-5.2-1.9-1.7-1.5-1.7-3.7-2.3-5.6-.7-2.1-.1-4.8-1.2-6.5-1.4-2.1-.3-4.3-1.6-6.4-1.2-1.9.3-4.8-1.3-6.9,0-5.2-1.3-10.1-2.2-15.1-.7-4.3-.6-8.4-.7-12.6-.2-4.2-.1-8.3,0-12.5,0-2,.7-4.1.9-6.1.3-2-.5-4.2.9-6.1.5-.6.2-2,0-2.9-.4-2.5.6-3.9,3-4.7,1.8-.6,2.2-.6,2,1.1-.2,1.5-.6,3.1-1,4.6-.3,1.4.7,3-.8,4.2-.2.2-.2.6-.2.9-.3,4.2-.8,8.4-1,12.6-.2,4.3-.3,8.7,0,13,.2,2.7,1.2,5.3.9,8.1,2.2,2.2-.2,5.5,2,7.7-.5,2.8.4,5.5,1.1,8.1,1.2,4.6.7,9.4,2.7,13.9.8,1.8,0,4.1,1.1,6,.5.9-.1,2.7.5,3.2,1,.8,2.6,1.1,3.9,1.2,2.1.2,4.1.1,6.1.9,2,.8,4.3.9,6.5,1.1,2.1.2,3.9,1.7,6.1,1,2.1,2.3,5.6-.6,7.5,3.1Z"/>
      <path class="cls-1" d="M699.8,458.5c-2.6-.5-4.8-1.8-6.6-3.4-3.6-3.1-8.1-5-11.5-8.4-.6-.6-1.7-.8-2.4-1.5-4.3-4.4-4.2-2.8-.3-7,3.9-4.1,8.4-7.6,13-10.9,1.7-1.2,3.6-3.1,5.8-.7,7.9,1.2,15,4.8,22.3,7.5,7.5,2.8,14.9,5.8,22,9.5.4.2.7.5,1,.8-.3.4-.6,1-1.1,1.2-3.6,1.4-7.1,2.9-10.8,4-6.2,1.9-12.4,3.5-18.6,5.7-2.8,1-6,1.5-9,2.3-1.4.3-3-.5-3.9.8ZM736.3,444.2c-3.5-1.5-6.8-3.2-10.3-4.4-9.4-3.1-18.8-6-28.2-9-2.3-2.3-4.3-.5-5.8.8-4.1,3.4-8,7-12.1,10.6,1.1,1.1,1.9,2.1,2.8,2.6,5.6,3,11.2,6,16.5,9.6.5.3,1.4.6,1.8.4,1.8-1.2,3.9-.4,5.6-1.1,3.2-1.2,6.4-2.3,9.7-3,3.4-.8,6.9-1.7,10.2-3,3.2-1.3,6.7-1.4,9.7-3.5Z"/>
      <path class="cls-1" d="M287.1,199.7c0,.5,0,1,0,1.5,0,.9,0,1.7-1.2,1.6-.7,0-1.7.4-1.8-1,0-.6-.9-1.1-.9-1.6.3-5-2.4-9.4-3.2-14.2-.7-4.4-4.1-7.5-7.6-10.2-6.2-4.7-13.2-8.1-20.2-11.5-6.4-3.1-9.3-3.2-15.5-1.6-4.4-.8-7.7,2.4-11.7,3.1-1.1.2-2.3,1.1-3.2,1.9-5.2,4.7-9.8,10-13.6,15.8-1.8,2.8-3.5,5.6-5.5,8.2-3,3.8-4.4,8.2-5.5,12.7-.8,3.4-1.3,6.8-2.1,10.1-.2.8-1,1.5-1.7,2.1-.1.1-1.2-.3-1.2-.5,0-1.7-.5-3.5,0-5,1.7-4.2,2.1-8.7,3.9-12.9,2.2-5.2,4.8-10.1,8.3-14.6,4.3-5.4,8.9-10.6,13.3-15.9,2.3-2.8,5.7-4.9,9.3-6.2,2.5-.9,5.1-1.8,7.7-2,4.5-.3,9.1-.6,13.5,0,3.6.5,7.3,2,10.3,4,5.8,3.8,11.8,7.1,17.5,11,3.7,2.6,6,5.7,7.8,9.7,2.1,4.9,2.3,10,3.5,15.1Z"/>
      <path class="cls-1" d="M709.1,214.9c0,.2,0,.4,0,.5-.3.5-.6,1.4-.9,1.3-.6,0-1.4-.5-1.6-.9-.6-1.6-1.3-3.2-1.5-4.8-.5-4.5-1.7-8.9-3.1-13.2-.7-2-1.9-3.9-3.2-5.7-4.4-6.2-8.8-12.4-13.5-18.4-2.3-2.9-5-5.7-8.4-7.4-2.9-1.4-5.9-2.6-9.1-3.4-3.1-.8-6.3-1.2-9.6-1.2-2.3,0-4.5.5-6.5,1.2-3.6,1.3-7,3.2-10.4,5.1-3.3,1.8-6.4,3.7-9.7,5.6-.3.2-.4.6-.7.7-6.2,2.4-8.7,7.7-10.5,13.5-1.1,3.4-2.3,6.8-2.6,10.4,0,1-.6,2.1-1,3.1-.2.5-.4,1.4-.8,1.5-.9.1-2,0-2.9-.2-.3,0-.5-1.3-.3-1.8,1.2-3,1.2-6.2,2-9.2,1.8-6.3,3.4-12.5,9.8-16.4,6-3.7,11.8-7.8,17.9-11.2,4.4-2.5,9.3-4.6,14.7-4.2,2.2.2,4.3,0,6.5,0,7,.4,13.4,2.5,18.2,7.8,5.2,5.6,10.4,11.2,15.1,17.2,4,5.1,7.1,10.9,8.7,17.4,1,4.2,2.2,8.4,3.3,12.7,0,0-.2,0-.3,0Z"/>
      <path class="cls-1" d="M487.6,257.5c6.1,3.7,11.5,6.9,16.9,10.2,4.3,2.6,8.6,5,12.9,7.6,3.8,2.3,7.6,4.7,11.6,6.9,1.6.9,3.2,1.9,4.8,2.8,0,0,0,.8-.1.8-3.2.8-5.5,3.4-8.5,4.7-.9.4-1.5.4-2.1-.3-.3-.4-.7-.8-1.1-1-4.5-2.8-9.1-5.4-13.4-8.5-3.9-2.9-8.4-4.8-12.3-7.8-.6-.5-1.6-.7-1.9-1.3-2.2-4.4-4.3-8.8-6.7-14Z"/>
      <path class="cls-1" d="M433.4,205.5c2.8,2.1,3.2,2,4.8-1.1.6-1.1,1.1-2.3,1.7-3.5,1,.7,2.1,1.4,3.1,2.1.1,0,.2.3.4.3,1.2.8,2.3,1.5,3.5,2.2,1.5-2.1,3.9-.1,5.9-1.6,2-1.6,4.8-2.1,6.8-4,1.5-1.4,2.2-1.1,3.8.3,2.3,2,4.6,4.1,7,6,.9.7,2.4,1.5,2.9-.8.4-1.9,3.3-1.3,3.3-3.6.6,0,1.2.1,1.7.3,4.2,1.1,7.2,3.9,10.4,7.5-2.2-.2-4.1.8-5.8-.9-.3-.3-1-.2-1.4,0-3.8.7-7.3-1.1-11.1-1-3.8,0-7.7.1-11.5,0-2,0-4.2.8-6.1-.9-.9-.8-2.3,2.2-3.7.1-1.4,1.9-3.1-.9-4.4.1-1.7,1.4-3.5.4-5.2.6-1.8.2-3.7,0-5.5,0s-4-.6-5.4.1c-3.5,1.8-7.4-.2-10.8,1.8-.9.5-2.3.2-3.4,0-1.2,0-.3-.6-.3-1.1.1-1.9,2-1.8,2.9-2.7,2.2-2.4,5-3.8,7.8-5.1,1.4-.7,2.7-1.7,3.9-2.7,2.6-2.2,2.8-2.2,6.3-.4.5.3,1.2.4,1.7.7.9.6,1.3,1.3.4,2.4-1.2,1.4-2.2,3.1-3.3,4.6Z"/>
      <path class="cls-1" d="M673.8,387.2c1.5-1,2.6-2.1,3.9-2.4,8.1-2,15.5-6.1,23.6-8.1.3,0,.5-.4.8-.5,1.4-.6,2.9-2.2,4.3-1.4,1.1.7,1.4,2.6,2.2,3.9,2.3,3.7,1.4,7.8,1.1,11.8,0,.4-.6.8-.7,1.2-.6,2.8-1.3,3.5-3.8,3-4.4-1-8.9-1.8-13-3.5-1.9-.7-4,.7-5.5-1.2-4.1-.9-8.3-1.7-13-2.7Z"/>
      <path class="cls-1" d="M194.7,394.8c-2,0-3.4-1.4-3.5-3.1-.1-1.5,0-3,0-4.5-.3-3.5,0-5.5,1-7.7.6-1.2,1.5-2.4,1.9-3.7.4-1.2.9-1.1,1.8-.8,7.5,2.8,14.9,5.9,22.5,8.3,2.6.9,4.9,3,8,2.5.2,0,.8.6.8.9,0,.3-.4,1-.7,1-4.4.4-8.8.9-12.7,3-5.6-.2-10.6,3-16.2,3.1-1.2,0-2.3.8-2.8.9Z"/>
      <path class="cls-1" d="M536,317.1c1.9-1.5,3.5-2.8,5.3-4,1.3-.9,3.2-.6,4.4.6,5.4,5.4,11.2,10.5,16.1,16.3,3.5,4.1,7.4,7.9,11.1,11.8,2,2.1,2,2.2-.7,3.8-1.2.7-2.4,1.8-3.7,1.9-1.8.2-2.6-1.8-3.7-2.9-2.7-2.5-5.1-5.2-7.8-7.7-2-1.9-4.2-3.5-6.3-5.3-2.4-2.2-4.1-5.1-6.9-7.1-2.8-2-5-4.8-7.7-7.6Z"/>
      <path class="cls-1" d="M403.3,179.6c-1.1,2.5-3.5,2.8-4.4,4.8-.4.7-1.8,1.1-2.9,1.3-4,.8-8.3.7-12.1,2.2-3.8,1.5-7.7,2.4-11.5,3.6-4.3,1.3-8.5,2.7-12.8,4.1-4.2,1.4-8.4,3-12.6,4.6-4.7,1.8-9.4,3.9-14,6-.7.3-1.9.7-2.2.4-1.7-1.5-3.7-.6-6.4-1.2,8.3-5.3,16.8-8.3,25.1-11.6,8.6-3.4,17.4-6.3,26.4-8.6,9-2.3,17.8-5,27.3-5.8Z"/>
      <path class="cls-1" d="M58.1,442.8h92.5c.8,0,1.7,0,2.5,0,1.8.2.4.8.2,1.4-.1.4,0,.9.1,1.3.2.5,1.3.9,0,1.2-.6.2-1.3,0-2,0-27,0-54,0-81,0-1.7,0-3.1-.5-4.6-1.1-2.2-.9-4.4-1.7-7.8-3Z"/>
      <path class="cls-1" d="M573.2,203.2c-1.7.5-3,1.2-4.4,1.3-2.2.3-4.3.4-6.5-.7-6.7-3.5-14.1-5.4-21-8.2-5.3-2.1-10.8-3.7-16.2-5.3-4.7-1.4-9.5-3-14.5-3.7-2-.3-4-.7-6.1-.9-.7,0-1.4-.7-2-1.2-1.4-1.2-2.6-2.6-3.9-3.8-.7-.6-1.6-1-2.4-1.5,1.2-1.5,1.9.4,2.9.5,2.9.3,5.7.5,8.6,1,3.1.5,6.2,1.3,9.1,2.2,3.1,1,6.5.8,9.3,2.8,6.4.7,12.2,3.5,18.1,5.6,8.4,3,16.9,5.9,24.6,10.4,1.3.8,2.9,1,4.5,1.5Z"/>
      <path class="cls-1" d="M510.2,508.5c6.7-5,12.5-9.4,18.5-13.7,1.3-.9,3.3-1.8,5-1,1.9.9,3.9.4,5.6,1,4.8,1.7,9.8,3,14.7,4.3.7.2,1.4.7,2.1,1.1-.9.5-1.8,1-2.7,1.6-3,2-6.5,2.2-9.8,2.9-3.3.7-7,0-10,1.3-3.1,1.2-6.5-.4-9.2,1.8-4.4-.8-8.6,1.5-14.2.7Z"/>
      <path class="cls-1" d="M344.9,499.9c5-1.4,9.7-2.8,14.5-4.1,1.9-.5,3.9-1.1,5.8-1.6,2.6-.6,4.6-.5,7.2,1.2,6.1,4,11.8,8.5,18.3,13.2-3.2.2-5.6,1-8-.6-.4-.2-.9-.1-1.4-.2-3.5-.3-7.1-.5-10.6-1.1-2-.4-4-1.1-6.1-.9-2.3.2-4.2-1.5-6.6-1.1-2,.3-3.9-.9-6.1-1.1-2.4-.2-4.8-1.7-7.1-3.7Z"/>
      <path class="cls-1" d="M432.1,733.9c-4.1-.5-7.3.9-10.4-1-.4-.2-1,0-1.5,0-3.9-.3-7.8-.2-11.5-1.1-4.4-1.1-8.9-1.4-13.3-2.7-3.4-1-7.1-1.3-10.6-2.2-7.7-1.9-15.3-3.9-22.7-6.6-.7-.3-2,0-2.2-.5-.9-1.6-2.7-.3-3.5-1.4-.8-1.1.5-2.9-1.1-4.1-.3-.2,1.3-1.2,1.9-1,6.7,2.8,13.7,4.8,20.8,6.5,2.6.6,4.9,2.3,7.7,2,.9,1.4,2.3.8,3.6,1,1.2.2,2.4.7,3.6,1,5.9,1.5,11.8,2.5,17.5,4.6,1.7.6,3.6,1.2,5.4,1.3,4.3.2,8.3,2.1,12.6,2.1.9,0,1.8,1,3.7,2Z"/>
      <path class="cls-1" d="M469.2,733.2c2.4-.5,4.8-1,7.3-1.4,5.3-.8,10.4-2.2,15.6-3.4,3.2-.7,6.3-1.8,9.4-2.6,5.7-1.5,11.3-3.3,17-4.6,5.6-1.3,10.9-3.6,16.7-4.5,2.3-.3,4.6-1,6.6-2.2,1.5-.9,1.1-.4,1.5.7,1.2,3.1,1.2,4-1.6,4.4-3.8.5-6.9,2.8-10.7,3.2-3.7.4-6.9,3-10.7,3-1.7,2.1-4.3.4-6.3,1.6-1.6,1-3.9,1-5.9,1.4-2.2.4-4.6.3-6.5,1.1-2.2.9-4.7.2-6.5,1.1-2.3,1.1-4.7,0-6.6.9-2.9,1.3-5.9.2-8.6,1-2.9.9-5.7.8-8.6.9-.6,0-1.2,0-1.8,0,0-.2,0-.3,0-.5Z"/>
      <path class="cls-1" d="M397.4,680.6c-5.5.9-9.7-2.1-13.9-4.3-1.5-.8-2.6-3.2-3.1-5.1-.4-1.6-.8-3.3-1.2-5-.5-2.2-.7-4.4-1.1-6.6-.4-2.2-1.4-4.3-1-6.6-2.2-1.6.2-4.6-2-6.2,0-6-1.7-12-1-18,0-.4.7-.8,1-1.2.3.3.9.5.9.8.4,2,.7,4,1,6.1s.5,4.1,1,6.1c1.6,5.5,2.1,11.3,3.8,16.9,1.2,4,3.8,6.8,5.8,10.1,2.8,4.6,6.4,8.6,9.7,13Z"/>
      <path class="cls-1" d="M525.7,627.5c.6,3.2,2.7,5.9.5,9.1-.5.8,0,2.3,0,3.4,0,2.1.6,4.7-.4,6.3-1.2,2,.6,4.4-1.6,5.9.4,2.3-.6,4.4-1,6.6-.9,4.3-1.7,8.5-2.8,12.8-.7,2.8-2.2,4.4-4.2,5.6-3.3,2-6.8,3.9-11,3.6-.3,0-.9-.3-.9-.5,0-.4,0-1,.3-1.3,4.9-4.7,8.2-10.5,11.9-16.1,1.9-2.9,3.4-6.1,4-9.9.9-5.4,1.7-10.9,3-16.2.7-3,.6-6.3,2.4-9.3Z"/>
      <path class="cls-1" d="M199.1,356.8c.7,3.8-.9,6.8-3.1,9.6-.8,1-1.5,1.9-3.2.6-1.9-1.5-4.4-2.2-6.6-3.3-2.1-1-3.1-2.5-3.1-5,0-4.1.5-7.6,4.9-9.5,1.6-.7,2.9-2,4.2-3.1,1.1-1,1.8-.3,2.4.5.7.9,1,2.1,1.8,2.7,2.7,1.9,3.2,4.4,2.7,7.4Z"/>
      <path class="cls-1" d="M702.1,356.4c0-1.2,0-1.8,0-2.5,0-1.6-.3-2.9,1.9-3.7,1.4-.5,2.1-2.7,3.3-4,.3-.3,1.3-.4,1.6-.1,2.4,1.6,4.9,3,6.9,5,1.2,1.2,2,3.2,2.3,4.9.3,1.8.7,3.9-.9,5.5-.3.3-.3,1.1-.6,1.2-3.3,1.7-6.5,3.4-9.9,5-.7.3-1.1-.4-1.7-1.1-2.5-3.2-3.2-6.8-2.9-10.3Z"/>
      <path class="cls-1" d="M305.9,641.1c-1.3,1.9-2.6,3.5-3.7,5.3-1,1.6-1.9,1.9-3.1.7-2-1.9-4.1-3.7-6.2-5.4-4.7-3.8-9.1-8-13.9-12.4,1.5-1,2.8-1.7,3.8-2.8,1.1-1.1,1.9-2.5,2.7-3.6,6.9,6.1,13.7,12.1,20.5,18.1Z"/>
      <path class="cls-1" d="M663.1,574.8c-2.3-1.5-4.6-3-6.9-4.7-.1,0,.4-1.1.7-1.6,3.1-6.4,6.2-12.7,9.2-19.1.6-1.2,1.1-2.4,1.6-3.6,1.1.6,2.1,1.3,3.2,1.8.5.3,1.3,0,1.9.3,1.1.6,2.4,1.2,3,2.2.3.4-.9,1.7-1.3,2.7-1.1,2.9-2.6,5.5-3.7,8.4-1.7,4.6-5.1,8.4-6.9,13.1,0,.2-.5.3-.9.4Z"/>
      <path class="cls-1" d="M247.7,574.7c.3.4.8.7,1,1.1,2.6,5.2,6,9.9,9.5,14.6,1.5,2,2.9,4.1,4.3,6.2.2.3.4.9.3,1-2,1.5-4.2,2.8-6.2,4.3-.8.7-1.3.8-1.8,0-3.6-6.2-8.5-11.6-11.6-18.2-.5-1-1.3-1.8-2.2-2.6-1.2-1.1-1-2.1.2-2.8,2-1.2,4.1-2.1,6.2-3.2.1,0,.2-.2.4-.4Z"/>
      <path class="cls-1" d="M625.8,625.9l-6.5-6.5c3.7-4.1,7.5-8,10.9-12.3,1.8-2.3,3.7-4.5,5.7-6.6.8-.9,1.5-1.1,2.4-.1.8.8,1.5,2,2.5,2.3,1.2.4,2.3.9,2.2,2.1,0,1-.7,2.1-1.3,2.9-2.3,2.7-4.6,5.4-7,8-3,3.4-6,6.8-9,10.2Z"/>
      <path class="cls-1" d="M232.2,542.6c-.2.3-.3,1-.6,1.1-2.1,1.1-4.1,2.1-6.3,2.9-.4.2-1.6-.6-1.9-1.2-.9-1.9-1.6-4-2.3-6-1.9-5.5-3.8-11.1-5.5-16.7-.4-1.3,0-2.8,1.3-2.9,1.4-.2,2.7-.1,4.1-.9,1.7-.9,3.8.5,4.1,2.6.6,4.5,2.7,8.6,3.9,12.9.7,2.6,2.4,4.7,2.7,7.4,0,.3.3.5.6.9Z"/>
      <path class="cls-1" d="M348.5,701.2c1.3,2.9,2.3,5.3,3.3,7.7.2.4.4.9.4,1.3-.6,3.8,1.2,7.3,1.1,11-.1,3.6-.3,7.3,0,10.9.3,3.1-2.6,4.6-3.2,7.2,0,.2-1.3.3-1.6,0-1.5-1.7-3.5-3.3-4.1-5.2-.5-2-.9-4.5.5-6.6.2-.4.4-.9.3-1.3-.7-4.8.9-9.3,1.1-14,.2-3.5,1.4-7,2.2-11Z"/>
      <path class="cls-1" d="M552.8,701.6c.9,6,2.7,11.6,2.3,17.6,2.2,3.6,0,7.9,1.9,11.7.7,1.4.5,3.5-1.3,4.9-.8.6-1.2,1.8-1.8,2.7-1.2,1.8-2.9,1.8-3.7-.2-1-2.4-2.4-4.7-2.1-7.6.3-3.8.2-7.6,0-11.4-.2-6.2,1.2-12,4.7-17.5Z"/>
      <path class="cls-1" d="M605.1,322.7c-.8,1.7-1.5,4.1-4,5-1.7.6-1.9,1.8-2,3.4-.2,2.2-.5,4.4-1,6.5-.3,1.1-1.2,2.2-1.9,3.2-1.6,2.2-3.3,4.3-5,6.4-.3.3-1.3.6-1.6.3-2.2-1.4-4.9-2.2-6.6-4.5-1.1-1.5-1.1-3.5.3-4.7,1.5-1.4,3.2-2.6,4.8-3.9,1.5-1.2,3-2.4,4.5-3.7,1.1-1,2.1-2.1,3.2-3,1.1-.9,2.3-1.6,3.4-2.5,1.5-1.1,3-2.4,4.5-3.5.3-.2,1,0,1.5,0,0,0,0,.3,0,1Z"/>
      <path class="cls-1" d="M295.4,320.9c.8.3,1.6.5,2.2.9,1.7,1.2,3.3,2.4,4.9,3.8,5.1,4.4,10.3,8.6,15.7,12.7,1.4,1,1.6,3.6.2,4.7-2.2,1.8-4.6,3.4-7,4.7-.8.4-1.9.4-2.4-1.4-.7-2.1-2.3-4.1-3.9-5.8-2.4-2.5-3.2-5.4-3-8.8,0-1.6-.5-3-2.3-4-2.1-1.1-3.4-3.4-4.6-5.5-.2-.3.1-.9.2-1.3Z"/>
      <path class="cls-1" d="M282.2,619.2c-2.2,2.2-4.3,4.3-6.6,6.6-2.7-3.2-6-5.8-8.4-9.3-2.3-3.3-5.3-6.1-8.1-9.3,2.1-1.7,4.2-3.5,6.2-5.2.9-.7,1.5-.2,2,.5,4.4,6,9.3,11.6,14.8,16.7Z"/>
      <path class="cls-1" d="M290.5,299.7c4.7,4.4,10.2,5.7,16.3,5,1.5-.2,2.9-.9,4.3-1.6,1-.4,1.9-1.1,2.8-1.7,4.7-3.3,7.6-7.1,9.1-12.6,1.2-4.3,2.7-8.6,2-13.1-.3-2.3,1.1-4.4.3-6.6,1.7-.9-.5-1.5-.2-2.3.1-.3.2-.6.3-.9.2.1.5.2.7.4,1.4,1.3,2,2.8,2,4.7,0,5.2.2,10.3,0,15.5-.2,3.6-1.6,7.1-4,9.8-3.6,4.1-8.2,7.1-12.8,10-2.4,1.5-5,2.1-7.5,2.3-4.4.4-8.7-1.2-12.2-4-1.4-1.1-1.4-1.2-1-4.9Z"/>
      <path class="cls-1" d="M685.3,523.5c-1.2,3.7-2.3,7.3-3.4,11-.8,2.5-2.2,4.7-2.8,7.3-.4,1.8-1.9,2.3-3.8,1.5-.4-.2-1-.3-1.2-.7-1-1.4-3.5-.1-3.8-1.9-.2-1.2.4-2.7.9-4,1.8-5.1,3.7-10.1,5-15.3.2-1,.9-2.1,1.7-2.5.6-.3,1.7.5,2.6.7.8.2,1.6,0,2.4.2,1,.3,2.1.7,2.9,1.3.2.2-.5,1.5-.8,2.3.1,0,.2,0,.3.1Z"/>
      <path class="cls-1" d="M615,623.7c.4,0,.6,0,.7,0,1.8,1.7,3.6,3.5,5.2,5.3.2.3,0,1.3-.3,1.6-1.5,1.4-3.2,2.7-4.8,4-.7.6-1.4,1.3-2.2,2-3.1,2.8-6.3,5.6-9.4,8.4-1,.9-1.7.7-2.4-.2-1.1-1.4-2.1-2.8-3.2-4.2-.9-1.2-.8-2.5.3-3.4,5.3-3.9,10.3-8.3,15-13,.3-.3.7-.5,1-.7Z"/>
      <path class="cls-1" d="M497.7,278.1c7,4.6,13,8.6,19,12.6.4.2,1,.1,1.3.4,1.1,1,2.7,2,3,3.2.3,1-1.1,2.4-1.6,3.7-.4,1-.7,2.1-1.2,3-.2.4-1.2.8-1.5.6-4.8-3.5-9.8-6.8-14.8-10-1-.6-1.8-2.5-1.7-4.2,0-.8-.7-1.7-.9-2.6-.5-2-.9-4-1.5-6.7Z"/>
      <path class="cls-1" d="M660.3,580.3c-.2.5-.2,1-.5,1.3-3.9,5.9-7.7,11.7-11.7,17.5-.2.4-1.3.6-1.6.4-1.7-1.6-3.8-2.8-5.9-3.9-.3-.2-.5-1.3-.3-1.6,2.9-4.3,5.8-8.5,8.7-12.8.8-1.3,1.4-2.8,2.1-4.1.8-1.5,2.2-1.9,3.7-1.1,1.7.8,3.2,1.8,4.8,2.8.3.2.3.8.5,1.3Z"/>
      <path class="cls-1" d="M245.1,569.2c-.2.3-.5.7-.8.9-.7.6-1.5,1.3-2.3,1.6-6.2,2.9-4.3,3.7-7.6-2.3-2.8-5.1-5.1-10.5-7.8-15.6-.8-1.5-.8-2.1,1-2,.3,0,.7.1,1,0,2-1.2,3.8-2.6,6.2-2.8.4,2.2,1.3,4.1,2.4,6,2.6,4.5,4.2,9.6,7.4,13.8.1.1.2.2.5.5Z"/>
      <path class="cls-1" d="M575.1,265.8c0,1.3,0,2.6,0,3.8.3,4.4.2,8.8,1.1,13,1,4.6,2.6,9.2,4.9,13.4.2.4.6.8.9,1.1,2.4,1.9,4.8,3.7,7.2,5.6,4.3,3.3,14,2.9,18.4-1,1-.9,2.7-2.1,3.4-1.4,1.2,1.2-.4,2.9-1,3.8-1.4,2.1-4,3-6.4,3.5-7.7,1.6-9.1,1-17-3.9-4.5-2.7-8.3-5.8-11.2-10.3-1.3-2.1-2.3-4.1-2.3-6.6,0-5.5,0-11,0-16.5,0-1.6.7-3.2,1.1-4.8.3,0,.5,0,.8.1Z"/>
      <path class="cls-1" d="M528.5,488.6c-.5.9-.8,2.2-1.7,3-1.8,1.6-3.7,2.9-5.7,4.2-3.7,2.4-7.7,4.3-10.9,7.4-1.1,1.1-1.6.9-2-.9-.1-.4-.1-1-.4-1.3-1.6-2.3-.6-3.9,1.1-5.5,3.3-2.9,6.6-5.8,9.8-8.8,1-1,2.2-1.7,2.6-3.4.4-1.7,2.3-1.6,3.8-1.4,1.2.2,1.9,1,2.1,2.3.2,1.4.8,2.7,1.3,4.5Z"/>
      <path class="cls-1" d="M393.1,499.7c0,1.2,0,2.1,0,2.9,0,.4-.3,1-.6,1.2-.3.1-1,0-1.3-.4-4.5-3.6-9.3-6.8-14.4-9.6-3.4-1.9-4.7-5.4-3.7-9.2.3-1,.8-2.3,1.6-2.6,1.1-.4,2.6-.1,3.9,0,.2,0,.3.5.5.8,2.4,3.3,4.9,6.3,8.6,8.3,1.1.6,1.8,1.9,2.9,2.7,2.1,1.7,3.2,3.7,2.6,6Z"/>
      <path class="cls-1" d="M182.1,377c0,2.8-1.1,3.7-2.6,2.6-2.3-1.7-5.2-1.9-7.5-3.7-4.6-3.4-9.4-12-8.9-17,0-.9,1-1.5,1.6-.9,2.8,2.6,6.2,4.1,9.5,5.9,1.5.8,2.9,2.2,3.8,3.7,1.5,2.3,2.6,4.9,3.7,7.4.4.8.4,1.9.4,2Z"/>
      <path class="cls-1" d="M738.1,360.5c-.1.3-.7,1.3-.9,2.3-.8,3.5-2.8,6.5-4.3,9.6-.8,1.5-2.3,3-4.4,3.7-2.3.8-4.4,2.3-6.5,3.4-1.3.7-2.4.4-3.4-.8-1-1.2.1-1.6.6-2.4.9-1.8,1.7-3.6,2.5-5.4.8-1.8,1.3-4,2.6-5.3,1.3-1.3,3.5-1.8,5.2-2.8,2.3-1.4,4.4-3,6.7-4.4,1.8-1.1,2.2-.7,2,2.1Z"/>
      <path class="cls-1" d="M237.8,400.2c.9-3.8,1.6-7.7,2.9-11.3.6-1.6-.6-3.8,1.6-4.8.8-.4,1.6-1.2,2.5-1.2,3.1,0,5.9-.8,8.7-1.9,2-.8,4.3-.2,6.6-1,2.8-1,6-.8,9-1.2,1.5-.2,3-.7,4.6-.9,1.4-.2,2.9.3,4.1-1,.1-.1,1.1.2,1.2.5.8,1.8-.3,3.5-2.2,3.5-3.9,0-7.5.6-11.2,1.9-2,.7-4.4.5-6.6.9-3.7.7-7.4,1.7-11.1,2.2-1.5.2-2.3.7-2.8,2.1-1,2.3-1.9,4.6-2,7.2,0,2.4-.5,4.7-1,7.1-.1.6-1,1.3-1.7,1.6-1,.6-2.2-.3-2.3-1.5,0-.7,0-1.3,0-2-.1,0-.2,0-.3,0Z"/>
      <path class="cls-1" d="M532.6,490.7c-.5-2.7-1-5.1-1.4-7.6-.2-1.1,1-1.8,1.4-1.2,1.3,1.7,3.1.5,4.5,1.2,1.2.6,2.8.3,4.2.7,3.1.9,6.2,1.8,9.2,3.1,1.1.5,1.8,2.1,2.7,3.2.9,1.3,1.9,2.5,2.7,3.9.5.8.6,1.8.9,2.7-.7-.3-1.4-.9-2.1-.9-3.2,0-6.2-1.1-9.1-2.1-2.9-1.1-6-1.4-8.8-2.7-1.2-.6-2.9-.2-4.1-.3Z"/>
      <path class="cls-1" d="M369.1,490.7c-5.5,0-10.3,1.4-14.9,3.5-1.5.7-3.2,1.2-4.8,1.6-1.4.3-2.9-.3-4.1,1,0,.1-.7,0-.9-.2-.2-.2-.4-.7-.3-.8,1.6-2.5,3.2-5,5-7.4,1.7-2.3,4.6-2.7,7-3.4,3.6-1,7.3-2.1,11.1-2.1,1.5,0,1.9.2,1.9,1.6,0,2,0,4,0,6.3Z"/>
      <path class="cls-1" d="M292.5,340.8c-2.8-1.6-6-.8-9-1-1.1,0-1.7.8-3.2.2-3.5-1.5-4.5-2.8-3.3-6.5.1-.4,0-1.1.2-1.4.6-.9,1.3-1.8,2-2.7,1.2-1.5,1.9.5,2.9.4,2.6-.3,4.2,1.8,6.6,2.3,2.4.5,4.5,1,6.8,0,.4-.2.9-.3,1.4-.2,1.1,0,2.2.3,3.3.4-.8.7-.9,1.5-1,2.5-.2,2.7-4.1,6.1-6.6,6Z"/>
      <path class="cls-1" d="M624.5,334.2c-.5,1.5-.8,3-1.4,4.5-.5,1.2-1.7,1.3-3.4,1.3-3.4,0-6.7-1-10.1.7-1.3.6-3,.4-4.4-1.1-2.4-2.6-2.6-2.7-3.8-5.9-.5-1.3-.2-1.9,1.2-1.8,1.4.1,2.7.3,4.1.8,2.7.9,5.7,0,8.3-1.2,1-.5,1.8-1.2,2.9-1.6,4.1-1.5,6.2,0,6.6,4.4Z"/>
      <path class="cls-1" d="M622.1,378.8c0-2.1,0-2.1,2.1-1.4.6.2,1.3.5,1.8.4,2.4-.6,4.3,1,6.6,1.1,2.4,0,4.7.8,7.1.9,2.3,0,4.4.9,6.5,1.3,3.2.6,6.3,1.8,9.7,1.9,2.1,0,3.7,1.7,4.2,3.7.9,3.5,1.4,7.1,2.1,10.6.1.7.7,1.4.9,2.1.5,1.7-.5,3.3-2.3,3.5-.8.1-1.5.2-1.7-1.1-.5-3.2-1.5-6.4-1.9-9.7-.3-2-1-3.6-2.4-5-1.4-1.5-3.5-1.9-5.1-2-4.6-.4-9-1.9-13.6-2.4-4-.4-8-2-12.2-1.7-1.7.1-2-.7-1.8-2Z"/>
      <path class="cls-1" d="M254.8,428.9c4-1.3,7.2,1.2,10.2,3.4,5,3.6,5.5,11.1,1.1,16-2.3,2.5-5.1,4-8.6,4.6-5.6.9-10.4-.7-13.6-3.7-2.7-2.6-4.3-6-3.6-9.3.6-3.1,2-6.1,5.3-8.3,2.9-1.9,5.5-3,9.2-2.6ZM254.4,450.8c1.1,0,1.9,0,2.8,0,6.5-.4,11.3-7.5,8.9-13.4-1-2.3-2.5-4.4-5.1-5.3-3.8-1.3-7.6-1.9-11.6-.3-2.9,1.2-5.2,3.2-6.1,5.9-1.7,5.3.7,9.5,5.8,12.2,1.9,1,3.7.8,5.3.9Z"/>
      <path class="cls-1" d="M292.5,548.9c-.6,1.6-.9,3.4-1.9,4.7-1.3,1.8-3.2,3.6-5.6,3.1-3.1-.6-6-2.2-6.9-5.7-1.2-4.7,1.6-9.4,6.4-10,1.5-.2,3.7.2,5.1,1.8,1.6,1.7,2.7,3.5,2.8,6.1Z"/>
      <path class="cls-1" d="M609.1,548.2c-.5-1.9.4-3.5,2.1-5.2,1.5-1.5,3.5-1.8,5.1-2.1,1.4-.2,3.2,1.1,4.5,2.1,1.8,1.3,2,3.6,2.2,5.5.4,3.7-3.8,8.2-7.3,8.2-2,0-3.3-1.6-4.9-2.7-2.1-1.5-1.6-3.4-1.7-5.8Z"/>
      <path class="cls-1" d="M660.1,440.7c.6,5.9-4.3,10.4-10.1,12.2-3.3,1-6.2-.2-9.2-.3-2.4,0-3.9-2.7-5.6-4.3-2.1-2-2.9-4.3-3.1-7.2-.3-4.9,2.4-7.9,6-10.3,4.8-3.2,10.4-3.1,15.1-.8,3.9,1.9,7.6,5.2,7,10.7ZM645.9,450.8c1.8-.5,3.8.8,5.6-.8,1.3-1.1,3.3-1.4,4.4-2.6,4.1-4.7,2.4-13.1-3.5-15.5-5.9-2.4-14.9-1.8-17.3,6.3-2.4,2.9-.5,5.6.9,7.8,2.2,3.3,5.4,5.7,9.9,4.8Z"/>
      <path class="cls-1" d="M575.5,664.8c-.5,0-.8-.2-1.1-.2.1-.4.2-.8.5-1,4.9-5.5,9.4-11.2,13.4-17.4.6-.9,1.6-1.7,2.5-2.4,2.3-1.6,2.6-1.4,4.3,1.1.7,1.1,1.7,1.9,2.5,3,.9,1.1.6,2-.7,2.9-4.8,3.3-9.6,6.6-14.3,10-1.9,1.4-4.5,1.7-5.9,3.8-.2.3-.9.2-1.2.2Z"/>
      <path class="cls-1" d="M211.1,495.8c1.9.4,3.9.9,5.9,1.3,2.5.6,2.4,2.9,3.1,4.6.6,1.4-.4,3.1,1,4.6.8.9,0,2.6,1,4.1,1,1.4-.4,3-2.3,3.4-.9.2-1.8.5-2.7.6-1.1.2-2.3.5-3.3.2-.4-.1-.3-1.7-.6-2.6-.6-2.4-1.7-4.7-1.9-7.2-.2-2.6-1.8-4.9-1.1-7.6-2.2-2,0-1.4,1-1.5Z"/>
      <path class="cls-1" d="M768.5,442.8c6.5,0,13,.2,19.4-.1,2.2-.1,2,1.6,3,2.4-.5.5-1.4,1.4-1.5,1.3-.9-.7-1.9.2-3-.4-.9-.5-2.6.6-4,.8-1.3.2-2.7,0-4,0h-13c-1.3,0-2.7,0-4,0-2.4-.2-4.8.5-7.1-.9-.8-.5-2.3,0-3.4,0-.6,0-.7,1.2-1.9.5-1.3-.8-.1-2.3-1.5-2.7.4-.3.7-.8,1.1-.8,5,0,10,0,15,0h5Z"/>
      <path class="cls-1" d="M691.1,498.7c-.7,3.3-1.6,7.2-2.4,11-.3,1.2-.4,2.5-.6,3.7-.2,1.7-.4,1.6-2.6,1.4-1.6,0-3.1-.9-4.6-.9-2.3,0-2.1-1.4-1.8-2.5.6-1.8.5-3.8,1.1-5.5.6-1.7.5-3.5.9-5.1.3-1.1,1.4-2.6,2.4-2.8,2.3-.5,4.5-1.2,6.7-1.8.2,0,.6.4.7.7.1.5,0,1,0,2Z"/>
      <path class="cls-1" d="M537.4,308.8c-1.5,2.3-.3,5.5-2.4,6.3-1.9.7-2.9-2.3-4.5-3.4-3.2-2.4-6.2-4.9-9.4-7.3-1.1-.8-1-1.5,0-2.1.4-.2,1-.2,1.3-.5,1.4-1.3,3.2-3.1,4.7-2.8,2,.4,3.7,2.3,5.4,3.7,1.3,1,2.4,2.2,3.5,3.5.7.8,1,1.9,1.4,2.6Z"/>
      <path class="cls-1" d="M326.2,664.5c-.5,0-1.2.4-1.6.1-2.5-1.6-5-3.2-7.4-4.9-3.6-2.4-7.2-4.9-10.8-7.4-.8-.6-1.3-1.1-.2-2.1,1.5-1.4,2.5-3.3,3.9-4.8,1-1.1,1.8-.9,2.7.4.5.8.9,1.6,1.4,2.4,2.4,4,5.3,7.6,8.7,10.8,1.3,1.2,2.2,2.7,3.2,4.1.2.2,0,.6.1,1.3Z"/>
      <path class="cls-1" d="M842,443.2c-2.6,1.1-5.3,2.2-8,3.2-.7.3-1.6.6-2.3.4q-4.7-1.2-9.2,0c-.5.1-1,0-1.5,0-5-.5-10.1,1-15.1-.9-.5-.2-1.2.2-1.8.4-.3,0-.9.2-1,.1-.8-1.3.3-3.5,1.6-3.5,12.1,0,24.3,0,36.4,0,.3,0,.5.3.8.4Z"/>
      <path class="cls-1" d="M303,274.8c.4,4.7.1,9.4,4.4,12.7-1,.5-1.8,1.1-2.7,1.3-1,.2-2,0-3,0-1,.2-2.6,1.2-3,.8-.9-.9-1.4-2.4-1.9-3.7-1.3-3.3-2.5-6.6-3.7-9.9,0-.3.6-1.2,1-1.2,2.8-.1,5.7,0,8.8,0Z"/>
      <path class="cls-1" d="M598.1,274.8h8.7c1.3,2.9-.3,5.5-1.2,8.1-.6,1.6-1.8,2.9-2.3,4.5-.7,2-1.2,3.4-3.6,1.5-.7-.6-2.3,0-3.4-.1-1.3-.1-1.8-1.4-1-2.4,2.5-3.3,3.4-7.1,3-11.5Z"/>
      <path class="cls-1" d="M287.1,303.4c0,.8,0,1.5,0,2.1,0,1.5-.7,1.3-1.9.9-3.2-1.1-6.2-3.4-9.9-2.7-.6.1-1.3,0-1.9.2-2.3.6-2.7.3-2.3-1.9.3-1.5,1.3-2.9,1.1-4.6,0-.5,1.2-1.6,2-1.7,4.5-.6,8.3,1.5,12,3.6,1.7.9.6,2.7.9,4Z"/>
      <path class="cls-1" d="M283.7,315.8c-1.7,0-3.4-.3-4.9,0-1.5.3-2.7,1.3-4.2,1.9-.4.1-1.2-.3-1.4-.8-.5-.8-.8-1.7-.9-2.6-.2-1.3-.5-2.8,0-3.8.4-.8,2-1.1,3.1-1.5,1.6-.5,3.3-1,4.9-1.2,4.3-.7,7.7,2,8.8,6.7,0,.3-.6,1.2-.9,1.2-1.5.1-3,0-4.5,0Z"/>
      <path class="cls-1" d="M629.1,311.7c0,.3.1.8,0,1-1.3,1.3-.3,3.9-2.1,4.5-1.1.4-2.7-.7-4-1-.9-.2-1.9-.3-2.8-.4-2.1,0-4.3,0-6.4,0-1.4,0-2.3-1.3-1.5-2.1,1.3-1.2,0-3.3,1.9-4,2.3-.8,4.5-2.4,7.1-1.9,2.1.4,4.1,1.3,6.1,1.9,1.9.6,1.9.6,1.8,2Z"/>
      <path class="cls-1" d="M272.6,353.6c1.2.3,2.9.1,3.5.9,1,1.2,1.4,3,2,4.6.6,1.7-.6,3.1-1.3,4.4-1.5,2.7-4.3,3-7.6,1.3-2.3-1.2-4.1-5.2-3-7.3.6-1.3,1.8-2.4,3-3.2.9-.6,2.1-.5,3.4-.7Z"/>
      <path class="cls-1" d="M628.5,353.8c1.8.2,4.4.1,5.8,3.3.7,1.6,1.4,3.1.5,4.4-1.2,1.6-2.1,3.9-4.5,4.2-1.3.2-2.6,0-4,0-.4,0-.9-.3-1.1-.6-2.3-3-2.7-7.1-1-10.6.2-.3.6-.7,1-.7.8-.1,1.6,0,3.3,0Z"/>
      <path class="cls-1" d="M595.1,278c.4,3.5-2.1,5.5-4.3,7.6-.8.8-2.8.3-3.3-1-1.4-3.4-3-6.8-3.4-10.5-.2-1.5.8-3.3-.8-4.6,0,0,.1-.6.3-.6.3-.1.8-.2,1,0,1.8,1.4,3.4,2.8,5.2,4.2,1,.7,2.1,1.7,3.2,1.7,1.9,0,2.4.6,2.1,2.3,0,.3,0,.7,0,1Z"/>
      <path class="cls-1" d="M244.4,363.8c-3.7-.8-7.4-1.4-11-2.3-1.8-.4-3.5-1.4-5.3-1.7-5.8-.9-18.3-7.7-22.3-10.1-1.5-.9.6-1.3.4-2.2-.2-1.2.6-.4,1.1-.1,2.9,1.7,5.9,3.3,8.9,5,4.9,2.7,10.2,4.4,15.7,5.4,1.5.3,2.8,1.2,4.3,1.6,2,.5,3.7,1.6,5.9,1.5,1.2,0,2.4.6,3.5,1.1.3.1.4.8.4,1.3,0,.2-.4.5-.7.5-.3,0-.7,0-1,0Z"/>
      <path class="cls-1" d="M629.1,301.6c0,.8,0,1.7,0,2.5,0,.1-.6.4-.8.3-4.4-1.8-8.3,0-12.1,1.9-1.7.8-1.9.7-2-1-.2-5.1-.2-5,4.8-7.8,1.8-1,3.5-1.8,5.7-1.7,3.5.2,4.3.8,4.5,4.4,0,.5,0,1,0,1.5Z"/>
      <path class="cls-1" d="M316.7,268.6c1.4,4.9-.9,8.7-1.7,12.7-.2,1.1-1.2,2.1-2,3.1-1.6,1.9-1.9,2-3.8,0-1.4-1.5-3.6-2.4-3.2-5.1.2-1.3-.4-2.9.2-3.9.5-.8,2.2-.9,3.2-1.5,1-.5,1.9-1.1,2.7-1.7,1.5-1.1,2.9-2.3,4.5-3.5Z"/>
      <path class="cls-1" d="M600.5,340c2.2,1.7,4.3,3.4,6.4,5.1-1.1,2.6-.8,5.3-.8,8,0,3.1,0,6.3-.7,9.5-.4-1.3-.7-2.7-1.4-3.8-1.8-3.1-3.6-6.2-5.6-9.1-1.6-2.2-1.8-2.7-.3-5.5.4-.8,1-1.6,1.5-2.4.4-.6.7-1.3.9-1.8Z"/>
      <path class="cls-1" d="M656.1,364c-.4-.5-.8-.9-.9-1.3,0-.2.4-.8.8-.9,2-.7,4.1-1.5,6.2-2,9.4-2,19-5.3,26.7-9.2,1.1-.6,2.1-1.5,3.1-2.1.7-.4,1.4-.5,2.2-.7.2,0,.8.2.8.3.1.4.2,1.1,0,1.3-1.7,1.2-3.4,2.3-5.1,3.3-4.6,2.8-9.5,5.2-14.8,6.5-3.5.8-6.7,2.6-10.5,2.6-1.8,0-3.6.9-5.4,1.4-.9.2-1.8.5-3,.8Z"/>
      <path class="cls-1" d="M295.1,362.1c0-2,0-3.6,0-5.3-.2-2.7.3-5.4-.8-8.1-.7-1.6-1-4.3,2.2-5,.8-.2,1.1-1.8,1.9-2.5.5-.5,1.3-.9,2-1,.3,0,.7.9,1,1.4.9,1.8,2.6,3.6,2.5,5.3,0,1.8-1.6,3.7-2.8,5.2-2.3,2.7-3.5,5.9-5,8.9-.2.4-.6.6-1,1.1Z"/>
      <path class="cls-1" d="M420.1,214.8c0-2.2.8-3,2.8-3.1,2.3,0,4.8.5,7-.1,5.5-1.7,11.1-.4,16.6-.9,1.3-.1,1.8.3,1.7,1.6,0,1.1-.4,1.5-1.5,1.4-1,0-2,0-3,0-4.3-.4-8.3,1.8-12.6,1-2.7,2.1-6.3,0-9.2,1.9-1.2.8-1.9,0-1.8-1.8Z"/>
      <path class="cls-1" d="M310.6,243.8c-1.4-.1-2.8.4-4.1-1-1.8-2.1-2-5,0-6.9,2.3-2.2,5.5-2.3,7.9-.3,1.4,1.2,2.5,4.4,1.6,5.7-1,1.4-2.2,3-4.4,2.5-.3,0-.7,0-1,0Z"/>
      <path class="cls-1" d="M280.8,283.2c2.4-1.9,4.7-3.6,6.8-5.5,1-.9,2-1.2,3.1-.7.4.2.5,1.5.4,2.2-.3,3.1.9,5.9,2,8.7.2.6,1.8,1.2.3,2.3-1.1.8-2,.9-3.1.2-.5-.4-1.1-.9-1.4-1.4-1.8-2.9-4.7-4.3-8-5.8Z"/>
      <path class="cls-1" d="M610,275.5c3.7,2.7,6.9,5,10.5,7.6-3.7,1.8-7.2,3.1-9.4,6.4-1,1.6-1.9,1.7-3.2.6-.6-.6-1.2-1.1-.5-2.1,2.5-3.6,3.1-7.6,2.6-12.5Z"/>
      <path class="cls-1" d="M461.6,210.6c5.2.4,10.4.8,15.6,1.2.4,0,1,.8,1,1.2,0,1.9-1.1,2.9-3.1,2.7-1.4-.2-2.7-.7-4.1-1-1.4-.3-2.9.5-4.2-.8-.5-.5-1.9-.2-2.9-.2-2.8,0-5.7,0-8.5,0-1.1,0-2.3.4-2.2-1.6,0-1.6,1-1.4,2-1.4,2.2,0,4.3,0,6.5,0,0,0,0-.1,0-.2Z"/>
      <path class="cls-1" d="M288.7,293c-.3,1.3-.4,2.2-.6,3.1-.1.6-.4,1.1-.6,1.7-.6-.3-1.2-.4-1.6-.8-2.5-2.4-5.2-4.6-8.7-5.2-1.3-.2-1.2-1.1-1-1.7.6-1.4,1.4-2.7,2.2-4,.1-.2.7-.4.8-.2,3.1,2.1,7.8,1.9,9.1,6.6,0,.4.5.6.4.6Z"/>
      <path class="cls-1" d="M613.6,297.7c-.5-1.6-.9-3-1.3-4.3-.1-.4-.2-1,0-1.3,1.1-2.1,6.8-5.9,9-6,.3,0,.8.1,1,.4,1,1.2,1.9,2.5,2.7,3.9.1.2-.5,1.3-.8,1.3-3,0-4.6,2.5-7,3.6-1.3.5-2.3,1.6-3.6,2.5Z"/>
      <path class="cls-1" d="M614.9,318.8c2.2.7,5.3,2.1,8.6,2.8,2.1.5,1.7,1.6,1.5,2.8,0,.6-.7,1-.9,1.6-.4,1.2-.7.3-1.2.2-1.7-.5-3.3-.7-5.1.3-.9.6-2.3,1.2-2.8-1.1-.3-1.2-2.1-2-2.9-3.3-.4-.7-2.4.5-1.4-1.4.6-1.1.7-2.6,2.6-2,.1,0,.3,0,1.7,0Z"/>
      <path class="cls-1" d="M287.4,318.5c1.3.4,2.6.4,2.7.8.2.8.3,1.8-.6,2.7-1.4,1.4-3.4,2-4.3,4.1-.5,1.2-1.8.7-3,.3-1.1-.4-2.9-.9-3.6-.4-1.4,1.1-1.8,0-2.2-.6-.7-1.3-.3-3.3.7-3.7,3.5-1.2,7.1-2.3,10.2-3.3Z"/>
      <path class="cls-1" d="M608.7,395.8c.5-2.1.8-3.7,1.4-5.3.4-1,1.2-1.7,2.6-1.8,2,0,3.9-.8,6.1,0,2.7.9,3.9,1.8,4.2,4.7.1,1.3-.5,1.8-1.7,1.1-2.5-1.5-5.1-.5-7.6-.6-1.4,0-2.8,1-5,1.9Z"/>
      <path class="cls-1" d="M289.7,394.7c-.7-.2-2.2-.7-3.7-.9-2.6-.3-5.1,0-7.5.9-.3.1-.6,0-.9,0,0-.3.1-.7.3-1,.3-.7.9-1.3,1-2.1.6-3.4,3.7-3.1,5.8-3.6,1.4-.3,3.2,1,5,.9.5,0,1.2,1,1.5,1.7.3.7-.2,1.7.1,2.4.4.9,1.7,2-1.5,1.7Z"/>
      <path class="cls-1" d="M183.3,383.8c2.7-.5,1.1.9.9,1.9-.4,2.3-.2,4.9-1.2,7-.7,1.6,0,4.5-3.6,4.5-2.2,0-2.6.5-2.2-1.5.6-3.4,1.2-6.8,2-10.1.5-2.1,2.4-1.8,4.1-1.7Z"/>
      <path class="cls-1" d="M720,383.8c.2.2.8.6,1.1,1.2,1.3,2.2,1.3,4.7,2,7.1.3.9.4,1.8.5,2.8.1.9.2,1.8.3,2.7-.8-.2-1.6-.6-2.4-.6-2.6-.2-2.7-2.5-3.3-4.1-.8-1.8-.8-4-1.1-6-.5-2.8-.4-2.9,1.9-3,.2,0,.3,0,1,0Z"/>
      <path class="cls-1" d="M797.6,434.7c2.1,8.2,2.6,7.7,0,17.5-1.6-2.8-3.1-5.3-4.4-7.9-.2-.4.3-1.1.6-1.7,1.2-2.6,2.5-5.3,3.8-7.9Z"/>
      <path class="cls-1" d="M290.1,348.6c-3.4-1.3-6.6-1.2-10,0,0-1.1,0-2.3,0-3.4,0-1.5.9-2.4,2.4-2.4,1.1,0,2.1-.1,3.1-.9,1.1-.8,2.3.6,3.5.9,1.6.4.8,1.6.9,2.4.1,1.1,0,2.3,0,3.5Z"/>
      <path class="cls-1" d="M621.1,347c.5,2.5-.9,1-1.9.8-1.5-.2-3-.1-4.5,0-1.2,0-2.3.4-3.4.6,0-1.6-.5-3.5,0-4.9.3-.9,2.2-1.4,3.5-1.6.8-.1,1.7.7,2.6.8,3.6.4,3.8.6,3.8,4.3Z"/>
      <path class="cls-1" d="M291.1,381.6c0,.7,0,1,0,1.3,0,1.7-1.2,2.7-2.3,1.8-1.7-1.4-3.5-.9-5.1-.8-.7,0-1.6,1.7-1.5-.5,0-1.4-.8-3.3,1-4,2-.8,4-2.2,6.3-1.6,2,.5,1.8,2.4,1.7,3.7Z"/>
      <path class="cls-1" d="M610.1,381.2c0-4,.1-4,4.1-2.8.3,0,.6.3.8.4.9.1,2.5,0,2.8.4.7,1.3.9,2.9,1.3,4.5.2.9,0,1-.9.7-1.9-.7-3.5-.8-5.5.2-1.8,1-2.6.2-2.6-1.9,0-.5,0-1,0-1.5Z"/>
      <path class="cls-1" d="M483.1,215.5c0-2.8.6-3.3,3.1-2.7,1.3.3,3.1.6,3.8,1.5,1.3,1.8,2.1,4,3,6.1.1.3-1.1.2-5-1.3-.9-.3-1.8-.3-2.7-.7-1.2-.6-2.8-1-2.2-2.8Z"/>
      <path class="cls-1" d="M622.1,398.4c-3.5-.3-5.4,1.7-6.9,4.4-.6,1.1-1.6,2-2.4,3-.9-.9-1.7-1.9-2.6-2.6-1.4-1-.9-2.4-.9-3.6,0-.3.6-.8.9-.8,4,0,7.9-2.1,12-.4Z"/>
      <path class="cls-1" d="M280.3,398.1c3.6-1.5,6.9.6,10.4.7.6,0,2.2,1.1.5,2.4-.2.2.2,1.1,0,1.4-.9,1.1-1.9,2-2.9,3-.6-.8-1.3-1.6-1.9-2.4-.2-.3-.5-.4-.7-.7q-2.5-3.5-5.3-4.5Z"/>
      <path class="cls-1" d="M282.1,371.8c0-.2.4-1.9.5-1.9,2.2.2,4.1-2.2,6.3-.8,1.1.7,2.7.9,2.2,3-.3,1-.2,1.9-1.6,1.7-1.6-.2-3,.4-4.5.9-2.3.8-2.9.1-2.9-2.9Z"/>
      <path class="cls-1" d="M291.8,363.8c-.9.5-1.3,1-1.8,1-2.1.1-4.1-.2-6.1,1-.8.5-1.9.1-1.8-1.4,0-.7-.7-1.4-.9-2.1-.1-.4.2-1.2.4-1.3,1.5-.3,3.1-.1,4.6-1,.6-.4,2.1,1,3.5,1,.6,0,1.2,1.6,2.1,2.8Z"/>
      <path class="cls-1" d="M610.1,372.1c0-2.2,2.6-3.9,4.5-3.3.7.2,1.4.7,2.1,1,.8.3,2.3-.7,2.3.9,0,1.3-.8,2.6-1.3,3.9,0,.2-.6.2-.9.2-2-.5-3.9-1.4-6.1-1.1-.2,0-.6-1.3-.7-1.5Z"/>
      <path class="cls-1" d="M619.1,363c0,3-.6,3.5-2.8,2.4-1.6-.9-3.2-.5-4.7-.5-1.4,0-1.7-.6-1.5-1.8.1-1-.5-2.8,1.4-2.2,1.8.6,3.4-2.6,5.1,0,2.1-.3,3.2.4,2.5,2.2Z"/>
      <path class="cls-1" d="M617.5,351.6c1,.2,1.9.2,2.5.6.4.3,1.7.6.6,1.7-.4.4-.2,1.2-.5,1.8-.2.4-.8,1.1-1.2,1-2.4-.3-4.7-2.1-7.3-.2-.3.2-1.9-1.1-1.5-2.5.1-.5.6-1.2,1-1.3,2.1-.5,4.3-.8,6.3-1.2Z"/>
      <path class="cls-1" d="M283.8,351.4c1.5.5,3,.9,4.5,1.4,1.5.4,2.4,2,1.9,3.4,0,.2-.7.3-.9.1-1.7-.8-3.3-.7-5.1,0-.8.3-2.4.6-2.6.2-.7-1.2-1-2.6-1.3-3.9,0-.2.6-.7,1-.7.8-.1,1.7,0,2.5,0,0-.1,0-.2.1-.4Z"/>
      <path class="cls-1" d="M249.8,409.8c-.8,0-1.6,0-2.4,0-2.6,0-5.1,0-7.6.9-2.2.9-2.7.2-2.7-2.5,0-.5-.2-1.1,0-1.5.3-.4,1.2-1,1.3-.9,1.6,1.8,3.9.7,5.8,1.8,1.6,1,3.9,1.1,5.8,1.5,0,.2-.2.4-.2.6Z"/>
      <path class="cls-1" d="M693.1,503.6c0-.3,0-.7,0-1,0-.3.2-.8.4-.8.4,0,1.1,0,1.3.2,2.1,2.4,4.2,4.9,6.2,7.4.1.2,0,.8-.1.9-.4.2-1.1.5-1.3.4-1.7-1.6-3.1-3.7-5.1-4.7-1.3-.7-1.6-1.2-1.5-2.4Z"/>
      <path class="cls-1" d="M288.3,327.4c.6-1,1.4-1.8,1.8-2.8.5-1.1,1.1-1.1,1.8-.5,1.5,1.3,2.8,2.8,4.5,4.4-2.9.4-5.5.7-8.1-1.1Z"/>
      <path class="cls-1" d="M604.6,328.8c1.5-1.5,2.4-2.4,3.3-3.3.5-.5.8-1.1,1.2-1.7,1,1,2.1,1.9,2.9,3,.1.2-1,1.8-1.7,1.9-1.6.3-3.2,0-5.7,0Z"/>
      <path class="cls-1" d="M522.9,297.8c-.1-.2-.6-.5-.6-.7.5-3.2,2.8-5.6,6.1-6.1.2,0,.7.6.6.8-.6,1.9-3.6,5.2-5.5,6-.1,0-.3,0-.7,0Z"/>
      <path class="cls-1" d="M305.3,469.4c2.7-2.4,6.2-2.6,9.6-3.7-3.1,4.7-2.7,4.3-9.6,3.7Z"/>
      <path class="cls-1" d="M467.8,195.7c1.8.9,3.5,1.6,5.1,2.5.2.1.2,1,0,1.3-.5.6-1.7,1.4-1.8,1.3-1.4-1.2-2.7-2.6-3.9-4,0,0,.4-.7.6-1Z"/>
      <path class="cls-1" d="M701.1,494.3c-.2.2-.4.5-.7.7-1.3.7-2.7,1.4-4.1,2.1-.7.3-1,2.1-2,1.1-.3-.3.2-2.5.9-2.8,1.6-.8,3.5-1.1,5.3-1.6.1,0,.4.3.6.5Z"/>
      <path class="cls-1" d="M411.7,217.8c-.2-.1-1.2-.3-1.4-.8-.4-.8,1.6-3.1,2.4-3.3,1.5-.2,1.5.7,1.5,1.8,0,2.2,0,2.2-2.5,2.2Z"/>
      <path class="cls-1" d="M571.1,667.9c-2.9,1.3-4.8,2.2-6.7,3.1-.4.2-.8,1.3-1.3.2-.2-.4.3-1.4.7-1.6,1.9-1,3.8-1.9,7.2-1.7Z"/>
      <path class="cls-1" d="M656.1,404.9c2.8-.2,4.2-.2,5.6-.3.4,0,.8-1.3,1.3-.3.3.5.3,1.4,0,1.9-.2.4-1.2.6-1.7.5-1.5-.4-2.9-.9-5.3-1.8Z"/>
      <path class="cls-1" d="M188.1,387.9c0,1.9,0,3.9,0,5.8,0,.4-.8.7-1.2,1-.3-.5-.8-1-.7-1.5.3-1.8.8-3.6,1.3-5.4.2,0,.4,0,.7,0Z"/>
      <path class="cls-1" d="M540.6,311.2c-.3-3.1.4-4.5,2.4-5.4.2,0,.6.1.9.2,0,.2,0,.5-.2.7-.9,1.4-1.9,2.8-3.1,4.5Z"/>
      <path class="cls-1" d="M530.9,224.8c-1.3,0-2.5,0-3.8,0-.4,0-.7-.8-1-1.2.5-.3,1.1-.8,1.5-.7,1.2.3,2.3.8,3.4,1.3,0,.2,0,.4,0,.7Z"/>
      <path class="cls-1" d="M715.7,394c-.8.4-1.3.7-1.8.7-.3,0-.8-.8-.7-.9.3-.4.7-.8,1.2-1,.2,0,.6.5,1.3,1.2Z"/>
      <path class="cls-1" d="M532.6,713.9c-.5-.2-.9-.4-1.3-.6.7-.2,1.3-.5,2-.5.3,0,.6.3.9.4-.5.2-1.1.5-1.6.7Z"/>
      <path class="cls-1" d="M535.7,711.6c.5.2.9.4,1.3.6-.7.2-1.3.5-2,.5-.3,0-.6-.3-.9-.4.5-.2,1.1-.5,1.6-.7Z"/>
      <path class="cls-1" d="M365.7,713c-.5-.3-1-.6-1.5-.8.6-.1,1.1-.4,1.7-.4.4,0,.8.3,1.2.5-.4.2-.9.4-1.5.7Z"/>
      <path class="cls-1" d="M332.2,669c-.4-.3-.7-.6-1-.8.4-.1.8-.4,1.2-.4.2,0,.5.3.7.5-.3.2-.6.4-.9.7Z"/>
      <path class="cls-1" d="M336.5,670.4c-.9.2-1.4.5-1.7.3-.3-.1-.5-.6-.7-1,.3,0,.6,0,.9,0,.4,0,.7.3,1.5.6Z"/>
      <path class="cls-1" d="M392.2,189.7c.4.2.6.3.9.5-.5.2-1,.4-1.5.6-.1,0-.3-.3-.5-.4.4-.2.7-.4,1-.6Z"/>
      <path class="cls-1" d="M369.5,713.4c-.9.2-1.4.5-1.7.3-.3-.1-.5-.6-.7-1,.3,0,.6,0,.9,0,.4,0,.7.3,1.5.6Z"/>
      <path class="cls-1" d="M539,711.1c-.1.2-.2.4-.4.6-.1-.1-.3-.2-.3-.3,0-.2.2-.4.3-.7.1.1.2.2.4.4Z"/>
      <path class="cls-1" d="M605.7,320.8c.1.1.3.3.3.3-.1.2-.3.4-.4.6-.1-.1-.3-.3-.4-.4.2-.2.4-.3.6-.5Z"/>
      <path class="cls-1" d="M295.1,362.2c-.2.2-.4.3-.6.5,0-.2-.2-.6-.2-.6.2-.2.5-.2.8-.3,0,.1,0,.3,0,.4Z"/>
      <path class="cls-1" d="M497.7,278.8c-.2-.2-.3-.4-.5-.6.2,0,.6-.2.6-.2.2.2.2.5.3.8-.1,0-.3,0-.4,0Z"/>
      <path class="cls-1" d="M530,714.4c-.1.1-.2.2-.4.4-.1-.2-.3-.4-.3-.7,0,0,.2-.2.3-.3.1.2.2.4.4.6Z"/>
      <path class="cls-1" d="M295.7,607.8c-.2-.2-.3-.4-.5-.6.2,0,.6-.2.6-.2.2.2.2.5.3.8-.1,0-.3,0-.4,0Z"/>
      <path class="cls-1" d="M504.1,681.2c-.2.2-.4.3-.6.5,0-.2-.2-.6-.2-.6.2-.2.5-.2.8-.3,0,.1,0,.3,0,.4Z"/>
      <path class="cls-1" d="M403.7,178.8c.1.1.3.3.3.3-.1.2-.3.4-.4.6-.1-.1-.3-.3-.4-.4.2-.2.4-.3.6-.5Z"/>
      <path class="cls-1" d="M565.1,301.3c-.1.1-.3.3-.3.3-.2-.1-.4-.3-.6-.4.1-.1.3-.3.4-.4.2.2.3.4.5.6Z"/>
      <path class="cls-1" d="M398.1,681.3c-.1.1-.3.3-.3.3-.2-.1-.4-.3-.6-.4.1-.1.3-.3.4-.4.2.2.3.4.5.6Z"/>
      <path class="cls-1" d="M396.1,513.2c-.2.2-.4.3-.6.5,0-.2-.2-.6-.2-.6.2-.2.5-.2.8-.3,0,.1,0,.3,0,.4Z"/>
      <path class="cls-1" d="M333.1,668.8c.3.3.7.7,1,1-.3-.3-.7-.7-1-1Z"/>
      <path class="cls-1" d="M373,223.1c-.1.2-.2.4-.4.6-.1-.1-.3-.2-.3-.3,0-.2.2-.4.3-.7.1.1.2.2.4.4Z"/>
      <path class="cls-1" d="M748.1,446.2c-.2.2-.4.3-.6.5,0-.2-.2-.6-.2-.6.2-.2.5-.2.8-.3,0,.1,0,.3,0,.4Z"/>
      <path class="cls-1" d="M651.8,618.9c-.2-.4-.5-.9-.6-1.4,0-.2.3-.5.4-.8.5.5.9,1.1,1.4,1.6-.3.1-.5.2-1.2.5Z"/>
      <path class="cls-1" d="M287.2,654.4c-1.1.8-2.2,1.6-3.4,2.4,0,0-.4,0-.4-.2-.1-.6-.5-1.4-.3-1.8.4-.8,1.1-1.5,1.9-1.9.2-.1,1,.6,1.5.9.1,0,.2.2.6.6Z"/>
      <path class="cls-1" d="M545.5,258.8c3-.4,5.2.7,7,2.8,2.2,2.6,2.3,5.5.2,8.2-2.7,3.4-7.5,4.3-11.6,1.4-2.1-1.5-3.3-3.4-3-6.3.2-2,1.5-2.8,2.5-4,1.3-1.7,2.9-2.5,4.9-2.1Z"/>
      <path class="cls-1" d="M355.4,258.8c3.5-.4,5.6,2.1,7.5,4.4,1.1,1.3,0,5.5-1.4,6.7-2.3,1.9-4.6,3.3-7.8,2.9-3-.4-6.3-3.6-6.6-6.6-.3-3.1,2.9-7,6.2-7.4.7,0,1.3,0,2.1,0Z"/>
      <path class="cls-1" d="M448.1,257.2v-25c0-.8-.3-1.8,0-2.5.6-1.1,1.6-2,2.4-3,.5.8.9,1.7,1.6,2.3,1.2,1,1,2.3,1,3.6,0,17.3,0,34.6,0,52s.1,1.1,0,1.5c-.2.3-.8.7-1.1.6-.7-.2-1.4-.9-2.1-.9-1.7.1-1.8-.8-1.8-2.1,0-8.8,0-17.7,0-26.5Z"/>
      <path class="cls-1" d="M451.4,370.7c-2.9-4.1-3.4-7.5-3.3-11.3.2-12,0-24,0-36s-.3-2.1,0-3c.6-1.6,2.1-1.7,3.7-1.7,1.7,0,1.3,1.2,1.3,2,0,14.5-.2,29,.2,43.5,0,2.7-2.9,3.1-1.9,6.5Z"/>
      <path class="cls-1" d="M433.6,315.8c3.8-1.9,6.8-3.4,10-4.9,2.5-1.1,5-2.4,7.7-3,2.2-.5,4.6-.2,6.9,0,1.2,0,2.4.7,3.6.9,1.1.2,2.2,0,3.4.4-4.6,2.2-9,4.6-13.8,6-.6.2-1.1.6-1.7.6-5.1,0-10.2,0-16,0Z"/>
      <path class="cls-1" d="M465,294.4c-1,.5-1.9,1.1-3,1.3-2.5.5-5,.7-7.5,1.1-.9.1-1.9,1.1-2.5.9-1.3-.4-2.6-1.2-3.5-2.2-3.1-3-6.9-5-10.4-7.4-.3-.2-.5-.7-.8-1,.4-.1,1-.5,1.3-.3,1.9,1,4.1.6,6,1.1,1.9.5,3.8.5,5.6,1,3.4.9,6.7,2.2,10,3.5,1.4.5,2.7,1.7,4.4,1.5.1,0,.3.4.5.6Z"/>
      <path class="cls-1" d="M448.1,298.8c1.4.9,2.3,1.5,3.3,2,.5.3,1.6.3,1.7.5.2.9.2,2,0,2.9,0,.2-.7.5-1.2.6-.9.2-1.9.1-2.7.5-.8.5-1.1.4-1.1-.5,0-1.9,0-3.9,0-6Z"/>
      <path class="cls-1" d="M590.3,243.8c-1.7.4-3.3-.4-4.8-2.1-2.2-2.5-1.6-4.2,1.3-6.3,2.2-1.6,4.2-1.5,6.4-.7,2.3.9,3.5,3.5,2.9,6-.4,1.5-2.4,2.9-4.5,3-.3,0-.7,0-1.4,0Z"/>
      <path class="cls-1" d="M576.1,589.4c0,1.8-1.7,4.6-3,4.3-1.1-.2-2.2-1-3.2-1.6-1.3-.8-.7-2-.8-3.1,0-1.8,2.2-4.2,3.6-4,1.9.2,3.4,2.2,3.3,4.4Z"/>
      <path class="cls-1" d="M328.6,594.1c-.7-.4-1.2-.6-1.5-.9-.4-.3-.7-.7-1.1-1.1-2.4-2.8-1.5-5.8,2.2-6.9.4-.1,1,.3,1.4.5,1.8.9,3.2,3.1,2.4,4.8-.6,1.4-2.2,2.3-3.4,3.5Z"/>
      <path class="cls-1" d="M193.5,444.8c-5.8,0-11.6,0-17.4,0-.3,0-.9-.5-.9-.8,0-.4.3-1.1.5-1.1,1.8-.4,3.7-1,5.5-1,9.9,0,19.9,0,29.8,0,.9,0,1.9.1,2.8.4.4.1.7.7,1.1,1-.3.2-.7.4-1,.6-2.4,1.3-5,1-7.5,1-4.3,0-8.6,0-12.9,0Z"/>
      <path class="cls-1" d="M707.6,444.8c-4.3,0-8.6,0-12.9,0-2.4,0-4.8.3-7-1-.4-.3-.9-.5-1.3-.7.5-.4.9-1.1,1.5-1.2.9-.2,2,0,3,0,9.6,0,19.2,0,28.9,0,2,0,4,.6,6,1,.2,0,.5.5.4.8,0,.4-.3,1-.6,1.1-.6.2-1.3,0-2,0h-15.9Z"/>
    </g>
  </g>
</svg>