<svg width="130" height="151" viewBox="0 0 130 151" fill="none" xmlns="http://www.w3.org/2000/svg">
<path d="M37.5583 61.192H39.4783L38.5183 75.208L1.36625 74.92V72.904C3.99025 72.776 5.68625 72.488 6.45425 72.04C7.60625 71.336 8.18225 69.8 8.18225 67.432C8.31025 44.456 8.34225 32.68 8.27825 32.104C8.21425 31.208 7.70225 30.952 6.74225 31.336C6.10225 31.592 5.71825 31.784 5.59025 31.912V30.184C5.97425 29.992 6.61425 29.672 7.51025 29.224C9.55825 28.328 11.0303 27.912 11.9263 27.976C13.5263 28.104 14.6463 29.032 15.2863 30.76V31.144C18.2303 29.096 21.7823 28.104 25.9423 28.168C28.2463 28.168 30.4863 28.776 32.6623 29.992C33.4943 30.632 34.3583 31.24 35.2543 31.816C36.7903 33.16 37.5263 34.504 37.4623 35.848C37.3983 37.128 36.2783 38.856 34.1023 41.032L32.2783 40.552C33.0463 39.784 33.4303 38.728 33.4303 37.384C33.3663 35.656 32.5983 34.12 31.1263 32.776C29.6543 31.432 28.0543 30.76 26.3263 30.76C22.8063 30.76 20.0223 32.104 17.9743 34.792C16.1183 37.224 15.1903 40.232 15.1903 43.816V51.304H18.4543C21.8463 51.304 23.6383 49.576 23.8303 46.12H25.5583L25.4623 58.888H23.7343C23.4143 56.84 22.9983 55.464 22.4863 54.76C21.7183 53.8 20.3743 53.32 18.4543 53.32H15.1903L15.0943 68.104C15.4783 71.176 17.8143 72.744 22.1023 72.808C25.4303 72.808 27.9583 72.552 29.6863 72.04C31.7343 71.4 33.5263 69.992 35.0623 67.816C36.5983 65.64 37.4303 63.432 37.5583 61.192ZM71.5415 47.368C72.4375 47.88 72.9815 48.2 73.1735 48.328V49.768L72.2135 49.288C71.8935 49.224 71.5095 49.288 71.0615 49.48C70.6135 49.608 70.3895 49.832 70.3895 50.152C70.3895 50.792 70.3895 51.112 70.3895 51.112L70.1975 79.432C70.1975 82.824 70.1335 84.936 70.0055 85.768C69.6855 88.264 68.6935 89.992 67.0295 90.952C64.4695 92.488 62.5495 93.64 61.2695 94.408C58.1335 96.136 55.2535 97 52.6295 97C51.4775 97 49.7815 96.008 47.5415 94.024C45.3015 91.976 44.3415 90.408 44.6615 89.32C45.0455 87.912 46.8375 86.248 50.0375 84.328L50.8055 85.48C49.3975 86.056 48.8535 86.856 49.1735 87.88C49.4295 89.16 50.2935 90.312 51.7655 91.336C53.3015 92.296 54.7415 92.776 56.0855 92.776C57.6215 92.776 59.5735 91.848 61.9415 89.992C63.5415 88.2 64.3415 85.992 64.3415 83.368V74.152C62.7415 75.496 59.8935 76.168 55.7975 76.168C51.4455 76.104 47.9575 74.632 45.3335 71.752C42.7095 68.872 41.3975 65.224 41.3975 60.808C41.3975 56.52 42.7095 53.064 45.3335 50.44C48.0215 47.752 51.5095 46.408 55.7975 46.408C59.7655 46.408 62.7095 47.528 64.6295 49.768L64.9175 48.808C65.3655 47.4 66.2935 46.568 67.7015 46.312C68.4055 46.184 69.6855 46.536 71.5415 47.368ZM64.3415 69.544L64.4375 54.568C64.2455 52.904 63.1895 51.496 61.2695 50.344C59.6055 49.384 57.8455 48.904 55.9895 48.904C53.2375 48.904 51.0295 50.248 49.3655 52.936C48.0215 55.176 47.3495 57.768 47.3495 60.712C47.3495 63.848 48.1495 66.632 49.7495 69.064C51.6055 71.944 54.0055 73.384 56.9495 73.384C61.8775 73.448 64.3415 72.168 64.3415 69.544ZM105.198 47.368C106.094 47.88 106.638 48.2 106.83 48.328V49.768L105.87 49.288C105.55 49.224 105.166 49.288 104.718 49.48C104.27 49.608 104.046 49.832 104.046 50.152C104.046 50.792 104.046 51.112 104.046 51.112L103.854 79.432C103.854 82.824 103.79 84.936 103.662 85.768C103.342 88.264 102.35 89.992 100.686 90.952C98.1258 92.488 96.2058 93.64 94.9258 94.408C91.7898 96.136 88.9098 97 86.2858 97C85.1338 97 83.4378 96.008 81.1978 94.024C78.9578 91.976 77.9978 90.408 78.3178 89.32C78.7018 87.912 80.4938 86.248 83.6938 84.328L84.4618 85.48C83.0538 86.056 82.5098 86.856 82.8298 87.88C83.0858 89.16 83.9498 90.312 85.4218 91.336C86.9578 92.296 88.3978 92.776 89.7418 92.776C91.2778 92.776 93.2298 91.848 95.5978 89.992C97.1978 88.2 97.9978 85.992 97.9978 83.368V74.152C96.3978 75.496 93.5498 76.168 89.4538 76.168C85.1018 76.104 81.6138 74.632 78.9898 71.752C76.3658 68.872 75.0538 65.224 75.0538 60.808C75.0538 56.52 76.3658 53.064 78.9898 50.44C81.6778 47.752 85.1658 46.408 89.4538 46.408C93.4218 46.408 96.3658 47.528 98.2858 49.768L98.5738 48.808C99.0218 47.4 99.9498 46.568 101.358 46.312C102.062 46.184 103.342 46.536 105.198 47.368ZM97.9978 69.544L98.0938 54.568C97.9018 52.904 96.8458 51.496 94.9258 50.344C93.2618 49.384 91.5018 48.904 89.6458 48.904C86.8938 48.904 84.6858 50.248 83.0218 52.936C81.6778 55.176 81.0058 57.768 81.0058 60.712C81.0058 63.848 81.8058 66.632 83.4058 69.064C85.2618 71.944 87.6618 73.384 90.6058 73.384C95.5338 73.448 97.9978 72.168 97.9978 69.544ZM113.798 51.88C113.798 53.416 115.27 55.08 118.214 56.872C120.454 58.024 122.662 59.176 124.838 60.328C127.398 62.184 128.678 64.52 128.678 67.336C128.678 69.96 127.718 72.104 125.798 73.768C123.942 75.432 121.67 76.264 118.982 76.264C115.398 76.2 112.678 75.112 110.822 73C109.414 71.4 108.806 70.152 108.998 69.256C109.126 68.68 109.67 68.232 110.63 67.912C111.078 67.784 111.814 67.656 112.838 67.528L113.606 68.2C112.518 68.456 112.198 69.064 112.646 70.024C112.838 70.344 113.03 70.632 113.222 70.888C114.822 72.616 116.806 73.512 119.174 73.576C120.518 73.576 121.67 73.192 122.63 72.424C123.654 71.592 124.166 70.536 124.166 69.256C124.166 67.464 122.726 65.64 119.846 63.784C119.654 63.656 117.414 62.472 113.126 60.232C110.502 58.376 109.222 56.136 109.286 53.512C109.286 51.08 110.022 49.128 111.494 47.656C112.966 46.12 114.918 45.352 117.35 45.352C120.358 45.352 122.758 46.344 124.55 48.328C125.894 49.8 126.502 50.92 126.374 51.688C126.246 52.264 125.702 52.712 124.742 53.032C124.23 53.16 123.462 53.288 122.438 53.416L121.766 52.744L122.534 52.552C123.046 52.36 123.11 51.816 122.726 50.92C121.894 48.936 120.262 47.944 117.83 47.944C115.142 47.88 113.798 49.192 113.798 51.88Z" fill="black"/>
<path d="M6.4488 127.091C6.45373 127.063 6.45866 127.036 6.46556 127.009L6.50412 126.848C6.5624 126.635 6.6301 126.423 6.71709 126.219C6.75678 126.115 6.80647 126.017 6.85278 125.916C6.87699 125.866 6.90359 125.817 6.92893 125.768C6.95455 125.719 6.97946 125.67 7.0079 125.622L7.09094 125.478C7.11825 125.43 7.14936 125.385 7.17835 125.337C7.20834 125.291 7.23635 125.243 7.26816 125.198L7.36205 125.061C7.8737 124.339 8.51204 123.718 9.20724 123.185C9.29423 123.118 9.38319 123.054 9.47102 122.988C9.56027 122.925 9.65049 122.863 9.74016 122.8C9.83137 122.739 9.92342 122.68 10.0151 122.62L10.2945 122.448C10.67 122.224 11.0564 122.02 11.4511 121.834C11.8459 121.648 12.2497 121.483 12.6591 121.335C13.0689 121.188 13.4846 121.059 13.9041 120.946C14.7434 120.721 15.5991 120.565 16.4598 120.468C16.8904 120.42 17.3224 120.386 17.7548 120.368C17.8628 120.362 17.971 120.361 18.0791 120.357C18.1333 120.356 18.1872 120.354 18.2414 120.353L18.3758 120.352C16.3541 120.056 14.1602 120.05 12.3074 120.612C8.87168 121.654 5.43577 122.696 2 123.738C3.63125 121.499 6.96145 119.742 10.8391 119.076C14.7167 118.41 19.0672 118.847 22.3864 120.235C23.4273 120.671 24.5417 121.04 25.7052 121.34C25.4101 121.208 25.1301 121.07 24.8708 120.929C23.4268 120.146 22.4118 119.262 21.1136 118.441C19.8153 117.619 18.0515 116.807 16.102 116.533C17.9147 116.333 20.4055 117.084 21.9836 117.952C23.5618 118.82 24.5645 119.811 25.9628 120.724C26.5667 121.118 27.3009 121.511 28.1114 121.847C29.6273 122.099 31.1944 122.237 32.766 122.253C34.0398 122.265 35.2913 121.787 35.8243 121.084C36.3574 120.381 36.1208 119.388 35.2772 118.807L35.2785 118.806C35.0825 118.659 34.9843 118.465 35.0671 118.28C35.2458 117.882 36.1868 117.706 36.7024 117.975C38.3748 118.846 38.3723 120.549 37.0299 121.61C35.6875 122.672 33.3502 123.134 31.1491 123.08C28.9479 123.027 26.8459 122.526 24.8473 121.963C23.1938 121.497 21.5651 120.982 19.8486 120.618L19.6901 120.611L19.3696 120.603C19.2627 120.6 19.1559 120.601 19.0491 120.6C18.1945 120.603 17.3398 120.647 16.4927 120.758C16.0692 120.813 15.6472 120.878 15.228 120.959C14.8087 121.039 14.3922 121.134 13.9802 121.245C13.5678 121.355 13.1595 121.481 12.7572 121.624C12.3543 121.765 11.9579 121.925 11.5685 122.101C11.1788 122.277 10.797 122.471 10.4258 122.684L10.1493 122.848L9.87725 123.018C9.78787 123.077 9.69793 123.136 9.60897 123.195C9.52141 123.257 9.4326 123.317 9.34575 123.38C8.99808 123.632 8.66631 123.906 8.352 124.199C8.03853 124.494 7.74251 124.809 7.48028 125.153C7.2165 125.495 6.97989 125.861 6.79324 126.255C6.69612 126.45 6.618 126.654 6.5479 126.861C6.47822 127.069 6.42825 127.283 6.38743 127.5C6.40179 127.391 6.41108 127.28 6.43389 127.172L6.4488 127.091Z" fill="black"/>
<path d="M55.5594 126.36C55.5274 127.512 55.8154 128.264 56.4234 128.616C56.8074 128.84 57.6554 129 58.9674 129.096V130.104L48.8394 130.056V129C50.1194 128.968 50.9674 128.824 51.3834 128.568C51.9594 128.216 52.2474 127.464 52.2474 126.312L52.3434 111.192C52.3434 110.904 52.3274 110.648 52.2954 110.424V109.56C52.2954 109.336 52.2954 109.224 52.2954 109.224C52.2634 108.776 52.0234 108.664 51.5754 108.888L51.0474 109.128V108.36C51.2714 108.2 51.5594 108.04 51.9114 107.88C52.8074 107.464 53.4954 107.288 53.9754 107.352C55.1914 107.48 55.7674 108.36 55.7034 109.992L55.6074 124.824L55.5594 126.36ZM79.7728 110.184C80.7008 112.008 81.1648 114.056 81.1648 116.328C81.1648 117.736 80.9088 119.08 80.3968 120.36C79.6288 122.28 78.4608 124.312 76.8928 126.456C74.8768 129.272 73.1648 130.68 71.7568 130.68C71.3728 130.68 70.8768 130.024 70.2688 128.712L64.8928 116.136L62.5888 111.048C62.2368 110.248 61.8848 109.784 61.5328 109.656C61.1808 109.528 60.6528 109.624 59.9488 109.944V109.128C60.8128 108.712 61.5808 108.312 62.2528 107.928C62.7648 107.64 63.3408 107.496 63.9808 107.496C64.5888 107.496 65.0688 107.656 65.4208 107.976C66.3808 109.928 67.3088 111.96 68.2048 114.072C70.3808 119.288 72.0608 123.048 73.2448 125.352C73.5008 125.864 73.8528 126.12 74.3008 126.12C74.6528 126.12 75.0208 125.96 75.4048 125.64C77.6128 123.816 78.7168 121.272 78.7168 118.008C78.7168 116.216 77.9968 113.96 76.5568 111.24C76.0128 110.184 75.4368 109.656 74.8288 109.656C74.4768 109.656 74.0608 109.768 73.5807 109.992V109.176C74.4448 108.76 75.2128 108.36 75.8848 107.976C76.3968 107.688 76.8608 107.544 77.2768 107.544C77.8528 107.544 78.3808 107.864 78.8608 108.504C78.9568 108.632 79.2608 109.192 79.7728 110.184Z" fill="black"/>
<path d="M123.551 127.091C123.546 127.063 123.541 127.036 123.534 127.009L123.496 126.848C123.438 126.635 123.37 126.423 123.283 126.219C123.243 126.115 123.194 126.017 123.147 125.916C123.123 125.866 123.096 125.817 123.071 125.768C123.045 125.719 123.021 125.67 122.992 125.622L122.909 125.478C122.882 125.43 122.851 125.385 122.822 125.337C122.792 125.291 122.764 125.243 122.732 125.198L122.638 125.061C122.126 124.339 121.488 123.718 120.793 123.185C120.706 123.118 120.617 123.054 120.529 122.988C120.44 122.925 120.35 122.863 120.26 122.8C120.169 122.739 120.077 122.68 119.985 122.62L119.706 122.448C119.33 122.224 118.944 122.02 118.549 121.834C118.154 121.648 117.75 121.483 117.341 121.335C116.931 121.188 116.515 121.059 116.096 120.946C115.257 120.721 114.401 120.565 113.54 120.468C113.11 120.42 112.678 120.386 112.245 120.368C112.137 120.362 112.029 120.361 111.921 120.357C111.867 120.356 111.813 120.354 111.759 120.353L111.624 120.352C113.646 120.056 115.84 120.05 117.693 120.612C121.128 121.654 124.564 122.696 128 123.738C126.369 121.499 123.039 119.742 119.161 119.076C115.283 118.41 110.933 118.847 107.614 120.235C106.573 120.671 105.458 121.04 104.295 121.34C104.59 121.208 104.87 121.07 105.129 120.929C106.573 120.146 107.588 119.262 108.886 118.441C110.185 117.619 111.948 116.807 113.898 116.533C112.085 116.333 109.594 117.084 108.016 117.952C106.438 118.82 105.435 119.811 104.037 120.724C103.433 121.118 102.699 121.511 101.889 121.847C100.373 122.099 98.8056 122.237 97.234 122.253C95.9602 122.265 94.7087 121.787 94.1757 121.084C93.6426 120.381 93.8792 119.388 94.7228 118.807L94.7215 118.806C94.9175 118.659 95.0157 118.465 94.9329 118.28C94.7542 117.882 93.8132 117.706 93.2976 117.975C91.6252 118.846 91.6277 120.549 92.9701 121.61C94.3125 122.672 96.6498 123.134 98.8509 123.08C101.052 123.027 103.154 122.526 105.153 121.963C106.806 121.497 108.435 120.982 110.151 120.618L110.31 120.611L110.63 120.603C110.737 120.6 110.844 120.601 110.951 120.6C111.805 120.603 112.66 120.647 113.507 120.758C113.931 120.813 114.353 120.878 114.772 120.959C115.191 121.039 115.608 121.134 116.02 121.245C116.432 121.355 116.841 121.481 117.243 121.624C117.646 121.765 118.042 121.925 118.432 122.101C118.821 122.277 119.203 122.471 119.574 122.684L119.851 122.848L120.123 123.018C120.212 123.077 120.302 123.136 120.391 123.195C120.479 123.257 120.567 123.317 120.654 123.38C121.002 123.632 121.334 123.906 121.648 124.199C121.961 124.494 122.257 124.809 122.52 125.153C122.784 125.495 123.02 125.861 123.207 126.255C123.304 126.45 123.382 126.654 123.452 126.861C123.522 127.069 123.572 127.283 123.613 127.5C123.598 127.391 123.589 127.28 123.566 127.172L123.551 127.091Z" fill="black"/>
</svg>
