<svg width="278" height="99" viewBox="0 0 278 99" fill="none" xmlns="http://www.w3.org/2000/svg">
<path d="M51.2109 35V30.8984L53.6484 30.5469L64.5 0.875H71.5078L82.2891 30.5469L84.7266 30.8984V35H73.1016V30.8984L75.4688 30.4766L73.9688 25.7891H61.9688L60.4688 30.4766L62.8359 30.8984V35H51.2109ZM63.5859 20.75H72.3516L68.3672 9.05469L68.0391 8.02344H67.8984L67.5469 9.125L63.5859 20.75ZM95.2969 35.4922C92.625 35.4922 90.5234 34.6484 88.9922 32.9609C87.4766 31.2578 86.7188 28.6172 86.7188 25.0391V14.4688L83.9297 13.7656V9.64062H86.7188H93.5625V25.0859C93.5625 26.8984 93.875 28.2031 94.5 29C95.1406 29.7812 96.1016 30.1719 97.3828 30.1719C98.3984 30.1719 99.2969 29.9766 100.078 29.5859C100.859 29.1797 101.5 28.6094 102 27.875V14.4688L98.9766 13.7656V9.64062H102H108.844V30.1953L111.891 30.8984V35H102.844L102.375 31.7891C101.578 32.9766 100.578 33.8906 99.375 34.5312C98.1719 35.1719 96.8125 35.4922 95.2969 35.4922ZM124.406 35.4922C122.047 35.4922 120.227 34.8438 118.945 33.5469C117.68 32.25 117.047 30.1953 117.047 27.3828V14.4453H113.555V9.64062H117.047V3.42969H123.867V9.64062H128.531V14.4453H123.867V27.3594C123.867 28.3438 124.07 29.0469 124.477 29.4688C124.898 29.8906 125.469 30.1016 126.188 30.1016C126.578 30.1016 126.984 30.0781 127.406 30.0312C127.844 29.9688 128.219 29.9062 128.531 29.8438L129.117 34.7891C128.414 34.9922 127.648 35.1562 126.82 35.2812C126.008 35.4219 125.203 35.4922 124.406 35.4922ZM143.227 35.4922C140.727 35.4922 138.578 34.9453 136.781 33.8516C134.984 32.7578 133.609 31.2422 132.656 29.3047C131.703 27.3516 131.227 25.1094 131.227 22.5781V22.0859C131.227 19.5703 131.703 17.3438 132.656 15.4062C133.609 13.4531 134.977 11.9297 136.758 10.8359C138.555 9.72656 140.695 9.17188 143.18 9.17188C145.695 9.17188 147.844 9.72656 149.625 10.8359C151.406 11.9297 152.773 13.4453 153.727 15.3828C154.68 17.3203 155.156 19.5547 155.156 22.0859V22.5781C155.156 25.1094 154.68 27.3516 153.727 29.3047C152.773 31.2422 151.406 32.7578 149.625 33.8516C147.844 34.9453 145.711 35.4922 143.227 35.4922ZM143.227 30.2422C144.414 30.2422 145.383 29.9219 146.133 29.2812C146.883 28.6406 147.438 27.75 147.797 26.6094C148.156 25.4531 148.336 24.1094 148.336 22.5781V22.0859C148.336 20.5859 148.156 19.2656 147.797 18.125C147.438 16.9688 146.875 16.0703 146.109 15.4297C145.359 14.7734 144.383 14.4453 143.18 14.4453C142.008 14.4453 141.039 14.7734 140.273 15.4297C139.508 16.0703 138.945 16.9688 138.586 18.125C138.242 19.2656 138.07 20.5859 138.07 22.0859V22.5781C138.07 24.1094 138.242 25.4531 138.586 26.6094C138.945 27.7656 139.508 28.6641 140.273 29.3047C141.039 29.9297 142.023 30.2422 143.227 30.2422ZM157.969 35V30.8984L161.273 30.1953V14.4688L157.617 13.7656V9.64062H167.625L167.906 12.9922C168.719 11.7734 169.734 10.8359 170.953 10.1797C172.188 9.50781 173.609 9.17188 175.219 9.17188C176.844 9.17188 178.234 9.53125 179.391 10.25C180.562 10.9688 181.438 12.0547 182.016 13.5078C182.797 12.1484 183.812 11.0859 185.062 10.3203C186.312 9.55469 187.781 9.17188 189.469 9.17188C191.969 9.17188 193.938 10.0234 195.375 11.7266C196.828 13.4297 197.555 16.0234 197.555 19.5078V30.1953L200.859 30.8984V35H187.758V30.8984L190.711 30.1953V19.4844C190.711 17.6094 190.398 16.3125 189.773 15.5938C189.164 14.8594 188.273 14.4922 187.102 14.4922C186.039 14.4922 185.141 14.7969 184.406 15.4062C183.672 16 183.141 16.7891 182.812 17.7734V30.1953L185.578 30.8984V35H173.227V30.8984L175.992 30.1953V19.4844C175.992 17.6562 175.68 16.3672 175.055 15.6172C174.445 14.8672 173.539 14.4922 172.336 14.4922C171.367 14.4922 170.531 14.6875 169.828 15.0781C169.125 15.4688 168.547 16.0312 168.094 16.7656V30.1953L171.047 30.8984V35H157.969ZM211.664 35.4922C209.148 35.4922 207.148 34.8203 205.664 33.4766C204.18 32.1172 203.438 30.2734 203.438 27.9453C203.438 26.3516 203.867 24.9531 204.727 23.75C205.602 22.5469 206.883 21.6016 208.57 20.9141C210.273 20.2266 212.367 19.8828 214.852 19.8828H218.203V18.0078C218.203 16.7891 217.844 15.8047 217.125 15.0547C216.422 14.2891 215.359 13.9062 213.938 13.9062C213.203 13.9062 212.547 14 211.969 14.1875C211.391 14.3594 210.859 14.6094 210.375 14.9375L209.836 18.2891H204.914L204.82 11.7031C206.148 10.9531 207.586 10.3438 209.133 9.875C210.68 9.40625 212.406 9.17188 214.312 9.17188C217.625 9.17188 220.242 9.94531 222.164 11.4922C224.086 13.0234 225.047 15.2188 225.047 18.0781V28.5312C225.047 28.875 225.047 29.2188 225.047 29.5625C225.062 29.8906 225.094 30.2109 225.141 30.5234L227.789 30.8984V35H219.305C219.133 34.5625 218.961 34.0938 218.789 33.5938C218.617 33.0938 218.492 32.5938 218.414 32.0938C217.602 33.125 216.641 33.9531 215.531 34.5781C214.438 35.1875 213.148 35.4922 211.664 35.4922ZM213.492 30.4297C214.445 30.4297 215.352 30.2188 216.211 29.7969C217.07 29.3594 217.734 28.7891 218.203 28.0859V24.0781H214.828C213.328 24.0781 212.188 24.4219 211.406 25.1094C210.641 25.7969 210.258 26.625 210.258 27.5938C210.258 28.5 210.539 29.2031 211.102 29.7031C211.68 30.1875 212.477 30.4297 213.492 30.4297ZM0.703125 98V93.8984L4.33594 93.1953V68.7031L0.703125 68V63.875H14.8125V68L11.1797 68.7031V93.1953L14.8125 93.8984V98H0.703125ZM17.3438 98V93.8984L20.625 93.1953V77.4688L16.9922 76.7656V72.6406H27L27.3047 76.2734C28.1484 74.9766 29.1875 73.9688 30.4219 73.25C31.6719 72.5312 33.0938 72.1719 34.6875 72.1719C37.2031 72.1719 39.1719 72.9766 40.5938 74.5859C42.0156 76.1953 42.7266 78.7188 42.7266 82.1562V93.1953L46.0078 93.8984V98H32.9297V93.8984L35.8594 93.1953V82.1797C35.8594 80.4766 35.5234 79.2734 34.8516 78.5703C34.1797 77.8516 33.1797 77.4922 31.8516 77.4922C30.8672 77.4922 30.0078 77.7031 29.2734 78.125C28.5547 78.5312 27.9531 79.1172 27.4688 79.8828V93.1953L30.2344 93.8984V98H17.3438ZM59.1328 98.4922C57.2422 98.4922 55.4766 98.3125 53.8359 97.9531C52.2109 97.5938 50.6484 97.0781 49.1484 96.4062L49.0781 89.2344H53.8359L54.75 92.8906C55.2812 93.1562 55.8594 93.3672 56.4844 93.5234C57.125 93.6797 57.8516 93.7578 58.6641 93.7578C60.1953 93.7578 61.2734 93.5078 61.8984 93.0078C62.5234 92.5078 62.8359 91.8828 62.8359 91.1328C62.8359 90.4297 62.5 89.8125 61.8281 89.2812C61.1719 88.7344 59.8516 88.2578 57.8672 87.8516C54.8672 87.2266 52.6562 86.2578 51.2344 84.9453C49.8125 83.6328 49.1016 81.9531 49.1016 79.9062C49.1016 78.5 49.4531 77.2188 50.1562 76.0625C50.875 74.9062 51.9609 73.9766 53.4141 73.2734C54.8828 72.5703 56.7578 72.2188 59.0391 72.2188C60.9453 72.2188 62.6875 72.4062 64.2656 72.7812C65.8594 73.1406 67.1953 73.6172 68.2734 74.2109L68.3438 81.1484H63.6094L62.8828 77.8203C62.4609 77.5078 61.9609 77.2734 61.3828 77.1172C60.8203 76.9609 60.1797 76.8828 59.4609 76.8828C58.2578 76.8828 57.3359 77.125 56.6953 77.6094C56.0547 78.0938 55.7344 78.7188 55.7344 79.4844C55.7344 79.9219 55.8438 80.3281 56.0625 80.7031C56.2969 81.0781 56.75 81.4297 57.4219 81.7578C58.0938 82.0859 59.0703 82.3984 60.3516 82.6953C63.4922 83.4141 65.7812 84.375 67.2188 85.5781C68.6562 86.7656 69.375 88.4375 69.375 90.5938C69.375 92.9531 68.5156 94.8594 66.7969 96.3125C65.0938 97.7656 62.5391 98.4922 59.1328 98.4922ZM82.4531 98.4922C80.0938 98.4922 78.2734 97.8438 76.9922 96.5469C75.7266 95.25 75.0938 93.1953 75.0938 90.3828V77.4453H71.6016V72.6406H75.0938V66.4297H81.9141V72.6406H86.5781V77.4453H81.9141V90.3594C81.9141 91.3438 82.1172 92.0469 82.5234 92.4688C82.9453 92.8906 83.5156 93.1016 84.2344 93.1016C84.625 93.1016 85.0312 93.0781 85.4531 93.0312C85.8906 92.9688 86.2656 92.9062 86.5781 92.8438L87.1641 97.7891C86.4609 97.9922 85.6953 98.1562 84.8672 98.2812C84.0547 98.4219 83.25 98.4922 82.4531 98.4922ZM90.2578 98V93.8984L93.5391 93.1953V77.4688L89.9062 76.7656V72.6406H99.9141L100.172 75.7812L100.219 76.3438C100.844 74.9688 101.617 73.9297 102.539 73.2266C103.461 72.5234 104.562 72.1719 105.844 72.1719C106.25 72.1719 106.695 72.2109 107.18 72.2891C107.664 72.3516 108.094 72.4375 108.469 72.5469L107.742 78.8516L104.344 78.6641C103.375 78.6172 102.586 78.7812 101.977 79.1562C101.383 79.5312 100.852 80.0703 100.383 80.7734V93.1953L103.664 93.8984V98H90.2578ZM121.266 98.4922C118.594 98.4922 116.492 97.6484 114.961 95.9609C113.445 94.2578 112.688 91.6172 112.688 88.0391V77.4688L109.898 76.7656V72.6406H112.688H119.531V88.0859C119.531 89.8984 119.844 91.2031 120.469 92C121.109 92.7812 122.07 93.1719 123.352 93.1719C124.367 93.1719 125.266 92.9766 126.047 92.5859C126.828 92.1797 127.469 91.6094 127.969 90.875V77.4688L124.945 76.7656V72.6406H127.969H134.812V93.1953L137.859 93.8984V98H128.812L128.344 94.7891C127.547 95.9766 126.547 96.8906 125.344 97.5312C124.141 98.1719 122.781 98.4922 121.266 98.4922ZM152.344 98.4922C149.906 98.4922 147.797 97.9453 146.016 96.8516C144.25 95.7578 142.891 94.25 141.938 92.3281C140.984 90.3906 140.508 88.1797 140.508 85.6953V84.9922C140.508 82.4922 140.992 80.2812 141.961 78.3594C142.93 76.4375 144.297 74.9297 146.062 73.8359C147.828 72.7266 149.906 72.1719 152.297 72.1719C154.578 72.1719 156.539 72.5312 158.18 73.25C159.836 73.9531 161.18 74.7734 162.211 75.7109L162.164 82.9766H157.008L156.094 78.4531C155.719 78.0781 155.242 77.7734 154.664 77.5391C154.086 77.3047 153.5 77.1875 152.906 77.1875C151.656 77.1875 150.617 77.5 149.789 78.125C148.977 78.75 148.367 79.6406 147.961 80.7969C147.555 81.9531 147.352 83.3516 147.352 84.9922V85.6953C147.352 87.4297 147.578 88.8594 148.031 89.9844C148.484 91.0938 149.086 91.9141 149.836 92.4453C150.602 92.9766 151.453 93.2422 152.391 93.2422C153.594 93.2422 154.555 92.9297 155.273 92.3047C156.008 91.6641 156.508 90.7656 156.773 89.6094H162.633L162.703 89.75C162.438 91.5469 161.906 93.1016 161.109 94.4141C160.328 95.7266 159.219 96.7344 157.781 97.4375C156.359 98.1406 154.547 98.4922 152.344 98.4922ZM175.734 98.4922C173.375 98.4922 171.555 97.8438 170.273 96.5469C169.008 95.25 168.375 93.1953 168.375 90.3828V77.4453H164.883V72.6406H168.375V66.4297H175.195V72.6406H179.859V77.4453H175.195V90.3594C175.195 91.3438 175.398 92.0469 175.805 92.4688C176.227 92.8906 176.797 93.1016 177.516 93.1016C177.906 93.1016 178.312 93.0781 178.734 93.0312C179.172 92.9688 179.547 92.9062 179.859 92.8438L180.445 97.7891C179.742 97.9922 178.977 98.1562 178.148 98.2812C177.336 98.4219 176.531 98.4922 175.734 98.4922ZM183.375 98V93.8984L186.68 93.1953V77.4688L183.023 76.7656V72.6406H193.523V93.1953L196.805 93.8984V98H183.375ZM186.445 67.2734V61.4375H193.523V67.2734H186.445ZM211.195 98.4922C208.695 98.4922 206.547 97.9453 204.75 96.8516C202.953 95.7578 201.578 94.2422 200.625 92.3047C199.672 90.3516 199.195 88.1094 199.195 85.5781V85.0859C199.195 82.5703 199.672 80.3438 200.625 78.4062C201.578 76.4531 202.945 74.9297 204.727 73.8359C206.523 72.7266 208.664 72.1719 211.148 72.1719C213.664 72.1719 215.812 72.7266 217.594 73.8359C219.375 74.9297 220.742 76.4453 221.695 78.3828C222.648 80.3203 223.125 82.5547 223.125 85.0859V85.5781C223.125 88.1094 222.648 90.3516 221.695 92.3047C220.742 94.2422 219.375 95.7578 217.594 96.8516C215.812 97.9453 213.68 98.4922 211.195 98.4922ZM211.195 93.2422C212.383 93.2422 213.352 92.9219 214.102 92.2812C214.852 91.6406 215.406 90.75 215.766 89.6094C216.125 88.4531 216.305 87.1094 216.305 85.5781V85.0859C216.305 83.5859 216.125 82.2656 215.766 81.125C215.406 79.9688 214.844 79.0703 214.078 78.4297C213.328 77.7734 212.352 77.4453 211.148 77.4453C209.977 77.4453 209.008 77.7734 208.242 78.4297C207.477 79.0703 206.914 79.9688 206.555 81.125C206.211 82.2656 206.039 83.5859 206.039 85.0859V85.5781C206.039 87.1094 206.211 88.4531 206.555 89.6094C206.914 90.7656 207.477 91.6641 208.242 92.3047C209.008 92.9297 209.992 93.2422 211.195 93.2422ZM225.938 98V93.8984L229.219 93.1953V77.4688L225.586 76.7656V72.6406H235.594L235.898 76.2734C236.742 74.9766 237.781 73.9688 239.016 73.25C240.266 72.5312 241.688 72.1719 243.281 72.1719C245.797 72.1719 247.766 72.9766 249.188 74.5859C250.609 76.1953 251.32 78.7188 251.32 82.1562V93.1953L254.602 93.8984V98H241.523V93.8984L244.453 93.1953V82.1797C244.453 80.4766 244.117 79.2734 243.445 78.5703C242.773 77.8516 241.773 77.4922 240.445 77.4922C239.461 77.4922 238.602 77.7031 237.867 78.125C237.148 78.5312 236.547 79.1172 236.062 79.8828V93.1953L238.828 93.8984V98H225.938ZM267.727 98.4922C265.836 98.4922 264.07 98.3125 262.43 97.9531C260.805 97.5938 259.242 97.0781 257.742 96.4062L257.672 89.2344H262.43L263.344 92.8906C263.875 93.1562 264.453 93.3672 265.078 93.5234C265.719 93.6797 266.445 93.7578 267.258 93.7578C268.789 93.7578 269.867 93.5078 270.492 93.0078C271.117 92.5078 271.43 91.8828 271.43 91.1328C271.43 90.4297 271.094 89.8125 270.422 89.2812C269.766 88.7344 268.445 88.2578 266.461 87.8516C263.461 87.2266 261.25 86.2578 259.828 84.9453C258.406 83.6328 257.695 81.9531 257.695 79.9062C257.695 78.5 258.047 77.2188 258.75 76.0625C259.469 74.9062 260.555 73.9766 262.008 73.2734C263.477 72.5703 265.352 72.2188 267.633 72.2188C269.539 72.2188 271.281 72.4062 272.859 72.7812C274.453 73.1406 275.789 73.6172 276.867 74.2109L276.938 81.1484H272.203L271.477 77.8203C271.055 77.5078 270.555 77.2734 269.977 77.1172C269.414 76.9609 268.773 76.8828 268.055 76.8828C266.852 76.8828 265.93 77.125 265.289 77.6094C264.648 78.0938 264.328 78.7188 264.328 79.4844C264.328 79.9219 264.438 80.3281 264.656 80.7031C264.891 81.0781 265.344 81.4297 266.016 81.7578C266.688 82.0859 267.664 82.3984 268.945 82.6953C272.086 83.4141 274.375 84.375 275.812 85.5781C277.25 86.7656 277.969 88.4375 277.969 90.5938C277.969 92.9531 277.109 94.8594 275.391 96.3125C273.688 97.7656 271.133 98.4922 267.727 98.4922Z" fill="black"/>
</svg>
