<svg width="133" height="36" viewBox="0 0 133 36" fill="none" xmlns="http://www.w3.org/2000/svg">
<path d="M16.9375 35.4922C13.625 35.4922 10.7422 34.8047 8.28906 33.4297C5.83594 32.0391 3.9375 30.0781 2.59375 27.5469C1.26562 25 0.601562 21.9922 0.601562 18.5234V17.375C0.601562 14.0625 1.24219 11.1328 2.52344 8.58594C3.82031 6.02344 5.66406 4.01562 8.05469 2.5625C10.4453 1.10938 13.2891 0.382812 16.5859 0.382812C18.8984 0.382812 21.0625 0.710938 23.0781 1.36719C25.1094 2.02344 26.9219 3.02344 28.5156 4.36719V12.6172H23.4297L22.7266 7.4375C22.2109 7.0625 21.6484 6.74219 21.0391 6.47656C20.4297 6.21094 19.7656 6.00781 19.0469 5.86719C18.3438 5.72656 17.5781 5.65625 16.75 5.65625C14.8125 5.65625 13.1484 6.13281 11.7578 7.08594C10.3672 8.03906 9.29688 9.39062 8.54688 11.1406C7.8125 12.875 7.44531 14.9375 7.44531 17.3281V18.5234C7.44531 20.9141 7.83594 22.9844 8.61719 24.7344C9.39844 26.4844 10.5078 27.8438 11.9453 28.8125C13.3828 29.7656 15.0859 30.2422 17.0547 30.2422C18.0391 30.2422 19.0234 30.1328 20.0078 29.9141C21.0078 29.6797 21.9141 29.3828 22.7266 29.0234L23.4297 24.2188H28.5156V32.375C27.1875 33.25 25.5312 33.9922 23.5469 34.6016C21.5625 35.1953 19.3594 35.4922 16.9375 35.4922ZM40.3281 35.4922C37.8125 35.4922 35.8125 34.8203 34.3281 33.4766C32.8438 32.1172 32.1016 30.2734 32.1016 27.9453C32.1016 26.3516 32.5312 24.9531 33.3906 23.75C34.2656 22.5469 35.5469 21.6016 37.2344 20.9141C38.9375 20.2266 41.0312 19.8828 43.5156 19.8828H46.8672V18.0078C46.8672 16.7891 46.5078 15.8047 45.7891 15.0547C45.0859 14.2891 44.0234 13.9062 42.6016 13.9062C41.8672 13.9062 41.2109 14 40.6328 14.1875C40.0547 14.3594 39.5234 14.6094 39.0391 14.9375L38.5 18.2891H33.5781L33.4844 11.7031C34.8125 10.9531 36.25 10.3438 37.7969 9.875C39.3438 9.40625 41.0703 9.17188 42.9766 9.17188C46.2891 9.17188 48.9062 9.94531 50.8281 11.4922C52.75 13.0234 53.7109 15.2188 53.7109 18.0781V28.5312C53.7109 28.875 53.7109 29.2188 53.7109 29.5625C53.7266 29.8906 53.7578 30.2109 53.8047 30.5234L56.4531 30.8984V35H47.9688C47.7969 34.5625 47.625 34.0938 47.4531 33.5938C47.2812 33.0938 47.1562 32.5938 47.0781 32.0938C46.2656 33.125 45.3047 33.9531 44.1953 34.5781C43.1016 35.1875 41.8125 35.4922 40.3281 35.4922ZM42.1562 30.4297C43.1094 30.4297 44.0156 30.2188 44.875 29.7969C45.7344 29.3594 46.3984 28.7891 46.8672 28.0859V24.0781H43.4922C41.9922 24.0781 40.8516 24.4219 40.0703 25.1094C39.3047 25.7969 38.9219 26.625 38.9219 27.5938C38.9219 28.5 39.2031 29.2031 39.7656 29.7031C40.3438 30.1875 41.1406 30.4297 42.1562 30.4297ZM67.2578 35L59.5938 14.1875L56.8516 13.7656V9.64062H69.1562V13.7422L66.4844 14.2109L70.3047 25.7188L70.8906 27.6875H71.0312L71.6875 25.7188L75.8828 14.2344L72.7656 13.7422V9.64062H85.0469V13.7656L82.2344 14.2344L74.2188 35H67.2578ZM98.6875 35.4922C96.2656 35.4922 94.1484 34.9609 92.3359 33.8984C90.5234 32.8203 89.1172 31.3438 88.1172 29.4688C87.1328 27.5938 86.6406 25.4531 86.6406 23.0469V22.1094C86.6406 19.5938 87.1094 17.3672 88.0469 15.4297C88.9844 13.4766 90.3047 11.9453 92.0078 10.8359C93.7266 9.71094 95.75 9.15625 98.0781 9.17188C100.375 9.17188 102.305 9.625 103.867 10.5312C105.43 11.4375 106.617 12.7422 107.43 14.4453C108.242 16.1484 108.648 18.2109 108.648 20.6328V24.3594H93.7422L93.6953 24.5C93.7891 25.6094 94.0625 26.6016 94.5156 27.4766C94.9844 28.3359 95.6406 29.0156 96.4844 29.5156C97.3281 30 98.3516 30.2422 99.5547 30.2422C100.805 30.2422 101.969 30.0859 103.047 29.7734C104.141 29.4453 105.203 28.9688 106.234 28.3438L108.086 32.5625C107.039 33.4062 105.719 34.1094 104.125 34.6719C102.547 35.2188 100.734 35.4922 98.6875 35.4922ZM93.7891 19.8359H102.25V19.2266C102.25 18.1953 102.109 17.3125 101.828 16.5781C101.562 15.8281 101.125 15.25 100.516 14.8438C99.9219 14.4375 99.1484 14.2344 98.1953 14.2344C97.2891 14.2344 96.5234 14.4766 95.8984 14.9609C95.2734 15.4297 94.7812 16.0781 94.4219 16.9062C94.0781 17.7344 93.8438 18.6719 93.7188 19.7188L93.7891 19.8359ZM122.734 35.4922C120.844 35.4922 119.078 35.3125 117.438 34.9531C115.812 34.5938 114.25 34.0781 112.75 33.4062L112.68 26.2344H117.438L118.352 29.8906C118.883 30.1562 119.461 30.3672 120.086 30.5234C120.727 30.6797 121.453 30.7578 122.266 30.7578C123.797 30.7578 124.875 30.5078 125.5 30.0078C126.125 29.5078 126.438 28.8828 126.438 28.1328C126.438 27.4297 126.102 26.8125 125.43 26.2812C124.773 25.7344 123.453 25.2578 121.469 24.8516C118.469 24.2266 116.258 23.2578 114.836 21.9453C113.414 20.6328 112.703 18.9531 112.703 16.9062C112.703 15.5 113.055 14.2188 113.758 13.0625C114.477 11.9062 115.562 10.9766 117.016 10.2734C118.484 9.57031 120.359 9.21875 122.641 9.21875C124.547 9.21875 126.289 9.40625 127.867 9.78125C129.461 10.1406 130.797 10.6172 131.875 11.2109L131.945 18.1484H127.211L126.484 14.8203C126.062 14.5078 125.562 14.2734 124.984 14.1172C124.422 13.9609 123.781 13.8828 123.062 13.8828C121.859 13.8828 120.938 14.125 120.297 14.6094C119.656 15.0938 119.336 15.7188 119.336 16.4844C119.336 16.9219 119.445 17.3281 119.664 17.7031C119.898 18.0781 120.352 18.4297 121.023 18.7578C121.695 19.0859 122.672 19.3984 123.953 19.6953C127.094 20.4141 129.383 21.375 130.82 22.5781C132.258 23.7656 132.977 25.4375 132.977 27.5938C132.977 29.9531 132.117 31.8594 130.398 33.3125C128.695 34.7656 126.141 35.4922 122.734 35.4922Z" fill="black"/>
</svg>
