<svg width="162" height="151" viewBox="0 0 162 151" fill="none" xmlns="http://www.w3.org/2000/svg">
<path d="M40.4561 62.056L42.7601 63.88C41.0961 67.72 38.4401 70.76 34.7921 73C31.1441 75.24 27.1761 76.36 22.8881 76.36C16.3601 76.296 11.0801 73.992 7.04813 69.448C3.20813 65.096 1.28813 59.592 1.28813 52.936C1.28813 46.216 3.27213 40.552 7.24013 35.944C11.4001 31.08 16.7761 28.68 23.3681 28.744C27.6561 28.744 31.7841 29.96 35.7521 32.392C36.4561 32.84 37.0001 33.192 37.3841 33.448V33.544C38.8561 34.632 39.5601 35.944 39.4961 37.48C39.4961 38.12 39.2081 38.856 38.6321 39.688C37.6721 41.16 36.6801 42.408 35.6561 43.432L34.0241 42.952L34.7921 41.896C35.5601 40.872 35.8481 39.912 35.6561 39.016C34.8241 37.096 34.2161 35.912 33.8321 35.464C31.0801 32.584 27.6561 31.144 23.5601 31.144C18.5681 31.08 14.7281 33.384 12.0401 38.056C9.80013 41.896 8.68013 46.504 8.68013 51.88C8.61613 57.64 9.80013 62.408 12.2321 66.184C15.0481 70.664 19.1761 72.936 24.6161 73C27.9441 73 31.1121 71.976 34.1201 69.928C37.1281 67.816 39.2401 65.192 40.4561 62.056ZM78.3904 70.504H80.5024C79.4784 74.344 77.3344 76.232 74.0704 76.168C71.3824 76.168 69.5904 75.016 68.6944 72.712C67.0304 74.44 63.9584 75.304 59.4784 75.304C55.1264 75.304 51.5744 73.832 48.8224 70.888C46.0704 67.88 44.7264 64.168 44.7904 59.752C44.7904 55.336 46.1344 51.784 48.8224 49.096C51.5744 46.408 55.1264 45.064 59.4784 45.064C63.5104 45.064 66.4864 46.216 68.4064 48.52C68.5984 48.008 68.7264 47.688 68.7904 47.56C69.3024 46.024 70.1984 45.16 71.4784 44.968C72.3104 44.776 73.6224 45.128 75.4144 46.024C76.1824 46.408 76.7584 46.728 77.1424 46.984V48.52L76.0864 48.04C75.7664 47.912 75.3824 47.912 74.9344 48.04C74.4864 48.232 74.2624 48.488 74.2624 48.808C74.2624 49.512 74.2624 49.864 74.2624 49.864L74.1664 69.736C74.1664 71.72 74.7744 72.744 75.9904 72.808C76.8224 72.872 77.3344 72.808 77.5264 72.616C77.7184 72.424 77.9424 71.88 78.1984 70.984C78.3264 70.792 78.3904 70.632 78.3904 70.504ZM60.6304 72.424C65.6224 72.488 68.1184 71.176 68.1184 68.488L68.2144 53.32C68.0224 51.656 66.9344 50.248 64.9504 49.096C63.2864 48.136 61.5264 47.656 59.6704 47.656C56.7904 47.592 54.5504 48.904 52.9504 51.592C51.5424 53.832 50.8384 56.488 50.8384 59.56C50.8384 62.76 51.6704 65.608 53.3344 68.104C55.1904 70.984 57.6224 72.424 60.6304 72.424ZM108.686 49.096C109.902 51.464 110.51 54.152 110.51 57.16C110.51 59.016 110.158 60.808 109.454 62.536C108.43 65.032 106.894 67.72 104.846 70.6C102.158 74.312 99.8859 76.168 98.0299 76.168C97.4539 76.168 96.7819 75.304 96.0139 73.576L95.9179 73.288C95.8539 73.032 95.7259 72.776 95.5339 72.52L88.9099 56.968L85.9339 50.152C85.5499 49.192 85.0699 48.584 84.4939 48.328C83.9819 48.136 83.2779 48.264 82.3819 48.712V47.656C83.3419 47.144 84.3019 46.6 85.2619 46.024C86.5419 45.384 87.5659 45.064 88.3339 45.064C89.0379 45.064 89.6139 45.288 90.0619 45.736C91.4699 48.552 92.7179 51.272 93.8059 53.896C96.7499 61.064 98.9899 66.024 100.526 68.776C100.718 69.48 101.102 69.832 101.678 69.832C101.998 69.832 102.446 69.608 103.022 69.16C105.646 67.048 106.958 63.784 106.958 59.368C106.958 56.68 106.094 53.704 104.366 50.44C103.79 49.352 103.182 48.68 102.542 48.424C102.094 48.232 101.39 48.36 100.43 48.808V47.752C101.774 47.048 102.798 46.504 103.502 46.12C104.846 45.352 105.966 45.352 106.862 46.12C107.694 47.272 108.302 48.264 108.686 49.096ZM127.836 73.48C131.292 73.48 134.3 71.72 136.86 68.2L138.876 69.256C135.932 73.928 131.9 76.232 126.78 76.168C122.492 76.168 119.036 74.728 116.412 71.848C113.788 68.968 112.476 65.352 112.476 61C112.54 56.584 113.852 52.872 116.412 49.864C118.972 46.792 122.428 45.256 126.78 45.256C131.9 45.32 135.516 47.848 137.628 52.84H132.444C131.612 49.576 129.596 47.912 126.396 47.848C124.028 47.848 122.172 48.84 120.828 50.824C119.676 52.552 119.068 54.664 119.004 57.16H126.78V59.656L118.908 59.56C118.844 68.776 121.82 73.416 127.836 73.48ZM145.876 51.88C145.876 53.416 147.348 55.08 150.292 56.872C152.532 58.024 154.74 59.176 156.916 60.328C159.476 62.184 160.756 64.52 160.756 67.336C160.756 69.96 159.796 72.104 157.876 73.768C156.02 75.432 153.748 76.264 151.06 76.264C147.476 76.2 144.756 75.112 142.9 73C141.492 71.4 140.884 70.152 141.076 69.256C141.204 68.68 141.748 68.232 142.708 67.912C143.156 67.784 143.892 67.656 144.916 67.528L145.684 68.2C144.596 68.456 144.276 69.064 144.724 70.024C144.916 70.344 145.108 70.632 145.3 70.888C146.9 72.616 148.884 73.512 151.252 73.576C152.596 73.576 153.748 73.192 154.708 72.424C155.732 71.592 156.244 70.536 156.244 69.256C156.244 67.464 154.804 65.64 151.924 63.784C151.732 63.656 149.492 62.472 145.204 60.232C142.58 58.376 141.3 56.136 141.364 53.512C141.364 51.08 142.1 49.128 143.572 47.656C145.044 46.12 146.996 45.352 149.428 45.352C152.436 45.352 154.836 46.344 156.628 48.328C157.972 49.8 158.58 50.92 158.452 51.688C158.324 52.264 157.78 52.712 156.82 53.032C156.308 53.16 155.54 53.288 154.516 53.416L153.844 52.744L154.612 52.552C155.124 52.36 155.188 51.816 154.804 50.92C153.972 48.936 152.34 47.944 149.908 47.944C147.22 47.88 145.876 49.192 145.876 51.88Z" fill="black"/>
<path d="M22.4488 127.091C22.4537 127.063 22.4587 127.036 22.4656 127.009L22.5041 126.848C22.5624 126.635 22.6301 126.423 22.7171 126.219C22.7568 126.115 22.8065 126.017 22.8528 125.916C22.877 125.866 22.9036 125.817 22.9289 125.768C22.9545 125.719 22.9795 125.67 23.0079 125.622L23.0909 125.478C23.1183 125.43 23.1494 125.385 23.1784 125.337C23.2083 125.291 23.2363 125.243 23.2682 125.198L23.362 125.061C23.8737 124.339 24.512 123.718 25.2072 123.185C25.2942 123.118 25.3832 123.054 25.471 122.988C25.5603 122.925 25.6505 122.863 25.7402 122.8C25.8314 122.739 25.9234 122.68 26.0151 122.62L26.2945 122.448C26.67 122.224 27.0564 122.02 27.4511 121.834C27.8459 121.648 28.2497 121.483 28.6591 121.335C29.0689 121.188 29.4846 121.059 29.9041 120.946C30.7434 120.721 31.5991 120.565 32.4598 120.468C32.8904 120.42 33.3224 120.386 33.7548 120.368C33.8628 120.362 33.971 120.361 34.0791 120.357C34.1333 120.356 34.1872 120.354 34.2414 120.353L34.3758 120.352C32.3541 120.056 30.1602 120.05 28.3074 120.612C24.8717 121.654 21.4358 122.696 18 123.738C19.6312 121.499 22.9614 119.742 26.8391 119.076C30.7167 118.41 35.0672 118.847 38.3864 120.235C39.4273 120.671 40.5417 121.04 41.7052 121.34C41.4101 121.208 41.1301 121.07 40.8708 120.929C39.4268 120.146 38.4118 119.262 37.1136 118.441C35.8153 117.619 34.0515 116.807 32.102 116.533C33.9147 116.333 36.4055 117.084 37.9836 117.952C39.5618 118.82 40.5645 119.811 41.9628 120.724C42.5667 121.118 43.3009 121.511 44.1114 121.847C45.6273 122.099 47.1944 122.237 48.766 122.253C50.0398 122.265 51.2913 121.787 51.8243 121.084C52.3574 120.381 52.1208 119.388 51.2772 118.807L51.2785 118.806C51.0825 118.659 50.9843 118.465 51.0671 118.28C51.2458 117.882 52.1868 117.706 52.7024 117.975C54.3748 118.846 54.3723 120.549 53.0299 121.61C51.6875 122.672 49.3502 123.134 47.1491 123.08C44.9479 123.027 42.8459 122.526 40.8473 121.963C39.1938 121.497 37.5651 120.982 35.8486 120.618L35.6901 120.611L35.3696 120.603C35.2627 120.6 35.1559 120.601 35.0491 120.6C34.1945 120.603 33.3398 120.647 32.4927 120.758C32.0692 120.813 31.6472 120.878 31.228 120.959C30.8087 121.039 30.3922 121.134 29.9802 121.245C29.5678 121.355 29.1595 121.481 28.7572 121.624C28.3543 121.765 27.9579 121.925 27.5685 122.101C27.1788 122.277 26.797 122.471 26.4258 122.684L26.1493 122.848L25.8773 123.018C25.7879 123.077 25.6979 123.136 25.609 123.195C25.5214 123.257 25.4326 123.317 25.3457 123.38C24.9981 123.632 24.6663 123.906 24.352 124.199C24.0385 124.494 23.7425 124.809 23.4803 125.153C23.2165 125.495 22.9799 125.861 22.7932 126.255C22.6961 126.45 22.618 126.654 22.5479 126.861C22.4782 127.069 22.4283 127.283 22.3874 127.5C22.4018 127.391 22.4111 127.28 22.4339 127.172L22.4488 127.091Z" fill="black"/>
<path d="M84.6634 110.184C85.5914 112.008 86.0554 114.056 86.0554 116.328C86.0554 117.736 85.7994 119.08 85.2874 120.36C84.5194 122.28 83.3514 124.312 81.7834 126.456C79.7674 129.272 78.0554 130.68 76.6474 130.68C76.2634 130.68 75.7674 130.024 75.1594 128.712L69.7834 116.136L67.4794 111.048C67.1274 110.248 66.7754 109.784 66.4234 109.656C66.0714 109.528 65.5434 109.624 64.8394 109.944V109.128C65.7034 108.712 66.4714 108.312 67.1434 107.928C67.6554 107.64 68.2314 107.496 68.8714 107.496C69.4794 107.496 69.9594 107.656 70.3114 107.976C71.2714 109.928 72.1994 111.96 73.0954 114.072C75.2714 119.288 76.9514 123.048 78.1354 125.352C78.3914 125.864 78.7434 126.12 79.1914 126.12C79.5434 126.12 79.9114 125.96 80.2954 125.64C82.5034 123.816 83.6074 121.272 83.6074 118.008C83.6074 116.216 82.8874 113.96 81.4474 111.24C80.9034 110.184 80.3274 109.656 79.7194 109.656C79.3674 109.656 78.9514 109.768 78.4714 109.992V109.176C79.3354 108.76 80.1034 108.36 80.7754 107.976C81.2874 107.688 81.7514 107.544 82.1674 107.544C82.7434 107.544 83.2714 107.864 83.7514 108.504C83.8474 108.632 84.1514 109.192 84.6634 110.184ZM93.7313 126.36C93.6993 127.512 93.9873 128.264 94.5953 128.616C94.9793 128.84 95.8273 129 97.1393 129.096V130.104L87.0113 130.056V129C88.2913 128.968 89.1393 128.824 89.5553 128.568C90.1313 128.216 90.4193 127.464 90.4193 126.312L90.5153 111.192C90.5153 110.904 90.4993 110.648 90.4673 110.424V109.56C90.4673 109.336 90.4673 109.224 90.4673 109.224C90.4353 108.776 90.1953 108.664 89.7473 108.888L89.2193 109.128V108.36C89.4433 108.2 89.7313 108.04 90.0833 107.88C90.9793 107.464 91.6673 107.288 92.1473 107.352C93.3633 107.48 93.9393 108.36 93.8753 109.992L93.7793 124.824L93.7313 126.36Z" fill="black"/>
<path d="M139.551 127.091C139.546 127.063 139.541 127.036 139.534 127.009L139.496 126.848C139.438 126.635 139.37 126.423 139.283 126.219C139.243 126.115 139.194 126.017 139.147 125.916C139.123 125.866 139.096 125.817 139.071 125.768C139.045 125.719 139.021 125.67 138.992 125.622L138.909 125.478C138.882 125.43 138.851 125.385 138.822 125.337C138.792 125.291 138.764 125.243 138.732 125.198L138.638 125.061C138.126 124.339 137.488 123.718 136.793 123.185C136.706 123.118 136.617 123.054 136.529 122.988C136.44 122.925 136.35 122.863 136.26 122.8C136.169 122.739 136.077 122.68 135.985 122.62L135.706 122.448C135.33 122.224 134.944 122.02 134.549 121.834C134.154 121.648 133.75 121.483 133.341 121.335C132.931 121.188 132.515 121.059 132.096 120.946C131.257 120.721 130.401 120.565 129.54 120.468C129.11 120.42 128.678 120.386 128.245 120.368C128.137 120.362 128.029 120.361 127.921 120.357C127.867 120.356 127.813 120.354 127.759 120.353L127.624 120.352C129.646 120.056 131.84 120.05 133.693 120.612C137.128 121.654 140.564 122.696 144 123.738C142.369 121.499 139.039 119.742 135.161 119.076C131.283 118.41 126.933 118.847 123.614 120.235C122.573 120.671 121.458 121.04 120.295 121.34C120.59 121.208 120.87 121.07 121.129 120.929C122.573 120.146 123.588 119.262 124.886 118.441C126.185 117.619 127.948 116.807 129.898 116.533C128.085 116.333 125.594 117.084 124.016 117.952C122.438 118.82 121.435 119.811 120.037 120.724C119.433 121.118 118.699 121.511 117.889 121.847C116.373 122.099 114.806 122.237 113.234 122.253C111.96 122.265 110.709 121.787 110.176 121.084C109.643 120.381 109.879 119.388 110.723 118.807L110.722 118.806C110.917 118.659 111.016 118.465 110.933 118.28C110.754 117.882 109.813 117.706 109.298 117.975C107.625 118.846 107.628 120.549 108.97 121.61C110.312 122.672 112.65 123.134 114.851 123.08C117.052 123.027 119.154 122.526 121.153 121.963C122.806 121.497 124.435 120.982 126.151 120.618L126.31 120.611L126.63 120.603C126.737 120.6 126.844 120.601 126.951 120.6C127.805 120.603 128.66 120.647 129.507 120.758C129.931 120.813 130.353 120.878 130.772 120.959C131.191 121.039 131.608 121.134 132.02 121.245C132.432 121.355 132.841 121.481 133.243 121.624C133.646 121.765 134.042 121.925 134.432 122.101C134.821 122.277 135.203 122.471 135.574 122.684L135.851 122.848L136.123 123.018C136.212 123.077 136.302 123.136 136.391 123.195C136.479 123.257 136.567 123.317 136.654 123.38C137.002 123.632 137.334 123.906 137.648 124.199C137.961 124.494 138.257 124.809 138.52 125.153C138.784 125.495 139.02 125.861 139.207 126.255C139.304 126.45 139.382 126.654 139.452 126.861C139.522 127.069 139.572 127.283 139.613 127.5C139.598 127.391 139.589 127.28 139.566 127.172L139.551 127.091Z" fill="black"/>
</svg>
