<svg width="392" height="151" viewBox="0 0 392 151" fill="none" xmlns="http://www.w3.org/2000/svg">
<path d="M40.3311 62.056L42.6351 63.88C40.9711 67.72 38.3151 70.76 34.6671 73C31.0191 75.24 27.0511 76.36 22.7631 76.36C16.2351 76.296 10.9551 73.992 6.92313 69.448C3.08313 65.096 1.16313 59.592 1.16313 52.936C1.16313 46.216 3.14713 40.552 7.11513 35.944C11.2751 31.08 16.6511 28.68 23.2431 28.744C27.5311 28.744 31.6591 29.96 35.6271 32.392C36.3311 32.84 36.8751 33.192 37.2591 33.448V33.544C38.7311 34.632 39.4351 35.944 39.3711 37.48C39.3711 38.12 39.0831 38.856 38.5071 39.688C37.5471 41.16 36.5551 42.408 35.5311 43.432L33.8991 42.952L34.6671 41.896C35.4351 40.872 35.7231 39.912 35.5311 39.016C34.6991 37.096 34.0911 35.912 33.7071 35.464C30.9551 32.584 27.5311 31.144 23.4351 31.144C18.4431 31.08 14.6031 33.384 11.9151 38.056C9.67513 41.896 8.55513 46.504 8.55513 51.88C8.49113 57.64 9.67513 62.408 12.1071 66.184C14.9231 70.664 19.0511 72.936 24.4911 73C27.8191 73 30.9871 71.976 33.9951 69.928C37.0031 67.816 39.1151 65.192 40.3311 62.056ZM66.8414 74.248C64.1534 75.592 61.5934 76.264 59.1614 76.264C53.6574 76.264 49.4654 73.384 46.5854 67.624C45.2414 64.936 44.5694 62.248 44.5694 59.56C44.5694 53.8 47.4494 49.48 53.2094 46.6C55.7694 45.32 58.2654 44.68 60.6974 44.68C66.2654 44.68 70.5854 47.72 73.6574 53.8C74.8734 56.232 75.4814 58.696 75.4814 61.192C75.4814 67.016 72.6014 71.368 66.8414 74.248ZM54.0734 48.52C51.0654 49.992 49.5614 52.36 49.5614 55.624C49.5614 58.056 50.5214 61.192 52.4414 65.032C55.2574 70.6 58.5534 73.384 62.3294 73.384C63.4814 73.384 64.6974 73.064 65.9774 72.424C68.9214 70.952 70.3934 68.52 70.3934 65.128C70.3934 62.696 69.5934 59.912 67.9934 56.776C64.8574 50.632 61.4974 47.56 57.9134 47.56C56.6974 47.56 55.4174 47.88 54.0734 48.52ZM88.4219 37.768C85.9259 40.008 84.0699 41.128 82.8539 41.128C81.8299 41.128 81.3819 40.232 81.5099 38.44C81.2539 36.904 81.7019 35.944 82.8539 35.56C84.4539 34.984 85.8619 34.44 87.0779 33.928C87.5259 33.8 87.9099 33.736 88.2299 33.736C88.8059 33.736 89.0939 34.248 89.0939 35.272C89.0299 36.552 88.8059 37.384 88.4219 37.768ZM88.0379 67.432C88.0379 71.144 89.6059 73.032 92.7419 73.096L92.6459 75.304L77.3819 75.208V73C80.5819 73 82.1819 71.144 82.1819 67.432V49.192C82.1819 48.808 82.1819 48.616 82.1819 48.616C82.1179 47.912 81.7019 47.72 80.9339 48.04L79.9739 48.424V47.08C80.4859 46.76 80.9979 46.472 81.5099 46.216C83.1099 45.512 84.2939 45.192 85.0619 45.256C87.2379 45.448 88.2619 47.016 88.1339 49.96L88.0379 67.432ZM123.528 67.624C123.08 69.16 122.856 70.504 122.856 71.656C122.856 74.536 124.104 76.2 126.6 76.648L126.408 78.376C120.136 77.224 117 74.216 117 69.352C117 67.752 117.32 66.152 117.96 64.552C119.944 59.496 120.936 56.616 120.936 55.912C120.936 53.736 119.944 51.944 117.96 50.536C116.04 49.064 113.96 48.328 111.72 48.328C109.672 48.328 107.56 49.16 105.384 50.824L105.192 67.432C105.128 71.144 106.696 73.032 109.896 73.096V75.304L94.6319 75.208V73C97.7679 72.936 99.3359 71.08 99.3359 67.432L99.4319 48.52C99.4319 48.136 99.4319 47.944 99.4319 47.944C99.3679 47.176 98.9519 46.984 98.1839 47.368L97.1279 47.752L97.2239 46.312C98.2479 45.8 98.7599 45.544 98.7599 45.544C100.36 44.84 101.544 44.52 102.312 44.584C104.36 44.776 105.384 46.024 105.384 48.328C108.392 45.96 111.624 44.776 115.08 44.776C120.584 44.84 124.264 47.72 126.12 53.416C126.568 54.824 126.792 56.104 126.792 57.256C126.792 58.6 126.408 60.264 125.64 62.248C124.488 65.192 123.784 66.984 123.528 67.624ZM133.845 51.88C133.845 53.416 135.317 55.08 138.261 56.872C140.501 58.024 142.709 59.176 144.885 60.328C147.445 62.184 148.725 64.52 148.725 67.336C148.725 69.96 147.765 72.104 145.845 73.768C143.989 75.432 141.717 76.264 139.029 76.264C135.445 76.2 132.725 75.112 130.869 73C129.461 71.4 128.853 70.152 129.045 69.256C129.173 68.68 129.717 68.232 130.677 67.912C131.125 67.784 131.861 67.656 132.885 67.528L133.653 68.2C132.565 68.456 132.245 69.064 132.693 70.024C132.885 70.344 133.077 70.632 133.269 70.888C134.869 72.616 136.853 73.512 139.221 73.576C140.565 73.576 141.717 73.192 142.677 72.424C143.701 71.592 144.213 70.536 144.213 69.256C144.213 67.464 142.773 65.64 139.893 63.784C139.701 63.656 137.461 62.472 133.173 60.232C130.549 58.376 129.269 56.136 129.333 53.512C129.333 51.08 130.069 49.128 131.541 47.656C133.013 46.12 134.965 45.352 137.397 45.352C140.405 45.352 142.805 46.344 144.597 48.328C145.941 49.8 146.549 50.92 146.421 51.688C146.293 52.264 145.749 52.712 144.789 53.032C144.277 53.16 143.509 53.288 142.485 53.416L141.813 52.744L142.581 52.552C143.093 52.36 143.157 51.816 142.773 50.92C141.941 48.936 140.309 47.944 137.877 47.944C135.189 47.88 133.845 49.192 133.845 51.88ZM199.279 70.6C199.471 70.536 200.111 70.12 201.199 69.352L201.775 70.984C200.751 72.008 200.239 72.52 200.239 72.52C198.575 74.056 197.295 74.888 196.399 75.016C195.055 75.208 193.775 74.6 192.559 73.192C190.639 71.016 189.295 69.512 188.527 68.68C184.239 73.096 179.823 75.304 175.279 75.304C171.951 75.304 169.007 74.056 166.447 71.56C163.887 69 162.575 66.024 162.511 62.632C162.383 56.552 166.191 51.4 173.935 47.176C170.991 42.568 169.551 38.92 169.615 36.232C169.679 33.608 170.767 31.56 172.879 30.088C174.991 28.552 177.391 27.816 180.079 27.88C182.447 27.88 184.591 28.52 186.511 29.8C188.751 31.208 189.871 33.032 189.871 35.272C189.871 37.832 188.783 40.104 186.607 42.088C185.519 43.112 183.375 44.584 180.175 46.504C185.039 53.352 188.655 58.536 191.023 62.056C193.199 59.56 194.287 57.512 194.287 55.912C194.287 55.08 193.967 54.248 193.327 53.416C192.687 52.584 192.367 51.944 192.367 51.496C192.367 50.664 192.783 49.832 193.615 49C195.791 50.728 196.879 52.68 196.879 54.856C196.879 57.224 195.343 60.2 192.271 63.784C195.663 68.328 197.999 70.6 199.279 70.6ZM179.887 30.568C178.415 30.568 177.135 31.048 176.047 32.008C174.959 32.904 174.415 34.056 174.415 35.464C174.351 37.064 175.855 40.104 178.927 44.584C183.279 41.96 185.455 39.144 185.455 36.136C185.455 34.6 184.911 33.288 183.823 32.2C182.735 31.112 181.423 30.568 179.887 30.568ZM178.351 70.696C181.807 70.888 184.751 69.64 187.183 66.952C181.743 59.08 177.743 53.16 175.183 49.192C170.831 52.328 168.623 55.656 168.559 59.176C168.559 61.928 169.487 64.456 171.343 66.76C173.327 69.256 175.663 70.568 178.351 70.696ZM237.558 69.64L238.998 70.792C236.63 74.376 233.75 76.168 230.358 76.168C225.558 76.168 223.19 73.064 223.254 66.856L223.446 48.616L221.142 48.712C219.734 48.776 218.742 49.16 218.166 49.864C217.654 50.504 217.142 51.688 216.63 53.416H215.382L216.15 46.408H223.446V39.4C223.446 39.016 223.446 38.824 223.446 38.824C223.382 38.056 222.966 37.864 222.198 38.248C221.686 38.44 221.366 38.568 221.238 38.632V37.288C221.75 36.968 222.262 36.68 222.774 36.424C224.374 35.72 225.558 35.4 226.326 35.464C228.502 35.656 229.526 37.224 229.398 40.168V46.408L237.078 46.504H237.174V48.616H237.078V48.712H229.302L229.206 56.776L229.11 67.24C229.046 70.824 230.198 72.616 232.566 72.616C233.846 72.616 235.51 71.624 237.558 69.64ZM263.154 74.248C260.466 75.592 257.906 76.264 255.474 76.264C249.97 76.264 245.778 73.384 242.898 67.624C241.554 64.936 240.882 62.248 240.882 59.56C240.882 53.8 243.762 49.48 249.522 46.6C252.082 45.32 254.578 44.68 257.01 44.68C262.578 44.68 266.898 47.72 269.97 53.8C271.186 56.232 271.794 58.696 271.794 61.192C271.794 67.016 268.914 71.368 263.154 74.248ZM250.386 48.52C247.378 49.992 245.874 52.36 245.874 55.624C245.874 58.056 246.834 61.192 248.754 65.032C251.57 70.6 254.866 73.384 258.642 73.384C259.794 73.384 261.01 73.064 262.29 72.424C265.234 70.952 266.706 68.52 266.706 65.128C266.706 62.696 265.906 59.912 264.306 56.776C261.17 50.632 257.81 47.56 254.226 47.56C253.01 47.56 251.73 47.88 250.386 48.52ZM305.278 69.928L306.526 71.272L303.838 73.96C302.622 75.176 301.79 75.784 301.342 75.784C300.894 75.784 300.446 75.528 299.998 75.016C297.438 71.944 295.614 69.672 294.526 68.2L286.558 57.352L284.35 58.984V67.528C284.35 71.24 285.918 73.128 289.054 73.192L288.958 75.304L273.694 75.208V73.096C276.894 73.032 278.494 71.144 278.494 67.432L278.686 30.952C278.622 30.824 278.59 30.632 278.59 30.376C278.59 29.672 278.174 29.48 277.342 29.8L276.382 30.184V28.84C276.83 28.584 277.342 28.296 277.918 27.976C279.582 27.272 280.798 26.952 281.566 27.016C283.614 27.208 284.638 28.776 284.638 31.72H284.542L284.446 53.8L292.894 48.04C294.494 46.632 296.094 45.928 297.694 45.928C298.654 45.928 299.582 46.248 300.478 46.888C301.374 47.464 301.822 48.2 301.822 49.096C301.822 50.184 301.31 51.048 300.286 51.688C299.39 52.264 298.398 52.264 297.31 51.688C297.694 51.496 297.918 51.208 297.982 50.824C298.046 50.44 297.95 50.152 297.694 49.96C297.31 49.768 296.894 49.832 296.446 50.152C295.294 50.92 293.246 52.392 290.302 54.568L301.342 69.928C302.238 70.696 303.006 71.016 303.646 70.888C304.478 70.504 305.022 70.184 305.278 69.928ZM323.836 73.48C327.292 73.48 330.3 71.72 332.86 68.2L334.876 69.256C331.932 73.928 327.9 76.232 322.78 76.168C318.492 76.168 315.036 74.728 312.412 71.848C309.788 68.968 308.476 65.352 308.476 61C308.54 56.584 309.852 52.872 312.412 49.864C314.972 46.792 318.428 45.256 322.78 45.256C327.9 45.32 331.516 47.848 333.628 52.84H328.444C327.612 49.576 325.596 47.912 322.396 47.848C320.028 47.848 318.172 48.84 316.828 50.824C315.676 52.552 315.068 54.664 315.004 57.16H322.78V59.656L314.908 59.56C314.844 68.776 317.82 73.416 323.836 73.48ZM365.684 67.624C365.236 69.16 365.012 70.504 365.012 71.656C365.012 74.536 366.26 76.2 368.756 76.648L368.564 78.376C362.292 77.224 359.156 74.216 359.156 69.352C359.156 67.752 359.476 66.152 360.116 64.552C362.1 59.496 363.092 56.616 363.092 55.912C363.092 53.736 362.1 51.944 360.116 50.536C358.196 49.064 356.116 48.328 353.876 48.328C351.828 48.328 349.716 49.16 347.54 50.824L347.348 67.432C347.284 71.144 348.852 73.032 352.052 73.096V75.304L336.788 75.208V73C339.924 72.936 341.492 71.08 341.492 67.432L341.588 48.52C341.588 48.136 341.588 47.944 341.588 47.944C341.524 47.176 341.108 46.984 340.34 47.368L339.284 47.752L339.38 46.312C340.404 45.8 340.916 45.544 340.916 45.544C342.516 44.84 343.7 44.52 344.468 44.584C346.516 44.776 347.54 46.024 347.54 48.328C350.548 45.96 353.78 44.776 357.236 44.776C362.74 44.84 366.42 47.72 368.276 53.416C368.724 54.824 368.948 56.104 368.948 57.256C368.948 58.6 368.564 60.264 367.796 62.248C366.644 65.192 365.94 66.984 365.684 67.624ZM376.001 51.88C376.001 53.416 377.473 55.08 380.417 56.872C382.657 58.024 384.865 59.176 387.041 60.328C389.601 62.184 390.881 64.52 390.881 67.336C390.881 69.96 389.921 72.104 388.001 73.768C386.145 75.432 383.873 76.264 381.185 76.264C377.601 76.2 374.881 75.112 373.025 73C371.617 71.4 371.009 70.152 371.201 69.256C371.329 68.68 371.873 68.232 372.833 67.912C373.281 67.784 374.017 67.656 375.041 67.528L375.809 68.2C374.721 68.456 374.401 69.064 374.849 70.024C375.041 70.344 375.233 70.632 375.425 70.888C377.025 72.616 379.009 73.512 381.377 73.576C382.721 73.576 383.873 73.192 384.833 72.424C385.857 71.592 386.369 70.536 386.369 69.256C386.369 67.464 384.929 65.64 382.049 63.784C381.857 63.656 379.617 62.472 375.329 60.232C372.705 58.376 371.425 56.136 371.489 53.512C371.489 51.08 372.225 49.128 373.697 47.656C375.169 46.12 377.121 45.352 379.553 45.352C382.561 45.352 384.961 46.344 386.753 48.328C388.097 49.8 388.705 50.92 388.577 51.688C388.449 52.264 387.905 52.712 386.945 53.032C386.433 53.16 385.665 53.288 384.641 53.416L383.969 52.744L384.737 52.552C385.249 52.36 385.313 51.816 384.929 50.92C384.097 48.936 382.465 47.944 380.033 47.944C377.345 47.88 376.001 49.192 376.001 51.88Z" fill="black"/>
<path d="M142.949 127.091C142.954 127.063 142.959 127.036 142.966 127.009L143.004 126.848C143.062 126.635 143.13 126.423 143.217 126.219C143.257 126.115 143.306 126.017 143.353 125.916C143.377 125.866 143.404 125.817 143.429 125.768C143.455 125.719 143.479 125.67 143.508 125.622L143.591 125.478C143.618 125.43 143.649 125.385 143.678 125.337C143.708 125.291 143.736 125.243 143.768 125.198L143.862 125.061C144.374 124.339 145.012 123.718 145.707 123.185C145.794 123.118 145.883 123.054 145.971 122.988C146.06 122.925 146.15 122.863 146.24 122.8C146.331 122.739 146.423 122.68 146.515 122.62L146.794 122.448C147.17 122.224 147.556 122.02 147.951 121.834C148.346 121.648 148.75 121.483 149.159 121.335C149.569 121.188 149.985 121.059 150.404 120.946C151.243 120.721 152.099 120.565 152.96 120.468C153.39 120.42 153.822 120.386 154.255 120.368C154.363 120.362 154.471 120.361 154.579 120.357C154.633 120.356 154.687 120.354 154.741 120.353L154.876 120.352C152.854 120.056 150.66 120.05 148.807 120.612C145.372 121.654 141.936 122.696 138.5 123.738C140.131 121.499 143.461 119.742 147.339 119.076C151.217 118.41 155.567 118.847 158.886 120.235C159.927 120.671 161.042 121.04 162.205 121.34C161.91 121.208 161.63 121.07 161.371 120.929C159.927 120.146 158.912 119.262 157.614 118.441C156.315 117.619 154.552 116.807 152.602 116.533C154.415 116.333 156.906 117.084 158.484 117.952C160.062 118.82 161.065 119.811 162.463 120.724C163.067 121.118 163.801 121.511 164.611 121.847C166.127 122.099 167.694 122.237 169.266 122.253C170.54 122.265 171.791 121.787 172.324 121.084C172.857 120.381 172.621 119.388 171.777 118.807L171.778 118.806C171.583 118.659 171.484 118.465 171.567 118.28C171.746 117.882 172.687 117.706 173.202 117.975C174.875 118.846 174.872 120.549 173.53 121.61C172.188 122.672 169.85 123.134 167.649 123.08C165.448 123.027 163.346 122.526 161.347 121.963C159.694 121.497 158.065 120.982 156.349 120.618L156.19 120.611L155.87 120.603C155.763 120.6 155.656 120.601 155.549 120.6C154.695 120.603 153.84 120.647 152.993 120.758C152.569 120.813 152.147 120.878 151.728 120.959C151.309 121.039 150.892 121.134 150.48 121.245C150.068 121.355 149.659 121.481 149.257 121.624C148.854 121.765 148.458 121.925 148.068 122.101C147.679 122.277 147.297 122.471 146.926 122.684L146.649 122.848L146.377 123.018C146.288 123.077 146.198 123.136 146.109 123.195C146.021 123.257 145.933 123.317 145.846 123.38C145.498 123.632 145.166 123.906 144.852 124.199C144.539 124.494 144.243 124.809 143.98 125.153C143.716 125.495 143.48 125.861 143.293 126.255C143.196 126.45 143.118 126.654 143.048 126.861C142.978 127.069 142.928 127.283 142.887 127.5C142.902 127.391 142.911 127.28 142.934 127.172L142.949 127.091Z" fill="black"/>
<path d="M192.091 126.36C192.059 127.512 192.347 128.264 192.955 128.616C193.339 128.84 194.187 129 195.499 129.096V130.104L185.371 130.056V129C186.651 128.968 187.499 128.824 187.915 128.568C188.491 128.216 188.779 127.464 188.779 126.312L188.875 111.192C188.875 110.904 188.859 110.648 188.827 110.424V109.56C188.827 109.336 188.827 109.224 188.827 109.224C188.795 108.776 188.555 108.664 188.107 108.888L187.579 109.128V108.36C187.803 108.2 188.091 108.04 188.443 107.88C189.339 107.464 190.027 107.288 190.507 107.352C191.723 107.48 192.299 108.36 192.235 109.992L192.139 124.824L192.091 126.36ZM203.2 126.36C203.168 127.512 203.456 128.264 204.064 128.616C204.448 128.84 205.296 129 206.608 129.096V130.104L196.48 130.056V129C197.76 128.968 198.608 128.824 199.024 128.568C199.6 128.216 199.888 127.464 199.888 126.312L199.984 111.192C199.984 110.904 199.968 110.648 199.936 110.424V109.56C199.936 109.336 199.936 109.224 199.936 109.224C199.904 108.776 199.664 108.664 199.216 108.888L198.688 109.128V108.36C198.912 108.2 199.2 108.04 199.552 107.88C200.448 107.464 201.136 107.288 201.616 107.352C202.832 107.48 203.408 108.36 203.344 109.992L203.248 124.824L203.2 126.36Z" fill="black"/>
<path d="M249.051 127.091C249.046 127.063 249.041 127.036 249.034 127.009L248.996 126.848C248.938 126.635 248.87 126.423 248.783 126.219C248.743 126.115 248.694 126.017 248.647 125.916C248.623 125.866 248.596 125.817 248.571 125.768C248.545 125.719 248.521 125.67 248.492 125.622L248.409 125.478C248.382 125.43 248.351 125.385 248.322 125.337C248.292 125.291 248.264 125.243 248.232 125.198L248.138 125.061C247.626 124.339 246.988 123.718 246.293 123.185C246.206 123.118 246.117 123.054 246.029 122.988C245.94 122.925 245.85 122.863 245.76 122.8C245.669 122.739 245.577 122.68 245.485 122.62L245.206 122.448C244.83 122.224 244.444 122.02 244.049 121.834C243.654 121.648 243.25 121.483 242.841 121.335C242.431 121.188 242.015 121.059 241.596 120.946C240.757 120.721 239.901 120.565 239.04 120.468C238.61 120.42 238.178 120.386 237.745 120.368C237.637 120.362 237.529 120.361 237.421 120.357C237.367 120.356 237.313 120.354 237.259 120.353L237.124 120.352C239.146 120.056 241.34 120.05 243.193 120.612C246.628 121.654 250.064 122.696 253.5 123.738C251.869 121.499 248.539 119.742 244.661 119.076C240.783 118.41 236.433 118.847 233.114 120.235C232.073 120.671 230.958 121.04 229.795 121.34C230.09 121.208 230.37 121.07 230.629 120.929C232.073 120.146 233.088 119.262 234.386 118.441C235.685 117.619 237.448 116.807 239.398 116.533C237.585 116.333 235.094 117.084 233.516 117.952C231.938 118.82 230.935 119.811 229.537 120.724C228.933 121.118 228.199 121.511 227.389 121.847C225.873 122.099 224.306 122.237 222.734 122.253C221.46 122.265 220.209 121.787 219.676 121.084C219.143 120.381 219.379 119.388 220.223 118.807L220.222 118.806C220.417 118.659 220.516 118.465 220.433 118.28C220.254 117.882 219.313 117.706 218.798 117.975C217.125 118.846 217.128 120.549 218.47 121.61C219.812 122.672 222.15 123.134 224.351 123.08C226.552 123.027 228.654 122.526 230.653 121.963C232.306 121.497 233.935 120.982 235.651 120.618L235.81 120.611L236.13 120.603C236.237 120.6 236.344 120.601 236.451 120.6C237.305 120.603 238.16 120.647 239.007 120.758C239.431 120.813 239.853 120.878 240.272 120.959C240.691 121.039 241.108 121.134 241.52 121.245C241.932 121.355 242.341 121.481 242.743 121.624C243.146 121.765 243.542 121.925 243.932 122.101C244.321 122.277 244.703 122.471 245.074 122.684L245.351 122.848L245.623 123.018C245.712 123.077 245.802 123.136 245.891 123.195C245.979 123.257 246.067 123.317 246.154 123.38C246.502 123.632 246.834 123.906 247.148 124.199C247.461 124.494 247.757 124.809 248.02 125.153C248.284 125.495 248.52 125.861 248.707 126.255C248.804 126.45 248.882 126.654 248.952 126.861C249.022 127.069 249.072 127.283 249.113 127.5C249.098 127.391 249.089 127.28 249.066 127.172L249.051 127.091Z" fill="black"/>
</svg>
