<svg width="127" height="38" viewBox="0 0 127 38" fill="none" xmlns="http://www.w3.org/2000/svg">
<path d="M16.8125 37.4922C13.5 37.4922 10.6172 36.8047 8.16406 35.4297C5.71094 34.0391 3.8125 32.0781 2.46875 29.5469C1.14062 27 0.476562 23.9922 0.476562 20.5234V19.375C0.476562 16.0625 1.11719 13.1328 2.39844 10.5859C3.69531 8.02344 5.53906 6.01562 7.92969 4.5625C10.3203 3.10938 13.1641 2.38281 16.4609 2.38281C18.7734 2.38281 20.9375 2.71094 22.9531 3.36719C24.9844 4.02344 26.7969 5.02344 28.3906 6.36719V14.6172H23.3047L22.6016 9.4375C22.0859 9.0625 21.5234 8.74219 20.9141 8.47656C20.3047 8.21094 19.6406 8.00781 18.9219 7.86719C18.2188 7.72656 17.4531 7.65625 16.625 7.65625C14.6875 7.65625 13.0234 8.13281 11.6328 9.08594C10.2422 10.0391 9.17188 11.3906 8.42188 13.1406C7.6875 14.875 7.32031 16.9375 7.32031 19.3281V20.5234C7.32031 22.9141 7.71094 24.9844 8.49219 26.7344C9.27344 28.4844 10.3828 29.8438 11.8203 30.8125C13.2578 31.7656 14.9609 32.2422 16.9297 32.2422C17.9141 32.2422 18.8984 32.1328 19.8828 31.9141C20.8828 31.6797 21.7891 31.3828 22.6016 31.0234L23.3047 26.2188H28.3906V34.375C27.0625 35.25 25.4062 35.9922 23.4219 36.6016C21.4375 37.1953 19.2344 37.4922 16.8125 37.4922ZM43.8125 37.4922C41.3125 37.4922 39.1641 36.9453 37.3672 35.8516C35.5703 34.7578 34.1953 33.2422 33.2422 31.3047C32.2891 29.3516 31.8125 27.1094 31.8125 24.5781V24.0859C31.8125 21.5703 32.2891 19.3438 33.2422 17.4062C34.1953 15.4531 35.5625 13.9297 37.3438 12.8359C39.1406 11.7266 41.2812 11.1719 43.7656 11.1719C46.2812 11.1719 48.4297 11.7266 50.2109 12.8359C51.9922 13.9297 53.3594 15.4453 54.3125 17.3828C55.2656 19.3203 55.7422 21.5547 55.7422 24.0859V24.5781C55.7422 27.1094 55.2656 29.3516 54.3125 31.3047C53.3594 33.2422 51.9922 34.7578 50.2109 35.8516C48.4297 36.9453 46.2969 37.4922 43.8125 37.4922ZM43.8125 32.2422C45 32.2422 45.9688 31.9219 46.7188 31.2812C47.4688 30.6406 48.0234 29.75 48.3828 28.6094C48.7422 27.4531 48.9219 26.1094 48.9219 24.5781V24.0859C48.9219 22.5859 48.7422 21.2656 48.3828 20.125C48.0234 18.9688 47.4609 18.0703 46.6953 17.4297C45.9453 16.7734 44.9688 16.4453 43.7656 16.4453C42.5938 16.4453 41.625 16.7734 40.8594 17.4297C40.0938 18.0703 39.5312 18.9688 39.1719 20.125C38.8281 21.2656 38.6562 22.5859 38.6562 24.0859V24.5781C38.6562 26.1094 38.8281 27.4531 39.1719 28.6094C39.5312 29.7656 40.0938 30.6641 40.8594 31.3047C41.625 31.9297 42.6094 32.2422 43.8125 32.2422ZM58.6016 37V32.8984L61.9062 32.1953V16.4688L58.25 15.7656V11.6406H68.75V32.1953L72.0312 32.8984V37H58.6016ZM61.6719 6.27344V0.4375H68.75V6.27344H61.6719ZM74.0703 37V32.8984L77.3516 32.1953V16.4688L73.7188 15.7656V11.6406H83.7266L84.0312 15.2734C84.875 13.9766 85.9141 12.9688 87.1484 12.25C88.3984 11.5312 89.8203 11.1719 91.4141 11.1719C93.9297 11.1719 95.8984 11.9766 97.3203 13.5859C98.7422 15.1953 99.4531 17.7188 99.4531 21.1562V32.1953L102.734 32.8984V37H89.6562V32.8984L92.5859 32.1953V21.1797C92.5859 19.4766 92.25 18.2734 91.5781 17.5703C90.9062 16.8516 89.9062 16.4922 88.5781 16.4922C87.5938 16.4922 86.7344 16.7031 86 17.125C85.2812 17.5312 84.6797 18.1172 84.1953 18.8828V32.1953L86.9609 32.8984V37H74.0703ZM115.859 37.4922C113.969 37.4922 112.203 37.3125 110.562 36.9531C108.938 36.5938 107.375 36.0781 105.875 35.4062L105.805 28.2344H110.562L111.477 31.8906C112.008 32.1562 112.586 32.3672 113.211 32.5234C113.852 32.6797 114.578 32.7578 115.391 32.7578C116.922 32.7578 118 32.5078 118.625 32.0078C119.25 31.5078 119.562 30.8828 119.562 30.1328C119.562 29.4297 119.227 28.8125 118.555 28.2812C117.898 27.7344 116.578 27.2578 114.594 26.8516C111.594 26.2266 109.383 25.2578 107.961 23.9453C106.539 22.6328 105.828 20.9531 105.828 18.9062C105.828 17.5 106.18 16.2188 106.883 15.0625C107.602 13.9062 108.688 12.9766 110.141 12.2734C111.609 11.5703 113.484 11.2188 115.766 11.2188C117.672 11.2188 119.414 11.4062 120.992 11.7812C122.586 12.1406 123.922 12.6172 125 13.2109L125.07 20.1484H120.336L119.609 16.8203C119.188 16.5078 118.688 16.2734 118.109 16.1172C117.547 15.9609 116.906 15.8828 116.188 15.8828C114.984 15.8828 114.062 16.125 113.422 16.6094C112.781 17.0938 112.461 17.7188 112.461 18.4844C112.461 18.9219 112.57 19.3281 112.789 19.7031C113.023 20.0781 113.477 20.4297 114.148 20.7578C114.82 21.0859 115.797 21.3984 117.078 21.6953C120.219 22.4141 122.508 23.375 123.945 24.5781C125.383 25.7656 126.102 27.4375 126.102 29.5938C126.102 31.9531 125.242 33.8594 123.523 35.3125C121.82 36.7656 119.266 37.4922 115.859 37.4922Z" fill="black"/>
</svg>
