<svg width="189" height="48" viewBox="0 0 189 48" fill="none" xmlns="http://www.w3.org/2000/svg">
<path d="M16.8516 37.4922C13.5391 37.4922 10.6562 36.8047 8.20312 35.4297C5.75 34.0391 3.85156 32.0781 2.50781 29.5469C1.17969 27 0.515625 23.9922 0.515625 20.5234V19.375C0.515625 16.0625 1.15625 13.1328 2.4375 10.5859C3.73438 8.02344 5.57812 6.01562 7.96875 4.5625C10.3594 3.10938 13.2031 2.38281 16.5 2.38281C18.8125 2.38281 20.9766 2.71094 22.9922 3.36719C25.0234 4.02344 26.8359 5.02344 28.4297 6.36719V14.6172H23.3438L22.6406 9.4375C22.125 9.0625 21.5625 8.74219 20.9531 8.47656C20.3438 8.21094 19.6797 8.00781 18.9609 7.86719C18.2578 7.72656 17.4922 7.65625 16.6641 7.65625C14.7266 7.65625 13.0625 8.13281 11.6719 9.08594C10.2812 10.0391 9.21094 11.3906 8.46094 13.1406C7.72656 14.875 7.35938 16.9375 7.35938 19.3281V20.5234C7.35938 22.9141 7.75 24.9844 8.53125 26.7344C9.3125 28.4844 10.4219 29.8438 11.8594 30.8125C13.2969 31.7656 15 32.2422 16.9688 32.2422C17.9531 32.2422 18.9375 32.1328 19.9219 31.9141C20.9219 31.6797 21.8281 31.3828 22.6406 31.0234L23.3438 26.2188H28.4297V34.375C27.1016 35.25 25.4453 35.9922 23.4609 36.6016C21.4766 37.1953 19.2734 37.4922 16.8516 37.4922ZM32.2734 37V32.8984L35.5547 32.1953V16.4688L31.9219 15.7656V11.6406H41.9297L42.1875 14.7812L42.2344 15.3438C42.8594 13.9688 43.6328 12.9297 44.5547 12.2266C45.4766 11.5234 46.5781 11.1719 47.8594 11.1719C48.2656 11.1719 48.7109 11.2109 49.1953 11.2891C49.6797 11.3516 50.1094 11.4375 50.4844 11.5469L49.7578 17.8516L46.3594 17.6641C45.3906 17.6172 44.6016 17.7812 43.9922 18.1562C43.3984 18.5312 42.8672 19.0703 42.3984 19.7734V32.1953L45.6797 32.8984V37H32.2734ZM59.9766 47.2422C59.3828 47.2422 58.75 47.1875 58.0781 47.0781C57.4219 46.9844 56.7969 46.8516 56.2031 46.6797L56.9766 41.6641C57.2734 41.7266 57.6016 41.7734 57.9609 41.8047C58.3203 41.8359 58.6328 41.8516 58.8984 41.8516C59.8828 41.8516 60.7344 41.5938 61.4531 41.0781C62.1719 40.5625 62.6953 39.8203 63.0234 38.8516L63.5859 37.2812L55.1016 16.2109L51.9844 15.7656V11.6406H65.4375V15.7656L62.3438 16.2344L66.3281 27.4141L66.8203 28.7969H66.9609L71.6719 16.1875L68.6484 15.7656V11.6406H81.1875V15.7656L78.3281 16.1641L68.6484 40.7734C68.1797 41.9453 67.5781 43.0156 66.8438 43.9844C66.125 44.9688 65.2031 45.7578 64.0781 46.3516C62.9688 46.9453 61.6016 47.2422 59.9766 47.2422ZM93.9609 37.4922C92.0703 37.4922 90.3047 37.3125 88.6641 36.9531C87.0391 36.5938 85.4766 36.0781 83.9766 35.4062L83.9062 28.2344H88.6641L89.5781 31.8906C90.1094 32.1562 90.6875 32.3672 91.3125 32.5234C91.9531 32.6797 92.6797 32.7578 93.4922 32.7578C95.0234 32.7578 96.1016 32.5078 96.7266 32.0078C97.3516 31.5078 97.6641 30.8828 97.6641 30.1328C97.6641 29.4297 97.3281 28.8125 96.6562 28.2812C96 27.7344 94.6797 27.2578 92.6953 26.8516C89.6953 26.2266 87.4844 25.2578 86.0625 23.9453C84.6406 22.6328 83.9297 20.9531 83.9297 18.9062C83.9297 17.5 84.2812 16.2188 84.9844 15.0625C85.7031 13.9062 86.7891 12.9766 88.2422 12.2734C89.7109 11.5703 91.5859 11.2188 93.8672 11.2188C95.7734 11.2188 97.5156 11.4062 99.0938 11.7812C100.688 12.1406 102.023 12.6172 103.102 13.2109L103.172 20.1484H98.4375L97.7109 16.8203C97.2891 16.5078 96.7891 16.2734 96.2109 16.1172C95.6484 15.9609 95.0078 15.8828 94.2891 15.8828C93.0859 15.8828 92.1641 16.125 91.5234 16.6094C90.8828 17.0938 90.5625 17.7188 90.5625 18.4844C90.5625 18.9219 90.6719 19.3281 90.8906 19.7031C91.125 20.0781 91.5781 20.4297 92.25 20.7578C92.9219 21.0859 93.8984 21.3984 95.1797 21.6953C98.3203 22.4141 100.609 23.375 102.047 24.5781C103.484 25.7656 104.203 27.4375 104.203 29.5938C104.203 31.9531 103.344 33.8594 101.625 35.3125C99.9219 36.7656 97.3672 37.4922 93.9609 37.4922ZM117.281 37.4922C114.922 37.4922 113.102 36.8438 111.82 35.5469C110.555 34.25 109.922 32.1953 109.922 29.3828V16.4453H106.43V11.6406H109.922V5.42969H116.742V11.6406H121.406V16.4453H116.742V29.3594C116.742 30.3438 116.945 31.0469 117.352 31.4688C117.773 31.8906 118.344 32.1016 119.062 32.1016C119.453 32.1016 119.859 32.0781 120.281 32.0312C120.719 31.9688 121.094 31.9062 121.406 31.8438L121.992 36.7891C121.289 36.9922 120.523 37.1562 119.695 37.2812C118.883 37.4219 118.078 37.4922 117.281 37.4922ZM133.055 37.4922C130.539 37.4922 128.539 36.8203 127.055 35.4766C125.57 34.1172 124.828 32.2734 124.828 29.9453C124.828 28.3516 125.258 26.9531 126.117 25.75C126.992 24.5469 128.273 23.6016 129.961 22.9141C131.664 22.2266 133.758 21.8828 136.242 21.8828H139.594V20.0078C139.594 18.7891 139.234 17.8047 138.516 17.0547C137.812 16.2891 136.75 15.9062 135.328 15.9062C134.594 15.9062 133.938 16 133.359 16.1875C132.781 16.3594 132.25 16.6094 131.766 16.9375L131.227 20.2891H126.305L126.211 13.7031C127.539 12.9531 128.977 12.3438 130.523 11.875C132.07 11.4062 133.797 11.1719 135.703 11.1719C139.016 11.1719 141.633 11.9453 143.555 13.4922C145.477 15.0234 146.438 17.2188 146.438 20.0781V30.5312C146.438 30.875 146.438 31.2188 146.438 31.5625C146.453 31.8906 146.484 32.2109 146.531 32.5234L149.18 32.8984V37H140.695C140.523 36.5625 140.352 36.0938 140.18 35.5938C140.008 35.0938 139.883 34.5938 139.805 34.0938C138.992 35.125 138.031 35.9531 136.922 36.5781C135.828 37.1875 134.539 37.4922 133.055 37.4922ZM134.883 32.4297C135.836 32.4297 136.742 32.2188 137.602 31.7969C138.461 31.3594 139.125 30.7891 139.594 30.0859V26.0781H136.219C134.719 26.0781 133.578 26.4219 132.797 27.1094C132.031 27.7969 131.648 28.625 131.648 29.5938C131.648 30.5 131.93 31.2031 132.492 31.7031C133.07 32.1875 133.867 32.4297 134.883 32.4297ZM151.242 37V32.8984L154.547 32.1953V5.26562L150.891 4.5625V0.4375H161.391V32.1953L164.695 32.8984V37H151.242ZM177.82 37.4922C175.93 37.4922 174.164 37.3125 172.523 36.9531C170.898 36.5938 169.336 36.0781 167.836 35.4062L167.766 28.2344H172.523L173.438 31.8906C173.969 32.1562 174.547 32.3672 175.172 32.5234C175.812 32.6797 176.539 32.7578 177.352 32.7578C178.883 32.7578 179.961 32.5078 180.586 32.0078C181.211 31.5078 181.523 30.8828 181.523 30.1328C181.523 29.4297 181.188 28.8125 180.516 28.2812C179.859 27.7344 178.539 27.2578 176.555 26.8516C173.555 26.2266 171.344 25.2578 169.922 23.9453C168.5 22.6328 167.789 20.9531 167.789 18.9062C167.789 17.5 168.141 16.2188 168.844 15.0625C169.562 13.9062 170.648 12.9766 172.102 12.2734C173.57 11.5703 175.445 11.2188 177.727 11.2188C179.633 11.2188 181.375 11.4062 182.953 11.7812C184.547 12.1406 185.883 12.6172 186.961 13.2109L187.031 20.1484H182.297L181.57 16.8203C181.148 16.5078 180.648 16.2734 180.07 16.1172C179.508 15.9609 178.867 15.8828 178.148 15.8828C176.945 15.8828 176.023 16.125 175.383 16.6094C174.742 17.0938 174.422 17.7188 174.422 18.4844C174.422 18.9219 174.531 19.3281 174.75 19.7031C174.984 20.0781 175.438 20.4297 176.109 20.7578C176.781 21.0859 177.758 21.3984 179.039 21.6953C182.18 22.4141 184.469 23.375 185.906 24.5781C187.344 25.7656 188.062 27.4375 188.062 29.5938C188.062 31.9531 187.203 33.8594 185.484 35.3125C183.781 36.7656 181.227 37.4922 177.82 37.4922Z" fill="black"/>
</svg>
