<svg width="189" height="46" viewBox="0 0 189 46" fill="none" xmlns="http://www.w3.org/2000/svg">
<path d="M0.539062 35V30.8984L4.21875 30.125V5.79688L0.539062 5V0.875H4.21875H15.5156C18.5625 0.875 21.25 1.59375 23.5781 3.03125C25.9062 4.45312 27.7188 6.42969 29.0156 8.96094C30.3281 11.4766 30.9844 14.3672 30.9844 17.6328V18.2656C30.9844 21.5 30.3359 24.3828 29.0391 26.9141C27.7578 29.4297 25.9609 31.4062 23.6484 32.8438C21.3359 34.2812 18.6562 35 15.6094 35H0.539062ZM11.0625 29.7734H15.2578C17.1484 29.7734 18.75 29.2812 20.0625 28.2969C21.375 27.2969 22.375 25.9297 23.0625 24.1953C23.7656 22.4609 24.1172 20.4844 24.1172 18.2656V17.6094C24.1172 15.3594 23.7656 13.375 23.0625 11.6562C22.375 9.92188 21.375 8.57031 20.0625 7.60156C18.75 6.61719 17.1484 6.125 15.2578 6.125H11.0625V29.7734ZM34.6406 35V30.8984L37.9219 30.1953V14.4688L34.2891 13.7656V9.64062H44.2969L44.5547 12.7812L44.6016 13.3438C45.2266 11.9688 46 10.9297 46.9219 10.2266C47.8438 9.52344 48.9453 9.17188 50.2266 9.17188C50.6328 9.17188 51.0781 9.21094 51.5625 9.28906C52.0469 9.35156 52.4766 9.4375 52.8516 9.54688L52.125 15.8516L48.7266 15.6641C47.7578 15.6172 46.9688 15.7812 46.3594 16.1562C45.7656 16.5312 45.2344 17.0703 44.7656 17.7734V30.1953L48.0469 30.8984V35H34.6406ZM62.9062 35.4922C60.3906 35.4922 58.3906 34.8203 56.9062 33.4766C55.4219 32.1172 54.6797 30.2734 54.6797 27.9453C54.6797 26.3516 55.1094 24.9531 55.9688 23.75C56.8438 22.5469 58.125 21.6016 59.8125 20.9141C61.5156 20.2266 63.6094 19.8828 66.0938 19.8828H69.4453V18.0078C69.4453 16.7891 69.0859 15.8047 68.3672 15.0547C67.6641 14.2891 66.6016 13.9062 65.1797 13.9062C64.4453 13.9062 63.7891 14 63.2109 14.1875C62.6328 14.3594 62.1016 14.6094 61.6172 14.9375L61.0781 18.2891H56.1562L56.0625 11.7031C57.3906 10.9531 58.8281 10.3438 60.375 9.875C61.9219 9.40625 63.6484 9.17188 65.5547 9.17188C68.8672 9.17188 71.4844 9.94531 73.4062 11.4922C75.3281 13.0234 76.2891 15.2188 76.2891 18.0781V28.5312C76.2891 28.875 76.2891 29.2188 76.2891 29.5625C76.3047 29.8906 76.3359 30.2109 76.3828 30.5234L79.0312 30.8984V35H70.5469C70.375 34.5625 70.2031 34.0938 70.0312 33.5938C69.8594 33.0938 69.7344 32.5938 69.6562 32.0938C68.8438 33.125 67.8828 33.9531 66.7734 34.5781C65.6797 35.1875 64.3906 35.4922 62.9062 35.4922ZM64.7344 30.4297C65.6875 30.4297 66.5938 30.2188 67.4531 29.7969C68.3125 29.3594 68.9766 28.7891 69.4453 28.0859V24.0781H66.0703C64.5703 24.0781 63.4297 24.4219 62.6484 25.1094C61.8828 25.7969 61.5 26.625 61.5 27.5938C61.5 28.5 61.7812 29.2031 62.3438 29.7031C62.9219 30.1875 63.7188 30.4297 64.7344 30.4297ZM92.6484 45.2422C91.3672 45.2422 89.9297 45.0781 88.3359 44.75C86.7422 44.4219 85.3359 43.9531 84.1172 43.3438L85.3828 38.4688C86.4766 38.9375 87.6328 39.3047 88.8516 39.5703C90.0859 39.8516 91.2344 39.9922 92.2969 39.9922C94.125 39.9922 95.4609 39.4844 96.3047 38.4688C97.1641 37.4531 97.5938 36.0391 97.5938 34.2266V32.5625C96.8438 33.5156 95.9609 34.2422 94.9453 34.7422C93.9297 35.2422 92.7656 35.4922 91.4531 35.4922C89.3906 35.4922 87.6172 34.9766 86.1328 33.9453C84.6484 32.8984 83.5156 31.4375 82.7344 29.5625C81.9531 27.6875 81.5625 25.5078 81.5625 23.0234V22.5312C81.5625 19.8594 81.9531 17.5234 82.7344 15.5234C83.5156 13.5234 84.6328 11.9688 86.0859 10.8594C87.5391 9.73438 89.2812 9.17188 91.3125 9.17188C92.8281 9.17188 94.1328 9.49219 95.2266 10.1328C96.3203 10.7578 97.25 11.6562 98.0156 12.8281L98.5078 9.64062H104.461V34.25C104.461 36.4844 103.984 38.4219 103.031 40.0625C102.094 41.7031 100.742 42.9766 98.9766 43.8828C97.2109 44.7891 95.1016 45.2422 92.6484 45.2422ZM93.375 30.1719C94.3438 30.1719 95.1797 29.9844 95.8828 29.6094C96.5859 29.2188 97.1562 28.6562 97.5938 27.9219V16.9062C97.1562 16.1406 96.5781 15.5469 95.8594 15.125C95.1562 14.7031 94.3359 14.4922 93.3984 14.4922C92.2266 14.4922 91.2734 14.8359 90.5391 15.5234C89.8047 16.1953 89.2656 17.1328 88.9219 18.3359C88.5781 19.5234 88.4062 20.9219 88.4062 22.5312V23.0234C88.4062 25.2422 88.7891 26.9922 89.5547 28.2734C90.3203 29.5391 91.5938 30.1719 93.375 30.1719ZM103.594 14.5859L100.617 9.64062H107.438V13.7656L103.594 14.5859ZM121.359 35.4922C118.859 35.4922 116.711 34.9453 114.914 33.8516C113.117 32.7578 111.742 31.2422 110.789 29.3047C109.836 27.3516 109.359 25.1094 109.359 22.5781V22.0859C109.359 19.5703 109.836 17.3438 110.789 15.4062C111.742 13.4531 113.109 11.9297 114.891 10.8359C116.688 9.72656 118.828 9.17188 121.312 9.17188C123.828 9.17188 125.977 9.72656 127.758 10.8359C129.539 11.9297 130.906 13.4453 131.859 15.3828C132.812 17.3203 133.289 19.5547 133.289 22.0859V22.5781C133.289 25.1094 132.812 27.3516 131.859 29.3047C130.906 31.2422 129.539 32.7578 127.758 33.8516C125.977 34.9453 123.844 35.4922 121.359 35.4922ZM121.359 30.2422C122.547 30.2422 123.516 29.9219 124.266 29.2812C125.016 28.6406 125.57 27.75 125.93 26.6094C126.289 25.4531 126.469 24.1094 126.469 22.5781V22.0859C126.469 20.5859 126.289 19.2656 125.93 18.125C125.57 16.9688 125.008 16.0703 124.242 15.4297C123.492 14.7734 122.516 14.4453 121.312 14.4453C120.141 14.4453 119.172 14.7734 118.406 15.4297C117.641 16.0703 117.078 16.9688 116.719 18.125C116.375 19.2656 116.203 20.5859 116.203 22.0859V22.5781C116.203 24.1094 116.375 25.4531 116.719 26.6094C117.078 27.7656 117.641 28.6641 118.406 29.3047C119.172 29.9297 120.156 30.2422 121.359 30.2422ZM136.102 35V30.8984L139.383 30.1953V14.4688L135.75 13.7656V9.64062H145.758L146.062 13.2734C146.906 11.9766 147.945 10.9688 149.18 10.25C150.43 9.53125 151.852 9.17188 153.445 9.17188C155.961 9.17188 157.93 9.97656 159.352 11.5859C160.773 13.1953 161.484 15.7188 161.484 19.1562V30.1953L164.766 30.8984V35H151.688V30.8984L154.617 30.1953V19.1797C154.617 17.4766 154.281 16.2734 153.609 15.5703C152.938 14.8516 151.938 14.4922 150.609 14.4922C149.625 14.4922 148.766 14.7031 148.031 15.125C147.312 15.5312 146.711 16.1172 146.227 16.8828V30.1953L148.992 30.8984V35H136.102ZM177.891 35.4922C176 35.4922 174.234 35.3125 172.594 34.9531C170.969 34.5938 169.406 34.0781 167.906 33.4062L167.836 26.2344H172.594L173.508 29.8906C174.039 30.1562 174.617 30.3672 175.242 30.5234C175.883 30.6797 176.609 30.7578 177.422 30.7578C178.953 30.7578 180.031 30.5078 180.656 30.0078C181.281 29.5078 181.594 28.8828 181.594 28.1328C181.594 27.4297 181.258 26.8125 180.586 26.2812C179.93 25.7344 178.609 25.2578 176.625 24.8516C173.625 24.2266 171.414 23.2578 169.992 21.9453C168.57 20.6328 167.859 18.9531 167.859 16.9062C167.859 15.5 168.211 14.2188 168.914 13.0625C169.633 11.9062 170.719 10.9766 172.172 10.2734C173.641 9.57031 175.516 9.21875 177.797 9.21875C179.703 9.21875 181.445 9.40625 183.023 9.78125C184.617 10.1406 185.953 10.6172 187.031 11.2109L187.102 18.1484H182.367L181.641 14.8203C181.219 14.5078 180.719 14.2734 180.141 14.1172C179.578 13.9609 178.938 13.8828 178.219 13.8828C177.016 13.8828 176.094 14.125 175.453 14.6094C174.812 15.0938 174.492 15.7188 174.492 16.4844C174.492 16.9219 174.602 17.3281 174.82 17.7031C175.055 18.0781 175.508 18.4297 176.18 18.7578C176.852 19.0859 177.828 19.3984 179.109 19.6953C182.25 20.4141 184.539 21.375 185.977 22.5781C187.414 23.7656 188.133 25.4375 188.133 27.5938C188.133 29.9531 187.273 31.8594 185.555 33.3125C183.852 34.7656 181.297 35.4922 177.891 35.4922Z" fill="black"/>
</svg>
