<svg width="109" height="46" viewBox="0 0 109 46" fill="none" xmlns="http://www.w3.org/2000/svg">
<path d="M0.523438 35V30.8984L4.15625 30.1953V5.70312L0.523438 5V0.875H27.0078V10.0859H21.7578L21.4531 6.14844H11V14.7266H22.5547V20H11V29.75H22.0156L22.3203 25.6719H27.5234V35H0.523438ZM42.0547 45.2422C40.7734 45.2422 39.3359 45.0781 37.7422 44.75C36.1484 44.4219 34.7422 43.9531 33.5234 43.3438L34.7891 38.4688C35.8828 38.9375 37.0391 39.3047 38.2578 39.5703C39.4922 39.8516 40.6406 39.9922 41.7031 39.9922C43.5312 39.9922 44.8672 39.4844 45.7109 38.4688C46.5703 37.4531 47 36.0391 47 34.2266V32.5625C46.25 33.5156 45.3672 34.2422 44.3516 34.7422C43.3359 35.2422 42.1719 35.4922 40.8594 35.4922C38.7969 35.4922 37.0234 34.9766 35.5391 33.9453C34.0547 32.8984 32.9219 31.4375 32.1406 29.5625C31.3594 27.6875 30.9688 25.5078 30.9688 23.0234V22.5312C30.9688 19.8594 31.3594 17.5234 32.1406 15.5234C32.9219 13.5234 34.0391 11.9688 35.4922 10.8594C36.9453 9.73438 38.6875 9.17188 40.7188 9.17188C42.2344 9.17188 43.5391 9.49219 44.6328 10.1328C45.7266 10.7578 46.6562 11.6562 47.4219 12.8281L47.9141 9.64062H53.8672V34.25C53.8672 36.4844 53.3906 38.4219 52.4375 40.0625C51.5 41.7031 50.1484 42.9766 48.3828 43.8828C46.6172 44.7891 44.5078 45.2422 42.0547 45.2422ZM42.7812 30.1719C43.75 30.1719 44.5859 29.9844 45.2891 29.6094C45.9922 29.2188 46.5625 28.6562 47 27.9219V16.9062C46.5625 16.1406 45.9844 15.5469 45.2656 15.125C44.5625 14.7031 43.7422 14.4922 42.8047 14.4922C41.6328 14.4922 40.6797 14.8359 39.9453 15.5234C39.2109 16.1953 38.6719 17.1328 38.3281 18.3359C37.9844 19.5234 37.8125 20.9219 37.8125 22.5312V23.0234C37.8125 25.2422 38.1953 26.9922 38.9609 28.2734C39.7266 29.5391 41 30.1719 42.7812 30.1719ZM53 14.5859L50.0234 9.64062H56.8438V13.7656L53 14.5859ZM70.1328 45.2422C68.8516 45.2422 67.4141 45.0781 65.8203 44.75C64.2266 44.4219 62.8203 43.9531 61.6016 43.3438L62.8672 38.4688C63.9609 38.9375 65.1172 39.3047 66.3359 39.5703C67.5703 39.8516 68.7188 39.9922 69.7812 39.9922C71.6094 39.9922 72.9453 39.4844 73.7891 38.4688C74.6484 37.4531 75.0781 36.0391 75.0781 34.2266V32.5625C74.3281 33.5156 73.4453 34.2422 72.4297 34.7422C71.4141 35.2422 70.25 35.4922 68.9375 35.4922C66.875 35.4922 65.1016 34.9766 63.6172 33.9453C62.1328 32.8984 61 31.4375 60.2188 29.5625C59.4375 27.6875 59.0469 25.5078 59.0469 23.0234V22.5312C59.0469 19.8594 59.4375 17.5234 60.2188 15.5234C61 13.5234 62.1172 11.9688 63.5703 10.8594C65.0234 9.73438 66.7656 9.17188 68.7969 9.17188C70.3125 9.17188 71.6172 9.49219 72.7109 10.1328C73.8047 10.7578 74.7344 11.6562 75.5 12.8281L75.9922 9.64062H81.9453V34.25C81.9453 36.4844 81.4688 38.4219 80.5156 40.0625C79.5781 41.7031 78.2266 42.9766 76.4609 43.8828C74.6953 44.7891 72.5859 45.2422 70.1328 45.2422ZM70.8594 30.1719C71.8281 30.1719 72.6641 29.9844 73.3672 29.6094C74.0703 29.2188 74.6406 28.6562 75.0781 27.9219V16.9062C74.6406 16.1406 74.0625 15.5469 73.3438 15.125C72.6406 14.7031 71.8203 14.4922 70.8828 14.4922C69.7109 14.4922 68.7578 14.8359 68.0234 15.5234C67.2891 16.1953 66.75 17.1328 66.4062 18.3359C66.0625 19.5234 65.8906 20.9219 65.8906 22.5312V23.0234C65.8906 25.2422 66.2734 26.9922 67.0391 28.2734C67.8047 29.5391 69.0781 30.1719 70.8594 30.1719ZM81.0781 14.5859L78.1016 9.64062H84.9219V13.7656L81.0781 14.5859ZM97.9062 35.4922C96.0156 35.4922 94.25 35.3125 92.6094 34.9531C90.9844 34.5938 89.4219 34.0781 87.9219 33.4062L87.8516 26.2344H92.6094L93.5234 29.8906C94.0547 30.1562 94.6328 30.3672 95.2578 30.5234C95.8984 30.6797 96.625 30.7578 97.4375 30.7578C98.9688 30.7578 100.047 30.5078 100.672 30.0078C101.297 29.5078 101.609 28.8828 101.609 28.1328C101.609 27.4297 101.273 26.8125 100.602 26.2812C99.9453 25.7344 98.625 25.2578 96.6406 24.8516C93.6406 24.2266 91.4297 23.2578 90.0078 21.9453C88.5859 20.6328 87.875 18.9531 87.875 16.9062C87.875 15.5 88.2266 14.2188 88.9297 13.0625C89.6484 11.9062 90.7344 10.9766 92.1875 10.2734C93.6562 9.57031 95.5312 9.21875 97.8125 9.21875C99.7188 9.21875 101.461 9.40625 103.039 9.78125C104.633 10.1406 105.969 10.6172 107.047 11.2109L107.117 18.1484H102.383L101.656 14.8203C101.234 14.5078 100.734 14.2734 100.156 14.1172C99.5938 13.9609 98.9531 13.8828 98.2344 13.8828C97.0312 13.8828 96.1094 14.125 95.4688 14.6094C94.8281 15.0938 94.5078 15.7188 94.5078 16.4844C94.5078 16.9219 94.6172 17.3281 94.8359 17.7031C95.0703 18.0781 95.5234 18.4297 96.1953 18.7578C96.8672 19.0859 97.8438 19.3984 99.125 19.6953C102.266 20.4141 104.555 21.375 105.992 22.5781C107.43 23.7656 108.148 25.4375 108.148 27.5938C108.148 29.9531 107.289 31.8594 105.57 33.3125C103.867 34.7656 101.312 35.4922 97.9062 35.4922Z" fill="black"/>
</svg>
