<svg width="102" height="38" viewBox="0 0 102 38" fill="none" xmlns="http://www.w3.org/2000/svg">
<path d="M16.3984 37.4922C13.0078 37.4922 10.1172 36.7891 7.72656 35.3828C5.33594 33.9766 3.5 32.0234 2.21875 29.5234C0.953125 27.0234 0.320312 24.125 0.320312 20.8281V19.6562C0.320312 16.25 0.953125 13.25 2.21875 10.6562C3.48438 8.0625 5.27344 6.03906 7.58594 4.58594C9.91406 3.11719 12.6641 2.38281 15.8359 2.38281C18.2891 2.38281 20.5938 2.71875 22.75 3.39062C24.9062 4.0625 26.7812 5.07031 28.375 6.41406V13.9844H23.3125L22.3516 9.41406C21.7422 8.88281 20.9219 8.46094 19.8906 8.14844C18.8594 7.82031 17.6797 7.65625 16.3516 7.65625C14.4453 7.65625 12.7969 8.16406 11.4062 9.17969C10.0312 10.1797 8.97656 11.5781 8.24219 13.375C7.50781 15.1562 7.14062 17.2344 7.14062 19.6094V20.8281C7.14062 23.1406 7.5 25.1562 8.21875 26.875C8.95312 28.5781 10.0234 29.8984 11.4297 30.8359C12.8359 31.7734 14.5625 32.2422 16.6094 32.2422C17.8125 32.2422 18.9141 32.1328 19.9141 31.9141C20.9297 31.6797 21.7656 31.3984 22.4219 31.0703V25.2812L17.5469 24.9062V20.1016H29.2891V33.9062C27.7734 34.9844 25.9453 35.8516 23.8047 36.5078C21.6797 37.1641 19.2109 37.4922 16.3984 37.4922ZM44.9922 37.4922C42.4922 37.4922 40.3438 36.9453 38.5469 35.8516C36.75 34.7578 35.375 33.2422 34.4219 31.3047C33.4688 29.3516 32.9922 27.1094 32.9922 24.5781V24.0859C32.9922 21.5703 33.4688 19.3438 34.4219 17.4062C35.375 15.4531 36.7422 13.9297 38.5234 12.8359C40.3203 11.7266 42.4609 11.1719 44.9453 11.1719C47.4609 11.1719 49.6094 11.7266 51.3906 12.8359C53.1719 13.9297 54.5391 15.4453 55.4922 17.3828C56.4453 19.3203 56.9219 21.5547 56.9219 24.0859V24.5781C56.9219 27.1094 56.4453 29.3516 55.4922 31.3047C54.5391 33.2422 53.1719 34.7578 51.3906 35.8516C49.6094 36.9453 47.4766 37.4922 44.9922 37.4922ZM44.9922 32.2422C46.1797 32.2422 47.1484 31.9219 47.8984 31.2812C48.6484 30.6406 49.2031 29.75 49.5625 28.6094C49.9219 27.4531 50.1016 26.1094 50.1016 24.5781V24.0859C50.1016 22.5859 49.9219 21.2656 49.5625 20.125C49.2031 18.9688 48.6406 18.0703 47.875 17.4297C47.125 16.7734 46.1484 16.4453 44.9453 16.4453C43.7734 16.4453 42.8047 16.7734 42.0391 17.4297C41.2734 18.0703 40.7109 18.9688 40.3516 20.125C40.0078 21.2656 39.8359 22.5859 39.8359 24.0859V24.5781C39.8359 26.1094 40.0078 27.4531 40.3516 28.6094C40.7109 29.7656 41.2734 30.6641 42.0391 31.3047C42.8047 31.9297 43.7891 32.2422 44.9922 32.2422ZM59.1484 37V32.8984L62.4531 32.1953V5.26562L58.7969 4.5625V0.4375H69.2969V32.1953L72.6016 32.8984V37H59.1484ZM84.6016 37.4922C82.5859 37.4922 80.8516 36.9766 79.3984 35.9453C77.9609 34.8984 76.8594 33.4453 76.0938 31.5859C75.3281 29.7109 74.9453 27.5234 74.9453 25.0234V24.5312C74.9453 21.8594 75.3281 19.5234 76.0938 17.5234C76.875 15.5234 77.9844 13.9688 79.4219 12.8594C80.8594 11.7344 82.5781 11.1719 84.5781 11.1719C85.9688 11.1719 87.1875 11.4531 88.2344 12.0156C89.2812 12.5625 90.1875 13.3438 90.9531 14.3594V5.26562L87.2969 4.5625V0.4375H90.9531H97.7969V32.1953L101.078 32.8984V37H91.8672L91.3516 33.9062C90.5547 35.0781 89.6016 35.9688 88.4922 36.5781C87.3984 37.1875 86.1016 37.4922 84.6016 37.4922ZM86.6406 32.1719C87.5938 32.1719 88.4297 31.9688 89.1484 31.5625C89.8672 31.1562 90.4688 30.5703 90.9531 29.8047V19.0469C90.4844 18.2344 89.8906 17.6094 89.1719 17.1719C88.4531 16.7188 87.625 16.4922 86.6875 16.4922C85.5469 16.4922 84.6094 16.8359 83.875 17.5234C83.1562 18.1953 82.625 19.1328 82.2812 20.3359C81.9531 21.5391 81.7891 22.9375 81.7891 24.5312V25.0234C81.7891 27.2422 82.1641 28.9922 82.9141 30.2734C83.6641 31.5391 84.9062 32.1719 86.6406 32.1719Z" fill="black"/>
</svg>
