<svg width="116" height="36" viewBox="0 0 116 36" fill="none" xmlns="http://www.w3.org/2000/svg">
<path d="M0.71875 35V30.8984L4.35156 30.1953V5.70312L0.71875 5V0.875H4.35156H14.4766L23.7812 24.6641H23.9219L32.9219 0.875H46.7031V5L43.0469 5.70312V30.1953L46.7031 30.8984V35H32.5703V30.8984L36.3906 30.1953V23.6562L36.5078 8.25781L36.3672 8.23438L26.1719 34.5312H20.9922L10.5625 8.44531L10.4219 8.46875L10.8203 22.9531V30.1953L14.8516 30.8984V35H0.71875ZM61.4453 35.4922C59.0234 35.4922 56.9062 34.9609 55.0938 33.8984C53.2812 32.8203 51.875 31.3438 50.875 29.4688C49.8906 27.5938 49.3984 25.4531 49.3984 23.0469V22.1094C49.3984 19.5938 49.8672 17.3672 50.8047 15.4297C51.7422 13.4766 53.0625 11.9453 54.7656 10.8359C56.4844 9.71094 58.5078 9.15625 60.8359 9.17188C63.1328 9.17188 65.0625 9.625 66.625 10.5312C68.1875 11.4375 69.375 12.7422 70.1875 14.4453C71 16.1484 71.4062 18.2109 71.4062 20.6328V24.3594H56.5L56.4531 24.5C56.5469 25.6094 56.8203 26.6016 57.2734 27.4766C57.7422 28.3359 58.3984 29.0156 59.2422 29.5156C60.0859 30 61.1094 30.2422 62.3125 30.2422C63.5625 30.2422 64.7266 30.0859 65.8047 29.7734C66.8984 29.4453 67.9609 28.9688 68.9922 28.3438L70.8438 32.5625C69.7969 33.4062 68.4766 34.1094 66.8828 34.6719C65.3047 35.2188 63.4922 35.4922 61.4453 35.4922ZM56.5469 19.8359H65.0078V19.2266C65.0078 18.1953 64.8672 17.3125 64.5859 16.5781C64.3203 15.8281 63.8828 15.25 63.2734 14.8438C62.6797 14.4375 61.9062 14.2344 60.9531 14.2344C60.0469 14.2344 59.2812 14.4766 58.6562 14.9609C58.0312 15.4297 57.5391 16.0781 57.1797 16.9062C56.8359 17.7344 56.6016 18.6719 56.4766 19.7188L56.5469 19.8359ZM83.1016 35.4922C80.5859 35.4922 78.5859 34.8203 77.1016 33.4766C75.6172 32.1172 74.875 30.2734 74.875 27.9453C74.875 26.3516 75.3047 24.9531 76.1641 23.75C77.0391 22.5469 78.3203 21.6016 80.0078 20.9141C81.7109 20.2266 83.8047 19.8828 86.2891 19.8828H89.6406V18.0078C89.6406 16.7891 89.2812 15.8047 88.5625 15.0547C87.8594 14.2891 86.7969 13.9062 85.375 13.9062C84.6406 13.9062 83.9844 14 83.4062 14.1875C82.8281 14.3594 82.2969 14.6094 81.8125 14.9375L81.2734 18.2891H76.3516L76.2578 11.7031C77.5859 10.9531 79.0234 10.3438 80.5703 9.875C82.1172 9.40625 83.8438 9.17188 85.75 9.17188C89.0625 9.17188 91.6797 9.94531 93.6016 11.4922C95.5234 13.0234 96.4844 15.2188 96.4844 18.0781V28.5312C96.4844 28.875 96.4844 29.2188 96.4844 29.5625C96.5 29.8906 96.5312 30.2109 96.5781 30.5234L99.2266 30.8984V35H90.7422C90.5703 34.5625 90.3984 34.0938 90.2266 33.5938C90.0547 33.0938 89.9297 32.5938 89.8516 32.0938C89.0391 33.125 88.0781 33.9531 86.9688 34.5781C85.875 35.1875 84.5859 35.4922 83.1016 35.4922ZM84.9297 30.4297C85.8828 30.4297 86.7891 30.2188 87.6484 29.7969C88.5078 29.3594 89.1719 28.7891 89.6406 28.0859V24.0781H86.2656C84.7656 24.0781 83.625 24.4219 82.8438 25.1094C82.0781 25.7969 81.6953 26.625 81.6953 27.5938C81.6953 28.5 81.9766 29.2031 82.5391 29.7031C83.1172 30.1875 83.9141 30.4297 84.9297 30.4297ZM110.781 35.4922C108.422 35.4922 106.602 34.8438 105.32 33.5469C104.055 32.25 103.422 30.1953 103.422 27.3828V14.4453H99.9297V9.64062H103.422V3.42969H110.242V9.64062H114.906V14.4453H110.242V27.3594C110.242 28.3438 110.445 29.0469 110.852 29.4688C111.273 29.8906 111.844 30.1016 112.562 30.1016C112.953 30.1016 113.359 30.0781 113.781 30.0312C114.219 29.9688 114.594 29.9062 114.906 29.8438L115.492 34.7891C114.789 34.9922 114.023 35.1562 113.195 35.2812C112.383 35.4219 111.578 35.4922 110.781 35.4922Z" fill="black"/>
</svg>
