<svg width="109" height="37" viewBox="0 0 109 37" fill="none" xmlns="http://www.w3.org/2000/svg">
<path d="M0.757812 37V32.8984L4.39062 32.1953V7.70312L0.757812 7V2.875H4.39062H14.5156L23.8203 26.6641H23.9609L32.9609 2.875H46.7422V7L43.0859 7.70312V32.1953L46.7422 32.8984V37H32.6094V32.8984L36.4297 32.1953V25.6562L36.5469 10.2578L36.4062 10.2344L26.2109 36.5312H21.0312L10.6016 10.4453L10.4609 10.4688L10.8594 24.9531V32.1953L14.8906 32.8984V37H0.757812ZM49.1328 37V32.8984L52.4375 32.1953V16.4688L48.7812 15.7656V11.6406H59.2812V32.1953L62.5625 32.8984V37H49.1328ZM52.2031 6.27344V0.4375H59.2812V6.27344H52.2031ZM64.4844 37V32.8984L67.7891 32.1953V5.26562L64.1328 4.5625V0.4375H74.6328V32.1953L77.9375 32.8984V37H64.4844ZM79.8125 37V32.8984L83.1172 32.1953V5.26562L79.4609 4.5625V0.4375H89.9375V32.1953L92.8906 32.8984V37H79.8125ZM95.9609 37V33.1094L97.8828 32.6641L97.8359 32.5703L92.8203 25.75L97.1797 21.2734L105.5 32.1719L108.641 32.8984V37H95.9609ZM89.2109 30.0625L85.9297 26.2422L96.9453 16.1641L96.9922 16.0938L94.3906 15.7188V11.6406H107.586V15.7656L104.305 16.5859L89.2109 30.0625Z" fill="black"/>
</svg>
