<svg width="142" height="151" viewBox="0 0 142 151" fill="none" xmlns="http://www.w3.org/2000/svg">
<path d="M63.2416 51.112C63.4336 60.904 58.6656 69.384 48.9376 76.552C48.4896 76.872 48.2656 77.288 48.2656 77.8C48.2656 78.568 48.6176 79.4 49.3216 80.296L48.0736 81.256C45.5136 79.912 44.2336 78.248 44.2336 76.264C44.2336 74.984 44.8736 73.672 46.1536 72.328C48.7776 69.576 51.1456 66.28 53.2576 62.44C56.2656 56.936 57.7696 51.88 57.7696 47.272C57.7696 45.032 57.4176 42.92 56.7136 40.936C56.0096 38.952 54.7296 37.352 52.8736 36.136C51.0176 34.856 49.0016 34.216 46.8256 34.216C44.5856 34.216 42.2816 34.728 39.9136 35.752C37.0336 37.032 35.5936 38.664 35.5936 40.648L35.4016 64.744V67.816C35.4016 70.056 35.9776 71.56 37.1296 72.328C37.8976 72.84 39.5616 73.16 42.1216 73.288V75.4L21.8656 75.208L21.9616 73.096C24.4576 73.032 26.1216 72.744 26.9536 72.232C28.1696 71.528 28.7776 70.024 28.7776 67.72L28.9696 40.552C28.9696 38.696 27.5616 37.032 24.7456 35.56C22.3136 34.344 20.0416 33.736 17.9296 33.736C9.99363 33.672 6.02563 37.672 6.02563 45.736C6.02563 50.792 7.78563 56.616 11.3056 63.208C13.9296 68.136 15.8176 71.08 16.9696 72.04L18.6016 73.672L18.5056 75.304L1.22563 75.112V73.576C2.69763 73.704 4.07363 73.448 5.35363 72.808C6.69763 72.168 7.36963 71.144 7.36963 69.736C7.36963 68.584 7.01763 67.336 6.31363 65.992C2.92163 61.192 1.25763 56.04 1.32163 50.536C1.32163 47.656 1.83363 44.904 2.85763 42.28C4.20163 38.696 6.24963 35.848 9.00163 33.736C13.8656 29.96 18.7296 28.072 23.5936 28.072C25.5776 28.072 27.4016 28.456 29.0656 29.224L32.1376 31.048L35.6896 29.512C37.4816 28.744 39.2736 28.36 41.0656 28.36C46.1856 28.36 50.9536 30.44 55.3696 34.6C60.4896 39.464 63.1136 44.968 63.2416 51.112ZM76.4844 37.768C73.9884 40.008 72.1324 41.128 70.9164 41.128C69.8924 41.128 69.4444 40.232 69.5724 38.44C69.3164 36.904 69.7644 35.944 70.9164 35.56C72.5164 34.984 73.9244 34.44 75.1404 33.928C75.5884 33.8 75.9724 33.736 76.2924 33.736C76.8684 33.736 77.1564 34.248 77.1564 35.272C77.0924 36.552 76.8684 37.384 76.4844 37.768ZM76.1004 67.432C76.1004 71.144 77.6684 73.032 80.8044 73.096L80.7084 75.304L65.4444 75.208V73C68.6444 73 70.2444 71.144 70.2444 67.432V49.192C70.2444 48.808 70.2444 48.616 70.2444 48.616C70.1804 47.912 69.7644 47.72 68.9964 48.04L68.0364 48.424V47.08C68.5484 46.76 69.0604 46.472 69.5724 46.216C71.1724 45.512 72.3564 45.192 73.1244 45.256C75.3004 45.448 76.3244 47.016 76.1964 49.96L76.1004 67.432ZM87.7824 51.88C87.7824 53.416 89.2544 55.08 92.1984 56.872C94.4384 58.024 96.6464 59.176 98.8224 60.328C101.382 62.184 102.662 64.52 102.662 67.336C102.662 69.96 101.702 72.104 99.7824 73.768C97.9264 75.432 95.6544 76.264 92.9664 76.264C89.3824 76.2 86.6624 75.112 84.8064 73C83.3984 71.4 82.7904 70.152 82.9824 69.256C83.1104 68.68 83.6544 68.232 84.6144 67.912C85.0624 67.784 85.7984 67.656 86.8224 67.528L87.5904 68.2C86.5024 68.456 86.1824 69.064 86.6304 70.024C86.8224 70.344 87.0144 70.632 87.2064 70.888C88.8064 72.616 90.7904 73.512 93.1584 73.576C94.5024 73.576 95.6544 73.192 96.6144 72.424C97.6384 71.592 98.1504 70.536 98.1504 69.256C98.1504 67.464 96.7104 65.64 93.8304 63.784C93.6384 63.656 91.3984 62.472 87.1104 60.232C84.4864 58.376 83.2064 56.136 83.2704 53.512C83.2704 51.08 84.0064 49.128 85.4784 47.656C86.9504 46.12 88.9024 45.352 91.3344 45.352C94.3424 45.352 96.7424 46.344 98.5344 48.328C99.8784 49.8 100.486 50.92 100.358 51.688C100.23 52.264 99.6864 52.712 98.7264 53.032C98.2144 53.16 97.4464 53.288 96.4224 53.416L95.7504 52.744L96.5184 52.552C97.0304 52.36 97.0944 51.816 96.7104 50.92C95.8784 48.936 94.2464 47.944 91.8144 47.944C89.1264 47.88 87.7824 49.192 87.7824 51.88ZM119.994 73.288C123.962 73.608 126.842 72.232 128.634 69.16L130.65 69.352C127.706 73.832 123.738 76.072 118.746 76.072C115.674 76.072 112.858 75.048 110.298 73C106.458 69.928 104.538 65.832 104.538 60.712C104.538 57.32 105.53 54.216 107.514 51.4C110.394 47.304 114.202 45.256 118.938 45.256C122.138 45.256 125.018 46.28 127.578 48.328C129.114 49.608 129.882 50.856 129.882 52.072C129.818 53.928 128.826 55.4 126.906 56.488L125.274 54.472C125.85 53.832 126.138 53.128 126.138 52.36C126.138 51.208 125.466 50.088 124.122 49C122.842 47.912 121.594 47.336 120.378 47.272C117.498 47.144 115.13 48.648 113.274 51.784C111.674 54.408 110.874 57.256 110.874 60.328C110.874 63.592 111.578 66.408 112.986 68.776C114.65 71.528 116.986 73.032 119.994 73.288ZM134.585 69.832C137.849 68.744 139.545 68.2 139.673 68.2C140.377 68.2 140.729 68.84 140.729 70.12C140.665 71.592 140.409 72.552 139.961 73C137.529 75.176 135.705 76.264 134.489 76.264C133.273 76.264 132.729 75.208 132.857 73.096C132.665 71.368 133.241 70.28 134.585 69.832Z" fill="black"/>
<path d="M17.9488 127.091C17.9537 127.063 17.9587 127.036 17.9656 127.009L18.0041 126.848C18.0624 126.635 18.1301 126.423 18.2171 126.219C18.2568 126.115 18.3065 126.017 18.3528 125.916C18.377 125.866 18.4036 125.817 18.4289 125.768C18.4545 125.719 18.4795 125.67 18.5079 125.622L18.5909 125.478C18.6183 125.43 18.6494 125.385 18.6784 125.337C18.7083 125.291 18.7363 125.243 18.7682 125.198L18.862 125.061C19.3737 124.339 20.012 123.718 20.7072 123.185C20.7942 123.118 20.8832 123.054 20.971 122.988C21.0603 122.925 21.1505 122.863 21.2402 122.8C21.3314 122.739 21.4234 122.68 21.5151 122.62L21.7945 122.448C22.17 122.224 22.5564 122.02 22.9511 121.834C23.3459 121.648 23.7497 121.483 24.1591 121.335C24.5689 121.188 24.9846 121.059 25.4041 120.946C26.2434 120.721 27.0991 120.565 27.9598 120.468C28.3904 120.42 28.8224 120.386 29.2548 120.368C29.3628 120.362 29.471 120.361 29.5791 120.357C29.6333 120.356 29.6872 120.354 29.7414 120.353L29.8758 120.352C27.8541 120.056 25.6602 120.05 23.8074 120.612C20.3717 121.654 16.9358 122.696 13.5 123.738C15.1312 121.499 18.4614 119.742 22.3391 119.076C26.2167 118.41 30.5672 118.847 33.8864 120.235C34.9273 120.671 36.0417 121.04 37.2052 121.34C36.9101 121.208 36.6301 121.07 36.3708 120.929C34.9268 120.146 33.9118 119.262 32.6136 118.441C31.3153 117.619 29.5515 116.807 27.602 116.533C29.4147 116.333 31.9055 117.084 33.4836 117.952C35.0618 118.82 36.0645 119.811 37.4628 120.724C38.0667 121.118 38.8009 121.511 39.6114 121.847C41.1273 122.099 42.6944 122.237 44.266 122.253C45.5398 122.265 46.7913 121.787 47.3243 121.084C47.8574 120.381 47.6208 119.388 46.7772 118.807L46.7785 118.806C46.5825 118.659 46.4843 118.465 46.5671 118.28C46.7458 117.882 47.6868 117.706 48.2024 117.975C49.8748 118.846 49.8723 120.549 48.5299 121.61C47.1875 122.672 44.8502 123.134 42.6491 123.08C40.4479 123.027 38.3459 122.526 36.3473 121.963C34.6938 121.497 33.0651 120.982 31.3486 120.618L31.1901 120.611L30.8696 120.603C30.7627 120.6 30.6559 120.601 30.5491 120.6C29.6945 120.603 28.8398 120.647 27.9927 120.758C27.5692 120.813 27.1472 120.878 26.728 120.959C26.3087 121.039 25.8922 121.134 25.4802 121.245C25.0678 121.355 24.6595 121.481 24.2572 121.624C23.8543 121.765 23.4579 121.925 23.0685 122.101C22.6788 122.277 22.297 122.471 21.9258 122.684L21.6493 122.848L21.3773 123.018C21.2879 123.077 21.1979 123.136 21.109 123.195C21.0214 123.257 20.9326 123.317 20.8457 123.38C20.4981 123.632 20.1663 123.906 19.852 124.199C19.5385 124.494 19.2425 124.809 18.9803 125.153C18.7165 125.495 18.4799 125.861 18.2932 126.255C18.1961 126.45 18.118 126.654 18.0479 126.861C17.9782 127.069 17.9283 127.283 17.8874 127.5C17.9018 127.391 17.9111 127.28 17.9339 127.172L17.9488 127.091Z" fill="black"/>
<path d="M80.2181 110.184C81.1461 112.008 81.6101 114.056 81.6101 116.328C81.6101 117.736 81.3541 119.08 80.8421 120.36C80.0741 122.28 78.9061 124.312 77.3381 126.456C75.3221 129.272 73.6101 130.68 72.2021 130.68C71.8181 130.68 71.3221 130.024 70.7141 128.712L65.3381 116.136L63.0341 111.048C62.6821 110.248 62.3301 109.784 61.9781 109.656C61.6261 109.528 61.0981 109.624 60.3941 109.944V109.128C61.2581 108.712 62.0261 108.312 62.6981 107.928C63.2101 107.64 63.7861 107.496 64.4261 107.496C65.0341 107.496 65.5141 107.656 65.8661 107.976C66.8261 109.928 67.7541 111.96 68.6501 114.072C70.8261 119.288 72.5061 123.048 73.6901 125.352C73.9461 125.864 74.2981 126.12 74.7461 126.12C75.0981 126.12 75.4661 125.96 75.8501 125.64C78.0581 123.816 79.1621 121.272 79.1621 118.008C79.1621 116.216 78.4421 113.96 77.0021 111.24C76.4581 110.184 75.8821 109.656 75.2741 109.656C74.9221 109.656 74.5061 109.768 74.0261 109.992V109.176C74.8901 108.76 75.6581 108.36 76.3301 107.976C76.8421 107.688 77.3061 107.544 77.7221 107.544C78.2981 107.544 78.8261 107.864 79.3061 108.504C79.4021 108.632 79.7061 109.192 80.2181 110.184Z" fill="black"/>
<path d="M124.051 127.091C124.046 127.063 124.041 127.036 124.034 127.009L123.996 126.848C123.938 126.635 123.87 126.423 123.783 126.219C123.743 126.115 123.694 126.017 123.647 125.916C123.623 125.866 123.596 125.817 123.571 125.768C123.545 125.719 123.521 125.67 123.492 125.622L123.409 125.478C123.382 125.43 123.351 125.385 123.322 125.337C123.292 125.291 123.264 125.243 123.232 125.198L123.138 125.061C122.626 124.339 121.988 123.718 121.293 123.185C121.206 123.118 121.117 123.054 121.029 122.988C120.94 122.925 120.85 122.863 120.76 122.8C120.669 122.739 120.577 122.68 120.485 122.62L120.206 122.448C119.83 122.224 119.444 122.02 119.049 121.834C118.654 121.648 118.25 121.483 117.841 121.335C117.431 121.188 117.015 121.059 116.596 120.946C115.757 120.721 114.901 120.565 114.04 120.468C113.61 120.42 113.178 120.386 112.745 120.368C112.637 120.362 112.529 120.361 112.421 120.357C112.367 120.356 112.313 120.354 112.259 120.353L112.124 120.352C114.146 120.056 116.34 120.05 118.193 120.612C121.628 121.654 125.064 122.696 128.5 123.738C126.869 121.499 123.539 119.742 119.661 119.076C115.783 118.41 111.433 118.847 108.114 120.235C107.073 120.671 105.958 121.04 104.795 121.34C105.09 121.208 105.37 121.07 105.629 120.929C107.073 120.146 108.088 119.262 109.386 118.441C110.685 117.619 112.448 116.807 114.398 116.533C112.585 116.333 110.094 117.084 108.516 117.952C106.938 118.82 105.935 119.811 104.537 120.724C103.933 121.118 103.199 121.511 102.389 121.847C100.873 122.099 99.3056 122.237 97.734 122.253C96.4602 122.265 95.2087 121.787 94.6757 121.084C94.1426 120.381 94.3792 119.388 95.2228 118.807L95.2215 118.806C95.4175 118.659 95.5157 118.465 95.4329 118.28C95.2542 117.882 94.3132 117.706 93.7976 117.975C92.1252 118.846 92.1277 120.549 93.4701 121.61C94.8125 122.672 97.1498 123.134 99.3509 123.08C101.552 123.027 103.654 122.526 105.653 121.963C107.306 121.497 108.935 120.982 110.651 120.618L110.81 120.611L111.13 120.603C111.237 120.6 111.344 120.601 111.451 120.6C112.305 120.603 113.16 120.647 114.007 120.758C114.431 120.813 114.853 120.878 115.272 120.959C115.691 121.039 116.108 121.134 116.52 121.245C116.932 121.355 117.341 121.481 117.743 121.624C118.146 121.765 118.542 121.925 118.932 122.101C119.321 122.277 119.703 122.471 120.074 122.684L120.351 122.848L120.623 123.018C120.712 123.077 120.802 123.136 120.891 123.195C120.979 123.257 121.067 123.317 121.154 123.38C121.502 123.632 121.834 123.906 122.148 124.199C122.461 124.494 122.757 124.809 123.02 125.153C123.284 125.495 123.52 125.861 123.707 126.255C123.804 126.45 123.882 126.654 123.952 126.861C124.022 127.069 124.072 127.283 124.113 127.5C124.098 127.391 124.089 127.28 124.066 127.172L124.051 127.091Z" fill="black"/>
</svg>
