<svg width="153" height="42" viewBox="0 0 153 42" fill="none" xmlns="http://www.w3.org/2000/svg">
<path d="M29.3438 41.5859L19.7109 35.0703C19.1016 35.1953 18.4844 35.2969 17.8594 35.375C17.25 35.4531 16.6406 35.4922 16.0312 35.4922C13.7344 35.4922 11.6328 35.0625 9.72656 34.2031C7.83594 33.3438 6.21094 32.1406 4.85156 30.5938C3.49219 29.0469 2.44531 27.2188 1.71094 25.1094C0.976562 23 0.609375 20.6953 0.609375 18.1953V17.6797C0.609375 15.1953 0.976562 12.8984 1.71094 10.7891C2.44531 8.67969 3.49219 6.85156 4.85156 5.30469C6.21094 3.74219 7.83594 2.53125 9.72656 1.67188C11.6172 0.8125 13.7109 0.382812 16.0078 0.382812C18.3203 0.382812 20.4219 0.8125 22.3125 1.67188C24.2188 2.53125 25.8594 3.74219 27.2344 5.30469C28.625 6.85156 29.6875 8.67969 30.4219 10.7891C31.1719 12.8984 31.5469 15.1953 31.5469 17.6797V18.1953C31.5469 21.1641 31.0078 23.875 29.9297 26.3281C28.8672 28.7812 27.375 30.7812 25.4531 32.3281L32.7188 36.8516L29.3438 41.5859ZM16.0312 30.1719C17.9688 30.1719 19.5781 29.6719 20.8594 28.6719C22.1562 27.6719 23.125 26.2734 23.7656 24.4766C24.4062 22.6797 24.7266 20.5859 24.7266 18.1953V17.6328C24.7266 15.2734 24.3984 13.2031 23.7422 11.4219C23.0859 9.625 22.1094 8.22656 20.8125 7.22656C19.5312 6.22656 17.9297 5.72656 16.0078 5.72656C14.0859 5.72656 12.4922 6.22656 11.2266 7.22656C9.96094 8.21094 9.01562 9.59375 8.39062 11.375C7.76562 13.1562 7.45312 15.2422 7.45312 17.6328V18.1953C7.45312 20.5859 7.76562 22.6797 8.39062 24.4766C9.03125 26.2734 9.99219 27.6719 11.2734 28.6719C12.5547 29.6719 14.1406 30.1719 16.0312 30.1719ZM45.2578 35.4922C42.5859 35.4922 40.4844 34.6484 38.9531 32.9609C37.4375 31.2578 36.6797 28.6172 36.6797 25.0391V14.4688L33.8906 13.7656V9.64062H36.6797H43.5234V25.0859C43.5234 26.8984 43.8359 28.2031 44.4609 29C45.1016 29.7812 46.0625 30.1719 47.3438 30.1719C48.3594 30.1719 49.2578 29.9766 50.0391 29.5859C50.8203 29.1797 51.4609 28.6094 51.9609 27.875V14.4688L48.9375 13.7656V9.64062H51.9609H58.8047V30.1953L61.8516 30.8984V35H52.8047L52.3359 31.7891C51.5391 32.9766 50.5391 33.8906 49.3359 34.5312C48.1328 35.1719 46.7734 35.4922 45.2578 35.4922ZM76.5469 35.4922C74.125 35.4922 72.0078 34.9609 70.1953 33.8984C68.3828 32.8203 66.9766 31.3438 65.9766 29.4688C64.9922 27.5938 64.5 25.4531 64.5 23.0469V22.1094C64.5 19.5938 64.9688 17.3672 65.9062 15.4297C66.8438 13.4766 68.1641 11.9453 69.8672 10.8359C71.5859 9.71094 73.6094 9.15625 75.9375 9.17188C78.2344 9.17188 80.1641 9.625 81.7266 10.5312C83.2891 11.4375 84.4766 12.7422 85.2891 14.4453C86.1016 16.1484 86.5078 18.2109 86.5078 20.6328V24.3594H71.6016L71.5547 24.5C71.6484 25.6094 71.9219 26.6016 72.375 27.4766C72.8438 28.3359 73.5 29.0156 74.3438 29.5156C75.1875 30 76.2109 30.2422 77.4141 30.2422C78.6641 30.2422 79.8281 30.0859 80.9062 29.7734C82 29.4453 83.0625 28.9688 84.0938 28.3438L85.9453 32.5625C84.8984 33.4062 83.5781 34.1094 81.9844 34.6719C80.4062 35.2188 78.5938 35.4922 76.5469 35.4922ZM71.6484 19.8359H80.1094V19.2266C80.1094 18.1953 79.9688 17.3125 79.6875 16.5781C79.4219 15.8281 78.9844 15.25 78.375 14.8438C77.7812 14.4375 77.0078 14.2344 76.0547 14.2344C75.1484 14.2344 74.3828 14.4766 73.7578 14.9609C73.1328 15.4297 72.6406 16.0781 72.2812 16.9062C71.9375 17.7344 71.7031 18.6719 71.5781 19.7188L71.6484 19.8359ZM100.594 35.4922C98.7031 35.4922 96.9375 35.3125 95.2969 34.9531C93.6719 34.5938 92.1094 34.0781 90.6094 33.4062L90.5391 26.2344H95.2969L96.2109 29.8906C96.7422 30.1562 97.3203 30.3672 97.9453 30.5234C98.5859 30.6797 99.3125 30.7578 100.125 30.7578C101.656 30.7578 102.734 30.5078 103.359 30.0078C103.984 29.5078 104.297 28.8828 104.297 28.1328C104.297 27.4297 103.961 26.8125 103.289 26.2812C102.633 25.7344 101.312 25.2578 99.3281 24.8516C96.3281 24.2266 94.1172 23.2578 92.6953 21.9453C91.2734 20.6328 90.5625 18.9531 90.5625 16.9062C90.5625 15.5 90.9141 14.2188 91.6172 13.0625C92.3359 11.9062 93.4219 10.9766 94.875 10.2734C96.3438 9.57031 98.2188 9.21875 100.5 9.21875C102.406 9.21875 104.148 9.40625 105.727 9.78125C107.32 10.1406 108.656 10.6172 109.734 11.2109L109.805 18.1484H105.07L104.344 14.8203C103.922 14.5078 103.422 14.2734 102.844 14.1172C102.281 13.9609 101.641 13.8828 100.922 13.8828C99.7188 13.8828 98.7969 14.125 98.1562 14.6094C97.5156 15.0938 97.1953 15.7188 97.1953 16.4844C97.1953 16.9219 97.3047 17.3281 97.5234 17.7031C97.7578 18.0781 98.2109 18.4297 98.8828 18.7578C99.5547 19.0859 100.531 19.3984 101.812 19.6953C104.953 20.4141 107.242 21.375 108.68 22.5781C110.117 23.7656 110.836 25.4375 110.836 27.5938C110.836 29.9531 109.977 31.8594 108.258 33.3125C106.555 34.7656 104 35.4922 100.594 35.4922ZM123.914 35.4922C121.555 35.4922 119.734 34.8438 118.453 33.5469C117.188 32.25 116.555 30.1953 116.555 27.3828V14.4453H113.062V9.64062H116.555V3.42969H123.375V9.64062H128.039V14.4453H123.375V27.3594C123.375 28.3438 123.578 29.0469 123.984 29.4688C124.406 29.8906 124.977 30.1016 125.695 30.1016C126.086 30.1016 126.492 30.0781 126.914 30.0312C127.352 29.9688 127.727 29.9062 128.039 29.8438L128.625 34.7891C127.922 34.9922 127.156 35.1562 126.328 35.2812C125.516 35.4219 124.711 35.4922 123.914 35.4922ZM142.078 35.4922C140.188 35.4922 138.422 35.3125 136.781 34.9531C135.156 34.5938 133.594 34.0781 132.094 33.4062L132.023 26.2344H136.781L137.695 29.8906C138.227 30.1562 138.805 30.3672 139.43 30.5234C140.07 30.6797 140.797 30.7578 141.609 30.7578C143.141 30.7578 144.219 30.5078 144.844 30.0078C145.469 29.5078 145.781 28.8828 145.781 28.1328C145.781 27.4297 145.445 26.8125 144.773 26.2812C144.117 25.7344 142.797 25.2578 140.812 24.8516C137.812 24.2266 135.602 23.2578 134.18 21.9453C132.758 20.6328 132.047 18.9531 132.047 16.9062C132.047 15.5 132.398 14.2188 133.102 13.0625C133.82 11.9062 134.906 10.9766 136.359 10.2734C137.828 9.57031 139.703 9.21875 141.984 9.21875C143.891 9.21875 145.633 9.40625 147.211 9.78125C148.805 10.1406 150.141 10.6172 151.219 11.2109L151.289 18.1484H146.555L145.828 14.8203C145.406 14.5078 144.906 14.2734 144.328 14.1172C143.766 13.9609 143.125 13.8828 142.406 13.8828C141.203 13.8828 140.281 14.125 139.641 14.6094C139 15.0938 138.68 15.7188 138.68 16.4844C138.68 16.9219 138.789 17.3281 139.008 17.7031C139.242 18.0781 139.695 18.4297 140.367 18.7578C141.039 19.0859 142.016 19.3984 143.297 19.6953C146.438 20.4141 148.727 21.375 150.164 22.5781C151.602 23.7656 152.32 25.4375 152.32 27.5938C152.32 29.9531 151.461 31.8594 149.742 33.3125C148.039 34.7656 145.484 35.4922 142.078 35.4922Z" fill="black"/>
</svg>
