<svg width="266" height="151" viewBox="0 0 266 151" fill="none" xmlns="http://www.w3.org/2000/svg">
<path d="M44.5998 69.256L45.0798 70.984C44.6958 71.368 44.1198 71.88 43.3518 72.52C41.3678 74.12 39.9598 74.952 39.1278 75.016C37.5278 75.08 36.2158 74.312 35.1918 72.712L19.4478 54.664L20.5998 53.704C23.1598 55.176 25.1118 55.912 26.4558 55.912C27.0318 55.912 27.7038 55.816 28.4718 55.624C30.3918 55.112 31.9598 53.64 33.1758 51.208C34.1358 49.224 34.6798 47.048 34.8078 44.68C35.1278 39.432 33.5598 35.752 30.1038 33.64C28.4398 32.616 26.7118 32.104 24.9198 32.104C23.5758 32.104 22.2958 32.36 21.0798 32.872C17.0478 34.6 15.0318 37.704 15.0318 42.184L14.8398 67.528C14.8398 69.96 15.3838 71.496 16.4718 72.136C17.2398 72.584 18.9358 72.872 21.5598 73V75.112L1.30375 75.016V72.904C3.86375 72.84 5.55975 72.552 6.39175 72.04C7.54375 71.336 8.11975 69.832 8.11975 67.528L8.31175 37.288C8.31175 36.712 8.27975 36.2 8.21575 35.752L8.31175 34.024C8.24775 33.576 8.15175 33.16 8.02375 32.776C7.89575 32.392 7.47975 32.36 6.77575 32.68L5.71975 33.16V31.624C6.16775 31.304 6.74375 30.984 7.44775 30.664C9.23975 29.832 10.6158 29.48 11.5758 29.608C13.6238 29.864 14.7758 31.112 15.0318 33.352V33.544C17.5278 30.6 21.1118 29.128 25.7838 29.128C27.0638 29.128 28.4398 29.32 29.9118 29.704C37.3358 31.688 41.0478 36.392 41.0478 43.816C41.0478 50.664 37.7838 55.304 31.2558 57.736C38.1038 65.48 41.5918 69.48 41.7198 69.736C42.2958 70.504 42.9038 70.632 43.5438 70.12L44.5998 69.256ZM62.32 73.48C65.776 73.48 68.784 71.72 71.344 68.2L73.36 69.256C70.416 73.928 66.384 76.232 61.264 76.168C56.976 76.168 53.52 74.728 50.896 71.848C48.272 68.968 46.96 65.352 46.96 61C47.024 56.584 48.336 52.872 50.896 49.864C53.456 46.792 56.912 45.256 61.264 45.256C66.384 45.32 70 47.848 72.112 52.84H66.928C66.096 49.576 64.08 47.912 60.88 47.848C58.512 47.848 56.656 48.84 55.312 50.824C54.16 52.552 53.552 54.664 53.488 57.16H61.264V59.656L53.392 59.56C53.328 68.776 56.304 73.416 62.32 73.48ZM80.3605 51.88C80.3605 53.416 81.8325 55.08 84.7765 56.872C87.0165 58.024 89.2245 59.176 91.4005 60.328C93.9605 62.184 95.2405 64.52 95.2405 67.336C95.2405 69.96 94.2805 72.104 92.3605 73.768C90.5045 75.432 88.2325 76.264 85.5445 76.264C81.9605 76.2 79.2405 75.112 77.3845 73C75.9765 71.4 75.3685 70.152 75.5605 69.256C75.6885 68.68 76.2325 68.232 77.1925 67.912C77.6405 67.784 78.3765 67.656 79.4005 67.528L80.1685 68.2C79.0805 68.456 78.7605 69.064 79.2085 70.024C79.4005 70.344 79.5925 70.632 79.7845 70.888C81.3845 72.616 83.3685 73.512 85.7365 73.576C87.0805 73.576 88.2325 73.192 89.1925 72.424C90.2165 71.592 90.7285 70.536 90.7285 69.256C90.7285 67.464 89.2885 65.64 86.4085 63.784C86.2165 63.656 83.9765 62.472 79.6885 60.232C77.0645 58.376 75.7845 56.136 75.8485 53.512C75.8485 51.08 76.5845 49.128 78.0565 47.656C79.5285 46.12 81.4805 45.352 83.9125 45.352C86.9205 45.352 89.3205 46.344 91.1125 48.328C92.4565 49.8 93.0645 50.92 92.9365 51.688C92.8085 52.264 92.2645 52.712 91.3045 53.032C90.7925 53.16 90.0245 53.288 89.0005 53.416L88.3285 52.744L89.0965 52.552C89.6085 52.36 89.6725 51.816 89.2885 50.92C88.4565 48.936 86.8245 47.944 84.3925 47.944C81.7045 47.88 80.3605 49.192 80.3605 51.88ZM119.388 74.248C116.7 75.592 114.14 76.264 111.708 76.264C106.204 76.264 102.012 73.384 99.1323 67.624C97.7883 64.936 97.1163 62.248 97.1163 59.56C97.1163 53.8 99.9963 49.48 105.756 46.6C108.316 45.32 110.812 44.68 113.244 44.68C118.812 44.68 123.132 47.72 126.204 53.8C127.42 56.232 128.028 58.696 128.028 61.192C128.028 67.016 125.148 71.368 119.388 74.248ZM106.62 48.52C103.612 49.992 102.108 52.36 102.108 55.624C102.108 58.056 103.068 61.192 104.988 65.032C107.804 70.6 111.1 73.384 114.876 73.384C116.028 73.384 117.244 73.064 118.524 72.424C121.468 70.952 122.94 68.52 122.94 65.128C122.94 62.696 122.14 59.912 120.54 56.776C117.404 50.632 114.044 47.56 110.46 47.56C109.244 47.56 107.964 47.88 106.62 48.52ZM155.561 67.912C155.561 71.56 157.129 73.448 160.265 73.576L160.073 75.496H149.993V73.288C147.753 74.824 144.905 75.592 141.449 75.592C138.953 75.592 136.681 74.824 134.633 73.288C132.649 71.688 131.273 69.672 130.505 67.24C130.121 66.024 129.929 64.904 129.929 63.88C129.929 62.344 130.313 60.52 131.081 58.408C132.745 53.864 133.577 51.176 133.577 50.344C133.577 48.232 132.585 46.664 130.601 45.64L131.177 44.488C136.041 44.872 138.473 47.08 138.473 51.112C138.473 52.072 138.345 53 138.089 53.896C137.065 57.48 136.041 60.712 135.017 63.592C134.825 64.168 134.729 64.808 134.729 65.512C134.729 67.688 135.753 69.448 137.801 70.792C139.593 71.944 141.641 72.52 143.945 72.52C147.593 72.52 149.577 71.4 149.897 69.16L149.801 53.416C149.801 49.704 148.233 47.816 145.097 47.752V45.544L155.657 45.64L155.561 67.912ZM185.219 48.808C186.051 49.704 186.467 50.536 186.467 51.304C186.467 52.84 185.219 54.152 182.723 55.24L181.763 53.8C182.531 53.224 182.915 52.488 182.915 51.592C182.915 49.16 181.475 47.912 178.595 47.848C176.739 47.784 175.299 48.584 174.275 50.248C173.315 51.656 172.835 53.32 172.835 55.24L172.739 67.528C172.739 71.24 174.307 73.128 177.443 73.192V75.4L162.179 75.304V73.096C165.315 73.032 166.883 71.176 166.883 67.528L166.979 48.616C166.979 48.424 166.947 48.232 166.883 48.04C166.883 47.336 166.467 47.144 165.635 47.464L164.675 47.848V46.504C165.123 46.248 165.635 45.96 166.211 45.64C167.811 44.936 169.027 44.616 169.859 44.68C171.011 44.808 171.907 45.512 172.547 46.792C174.531 45.832 176.387 45.352 178.115 45.352C180.611 45.352 182.979 46.504 185.219 48.808ZM203.885 73.288C207.853 73.608 210.733 72.232 212.525 69.16L214.541 69.352C211.597 73.832 207.629 76.072 202.637 76.072C199.565 76.072 196.749 75.048 194.189 73C190.349 69.928 188.429 65.832 188.429 60.712C188.429 57.32 189.421 54.216 191.405 51.4C194.285 47.304 198.093 45.256 202.829 45.256C206.029 45.256 208.909 46.28 211.469 48.328C213.005 49.608 213.773 50.856 213.773 52.072C213.709 53.928 212.717 55.4 210.797 56.488L209.165 54.472C209.741 53.832 210.029 53.128 210.029 52.36C210.029 51.208 209.357 50.088 208.013 49C206.733 47.912 205.485 47.336 204.269 47.272C201.389 47.144 199.021 48.648 197.165 51.784C195.565 54.408 194.765 57.256 194.765 60.328C194.765 63.592 195.469 66.408 196.877 68.776C198.541 71.528 200.877 73.032 203.885 73.288ZM231.82 73.48C235.276 73.48 238.284 71.72 240.844 68.2L242.86 69.256C239.916 73.928 235.884 76.232 230.764 76.168C226.476 76.168 223.02 74.728 220.396 71.848C217.772 68.968 216.46 65.352 216.46 61C216.524 56.584 217.836 52.872 220.396 49.864C222.956 46.792 226.412 45.256 230.764 45.256C235.884 45.32 239.5 47.848 241.612 52.84H236.428C235.596 49.576 233.58 47.912 230.38 47.848C228.012 47.848 226.156 48.84 224.812 50.824C223.66 52.552 223.052 54.664 222.988 57.16H230.764V59.656L222.892 59.56C222.828 68.776 225.804 73.416 231.82 73.48ZM249.861 51.88C249.861 53.416 251.333 55.08 254.277 56.872C256.517 58.024 258.725 59.176 260.901 60.328C263.461 62.184 264.741 64.52 264.741 67.336C264.741 69.96 263.781 72.104 261.861 73.768C260.005 75.432 257.733 76.264 255.045 76.264C251.461 76.2 248.741 75.112 246.885 73C245.477 71.4 244.869 70.152 245.061 69.256C245.189 68.68 245.733 68.232 246.693 67.912C247.141 67.784 247.877 67.656 248.901 67.528L249.669 68.2C248.581 68.456 248.261 69.064 248.709 70.024C248.901 70.344 249.093 70.632 249.285 70.888C250.885 72.616 252.869 73.512 255.237 73.576C256.581 73.576 257.733 73.192 258.693 72.424C259.717 71.592 260.229 70.536 260.229 69.256C260.229 67.464 258.789 65.64 255.909 63.784C255.717 63.656 253.477 62.472 249.189 60.232C246.565 58.376 245.285 56.136 245.349 53.512C245.349 51.08 246.085 49.128 247.557 47.656C249.029 46.12 250.981 45.352 253.413 45.352C256.421 45.352 258.821 46.344 260.613 48.328C261.957 49.8 262.565 50.92 262.437 51.688C262.309 52.264 261.765 52.712 260.805 53.032C260.293 53.16 259.525 53.288 258.501 53.416L257.829 52.744L258.597 52.552C259.109 52.36 259.173 51.816 258.789 50.92C257.957 48.936 256.325 47.944 253.893 47.944C251.205 47.88 249.861 49.192 249.861 51.88Z" fill="black"/>
<path d="M85.4488 127.091C85.4537 127.063 85.4587 127.036 85.4656 127.009L85.5041 126.848C85.5624 126.635 85.6301 126.423 85.7171 126.219C85.7568 126.115 85.8065 126.017 85.8528 125.916C85.877 125.866 85.9036 125.817 85.9289 125.768C85.9545 125.719 85.9795 125.67 86.0079 125.622L86.0909 125.478C86.1183 125.43 86.1494 125.385 86.1784 125.337C86.2083 125.291 86.2363 125.243 86.2682 125.198L86.362 125.061C86.8737 124.339 87.512 123.718 88.2072 123.185C88.2942 123.118 88.3832 123.054 88.471 122.988C88.5603 122.925 88.6505 122.863 88.7402 122.8C88.8314 122.739 88.9234 122.68 89.0151 122.62L89.2945 122.448C89.67 122.224 90.0564 122.02 90.4511 121.834C90.8459 121.648 91.2497 121.483 91.6591 121.335C92.0689 121.188 92.4846 121.059 92.9041 120.946C93.7434 120.721 94.5991 120.565 95.4598 120.468C95.8904 120.42 96.3224 120.386 96.7548 120.368C96.8628 120.362 96.971 120.361 97.0791 120.357C97.1333 120.356 97.1872 120.354 97.2414 120.353L97.3758 120.352C95.3541 120.056 93.1602 120.05 91.3074 120.612C87.8717 121.654 84.4358 122.696 81 123.738C82.6312 121.499 85.9614 119.742 89.8391 119.076C93.7167 118.41 98.0672 118.847 101.386 120.235C102.427 120.671 103.542 121.04 104.705 121.34C104.41 121.208 104.13 121.07 103.871 120.929C102.427 120.146 101.412 119.262 100.114 118.441C98.8153 117.619 97.0515 116.807 95.102 116.533C96.9147 116.333 99.4055 117.084 100.984 117.952C102.562 118.82 103.565 119.811 104.963 120.724C105.567 121.118 106.301 121.511 107.111 121.847C108.627 122.099 110.194 122.237 111.766 122.253C113.04 122.265 114.291 121.787 114.824 121.084C115.357 120.381 115.121 119.388 114.277 118.807L114.278 118.806C114.083 118.659 113.984 118.465 114.067 118.28C114.246 117.882 115.187 117.706 115.702 117.975C117.375 118.846 117.372 120.549 116.03 121.61C114.688 122.672 112.35 123.134 110.149 123.08C107.948 123.027 105.846 122.526 103.847 121.963C102.194 121.497 100.565 120.982 98.8486 120.618L98.6901 120.611L98.3696 120.603C98.2627 120.6 98.1559 120.601 98.0491 120.6C97.1945 120.603 96.3398 120.647 95.4927 120.758C95.0692 120.813 94.6472 120.878 94.228 120.959C93.8087 121.039 93.3922 121.134 92.9802 121.245C92.5678 121.355 92.1595 121.481 91.7572 121.624C91.3543 121.765 90.9579 121.925 90.5685 122.101C90.1788 122.277 89.797 122.471 89.4258 122.684L89.1493 122.848L88.8773 123.018C88.7879 123.077 88.6979 123.136 88.609 123.195C88.5214 123.257 88.4326 123.317 88.3457 123.38C87.9981 123.632 87.6663 123.906 87.352 124.199C87.0385 124.494 86.7425 124.809 86.4803 125.153C86.2165 125.495 85.9799 125.861 85.7932 126.255C85.6961 126.45 85.618 126.654 85.5479 126.861C85.4782 127.069 85.4283 127.283 85.3874 127.5C85.4018 127.391 85.4111 127.28 85.4339 127.172L85.4488 127.091Z" fill="black"/>
<path d="M134.645 126.36C134.613 127.512 134.901 128.264 135.509 128.616C135.893 128.84 136.741 129 138.053 129.096V130.104L127.925 130.056V129C129.205 128.968 130.053 128.824 130.469 128.568C131.045 128.216 131.333 127.464 131.333 126.312L131.429 111.192C131.429 110.904 131.413 110.648 131.381 110.424V109.56C131.381 109.336 131.381 109.224 131.381 109.224C131.349 108.776 131.109 108.664 130.661 108.888L130.133 109.128V108.36C130.357 108.2 130.645 108.04 130.997 107.88C131.893 107.464 132.581 107.288 133.061 107.352C134.277 107.48 134.853 108.36 134.789 109.992L134.693 124.824L134.645 126.36Z" fill="black"/>
<path d="M180.551 127.091C180.546 127.063 180.541 127.036 180.534 127.009L180.496 126.848C180.438 126.635 180.37 126.423 180.283 126.219C180.243 126.115 180.194 126.017 180.147 125.916C180.123 125.866 180.096 125.817 180.071 125.768C180.045 125.719 180.021 125.67 179.992 125.622L179.909 125.478C179.882 125.43 179.851 125.385 179.822 125.337C179.792 125.291 179.764 125.243 179.732 125.198L179.638 125.061C179.126 124.339 178.488 123.718 177.793 123.185C177.706 123.118 177.617 123.054 177.529 122.988C177.44 122.925 177.35 122.863 177.26 122.8C177.169 122.739 177.077 122.68 176.985 122.62L176.706 122.448C176.33 122.224 175.944 122.02 175.549 121.834C175.154 121.648 174.75 121.483 174.341 121.335C173.931 121.188 173.515 121.059 173.096 120.946C172.257 120.721 171.401 120.565 170.54 120.468C170.11 120.42 169.678 120.386 169.245 120.368C169.137 120.362 169.029 120.361 168.921 120.357C168.867 120.356 168.813 120.354 168.759 120.353L168.624 120.352C170.646 120.056 172.84 120.05 174.693 120.612C178.128 121.654 181.564 122.696 185 123.738C183.369 121.499 180.039 119.742 176.161 119.076C172.283 118.41 167.933 118.847 164.614 120.235C163.573 120.671 162.458 121.04 161.295 121.34C161.59 121.208 161.87 121.07 162.129 120.929C163.573 120.146 164.588 119.262 165.886 118.441C167.185 117.619 168.948 116.807 170.898 116.533C169.085 116.333 166.594 117.084 165.016 117.952C163.438 118.82 162.435 119.811 161.037 120.724C160.433 121.118 159.699 121.511 158.889 121.847C157.373 122.099 155.806 122.237 154.234 122.253C152.96 122.265 151.709 121.787 151.176 121.084C150.643 120.381 150.879 119.388 151.723 118.807L151.722 118.806C151.917 118.659 152.016 118.465 151.933 118.28C151.754 117.882 150.813 117.706 150.298 117.975C148.625 118.846 148.628 120.549 149.97 121.61C151.312 122.672 153.65 123.134 155.851 123.08C158.052 123.027 160.154 122.526 162.153 121.963C163.806 121.497 165.435 120.982 167.151 120.618L167.31 120.611L167.63 120.603C167.737 120.6 167.844 120.601 167.951 120.6C168.805 120.603 169.66 120.647 170.507 120.758C170.931 120.813 171.353 120.878 171.772 120.959C172.191 121.039 172.608 121.134 173.02 121.245C173.432 121.355 173.841 121.481 174.243 121.624C174.646 121.765 175.042 121.925 175.432 122.101C175.821 122.277 176.203 122.471 176.574 122.684L176.851 122.848L177.123 123.018C177.212 123.077 177.302 123.136 177.391 123.195C177.479 123.257 177.567 123.317 177.654 123.38C178.002 123.632 178.334 123.906 178.648 124.199C178.961 124.494 179.257 124.809 179.52 125.153C179.784 125.495 180.02 125.861 180.207 126.255C180.304 126.45 180.382 126.654 180.452 126.861C180.522 127.069 180.572 127.283 180.613 127.5C180.598 127.391 180.589 127.28 180.566 127.172L180.551 127.091Z" fill="black"/>
</svg>
