<svg width="159" height="156" viewBox="0 0 159 156" fill="none" xmlns="http://www.w3.org/2000/svg">
<g clip-path="url(#clip0_18_18)">
<path d="M10.3556 20.4081C11.2774 21.4179 12.1373 22.4838 12.9259 23.6009C13.1234 23.8799 13.3124 24.1653 13.506 24.4466C13.6935 24.7324 13.8764 25.0213 14.0617 25.3085L14.5977 26.1827L15.111 27.0704C15.7804 28.263 16.3886 29.4904 16.9397 30.7421C17.4914 31.9935 17.9936 33.267 18.4372 34.5613C18.8848 35.8538 19.2788 37.1657 19.6239 38.4908C19.9733 39.8145 20.2712 41.1526 20.5218 42.4999C20.7772 43.8466 20.9813 45.2024 21.1523 46.5632C21.5002 49.2848 21.6404 52.0307 21.6492 54.7763C21.646 55.1195 21.648 55.4628 21.6405 55.806L21.6148 56.8358L21.5923 57.345C20.4514 62.86 18.8352 68.0928 17.374 73.4053C15.6078 79.8266 14.0357 86.5798 13.8675 93.6519C13.6994 100.724 15.1489 108.233 18.479 112.546C21.809 116.859 27.151 116.867 29.8847 111.494C30.7276 109.837 30.1769 106.814 28.9276 106.24C28.3484 105.974 27.7401 106.29 27.2767 106.919L27.2734 106.915C25.4533 109.625 22.336 110.386 20.1301 108.673C17.9242 106.96 16.4238 102.939 16.4634 98.8468C16.5123 93.7975 16.9467 88.7628 17.7376 83.8922C18.7922 81.2882 20.0247 78.9293 21.2608 76.9892C24.1231 72.4967 27.2334 69.275 29.9566 64.2045C32.6798 59.1345 35.038 51.1317 34.4108 45.3078C33.5487 51.5713 31.0006 57.2383 28.4237 61.4092C25.8468 65.5802 23.0748 68.8413 20.6161 73.4808C20.1747 74.3138 19.7417 75.2133 19.3281 76.1617C20.2675 72.4235 21.4277 68.8431 22.7939 65.4988C27.1501 54.8346 28.52 40.8569 26.4299 28.3987C24.3397 15.9404 18.8295 5.24097 11.8049 -7.11228e-06C15.0737 11.0386 18.3425 22.0777 21.6113 33.1164C23.374 39.0692 23.3547 46.1178 22.4278 52.6132L22.4249 52.1813C22.4227 52.0077 22.4157 51.834 22.4114 51.6599C22.3998 51.3126 22.3956 50.9648 22.3762 50.618C22.3195 49.2287 22.2148 47.8408 22.0637 46.4574C21.7577 43.6919 21.2702 40.9428 20.564 38.2461C20.2098 36.8984 19.8049 35.563 19.3436 34.2461C18.8782 32.931 18.3614 31.6335 17.7788 30.365C17.1953 29.0974 16.5539 27.8555 15.8503 26.6489L15.3111 25.7513C15.123 25.4569 14.9375 25.1611 14.7473 24.868C14.5499 24.58 14.3551 24.2901 14.1556 24.0038C13.9499 23.7212 13.749 23.4354 13.5394 23.1559C11.8658 20.9223 9.91731 18.8714 7.65166 17.2275L7.22292 16.9259C7.0814 16.8237 6.93081 16.7341 6.78526 16.6373C6.63757 16.5442 6.49428 16.4442 6.34311 16.3565L5.89186 16.0897C5.74317 15.9983 5.58765 15.9183 5.43381 15.836C5.27924 15.7546 5.12707 15.6691 4.97086 15.5913C4.65475 15.4425 4.34442 15.2829 4.01915 15.1554C3.37989 14.8759 2.71533 14.6583 2.04617 14.4711L1.53953 14.3472C1.45567 14.325 1.37009 14.3092 1.28461 14.2934L1.02863 14.2455C0.689353 14.1722 0.342438 14.1423 0 14.0962C0.680044 14.2274 1.35195 14.3879 2.0038 14.6118C2.65401 14.837 3.29499 15.088 3.90704 15.4C5.14183 15.9997 6.2907 16.7599 7.36372 17.6074C8.44214 18.4499 9.43221 19.4005 10.3556 20.4081Z" fill="#100F0D"/>
<path d="M144.239 154.718C144.223 154.632 144.208 154.547 144.185 154.463L144.061 153.958C143.874 153.29 143.656 152.626 143.376 151.988C143.248 151.663 143.088 151.354 142.939 151.038C142.861 150.882 142.776 150.73 142.694 150.576C142.612 150.422 142.531 150.267 142.44 150.119L142.173 149.668C142.085 149.517 141.985 149.374 141.891 149.227C141.795 149.081 141.705 148.931 141.602 148.79L141.3 148.362C139.653 146.1 137.599 144.155 135.361 142.484C135.081 142.275 134.795 142.074 134.512 141.869C134.225 141.67 133.935 141.476 133.646 141.278C133.353 141.088 133.056 140.903 132.761 140.716L131.862 140.178C130.654 139.475 129.41 138.835 128.14 138.252C126.869 137.67 125.569 137.155 124.252 136.69C122.933 136.23 121.595 135.825 120.245 135.472C117.544 134.767 114.79 134.28 112.019 133.975C110.634 133.824 109.243 133.719 107.852 133.663C107.504 133.643 107.156 133.639 106.808 133.627C106.633 133.623 106.46 133.617 106.286 133.614L105.853 133.611C112.36 132.686 119.42 132.667 125.384 134.426C136.441 137.689 147.5 140.953 158.557 144.216C153.307 137.203 142.589 131.703 130.109 129.616C117.63 127.529 103.628 128.897 92.945 133.246C89.5949 134.61 86.0083 135.768 82.2637 136.705C83.2137 136.293 84.1147 135.861 84.9492 135.42C89.5967 132.965 92.8635 130.198 97.0417 127.626C101.22 125.053 106.897 122.51 113.171 121.649C107.337 121.023 99.3204 123.377 94.2415 126.095C89.1623 128.814 85.935 131.919 81.4346 134.776C79.4912 136.01 77.1282 137.241 74.5197 138.293C69.6407 139.083 64.5972 139.516 59.5392 139.565C55.4394 139.605 51.4116 138.107 49.696 135.905C47.9804 133.703 48.7419 130.591 51.4569 128.774L51.4528 128.771C52.0834 128.308 52.3996 127.701 52.1332 127.123C51.5579 125.876 48.5295 125.326 46.87 126.167C41.4875 128.896 41.4956 134.229 45.8159 137.553C50.1363 140.878 57.6587 142.324 64.7431 142.157C71.8274 141.989 78.5924 140.42 85.0248 138.656C90.3465 137.198 95.5884 135.584 101.113 134.445L101.623 134.423L102.655 134.397C102.998 134.389 103.342 134.392 103.686 134.389C106.436 134.397 109.187 134.537 111.913 134.885C113.277 135.055 114.635 135.259 115.984 135.514C117.333 135.764 118.674 136.061 120 136.41C121.327 136.755 122.641 137.148 123.936 137.595C125.233 138.038 126.508 138.539 127.762 139.09C129.016 139.64 130.245 140.247 131.44 140.915L132.329 141.428L133.205 141.963C133.493 142.148 133.782 142.33 134.068 142.517C134.35 142.711 134.636 142.9 134.916 143.097C136.035 143.884 137.102 144.742 138.114 145.662C139.123 146.584 140.075 147.573 140.919 148.649C141.768 149.72 142.53 150.867 143.131 152.1C143.443 152.711 143.695 153.351 143.92 154C144.145 154.651 144.305 155.321 144.437 156C144.391 155.659 144.361 155.312 144.287 154.973L144.239 154.718Z" fill="#100F0D"/>
<path d="M22.165 124.171C27.1118 123.339 31.6937 120.518 34.6575 116.477L31.9888 118.489C25.5665 121.663 17.1867 120.29 12.1165 115.235C13.7398 117.046 15.3631 118.856 16.9864 120.668C13.999 121.383 10.8672 121.493 7.83716 120.986C11.9631 123.835 17.2181 125.003 22.165 124.171Z" fill="#100F0D"/>
<path d="M39.5339 124.535L41.5559 121.876C37.5006 124.824 34.6616 129.39 33.8153 134.327C32.9691 139.263 34.1253 144.512 36.9678 148.638C36.4689 145.612 36.5865 142.486 37.3114 139.506C39.121 141.131 40.9308 142.756 42.7405 144.382C37.6896 139.307 36.3375 130.938 39.5339 124.535Z" fill="#100F0D"/>
<path d="M37.0314 120.566L37.9564 119.06C30.6095 125.241 20.4783 127.987 11.0089 126.363C14.2731 127.435 17.5373 128.508 20.8016 129.581C17.0567 132.994 14.5336 137.717 13.7801 142.722C19.1569 141.983 24.2463 139.311 27.904 135.308C27.3274 139.748 28.956 144.42 32.1692 147.544C30.0147 138.276 31.3725 128.221 37.0314 120.566Z" fill="#100F0D"/>
</g>
<defs>
<clipPath id="clip0_18_18">
<rect width="159" height="156" fill="white"/>
</clipPath>
</defs>
</svg>
