<svg width="234" height="151" viewBox="0 0 234 151" fill="none" xmlns="http://www.w3.org/2000/svg">
<path d="M40.8 37.192C44.704 41.544 46.656 46.824 46.656 53.032C46.592 59.752 44.448 65.16 40.224 69.256C36.064 73.288 30.624 75.272 23.904 75.208L0.96 75.016V72.904C3.584 72.776 5.28 72.488 6.048 72.04C7.2 71.336 7.776 69.832 7.776 67.528L7.872 51.784V49.288C8.768 45.576 9.632 43.08 10.464 41.8C12.128 39.24 14.272 37.512 16.896 36.616L18.624 38.056C16.704 39.4 15.488 41.16 14.976 43.336C14.784 44.232 14.688 46.472 14.688 50.056L14.592 65.224C14.592 68.424 15.072 70.504 16.032 71.464C17.056 72.36 19.232 72.808 22.56 72.808C28.128 72.872 32.288 70.856 35.04 66.76C37.408 63.304 38.592 58.664 38.592 52.84C38.656 45.992 37.056 40.808 33.792 37.288H33.696C32.736 36.328 31.584 35.624 30.24 35.176C29.152 34.792 28.096 34.44 27.072 34.12C26.496 33.992 24.544 33.704 21.216 33.256C18.72 32.872 16.768 32.456 15.36 32.008C14.784 31.944 13.952 31.592 12.864 30.952C11.84 30.312 11.2 29.768 10.944 29.32C10.368 28.296 10.08 27.336 10.08 26.44C10.08 25.608 10.336 24.84 10.848 24.136C11.68 23.176 13.024 22.248 14.88 21.352C16.096 20.776 16.8 20.456 16.992 20.392L18.336 21.544C17.248 22.248 16.704 22.632 16.704 22.696C16.32 23.144 16.384 23.784 16.896 24.616C18.944 26.92 20.544 28.456 21.696 29.224C23.04 29.992 24.384 30.472 25.728 30.664C32.384 31.56 37.408 33.736 40.8 37.192ZM71.625 48.808C72.457 49.704 72.873 50.536 72.873 51.304C72.873 52.84 71.625 54.152 69.129 55.24L68.169 53.8C68.937 53.224 69.321 52.488 69.321 51.592C69.321 49.16 67.881 47.912 65.001 47.848C63.145 47.784 61.705 48.584 60.681 50.248C59.721 51.656 59.241 53.32 59.241 55.24L59.145 67.528C59.145 71.24 60.713 73.128 63.849 73.192V75.4L48.585 75.304V73.096C51.721 73.032 53.289 71.176 53.289 67.528L53.385 48.616C53.385 48.424 53.353 48.232 53.289 48.04C53.289 47.336 52.873 47.144 52.041 47.464L51.081 47.848V46.504C51.529 46.248 52.041 45.96 52.617 45.64C54.217 44.936 55.433 44.616 56.265 44.68C57.417 44.808 58.313 45.512 58.953 46.792C60.937 45.832 62.793 45.352 64.521 45.352C67.017 45.352 69.385 46.504 71.625 48.808ZM108.531 70.504H110.643C109.619 74.344 107.475 76.232 104.211 76.168C101.523 76.168 99.731 75.016 98.835 72.712C97.171 74.44 94.099 75.304 89.619 75.304C85.267 75.304 81.715 73.832 78.963 70.888C76.211 67.88 74.867 64.168 74.931 59.752C74.931 55.336 76.275 51.784 78.963 49.096C81.715 46.408 85.267 45.064 89.619 45.064C93.651 45.064 96.627 46.216 98.547 48.52C98.739 48.008 98.867 47.688 98.931 47.56C99.443 46.024 100.339 45.16 101.619 44.968C102.451 44.776 103.763 45.128 105.555 46.024C106.323 46.408 106.899 46.728 107.283 46.984V48.52L106.227 48.04C105.907 47.912 105.523 47.912 105.075 48.04C104.627 48.232 104.403 48.488 104.403 48.808C104.403 49.512 104.403 49.864 104.403 49.864L104.307 69.736C104.307 71.72 104.915 72.744 106.131 72.808C106.963 72.872 107.475 72.808 107.667 72.616C107.859 72.424 108.083 71.88 108.339 70.984C108.467 70.792 108.531 70.632 108.531 70.504ZM90.771 72.424C95.763 72.488 98.259 71.176 98.259 68.488L98.355 53.32C98.163 51.656 97.075 50.248 95.091 49.096C93.427 48.136 91.667 47.656 89.811 47.656C86.931 47.592 84.691 48.904 83.091 51.592C81.683 53.832 80.979 56.488 80.979 59.56C80.979 62.76 81.811 65.608 83.475 68.104C85.331 70.984 87.763 72.424 90.771 72.424ZM142.667 47.368C143.563 47.88 144.107 48.2 144.299 48.328V49.768L143.339 49.288C143.019 49.224 142.635 49.288 142.187 49.48C141.739 49.608 141.515 49.832 141.515 50.152C141.515 50.792 141.515 51.112 141.515 51.112L141.323 79.432C141.323 82.824 141.259 84.936 141.131 85.768C140.811 88.264 139.819 89.992 138.155 90.952C135.595 92.488 133.675 93.64 132.395 94.408C129.259 96.136 126.379 97 123.755 97C122.603 97 120.907 96.008 118.667 94.024C116.427 91.976 115.467 90.408 115.787 89.32C116.171 87.912 117.963 86.248 121.163 84.328L121.931 85.48C120.523 86.056 119.979 86.856 120.299 87.88C120.555 89.16 121.419 90.312 122.891 91.336C124.427 92.296 125.867 92.776 127.211 92.776C128.747 92.776 130.699 91.848 133.067 89.992C134.667 88.2 135.467 85.992 135.467 83.368V74.152C133.867 75.496 131.019 76.168 126.923 76.168C122.571 76.104 119.083 74.632 116.459 71.752C113.835 68.872 112.523 65.224 112.523 60.808C112.523 56.52 113.835 53.064 116.459 50.44C119.147 47.752 122.635 46.408 126.923 46.408C130.891 46.408 133.835 47.528 135.755 49.768L136.043 48.808C136.491 47.4 137.419 46.568 138.827 46.312C139.531 46.184 140.811 46.536 142.667 47.368ZM135.467 69.544L135.562 54.568C135.371 52.904 134.315 51.496 132.395 50.344C130.731 49.384 128.971 48.904 127.115 48.904C124.363 48.904 122.155 50.248 120.491 52.936C119.147 55.176 118.475 57.768 118.475 60.712C118.475 63.848 119.275 66.632 120.875 69.064C122.731 71.944 125.131 73.384 128.075 73.384C133.003 73.448 135.467 72.168 135.467 69.544ZM168.451 74.248C165.763 75.592 163.203 76.264 160.771 76.264C155.267 76.264 151.075 73.384 148.195 67.624C146.851 64.936 146.179 62.248 146.179 59.56C146.179 53.8 149.059 49.48 154.819 46.6C157.379 45.32 159.875 44.68 162.307 44.68C167.875 44.68 172.195 47.72 175.267 53.8C176.483 56.232 177.091 58.696 177.091 61.192C177.091 67.016 174.211 71.368 168.451 74.248ZM155.683 48.52C152.675 49.992 151.171 52.36 151.171 55.624C151.171 58.056 152.131 61.192 154.051 65.032C156.867 70.6 160.163 73.384 163.939 73.384C165.091 73.384 166.307 73.064 167.587 72.424C170.531 70.952 172.003 68.52 172.003 65.128C172.003 62.696 171.203 59.912 169.603 56.776C166.467 50.632 163.107 47.56 159.523 47.56C158.307 47.56 157.027 47.88 155.683 48.52ZM207.887 67.624C207.439 69.16 207.215 70.504 207.215 71.656C207.215 74.536 208.463 76.2 210.959 76.648L210.767 78.376C204.495 77.224 201.359 74.216 201.359 69.352C201.359 67.752 201.679 66.152 202.319 64.552C204.303 59.496 205.295 56.616 205.295 55.912C205.295 53.736 204.303 51.944 202.319 50.536C200.399 49.064 198.319 48.328 196.079 48.328C194.031 48.328 191.919 49.16 189.743 50.824L189.551 67.432C189.487 71.144 191.055 73.032 194.255 73.096V75.304L178.991 75.208V73C182.127 72.936 183.695 71.08 183.695 67.432L183.791 48.52C183.791 48.136 183.791 47.944 183.791 47.944C183.727 47.176 183.311 46.984 182.543 47.368L181.487 47.752L181.583 46.312C182.607 45.8 183.119 45.544 183.119 45.544C184.719 44.84 185.903 44.52 186.671 44.584C188.719 44.776 189.743 46.024 189.743 48.328C192.751 45.96 195.983 44.776 199.439 44.776C204.943 44.84 208.623 47.72 210.479 53.416C210.927 54.824 211.151 56.104 211.151 57.256C211.151 58.6 210.767 60.264 209.999 62.248C208.847 65.192 208.143 66.984 207.887 67.624ZM218.204 51.88C218.204 53.416 219.676 55.08 222.62 56.872C224.86 58.024 227.068 59.176 229.244 60.328C231.804 62.184 233.084 64.52 233.084 67.336C233.084 69.96 232.124 72.104 230.204 73.768C228.348 75.432 226.076 76.264 223.388 76.264C219.804 76.2 217.084 75.112 215.228 73C213.82 71.4 213.212 70.152 213.404 69.256C213.532 68.68 214.076 68.232 215.036 67.912C215.484 67.784 216.22 67.656 217.244 67.528L218.012 68.2C216.924 68.456 216.604 69.064 217.052 70.024C217.244 70.344 217.436 70.632 217.628 70.888C219.228 72.616 221.212 73.512 223.58 73.576C224.924 73.576 226.076 73.192 227.036 72.424C228.06 71.592 228.572 70.536 228.572 69.256C228.572 67.464 227.132 65.64 224.252 63.784C224.06 63.656 221.82 62.472 217.532 60.232C214.908 58.376 213.628 56.136 213.692 53.512C213.692 51.08 214.428 49.128 215.9 47.656C217.372 46.12 219.324 45.352 221.756 45.352C224.764 45.352 227.164 46.344 228.956 48.328C230.3 49.8 230.908 50.92 230.78 51.688C230.652 52.264 230.108 52.712 229.148 53.032C228.636 53.16 227.868 53.288 226.844 53.416L226.172 52.744L226.94 52.552C227.452 52.36 227.516 51.816 227.132 50.92C226.3 48.936 224.668 47.944 222.236 47.944C219.548 47.88 218.204 49.192 218.204 51.88Z" fill="black"/>
<path d="M58.4488 127.091C58.4537 127.063 58.4587 127.036 58.4656 127.009L58.5041 126.848C58.5624 126.635 58.6301 126.423 58.7171 126.219C58.7568 126.115 58.8065 126.017 58.8528 125.916C58.877 125.866 58.9036 125.817 58.9289 125.768C58.9545 125.719 58.9795 125.67 59.0079 125.622L59.0909 125.478C59.1183 125.43 59.1494 125.385 59.1784 125.337C59.2083 125.291 59.2363 125.243 59.2682 125.198L59.362 125.061C59.8737 124.339 60.512 123.718 61.2072 123.185C61.2942 123.118 61.3832 123.054 61.471 122.988C61.5603 122.925 61.6505 122.863 61.7402 122.8C61.8314 122.739 61.9234 122.68 62.0151 122.62L62.2945 122.448C62.67 122.224 63.0564 122.02 63.4511 121.834C63.8459 121.648 64.2497 121.483 64.6591 121.335C65.0689 121.188 65.4846 121.059 65.9041 120.946C66.7434 120.721 67.5991 120.565 68.4598 120.468C68.8904 120.42 69.3224 120.386 69.7548 120.368C69.8628 120.362 69.971 120.361 70.0791 120.357C70.1333 120.356 70.1872 120.354 70.2414 120.353L70.3758 120.352C68.3541 120.056 66.1602 120.05 64.3074 120.612C60.8717 121.654 57.4358 122.696 54 123.738C55.6312 121.499 58.9614 119.742 62.8391 119.076C66.7167 118.41 71.0672 118.847 74.3864 120.235C75.4273 120.671 76.5417 121.04 77.7052 121.34C77.4101 121.208 77.1301 121.07 76.8708 120.929C75.4268 120.146 74.4118 119.262 73.1136 118.441C71.8153 117.619 70.0515 116.807 68.102 116.533C69.9147 116.333 72.4055 117.084 73.9836 117.952C75.5618 118.82 76.5645 119.811 77.9628 120.724C78.5667 121.118 79.3009 121.511 80.1114 121.847C81.6273 122.099 83.1944 122.237 84.766 122.253C86.0398 122.265 87.2913 121.787 87.8243 121.084C88.3574 120.381 88.1208 119.388 87.2772 118.807L87.2785 118.806C87.0825 118.659 86.9843 118.465 87.0671 118.28C87.2458 117.882 88.1868 117.706 88.7024 117.975C90.3748 118.846 90.3723 120.549 89.0299 121.61C87.6875 122.672 85.3502 123.134 83.1491 123.08C80.9479 123.027 78.8459 122.526 76.8473 121.963C75.1938 121.497 73.5651 120.982 71.8486 120.618L71.6901 120.611L71.3696 120.603C71.2627 120.6 71.1559 120.601 71.0491 120.6C70.1945 120.603 69.3398 120.647 68.4927 120.758C68.0692 120.813 67.6472 120.878 67.228 120.959C66.8087 121.039 66.3922 121.134 65.9802 121.245C65.5678 121.355 65.1595 121.481 64.7572 121.624C64.3543 121.765 63.9579 121.925 63.5685 122.101C63.1788 122.277 62.797 122.471 62.4258 122.684L62.1493 122.848L61.8773 123.018C61.7879 123.077 61.6979 123.136 61.609 123.195C61.5214 123.257 61.4326 123.317 61.3457 123.38C60.9981 123.632 60.6663 123.906 60.352 124.199C60.0385 124.494 59.7425 124.809 59.4803 125.153C59.2165 125.495 58.9799 125.861 58.7932 126.255C58.6961 126.45 58.618 126.654 58.5479 126.861C58.4782 127.069 58.4283 127.283 58.3874 127.5C58.4018 127.391 58.4111 127.28 58.4339 127.172L58.4488 127.091Z" fill="black"/>
<path d="M107.536 126.36C107.504 127.512 107.792 128.264 108.4 128.616C108.784 128.84 109.632 129 110.944 129.096V130.104L100.816 130.056V129C102.096 128.968 102.944 128.824 103.36 128.568C103.936 128.216 104.224 127.464 104.224 126.312L104.32 111.192C104.32 110.904 104.304 110.648 104.272 110.424V109.56C104.272 109.336 104.272 109.224 104.272 109.224C104.24 108.776 104 108.664 103.552 108.888L103.024 109.128V108.36C103.248 108.2 103.536 108.04 103.888 107.88C104.784 107.464 105.472 107.288 105.952 107.352C107.168 107.48 107.744 108.36 107.68 109.992L107.584 124.824L107.536 126.36ZM118.645 126.36C118.613 127.512 118.901 128.264 119.509 128.616C119.893 128.84 120.741 129 122.053 129.096V130.104L111.925 130.056V129C113.205 128.968 114.053 128.824 114.469 128.568C115.045 128.216 115.333 127.464 115.333 126.312L115.429 111.192C115.429 110.904 115.413 110.648 115.381 110.424V109.56C115.381 109.336 115.381 109.224 115.381 109.224C115.349 108.776 115.109 108.664 114.661 108.888L114.133 109.128V108.36C114.357 108.2 114.645 108.04 114.997 107.88C115.893 107.464 116.581 107.288 117.061 107.352C118.277 107.48 118.853 108.36 118.789 109.992L118.693 124.824L118.645 126.36ZM129.755 126.36C129.723 127.512 130.011 128.264 130.619 128.616C131.003 128.84 131.851 129 133.163 129.096V130.104L123.035 130.056V129C124.315 128.968 125.163 128.824 125.579 128.568C126.155 128.216 126.443 127.464 126.443 126.312L126.539 111.192C126.539 110.904 126.523 110.648 126.491 110.424V109.56C126.491 109.336 126.491 109.224 126.491 109.224C126.459 108.776 126.219 108.664 125.771 108.888L125.243 109.128V108.36C125.467 108.2 125.755 108.04 126.107 107.88C127.003 107.464 127.691 107.288 128.171 107.352C129.387 107.48 129.963 108.36 129.899 109.992L129.803 124.824L129.755 126.36Z" fill="black"/>
<path d="M175.551 127.091C175.546 127.063 175.541 127.036 175.534 127.009L175.496 126.848C175.438 126.635 175.37 126.423 175.283 126.219C175.243 126.115 175.194 126.017 175.147 125.916C175.123 125.866 175.096 125.817 175.071 125.768C175.045 125.719 175.021 125.67 174.992 125.622L174.909 125.478C174.882 125.43 174.851 125.385 174.822 125.337C174.792 125.291 174.764 125.243 174.732 125.198L174.638 125.061C174.126 124.339 173.488 123.718 172.793 123.185C172.706 123.118 172.617 123.054 172.529 122.988C172.44 122.925 172.35 122.863 172.26 122.8C172.169 122.739 172.077 122.68 171.985 122.62L171.706 122.448C171.33 122.224 170.944 122.02 170.549 121.834C170.154 121.648 169.75 121.483 169.341 121.335C168.931 121.188 168.515 121.059 168.096 120.946C167.257 120.721 166.401 120.565 165.54 120.468C165.11 120.42 164.678 120.386 164.245 120.368C164.137 120.362 164.029 120.361 163.921 120.357C163.867 120.356 163.813 120.354 163.759 120.353L163.624 120.352C165.646 120.056 167.84 120.05 169.693 120.612C173.128 121.654 176.564 122.696 180 123.738C178.369 121.499 175.039 119.742 171.161 119.076C167.283 118.41 162.933 118.847 159.614 120.235C158.573 120.671 157.458 121.04 156.295 121.34C156.59 121.208 156.87 121.07 157.129 120.929C158.573 120.146 159.588 119.262 160.886 118.441C162.185 117.619 163.948 116.807 165.898 116.533C164.085 116.333 161.594 117.084 160.016 117.952C158.438 118.82 157.435 119.811 156.037 120.724C155.433 121.118 154.699 121.511 153.889 121.847C152.373 122.099 150.806 122.237 149.234 122.253C147.96 122.265 146.709 121.787 146.176 121.084C145.643 120.381 145.879 119.388 146.723 118.807L146.722 118.806C146.917 118.659 147.016 118.465 146.933 118.28C146.754 117.882 145.813 117.706 145.298 117.975C143.625 118.846 143.628 120.549 144.97 121.61C146.312 122.672 148.65 123.134 150.851 123.08C153.052 123.027 155.154 122.526 157.153 121.963C158.806 121.497 160.435 120.982 162.151 120.618L162.31 120.611L162.63 120.603C162.737 120.6 162.844 120.601 162.951 120.6C163.805 120.603 164.66 120.647 165.507 120.758C165.931 120.813 166.353 120.878 166.772 120.959C167.191 121.039 167.608 121.134 168.02 121.245C168.432 121.355 168.841 121.481 169.243 121.624C169.646 121.765 170.042 121.925 170.432 122.101C170.821 122.277 171.203 122.471 171.574 122.684L171.851 122.848L172.123 123.018C172.212 123.077 172.302 123.136 172.391 123.195C172.479 123.257 172.567 123.317 172.654 123.38C173.002 123.632 173.334 123.906 173.648 124.199C173.961 124.494 174.257 124.809 174.52 125.153C174.784 125.495 175.02 125.861 175.207 126.255C175.304 126.45 175.382 126.654 175.452 126.861C175.522 127.069 175.572 127.283 175.613 127.5C175.598 127.391 175.589 127.28 175.566 127.172L175.551 127.091Z" fill="black"/>
</svg>
