<svg width="137" height="151" viewBox="0 0 137 151" fill="none" xmlns="http://www.w3.org/2000/svg">
<path d="M30.463 29.896L29.791 33.256C28.767 33.896 27.775 34.728 26.815 35.752C22.911 39.976 20.927 45.48 20.863 52.264C20.799 58.216 22.175 63.144 24.991 67.048C28.127 71.528 32.575 73.768 38.335 73.768C44.095 73.832 48.383 71.624 51.199 67.144C53.503 63.496 54.687 58.6 54.751 52.456C54.751 47.336 53.887 42.984 52.159 39.4C50.047 34.92 46.751 32.2 42.271 31.24C40.799 30.92 39.359 31.112 37.951 31.816C36.607 32.456 35.711 33.48 35.263 34.888C34.815 36.232 34.687 37.224 34.879 37.864L35.263 39.208L33.439 38.92C33.311 38.664 33.055 37.928 32.671 36.712C32.031 34.728 31.839 33.128 32.095 31.912C32.415 30.056 33.503 29.032 35.359 28.84C44.639 27.752 51.935 30.568 57.247 37.288C60.767 41.768 62.527 46.856 62.527 52.552C62.463 59.4 60.127 65.064 55.519 69.544C50.911 74.024 45.183 76.232 38.335 76.168C31.359 76.104 25.599 73.864 21.055 69.448C16.575 64.968 14.367 59.24 14.431 52.264C14.431 46.952 15.839 42.28 18.655 38.248C21.535 34.216 25.471 31.432 30.463 29.896ZM93.5793 56.296C94.1553 57.96 94.4433 59.56 94.4433 61.096C94.4433 64.296 93.4833 67.208 91.5633 69.832C88.4913 74.12 84.3953 76.264 79.2753 76.264C73.7073 76.264 69.3553 73.8 66.2193 68.872C65.0673 67.016 64.4913 64.808 64.4913 62.248C64.4913 61.032 64.6513 59.688 64.9713 58.216C67.6593 45.672 69.4513 37.384 70.3473 33.352C70.9233 30.984 71.2433 29.672 71.3073 29.416C71.3713 29.096 71.2113 28.808 70.8273 28.552C70.4433 28.232 70.0913 28.104 69.7713 28.168C69.1313 28.296 68.7793 28.36 68.7153 28.36L69.0033 26.92C69.8353 26.664 70.4753 26.504 70.9233 26.44C72.9713 25.992 74.3153 25.928 74.9553 26.248C76.8113 27.144 77.5793 28.264 77.2593 29.608L76.0113 34.792C73.1953 47.4 71.4673 55.592 70.8273 59.368C70.6353 60.456 70.5393 61.544 70.5393 62.632C70.5393 65.704 71.5633 68.456 73.6113 70.888C75.7233 73.256 78.2833 74.44 81.2913 74.44C83.8513 74.44 85.8673 73.288 87.3393 70.984C88.5553 69 89.1633 66.664 89.1633 63.976C89.1633 61.992 88.8433 60.04 88.2032 58.12C87.3073 55.432 85.9313 53.096 84.0753 51.112C81.8993 48.808 79.5313 47.656 76.9713 47.656C76.2673 47.656 75.5953 47.784 74.9553 48.04H74.8593L75.1473 46.504H75.0513C76.3953 46.12 77.8033 45.928 79.2753 45.928C82.5393 45.928 85.4513 46.888 88.0113 48.808C90.6353 50.664 92.4913 53.16 93.5793 56.296ZM112.206 50.632L112.014 75.4C111.95 80.264 111.918 82.792 111.918 82.984C111.47 85.992 110.254 88.008 108.27 89.032C102.83 91.848 98.8623 93.672 96.3663 94.504V92.2C99.2463 90.6 101.326 89 102.606 87.4C104.206 85.416 105.006 82.984 105.006 80.104L105.294 53.224C105.294 52.712 105.262 52.168 105.198 51.592V49.768C105.198 49.32 105.198 49.096 105.198 49.096C105.134 48.2 104.622 47.976 103.662 48.424C103.15 48.68 102.766 48.84 102.51 48.904V47.272C102.958 47.016 103.598 46.696 104.43 46.312C106.414 45.48 107.79 45.096 108.558 45.16C109.838 45.288 110.862 46.024 111.63 47.368C112.078 48.136 112.27 49.224 112.206 50.632ZM111.822 37.48C109.326 39.72 107.47 40.84 106.254 40.84C105.23 40.84 104.75 39.944 104.814 38.152C104.622 36.616 105.07 35.656 106.158 35.272C107.694 34.76 109.134 34.216 110.478 33.64C110.926 33.512 111.31 33.448 111.63 33.448C112.206 33.448 112.494 33.96 112.494 34.984C112.494 36.264 112.27 37.096 111.822 37.48ZM116.476 69.832C119.74 68.744 121.436 68.2 121.564 68.2C122.268 68.2 122.62 68.84 122.62 70.12C122.556 71.592 122.3 72.552 121.852 73C119.42 75.176 117.596 76.264 116.38 76.264C115.164 76.264 114.62 75.208 114.748 73.096C114.556 71.368 115.132 70.28 116.476 69.832Z" fill="black"/>
<path d="M4.4488 127.091C4.45373 127.063 4.45866 127.036 4.46556 127.009L4.50412 126.848C4.5624 126.635 4.6301 126.423 4.71709 126.219C4.75678 126.115 4.80647 126.017 4.85278 125.916C4.87699 125.866 4.90359 125.817 4.92893 125.768C4.95455 125.719 4.97946 125.67 5.0079 125.622L5.09094 125.478C5.11825 125.43 5.14936 125.385 5.17835 125.337C5.20834 125.291 5.23635 125.243 5.26816 125.198L5.36205 125.061C5.8737 124.339 6.51204 123.718 7.20724 123.185C7.29423 123.118 7.38319 123.054 7.47102 122.988C7.56027 122.925 7.65049 122.863 7.74016 122.8C7.83137 122.739 7.92342 122.68 8.01505 122.62L8.29446 122.448C8.67 122.224 9.05639 122.02 9.45107 121.834C9.8459 121.648 10.2497 121.483 10.6591 121.335C11.0689 121.188 11.4846 121.059 11.9041 120.946C12.7434 120.721 13.5991 120.565 14.4598 120.468C14.8904 120.42 15.3224 120.386 15.7548 120.368C15.8628 120.362 15.971 120.361 16.0791 120.357C16.1333 120.356 16.1872 120.354 16.2414 120.353L16.3758 120.352C14.3541 120.056 12.1602 120.05 10.3074 120.612C6.87168 121.654 3.43577 122.696 -9.53674e-07 123.738C1.63125 121.499 4.96145 119.742 8.83905 119.076C12.7167 118.41 17.0672 118.847 20.3864 120.235C21.4273 120.671 22.5417 121.04 23.7052 121.34C23.4101 121.208 23.1301 121.07 22.8708 120.929C21.4268 120.146 20.4118 119.262 19.1136 118.441C17.8153 117.619 16.0515 116.807 14.102 116.533C15.9147 116.333 18.4055 117.084 19.9836 117.952C21.5618 118.82 22.5645 119.811 23.9628 120.724C24.5667 121.118 25.3009 121.511 26.1114 121.847C27.6273 122.099 29.1944 122.237 30.766 122.253C32.0398 122.265 33.2913 121.787 33.8243 121.084C34.3574 120.381 34.1208 119.388 33.2772 118.807L33.2785 118.806C33.0825 118.659 32.9843 118.465 33.0671 118.28C33.2458 117.882 34.1868 117.706 34.7024 117.975C36.3748 118.846 36.3723 120.549 35.0299 121.61C33.6875 122.672 31.3502 123.134 29.1491 123.08C26.9479 123.027 24.8459 122.526 22.8473 121.963C21.1938 121.497 19.5651 120.982 17.8486 120.618L17.6901 120.611L17.3696 120.603C17.2627 120.6 17.1559 120.601 17.0491 120.6C16.1945 120.603 15.3398 120.647 14.4927 120.758C14.0692 120.813 13.6472 120.878 13.228 120.959C12.8087 121.039 12.3922 121.134 11.9802 121.245C11.5678 121.355 11.1595 121.481 10.7572 121.624C10.3543 121.765 9.95794 121.925 9.56847 122.101C9.17885 122.277 8.79697 122.471 8.42579 122.684L8.14934 122.848L7.87725 123.018C7.78787 123.077 7.69793 123.136 7.60897 123.195C7.52141 123.257 7.4326 123.317 7.34575 123.38C6.99808 123.632 6.66631 123.906 6.352 124.199C6.03853 124.494 5.74251 124.809 5.48028 125.153C5.2165 125.495 4.97989 125.861 4.79324 126.255C4.69612 126.45 4.618 126.654 4.5479 126.861C4.47822 127.069 4.42825 127.283 4.38743 127.5C4.40179 127.391 4.41108 127.28 4.43389 127.172L4.4488 127.091Z" fill="black"/>
<path d="M66.6087 110.184C67.5367 112.008 68.0007 114.056 68.0007 116.328C68.0007 117.736 67.7447 119.08 67.2327 120.36C66.4647 122.28 65.2967 124.312 63.7287 126.456C61.7127 129.272 60.0007 130.68 58.5927 130.68C58.2087 130.68 57.7127 130.024 57.1047 128.712L51.7287 116.136L49.4247 111.048C49.0727 110.248 48.7207 109.784 48.3687 109.656C48.0167 109.528 47.4887 109.624 46.7847 109.944V109.128C47.6487 108.712 48.4167 108.312 49.0887 107.928C49.6007 107.64 50.1767 107.496 50.8167 107.496C51.4247 107.496 51.9047 107.656 52.2567 107.976C53.2167 109.928 54.1447 111.96 55.0407 114.072C57.2167 119.288 58.8967 123.048 60.0807 125.352C60.3367 125.864 60.6887 126.12 61.1367 126.12C61.4887 126.12 61.8567 125.96 62.2407 125.64C64.4487 123.816 65.5527 121.272 65.5527 118.008C65.5527 116.216 64.8327 113.96 63.3927 111.24C62.8487 110.184 62.2727 109.656 61.6647 109.656C61.3127 109.656 60.8967 109.768 60.4167 109.992V109.176C61.2807 108.76 62.0487 108.36 62.7207 107.976C63.2327 107.688 63.6967 107.544 64.1127 107.544C64.6887 107.544 65.2167 107.864 65.6967 108.504C65.7927 108.632 66.0967 109.192 66.6087 110.184ZM75.6766 126.36C75.6446 127.512 75.9326 128.264 76.5406 128.616C76.9246 128.84 77.7726 129 79.0846 129.096V130.104L68.9566 130.056V129C70.2366 128.968 71.0846 128.824 71.5006 128.568C72.0766 128.216 72.3646 127.464 72.3646 126.312L72.4606 111.192C72.4606 110.904 72.4446 110.648 72.4126 110.424V109.56C72.4126 109.336 72.4126 109.224 72.4126 109.224C72.3806 108.776 72.1406 108.664 71.6926 108.888L71.1646 109.128V108.36C71.3886 108.2 71.6766 108.04 72.0286 107.88C72.9246 107.464 73.6126 107.288 74.0926 107.352C75.3086 107.48 75.8846 108.36 75.8206 109.992L75.7246 124.824L75.6766 126.36ZM86.7859 126.36C86.7539 127.512 87.0419 128.264 87.6499 128.616C88.0339 128.84 88.8819 129 90.1939 129.096V130.104L80.0659 130.056V129C81.3459 128.968 82.1939 128.824 82.6099 128.568C83.1859 128.216 83.4739 127.464 83.4739 126.312L83.5699 111.192C83.5699 110.904 83.5539 110.648 83.5219 110.424V109.56C83.5219 109.336 83.5219 109.224 83.5219 109.224C83.4899 108.776 83.2499 108.664 82.8019 108.888L82.2739 109.128V108.36C82.4979 108.2 82.7859 108.04 83.1379 107.88C84.0339 107.464 84.7219 107.288 85.2019 107.352C86.4179 107.48 86.9939 108.36 86.9299 109.992L86.8339 124.824L86.7859 126.36Z" fill="black"/>
<path d="M132.551 127.091C132.546 127.063 132.541 127.036 132.534 127.009L132.496 126.848C132.438 126.635 132.37 126.423 132.283 126.219C132.243 126.115 132.194 126.017 132.147 125.916C132.123 125.866 132.096 125.817 132.071 125.768C132.045 125.719 132.021 125.67 131.992 125.622L131.909 125.478C131.882 125.43 131.851 125.385 131.822 125.337C131.792 125.291 131.764 125.243 131.732 125.198L131.638 125.061C131.126 124.339 130.488 123.718 129.793 123.185C129.706 123.118 129.617 123.054 129.529 122.988C129.44 122.925 129.35 122.863 129.26 122.8C129.169 122.739 129.077 122.68 128.985 122.62L128.706 122.448C128.33 122.224 127.944 122.02 127.549 121.834C127.154 121.648 126.75 121.483 126.341 121.335C125.931 121.188 125.515 121.059 125.096 120.946C124.257 120.721 123.401 120.565 122.54 120.468C122.11 120.42 121.678 120.386 121.245 120.368C121.137 120.362 121.029 120.361 120.921 120.357C120.867 120.356 120.813 120.354 120.759 120.353L120.624 120.352C122.646 120.056 124.84 120.05 126.693 120.612C130.128 121.654 133.564 122.696 137 123.738C135.369 121.499 132.039 119.742 128.161 119.076C124.283 118.41 119.933 118.847 116.614 120.235C115.573 120.671 114.458 121.04 113.295 121.34C113.59 121.208 113.87 121.07 114.129 120.929C115.573 120.146 116.588 119.262 117.886 118.441C119.185 117.619 120.948 116.807 122.898 116.533C121.085 116.333 118.594 117.084 117.016 117.952C115.438 118.82 114.435 119.811 113.037 120.724C112.433 121.118 111.699 121.511 110.889 121.847C109.373 122.099 107.806 122.237 106.234 122.253C104.96 122.265 103.709 121.787 103.176 121.084C102.643 120.381 102.879 119.388 103.723 118.807L103.722 118.806C103.917 118.659 104.016 118.465 103.933 118.28C103.754 117.882 102.813 117.706 102.298 117.975C100.625 118.846 100.628 120.549 101.97 121.61C103.312 122.672 105.65 123.134 107.851 123.08C110.052 123.027 112.154 122.526 114.153 121.963C115.806 121.497 117.435 120.982 119.151 120.618L119.31 120.611L119.63 120.603C119.737 120.6 119.844 120.601 119.951 120.6C120.805 120.603 121.66 120.647 122.507 120.758C122.931 120.813 123.353 120.878 123.772 120.959C124.191 121.039 124.608 121.134 125.02 121.245C125.432 121.355 125.841 121.481 126.243 121.624C126.646 121.765 127.042 121.925 127.432 122.101C127.821 122.277 128.203 122.471 128.574 122.684L128.851 122.848L129.123 123.018C129.212 123.077 129.302 123.136 129.391 123.195C129.479 123.257 129.567 123.317 129.654 123.38C130.002 123.632 130.334 123.906 130.648 124.199C130.961 124.494 131.257 124.809 131.52 125.153C131.784 125.495 132.02 125.861 132.207 126.255C132.304 126.45 132.382 126.654 132.452 126.861C132.522 127.069 132.572 127.283 132.613 127.5C132.598 127.391 132.589 127.28 132.566 127.172L132.551 127.091Z" fill="black"/>
</svg>
